<?xml version="1.0" encoding="utf-8"?>
<!-- Generator: Adobe Illustrator 16.0.0, SVG Export Plug-In . SVG Version: 6.00 Build 0)  -->
<!DOCTYPE svg PUBLIC "-//W3C//DTD SVG 1.1//EN" "http://www.w3.org/Graphics/SVG/1.1/DTD/svg11.dtd">
<svg version="1.1" id="Layer_1" xmlns="http://www.w3.org/2000/svg" xmlns:xlink="http://www.w3.org/1999/xlink" x="0px" y="0px"
	 width="384.563px" height="34.583px" viewBox="0 0 384.563 34.583" enable-background="new 0 0 384.563 34.583"
	 xml:space="preserve">
<g>
	<g>
		<linearGradient id="SVGID_1_" gradientUnits="userSpaceOnUse" x1="0.2402" y1="17.29" x2="783.9268" y2="17.29">
			<stop  offset="0" style="stop-color:#7FACBF"/>
			<stop  offset="0.1194" style="stop-color:#88B5C5"/>
			<stop  offset="0.3172" style="stop-color:#A2CCD5"/>
			<stop  offset="0.3786" style="stop-color:#ABD5DB"/>
			<stop  offset="0.7551" style="stop-color:#A6D1D4"/>
			<stop  offset="0.9949" style="stop-color:#77B3B8"/>
		</linearGradient>
		<path fill="url(#SVGID_1_)" d="M26.64,24.634H7.152L2.88,34.09H0.24l15.456-33.6h2.448L33.6,34.09h-2.64L26.64,24.634z
			 M25.728,22.57L16.896,3.178L8.112,22.57H25.728z"/>
		<linearGradient id="SVGID_2_" gradientUnits="userSpaceOnUse" x1="0.2402" y1="17.29" x2="783.9268" y2="17.29">
			<stop  offset="0" style="stop-color:#7FACBF"/>
			<stop  offset="0.1194" style="stop-color:#88B5C5"/>
			<stop  offset="0.3172" style="stop-color:#A2CCD5"/>
			<stop  offset="0.3786" style="stop-color:#ABD5DB"/>
			<stop  offset="0.7551" style="stop-color:#A6D1D4"/>
			<stop  offset="0.9949" style="stop-color:#77B3B8"/>
		</linearGradient>
		<path fill="url(#SVGID_2_)" d="M45,32.122c-2.64-1.472-4.721-3.505-6.24-6.097c-1.52-2.592-2.28-5.503-2.28-8.735
			c0-3.232,0.76-6.144,2.28-8.736c1.52-2.592,3.6-4.624,6.24-6.096c2.64-1.472,5.607-2.208,8.904-2.208
			c2.432,0,4.672,0.392,6.72,1.176c2.047,0.785,3.792,1.944,5.232,3.48L64.319,6.49C61.631,3.834,58.191,2.506,54,2.506
			c-2.816,0-5.376,0.641-7.68,1.92c-2.304,1.28-4.112,3.048-5.424,5.304c-1.313,2.256-1.968,4.776-1.968,7.56
			s0.656,5.304,1.968,7.56c1.312,2.256,3.12,4.025,5.424,5.305s4.864,1.92,7.68,1.92c4.159,0,7.6-1.344,10.32-4.032l1.536,1.584
			c-1.44,1.536-3.192,2.704-5.256,3.504c-2.064,0.8-4.296,1.2-6.696,1.2C50.607,34.33,47.639,33.594,45,32.122z"/>
		<linearGradient id="SVGID_3_" gradientUnits="userSpaceOnUse" x1="0.2402" y1="17.29" x2="783.9268" y2="17.29">
			<stop  offset="0" style="stop-color:#7FACBF"/>
			<stop  offset="0.1194" style="stop-color:#88B5C5"/>
			<stop  offset="0.3172" style="stop-color:#A2CCD5"/>
			<stop  offset="0.3786" style="stop-color:#ABD5DB"/>
			<stop  offset="0.7551" style="stop-color:#A6D1D4"/>
			<stop  offset="0.9949" style="stop-color:#77B3B8"/>
		</linearGradient>
		<path fill="url(#SVGID_3_)" d="M101.423,0.49v33.6h-2.448V18.106H76.511V34.09h-2.448V0.49h2.448v15.456h22.464V0.49H101.423z"/>
		<linearGradient id="SVGID_4_" gradientUnits="userSpaceOnUse" x1="0.2402" y1="17.29" x2="783.9268" y2="17.29">
			<stop  offset="0" style="stop-color:#7FACBF"/>
			<stop  offset="0.1194" style="stop-color:#88B5C5"/>
			<stop  offset="0.3172" style="stop-color:#A2CCD5"/>
			<stop  offset="0.3786" style="stop-color:#ABD5DB"/>
			<stop  offset="0.7551" style="stop-color:#A6D1D4"/>
			<stop  offset="0.9949" style="stop-color:#77B3B8"/>
		</linearGradient>
		<path fill="url(#SVGID_4_)" d="M113.135,0.49h2.447v33.6h-2.447V0.49z"/>
		<linearGradient id="SVGID_5_" gradientUnits="userSpaceOnUse" x1="0.2402" y1="17.29" x2="783.9268" y2="17.29">
			<stop  offset="0" style="stop-color:#7FACBF"/>
			<stop  offset="0.1194" style="stop-color:#88B5C5"/>
			<stop  offset="0.3172" style="stop-color:#A2CCD5"/>
			<stop  offset="0.3786" style="stop-color:#ABD5DB"/>
			<stop  offset="0.7551" style="stop-color:#A6D1D4"/>
			<stop  offset="0.9949" style="stop-color:#77B3B8"/>
		</linearGradient>
		<path fill="url(#SVGID_5_)" d="M150.479,31.882v2.208h-23.184V0.49h22.463v2.208h-20.016v13.248h17.904v2.16h-17.904v13.776
			H150.479z"/>
		<linearGradient id="SVGID_6_" gradientUnits="userSpaceOnUse" x1="0.2402" y1="17.29" x2="783.9268" y2="17.29">
			<stop  offset="0" style="stop-color:#7FACBF"/>
			<stop  offset="0.1194" style="stop-color:#88B5C5"/>
			<stop  offset="0.3172" style="stop-color:#A2CCD5"/>
			<stop  offset="0.3786" style="stop-color:#ABD5DB"/>
			<stop  offset="0.7551" style="stop-color:#A6D1D4"/>
			<stop  offset="0.9949" style="stop-color:#77B3B8"/>
		</linearGradient>
		<path fill="url(#SVGID_6_)" d="M186.238,0.49l-14.977,33.6h-2.447l-14.977-33.6h2.688l13.584,30.432L183.693,0.49H186.238z"/>
		<linearGradient id="SVGID_7_" gradientUnits="userSpaceOnUse" x1="0.2402" y1="17.29" x2="783.9268" y2="17.29">
			<stop  offset="0" style="stop-color:#7FACBF"/>
			<stop  offset="0.1194" style="stop-color:#88B5C5"/>
			<stop  offset="0.3172" style="stop-color:#A2CCD5"/>
			<stop  offset="0.3786" style="stop-color:#ABD5DB"/>
			<stop  offset="0.7551" style="stop-color:#A6D1D4"/>
			<stop  offset="0.9949" style="stop-color:#77B3B8"/>
		</linearGradient>
		<path fill="url(#SVGID_7_)" d="M215.566,31.882v2.208h-23.185V0.49h22.464v2.208H194.83v13.248h17.904v2.16H194.83v13.776H215.566
			z"/>
		<linearGradient id="SVGID_8_" gradientUnits="userSpaceOnUse" x1="0.2402" y1="17.29" x2="783.9268" y2="17.29">
			<stop  offset="0" style="stop-color:#7FACBF"/>
			<stop  offset="0.1194" style="stop-color:#88B5C5"/>
			<stop  offset="0.3172" style="stop-color:#A2CCD5"/>
			<stop  offset="0.3786" style="stop-color:#ABD5DB"/>
			<stop  offset="0.7551" style="stop-color:#A6D1D4"/>
			<stop  offset="0.9949" style="stop-color:#77B3B8"/>
		</linearGradient>
		<path fill="url(#SVGID_8_)" d="M281.757,0.49l-11.376,33.6h-2.592L257.373,3.946L246.908,34.09h-2.592l-11.424-33.6h2.592
			l10.225,30.241L256.221,0.49h2.352l10.465,30.288L279.356,0.49H281.757z"/>
		<linearGradient id="SVGID_9_" gradientUnits="userSpaceOnUse" x1="0.2402" y1="17.29" x2="783.9268" y2="17.29">
			<stop  offset="0" style="stop-color:#7FACBF"/>
			<stop  offset="0.1194" style="stop-color:#88B5C5"/>
			<stop  offset="0.3172" style="stop-color:#A2CCD5"/>
			<stop  offset="0.3786" style="stop-color:#ABD5DB"/>
			<stop  offset="0.7551" style="stop-color:#A6D1D4"/>
			<stop  offset="0.9949" style="stop-color:#77B3B8"/>
		</linearGradient>
		<path fill="url(#SVGID_9_)" d="M316.893,0.49v33.6h-2.447V18.106H291.98V34.09h-2.447V0.49h2.447v15.456h22.465V0.49H316.893z"/>
		<linearGradient id="SVGID_10_" gradientUnits="userSpaceOnUse" x1="0.2402" y1="17.29" x2="783.9268" y2="17.29">
			<stop  offset="0" style="stop-color:#7FACBF"/>
			<stop  offset="0.1194" style="stop-color:#88B5C5"/>
			<stop  offset="0.3172" style="stop-color:#A2CCD5"/>
			<stop  offset="0.3786" style="stop-color:#ABD5DB"/>
			<stop  offset="0.7551" style="stop-color:#A6D1D4"/>
			<stop  offset="0.9949" style="stop-color:#77B3B8"/>
		</linearGradient>
		<path fill="url(#SVGID_10_)" d="M349.389,24.634H329.9l-4.272,9.456h-2.64l15.455-33.6h2.449l15.455,33.6h-2.64L349.389,24.634z
			 M348.477,22.57l-8.832-19.393l-8.785,19.393H348.477z"/>
		<linearGradient id="SVGID_11_" gradientUnits="userSpaceOnUse" x1="0.2402" y1="17.29" x2="783.9268" y2="17.29">
			<stop  offset="0" style="stop-color:#7FACBF"/>
			<stop  offset="0.1194" style="stop-color:#88B5C5"/>
			<stop  offset="0.3172" style="stop-color:#A2CCD5"/>
			<stop  offset="0.3786" style="stop-color:#ABD5DB"/>
			<stop  offset="0.7551" style="stop-color:#A6D1D4"/>
			<stop  offset="0.9949" style="stop-color:#77B3B8"/>
		</linearGradient>
		<path fill="url(#SVGID_11_)" d="M368.876,2.698h-12.097V0.49h26.641v2.208h-12.096V34.09h-2.448V2.698z"/>
		<linearGradient id="SVGID_12_" gradientUnits="userSpaceOnUse" x1="0.2402" y1="17.29" x2="783.9268" y2="17.29">
			<stop  offset="0" style="stop-color:#7FACBF"/>
			<stop  offset="0.1194" style="stop-color:#88B5C5"/>
			<stop  offset="0.3172" style="stop-color:#A2CCD5"/>
			<stop  offset="0.3786" style="stop-color:#ABD5DB"/>
			<stop  offset="0.7551" style="stop-color:#A6D1D4"/>
			<stop  offset="0.9949" style="stop-color:#77B3B8"/>
		</linearGradient>
		<path fill="url(#SVGID_12_)" d="M412.17,22.521V34.09h-2.447V22.521L396.187,0.49h2.688l12.143,19.776L423.162,0.49h2.544
			L412.17,22.521z"/>
		<linearGradient id="SVGID_13_" gradientUnits="userSpaceOnUse" x1="0.2402" y1="17.29" x2="783.9268" y2="17.29">
			<stop  offset="0" style="stop-color:#7FACBF"/>
			<stop  offset="0.1194" style="stop-color:#88B5C5"/>
			<stop  offset="0.3172" style="stop-color:#A2CCD5"/>
			<stop  offset="0.3786" style="stop-color:#ABD5DB"/>
			<stop  offset="0.7551" style="stop-color:#A6D1D4"/>
			<stop  offset="0.9949" style="stop-color:#77B3B8"/>
		</linearGradient>
		<path fill="url(#SVGID_13_)" d="M437.131,32.098c-2.657-1.488-4.745-3.527-6.265-6.119c-1.521-2.593-2.28-5.488-2.28-8.688
			c0-3.2,0.76-6.096,2.28-8.688c1.52-2.592,3.607-4.632,6.265-6.12c2.655-1.488,5.631-2.232,8.928-2.232
			c3.295,0,6.271,0.736,8.928,2.208c2.656,1.472,4.744,3.504,6.264,6.096c1.52,2.592,2.28,5.504,2.28,8.736
			c0,3.232-0.761,6.144-2.28,8.735s-3.607,4.625-6.264,6.097s-5.633,2.208-8.928,2.208C442.762,34.33,439.786,33.586,437.131,32.098
			z M453.69,30.154c2.271-1.279,4.063-3.049,5.376-5.305c1.312-2.256,1.968-4.775,1.968-7.56s-0.656-5.304-1.968-7.56
			c-1.313-2.256-3.104-4.024-5.376-5.304c-2.272-1.279-4.816-1.92-7.632-1.92c-2.816,0-5.369,0.641-7.656,1.92
			c-2.288,1.28-4.088,3.048-5.4,5.304c-1.313,2.256-1.968,4.776-1.968,7.56s0.655,5.304,1.968,7.56s3.112,4.025,5.4,5.305
			c2.287,1.279,4.84,1.92,7.656,1.92C448.874,32.074,451.418,31.434,453.69,30.154z"/>
		<linearGradient id="SVGID_14_" gradientUnits="userSpaceOnUse" x1="0.2402" y1="17.29" x2="783.9268" y2="17.29">
			<stop  offset="0" style="stop-color:#7FACBF"/>
			<stop  offset="0.1194" style="stop-color:#88B5C5"/>
			<stop  offset="0.3172" style="stop-color:#A2CCD5"/>
			<stop  offset="0.3786" style="stop-color:#ABD5DB"/>
			<stop  offset="0.7551" style="stop-color:#A6D1D4"/>
			<stop  offset="0.9949" style="stop-color:#77B3B8"/>
		</linearGradient>
		<path fill="url(#SVGID_14_)" d="M475.267,30.634c-2.353-2.464-3.528-6.063-3.528-10.8V0.49h2.448v19.249
			c0,4.127,0.943,7.216,2.832,9.264c1.888,2.049,4.624,3.072,8.208,3.072c3.552,0,6.271-1.023,8.16-3.072
			c1.887-2.048,2.832-5.137,2.832-9.264V0.49h2.447v19.344c0,4.736-1.184,8.336-3.552,10.8s-5.681,3.696-9.937,3.696
			S477.619,33.098,475.267,30.634z"/>
		<linearGradient id="SVGID_15_" gradientUnits="userSpaceOnUse" x1="0.2402" y1="17.29" x2="783.9268" y2="17.29">
			<stop  offset="0" style="stop-color:#7FACBF"/>
			<stop  offset="0.1194" style="stop-color:#88B5C5"/>
			<stop  offset="0.3172" style="stop-color:#A2CCD5"/>
			<stop  offset="0.3786" style="stop-color:#ABD5DB"/>
			<stop  offset="0.7551" style="stop-color:#A6D1D4"/>
			<stop  offset="0.9949" style="stop-color:#77B3B8"/>
		</linearGradient>
		<path fill="url(#SVGID_15_)" d="M547.89,19.594c1.265,1.439,1.896,3.313,1.896,5.616c0,2.849-1.039,5.04-3.119,6.575
			c-2.08,1.537-5.168,2.305-9.264,2.305h-14.977V0.49h14.016c3.648,0,6.488,0.744,8.521,2.232c2.032,1.488,3.048,3.608,3.048,6.36
			c0,1.92-0.504,3.536-1.512,4.848c-1.008,1.313-2.377,2.256-4.104,2.832C544.794,17.21,546.625,18.154,547.89,19.594z
			 M524.874,2.602v13.392h11.472c2.943,0,5.208-0.567,6.792-1.704c1.584-1.136,2.376-2.808,2.376-5.016
			c0-2.176-0.792-3.832-2.376-4.968c-1.584-1.135-3.849-1.704-6.792-1.704H524.874z M544.818,30.273
			c1.68-1.135,2.52-2.887,2.52-5.256c0-2.367-0.84-4.111-2.52-5.232c-1.681-1.119-4.152-1.679-7.416-1.679h-12.528v13.873h12.528
			C540.666,31.979,543.138,31.41,544.818,30.273z"/>
		<linearGradient id="SVGID_16_" gradientUnits="userSpaceOnUse" x1="0.2402" y1="17.29" x2="783.9268" y2="17.29">
			<stop  offset="0" style="stop-color:#7FACBF"/>
			<stop  offset="0.1194" style="stop-color:#88B5C5"/>
			<stop  offset="0.3172" style="stop-color:#A2CCD5"/>
			<stop  offset="0.3786" style="stop-color:#ABD5DB"/>
			<stop  offset="0.7551" style="stop-color:#A6D1D4"/>
			<stop  offset="0.9949" style="stop-color:#77B3B8"/>
		</linearGradient>
		<path fill="url(#SVGID_16_)" d="M581.706,31.882v2.208h-23.185V0.49h22.465v2.208h-20.016v13.248h17.903v2.16h-17.903v13.776
			H581.706z"/>
		<linearGradient id="SVGID_17_" gradientUnits="userSpaceOnUse" x1="0.2402" y1="17.29" x2="783.9268" y2="17.29">
			<stop  offset="0" style="stop-color:#7FACBF"/>
			<stop  offset="0.1194" style="stop-color:#88B5C5"/>
			<stop  offset="0.3172" style="stop-color:#A2CCD5"/>
			<stop  offset="0.3786" style="stop-color:#ABD5DB"/>
			<stop  offset="0.7551" style="stop-color:#A6D1D4"/>
			<stop  offset="0.9949" style="stop-color:#77B3B8"/>
		</linearGradient>
		<path fill="url(#SVGID_17_)" d="M590.633,0.49h2.449v31.392h19.344v2.208h-21.793V0.49z"/>
		<linearGradient id="SVGID_18_" gradientUnits="userSpaceOnUse" x1="0.2402" y1="17.29" x2="783.9268" y2="17.29">
			<stop  offset="0" style="stop-color:#7FACBF"/>
			<stop  offset="0.1194" style="stop-color:#88B5C5"/>
			<stop  offset="0.3172" style="stop-color:#A2CCD5"/>
			<stop  offset="0.3786" style="stop-color:#ABD5DB"/>
			<stop  offset="0.7551" style="stop-color:#A6D1D4"/>
			<stop  offset="0.9949" style="stop-color:#77B3B8"/>
		</linearGradient>
		<path fill="url(#SVGID_18_)" d="M618.713,0.49h2.447v33.6h-2.447V0.49z"/>
		<linearGradient id="SVGID_19_" gradientUnits="userSpaceOnUse" x1="0.2402" y1="17.29" x2="783.9268" y2="17.29">
			<stop  offset="0" style="stop-color:#7FACBF"/>
			<stop  offset="0.1194" style="stop-color:#88B5C5"/>
			<stop  offset="0.3172" style="stop-color:#A2CCD5"/>
			<stop  offset="0.3786" style="stop-color:#ABD5DB"/>
			<stop  offset="0.7551" style="stop-color:#A6D1D4"/>
			<stop  offset="0.9949" style="stop-color:#77B3B8"/>
		</linearGradient>
		<path fill="url(#SVGID_19_)" d="M656.057,31.882v2.208h-23.184V0.49h22.464v2.208H635.32v13.248h17.904v2.16H635.32v13.776
			H656.057z"/>
		<linearGradient id="SVGID_20_" gradientUnits="userSpaceOnUse" x1="0.2402" y1="17.29" x2="783.9268" y2="17.29">
			<stop  offset="0" style="stop-color:#7FACBF"/>
			<stop  offset="0.1194" style="stop-color:#88B5C5"/>
			<stop  offset="0.3172" style="stop-color:#A2CCD5"/>
			<stop  offset="0.3786" style="stop-color:#ABD5DB"/>
			<stop  offset="0.7551" style="stop-color:#A6D1D4"/>
			<stop  offset="0.9949" style="stop-color:#77B3B8"/>
		</linearGradient>
		<path fill="url(#SVGID_20_)" d="M691.816,0.49l-14.977,33.6h-2.448l-14.976-33.6h2.688l13.584,30.432L689.271,0.49H691.816z"/>
		<linearGradient id="SVGID_21_" gradientUnits="userSpaceOnUse" x1="0.2402" y1="17.29" x2="783.9268" y2="17.29">
			<stop  offset="0" style="stop-color:#7FACBF"/>
			<stop  offset="0.1194" style="stop-color:#88B5C5"/>
			<stop  offset="0.3172" style="stop-color:#A2CCD5"/>
			<stop  offset="0.3786" style="stop-color:#ABD5DB"/>
			<stop  offset="0.7551" style="stop-color:#A6D1D4"/>
			<stop  offset="0.9949" style="stop-color:#77B3B8"/>
		</linearGradient>
		<path fill="url(#SVGID_21_)" d="M721.145,31.882v2.208h-23.184V0.49h22.464v2.208h-20.017v13.248h17.904v2.16h-17.904v13.776
			H721.145z"/>
		<linearGradient id="SVGID_22_" gradientUnits="userSpaceOnUse" x1="0.2402" y1="17.29" x2="783.9268" y2="17.29">
			<stop  offset="0" style="stop-color:#7FACBF"/>
			<stop  offset="0.1194" style="stop-color:#88B5C5"/>
			<stop  offset="0.3172" style="stop-color:#A2CCD5"/>
			<stop  offset="0.3786" style="stop-color:#ABD5DB"/>
			<stop  offset="0.7551" style="stop-color:#A6D1D4"/>
			<stop  offset="0.9949" style="stop-color:#77B3B8"/>
		</linearGradient>
		<path fill="url(#SVGID_22_)" d="M742.408,0.49h2.447v33.6h-2.447V0.49z"/>
		<linearGradient id="SVGID_23_" gradientUnits="userSpaceOnUse" x1="0.2402" y1="17.29" x2="783.9268" y2="17.29">
			<stop  offset="0" style="stop-color:#7FACBF"/>
			<stop  offset="0.1194" style="stop-color:#88B5C5"/>
			<stop  offset="0.3172" style="stop-color:#A2CCD5"/>
			<stop  offset="0.3786" style="stop-color:#ABD5DB"/>
			<stop  offset="0.7551" style="stop-color:#A6D1D4"/>
			<stop  offset="0.9949" style="stop-color:#77B3B8"/>
		</linearGradient>
		<path fill="url(#SVGID_23_)" d="M783.927,0.49v33.6h-2.016L759.015,4.906V34.09h-2.447V0.49h2.063l22.848,29.184V0.49H783.927z"/>
	</g>
</g>
</svg>
