<?xml version="1.0" encoding="utf-8"?>
<!-- Generator: Adobe Illustrator 16.0.0, SVG Export Plug-In . SVG Version: 6.00 Build 0)  -->
<!DOCTYPE svg PUBLIC "-//W3C//DTD SVG 1.1//EN" "http://www.w3.org/Graphics/SVG/1.1/DTD/svg11.dtd">
<svg version="1.1" id="Layer_1" xmlns="http://www.w3.org/2000/svg" xmlns:xlink="http://www.w3.org/1999/xlink" x="0px" y="0px"
	 width="167.834px" height="26.667px" viewBox="0 0 167.834 26.667" enable-background="new 0 0 167.834 26.667"
	 xml:space="preserve">
<g>
	<g>
		<linearGradient id="SVGID_1_" gradientUnits="userSpaceOnUse" x1="-328.6631" y1="13.3052" x2="166.6543" y2="13.3052">
			<stop  offset="0.0357" style="stop-color:#D57F87"/>
			<stop  offset="0.1437" style="stop-color:#D78A8D"/>
			<stop  offset="0.3303" style="stop-color:#DDA69E"/>
			<stop  offset="0.3786" style="stop-color:#DFAEA3"/>
			<stop  offset="0.7551" style="stop-color:#E4BBB2"/>
			<stop  offset="1" style="stop-color:#CD787C"/>
		</linearGradient>
		<path fill="url(#SVGID_1_)" d="M-324.757,25.042c-1.668-0.636-2.97-1.458-3.906-2.467l0.828-1.367
			c0.888,0.936,2.082,1.698,3.582,2.286c1.5,0.589,3.078,0.882,4.734,0.882c2.399,0,4.212-0.455,5.436-1.368
			c1.224-0.911,1.836-2.1,1.836-3.563c0-1.129-0.324-2.028-0.972-2.7c-0.648-0.672-1.452-1.188-2.412-1.548
			c-0.96-0.36-2.256-0.732-3.888-1.116c-1.848-0.456-3.33-0.9-4.446-1.332c-1.116-0.432-2.064-1.098-2.844-1.998
			c-0.78-0.9-1.17-2.106-1.17-3.618c0-1.224,0.324-2.346,0.972-3.366s1.638-1.83,2.97-2.43c1.332-0.6,2.994-0.9,4.986-0.9
			c1.392,0,2.759,0.204,4.104,0.612c1.344,0.408,2.508,0.96,3.492,1.656l-0.684,1.476c-1.008-0.696-2.118-1.224-3.33-1.584
			c-1.212-0.36-2.406-0.54-3.582-0.54c-2.329,0-4.092,0.468-5.292,1.404s-1.8,2.148-1.8,3.636c0,1.128,0.324,2.029,0.972,2.7
			c0.648,0.672,1.452,1.188,2.412,1.548c0.959,0.36,2.268,0.744,3.924,1.152c1.848,0.456,3.324,0.9,4.428,1.332
			c1.104,0.432,2.046,1.086,2.826,1.962c0.78,0.877,1.17,2.059,1.17,3.546c0,1.224-0.33,2.34-0.99,3.349
			c-0.661,1.008-1.674,1.812-3.042,2.411c-1.368,0.601-3.048,0.9-5.04,0.9C-321.332,25.996-323.089,25.678-324.757,25.042z"/>
		<linearGradient id="SVGID_2_" gradientUnits="userSpaceOnUse" x1="-328.6631" y1="13.3052" x2="166.6543" y2="13.3052">
			<stop  offset="0.0357" style="stop-color:#D57F87"/>
			<stop  offset="0.1437" style="stop-color:#D78A8D"/>
			<stop  offset="0.3303" style="stop-color:#DDA69E"/>
			<stop  offset="0.3786" style="stop-color:#DFAEA3"/>
			<stop  offset="0.7551" style="stop-color:#E4BBB2"/>
			<stop  offset="1" style="stop-color:#CD787C"/>
		</linearGradient>
		<path fill="url(#SVGID_2_)" d="M-300.205,24.339c-1.98-1.104-3.541-2.628-4.68-4.571c-1.14-1.945-1.71-4.128-1.71-6.553
			c0-2.424,0.57-4.608,1.71-6.552c1.14-1.944,2.7-3.468,4.68-4.572c1.98-1.104,4.206-1.656,6.678-1.656
			c1.824,0,3.504,0.294,5.04,0.882c1.536,0.588,2.844,1.458,3.924,2.61l-1.152,1.188c-2.016-1.992-4.596-2.988-7.74-2.988
			c-2.112,0-4.032,0.48-5.76,1.44c-1.728,0.96-3.084,2.286-4.068,3.978c-0.984,1.692-1.476,3.582-1.476,5.67s0.492,3.979,1.476,5.67
			c0.984,1.692,2.34,3.019,4.068,3.979s3.648,1.439,5.76,1.439c3.12,0,5.7-1.008,7.74-3.023l1.152,1.188
			c-1.08,1.152-2.394,2.028-3.942,2.628c-1.548,0.601-3.222,0.9-5.022,0.9C-296,25.996-298.225,25.444-300.205,24.339z"/>
		<linearGradient id="SVGID_3_" gradientUnits="userSpaceOnUse" x1="-328.6631" y1="13.3052" x2="166.6543" y2="13.3052">
			<stop  offset="0.0357" style="stop-color:#D57F87"/>
			<stop  offset="0.1437" style="stop-color:#D78A8D"/>
			<stop  offset="0.3303" style="stop-color:#DDA69E"/>
			<stop  offset="0.3786" style="stop-color:#DFAEA3"/>
			<stop  offset="0.7551" style="stop-color:#E4BBB2"/>
			<stop  offset="1" style="stop-color:#CD787C"/>
		</linearGradient>
		<path fill="url(#SVGID_3_)" d="M-257.888,0.615v25.2h-1.836V13.828h-16.848v11.987h-1.836v-25.2h1.836v11.592h16.848V0.615
			H-257.888z"/>
		<linearGradient id="SVGID_4_" gradientUnits="userSpaceOnUse" x1="-328.6631" y1="13.3052" x2="166.6543" y2="13.3052">
			<stop  offset="0.0357" style="stop-color:#D57F87"/>
			<stop  offset="0.1437" style="stop-color:#D78A8D"/>
			<stop  offset="0.3303" style="stop-color:#DDA69E"/>
			<stop  offset="0.3786" style="stop-color:#DFAEA3"/>
			<stop  offset="0.7551" style="stop-color:#E4BBB2"/>
			<stop  offset="1" style="stop-color:#CD787C"/>
		</linearGradient>
		<path fill="url(#SVGID_4_)" d="M-245.108,24.321c-1.993-1.115-3.559-2.646-4.698-4.59c-1.14-1.943-1.71-4.115-1.71-6.516
			c0-2.399,0.57-4.572,1.71-6.516c1.14-1.944,2.706-3.474,4.698-4.59c1.992-1.116,4.224-1.674,6.696-1.674
			c2.472,0,4.704,0.552,6.696,1.656c1.992,1.104,3.558,2.628,4.698,4.572c1.14,1.944,1.71,4.128,1.71,6.552
			c0,2.424-0.57,4.607-1.71,6.553c-1.14,1.943-2.706,3.468-4.698,4.571c-1.992,1.104-4.224,1.656-6.696,1.656
			C-240.884,25.996-243.116,25.438-245.108,24.321z M-232.688,22.864c1.704-0.96,3.047-2.286,4.032-3.979
			c0.984-1.691,1.476-3.582,1.476-5.67s-0.492-3.978-1.476-5.67c-0.984-1.692-2.328-3.018-4.032-3.978
			c-1.705-0.959-3.612-1.44-5.724-1.44c-2.112,0-4.026,0.48-5.742,1.44c-1.716,0.96-3.066,2.286-4.05,3.978
			c-0.984,1.692-1.476,3.582-1.476,5.67s0.492,3.979,1.476,5.67c0.984,1.692,2.334,3.019,4.05,3.979s3.63,1.439,5.742,1.439
			C-236.3,24.303-234.393,23.824-232.688,22.864z"/>
		<linearGradient id="SVGID_5_" gradientUnits="userSpaceOnUse" x1="-328.6631" y1="13.3052" x2="166.6543" y2="13.3052">
			<stop  offset="0.0357" style="stop-color:#D57F87"/>
			<stop  offset="0.1437" style="stop-color:#D78A8D"/>
			<stop  offset="0.3303" style="stop-color:#DDA69E"/>
			<stop  offset="0.3786" style="stop-color:#DFAEA3"/>
			<stop  offset="0.7551" style="stop-color:#E4BBB2"/>
			<stop  offset="1" style="stop-color:#CD787C"/>
		</linearGradient>
		<path fill="url(#SVGID_5_)" d="M-218.936,0.615h1.836V24.16h14.508v1.655h-16.344V0.615z"/>
		<linearGradient id="SVGID_6_" gradientUnits="userSpaceOnUse" x1="-328.6631" y1="13.3052" x2="166.6543" y2="13.3052">
			<stop  offset="0.0357" style="stop-color:#D57F87"/>
			<stop  offset="0.1437" style="stop-color:#D78A8D"/>
			<stop  offset="0.3303" style="stop-color:#DDA69E"/>
			<stop  offset="0.3786" style="stop-color:#DFAEA3"/>
			<stop  offset="0.7551" style="stop-color:#E4BBB2"/>
			<stop  offset="1" style="stop-color:#CD787C"/>
		</linearGradient>
		<path fill="url(#SVGID_6_)" d="M-182.288,18.723h-14.616l-3.204,7.092h-1.98l11.592-25.2h1.836l11.592,25.2h-1.98L-182.288,18.723
			z M-182.972,17.175l-6.624-14.544l-6.588,14.544H-182.972z"/>
		<linearGradient id="SVGID_7_" gradientUnits="userSpaceOnUse" x1="-328.6631" y1="13.3052" x2="166.6543" y2="13.3052">
			<stop  offset="0.0357" style="stop-color:#D57F87"/>
			<stop  offset="0.1437" style="stop-color:#D78A8D"/>
			<stop  offset="0.3303" style="stop-color:#DDA69E"/>
			<stop  offset="0.3786" style="stop-color:#DFAEA3"/>
			<stop  offset="0.7551" style="stop-color:#E4BBB2"/>
			<stop  offset="1" style="stop-color:#CD787C"/>
		</linearGradient>
		<path fill="url(#SVGID_7_)" d="M-155,25.815l-6.012-8.424c-0.888,0.121-1.705,0.18-2.448,0.18h-7.2v8.244h-1.836v-25.2h9.036
			c3.168,0,5.652,0.75,7.452,2.25c1.8,1.5,2.7,3.582,2.7,6.246c0,1.993-0.51,3.667-1.53,5.022c-1.02,1.356-2.478,2.311-4.374,2.862
			l6.3,8.819H-155z M-163.46,15.952c2.688,0,4.739-0.594,6.156-1.782c1.416-1.188,2.124-2.874,2.124-5.058
			c0-2.184-0.708-3.87-2.124-5.058c-1.417-1.188-3.468-1.782-6.156-1.782h-7.2v13.68H-163.46z"/>
		<linearGradient id="SVGID_8_" gradientUnits="userSpaceOnUse" x1="-328.6631" y1="13.3052" x2="166.6543" y2="13.3052">
			<stop  offset="0.0357" style="stop-color:#D57F87"/>
			<stop  offset="0.1437" style="stop-color:#D78A8D"/>
			<stop  offset="0.3303" style="stop-color:#DDA69E"/>
			<stop  offset="0.3786" style="stop-color:#DFAEA3"/>
			<stop  offset="0.7551" style="stop-color:#E4BBB2"/>
			<stop  offset="1" style="stop-color:#CD787C"/>
		</linearGradient>
		<path fill="url(#SVGID_8_)" d="M-145.227,25.042c-1.668-0.636-2.97-1.458-3.906-2.467l0.828-1.367
			c0.888,0.936,2.082,1.698,3.582,2.286c1.5,0.589,3.078,0.882,4.734,0.882c2.399,0,4.212-0.455,5.436-1.368
			c1.224-0.911,1.836-2.1,1.836-3.563c0-1.129-0.324-2.028-0.972-2.7c-0.648-0.672-1.452-1.188-2.412-1.548
			c-0.96-0.36-2.256-0.732-3.888-1.116c-1.848-0.456-3.33-0.9-4.446-1.332c-1.116-0.432-2.064-1.098-2.844-1.998
			c-0.78-0.9-1.17-2.106-1.17-3.618c0-1.224,0.324-2.346,0.972-3.366s1.638-1.83,2.97-2.43c1.332-0.6,2.994-0.9,4.986-0.9
			c1.392,0,2.759,0.204,4.104,0.612c1.344,0.408,2.508,0.96,3.492,1.656l-0.684,1.476c-1.008-0.696-2.118-1.224-3.33-1.584
			c-1.212-0.36-2.406-0.54-3.582-0.54c-2.329,0-4.092,0.468-5.292,1.404s-1.8,2.148-1.8,3.636c0,1.128,0.324,2.029,0.972,2.7
			c0.648,0.672,1.452,1.188,2.412,1.548c0.959,0.36,2.268,0.744,3.924,1.152c1.848,0.456,3.324,0.9,4.428,1.332
			c1.104,0.432,2.046,1.086,2.826,1.962c0.78,0.877,1.17,2.059,1.17,3.546c0,1.224-0.33,2.34-0.99,3.349
			c-0.661,1.008-1.674,1.812-3.042,2.411c-1.368,0.601-3.048,0.9-5.04,0.9C-141.802,25.996-143.56,25.678-145.227,25.042z"/>
		<linearGradient id="SVGID_9_" gradientUnits="userSpaceOnUse" x1="-328.6631" y1="13.3052" x2="166.6543" y2="13.3052">
			<stop  offset="0.0357" style="stop-color:#D57F87"/>
			<stop  offset="0.1437" style="stop-color:#D78A8D"/>
			<stop  offset="0.3303" style="stop-color:#DDA69E"/>
			<stop  offset="0.3786" style="stop-color:#DFAEA3"/>
			<stop  offset="0.7551" style="stop-color:#E4BBB2"/>
			<stop  offset="1" style="stop-color:#CD787C"/>
		</linearGradient>
		<path fill="url(#SVGID_9_)" d="M-104.133,0.615v25.2h-1.836V13.828h-16.848v11.987h-1.836v-25.2h1.836v11.592h16.848V0.615
			H-104.133z"/>
		<linearGradient id="SVGID_10_" gradientUnits="userSpaceOnUse" x1="-328.6631" y1="13.3052" x2="166.6543" y2="13.3052">
			<stop  offset="0.0357" style="stop-color:#D57F87"/>
			<stop  offset="0.1437" style="stop-color:#D78A8D"/>
			<stop  offset="0.3303" style="stop-color:#DDA69E"/>
			<stop  offset="0.3786" style="stop-color:#DFAEA3"/>
			<stop  offset="0.7551" style="stop-color:#E4BBB2"/>
			<stop  offset="1" style="stop-color:#CD787C"/>
		</linearGradient>
		<path fill="url(#SVGID_10_)" d="M-95.35,0.615h1.836v25.2h-1.836V0.615z"/>
		<linearGradient id="SVGID_11_" gradientUnits="userSpaceOnUse" x1="-328.6631" y1="13.3052" x2="166.6543" y2="13.3052">
			<stop  offset="0.0357" style="stop-color:#D57F87"/>
			<stop  offset="0.1437" style="stop-color:#D78A8D"/>
			<stop  offset="0.3303" style="stop-color:#DDA69E"/>
			<stop  offset="0.3786" style="stop-color:#DFAEA3"/>
			<stop  offset="0.7551" style="stop-color:#E4BBB2"/>
			<stop  offset="1" style="stop-color:#CD787C"/>
		</linearGradient>
		<path fill="url(#SVGID_11_)" d="M-68.242,2.865c1.801,1.5,2.701,3.582,2.701,6.246c0,2.641-0.9,4.71-2.701,6.21
			c-1.799,1.5-4.283,2.25-7.451,2.25h-7.2v8.244h-1.836v-25.2h9.036C-72.525,0.615-70.041,1.366-68.242,2.865z M-69.537,14.151
			c1.416-1.176,2.123-2.856,2.123-5.04c0-2.184-0.707-3.87-2.123-5.058c-1.417-1.188-3.469-1.782-6.156-1.782h-7.2v13.644h7.2
			C-73.006,15.916-70.954,15.328-69.537,14.151z"/>
		<linearGradient id="SVGID_12_" gradientUnits="userSpaceOnUse" x1="-328.6631" y1="13.3052" x2="166.6543" y2="13.3052">
			<stop  offset="0.0357" style="stop-color:#D57F87"/>
			<stop  offset="0.1437" style="stop-color:#D78A8D"/>
			<stop  offset="0.3303" style="stop-color:#DDA69E"/>
			<stop  offset="0.3786" style="stop-color:#DFAEA3"/>
			<stop  offset="0.7551" style="stop-color:#E4BBB2"/>
			<stop  offset="1" style="stop-color:#CD787C"/>
		</linearGradient>
		<path fill="url(#SVGID_12_)" d="M-57.64,25.042c-1.669-0.636-2.97-1.458-3.906-2.467l0.828-1.367
			c0.888,0.936,2.081,1.698,3.582,2.286c1.499,0.589,3.078,0.882,4.733,0.882c2.4,0,4.213-0.455,5.437-1.368
			c1.224-0.911,1.836-2.1,1.836-3.563c0-1.129-0.323-2.028-0.972-2.7s-1.453-1.188-2.412-1.548c-0.961-0.36-2.256-0.732-3.889-1.116
			c-1.848-0.456-3.33-0.9-4.445-1.332c-1.116-0.432-2.064-1.098-2.844-1.998c-0.781-0.9-1.17-2.106-1.17-3.618
			c0-1.224,0.324-2.346,0.972-3.366s1.638-1.83,2.97-2.43c1.332-0.6,2.994-0.9,4.986-0.9c1.392,0,2.76,0.204,4.104,0.612
			c1.344,0.408,2.508,0.96,3.492,1.656l-0.684,1.476c-1.008-0.696-2.119-1.224-3.33-1.584c-1.213-0.36-2.406-0.54-3.582-0.54
			c-2.328,0-4.092,0.468-5.293,1.404c-1.199,0.936-1.799,2.148-1.799,3.636c0,1.128,0.324,2.029,0.972,2.7
			c0.647,0.672,1.452,1.188,2.412,1.548c0.96,0.36,2.268,0.744,3.924,1.152c1.848,0.456,3.323,0.9,4.428,1.332
			c1.104,0.432,2.046,1.086,2.826,1.962c0.78,0.877,1.17,2.059,1.17,3.546c0,1.224-0.33,2.34-0.989,3.349
			c-0.661,1.008-1.675,1.812-3.043,2.411c-1.367,0.601-3.048,0.9-5.039,0.9C-54.215,25.996-55.973,25.678-57.64,25.042z"/>
		<linearGradient id="SVGID_13_" gradientUnits="userSpaceOnUse" x1="-328.6631" y1="13.3052" x2="166.6543" y2="13.3052">
			<stop  offset="0.0357" style="stop-color:#D57F87"/>
			<stop  offset="0.1437" style="stop-color:#D78A8D"/>
			<stop  offset="0.3303" style="stop-color:#DDA69E"/>
			<stop  offset="0.3786" style="stop-color:#DFAEA3"/>
			<stop  offset="0.7551" style="stop-color:#E4BBB2"/>
			<stop  offset="1" style="stop-color:#CD787C"/>
		</linearGradient>
		<path fill="url(#SVGID_13_)" d="M-10.103,26.175l-3.636-3.815c-1.032,1.199-2.256,2.105-3.672,2.718
			c-1.417,0.612-2.988,0.918-4.717,0.918c-1.584,0-3-0.265-4.248-0.792s-2.22-1.271-2.916-2.232
			c-0.695-0.959-1.043-2.052-1.043-3.275c0-1.464,0.491-2.803,1.476-4.014c0.983-1.212,2.664-2.515,5.04-3.907l-0.036-0.072
			c-1.248-1.296-2.101-2.382-2.556-3.258c-0.457-0.875-0.685-1.818-0.685-2.826c0-1.56,0.54-2.808,1.62-3.744
			s2.531-1.404,4.355-1.404c1.705,0,3.055,0.427,4.051,1.278c0.996,0.852,1.494,2.022,1.494,3.51c0,1.249-0.427,2.371-1.278,3.366
			c-0.853,0.996-2.347,2.118-4.481,3.366l7.451,7.884c0.816-1.439,1.416-3.145,1.801-5.112l1.476,0.468
			c-0.48,2.328-1.2,4.26-2.16,5.796l3.744,3.959L-10.103,26.175z M-14.818,21.208l-7.956-8.388
			c-2.208,1.296-3.726,2.437-4.554,3.419c-0.828,0.984-1.242,2.089-1.242,3.313c0,1.465,0.605,2.652,1.818,3.564
			c1.211,0.912,2.777,1.367,4.697,1.367C-18.982,24.483-16.57,23.391-14.818,21.208z M-24.791,7.905
			c0.408,0.732,1.212,1.734,2.412,3.006c1.992-1.152,3.36-2.13,4.104-2.934c0.743-0.804,1.116-1.698,1.116-2.682
			c0-1.056-0.349-1.89-1.045-2.502c-0.695-0.612-1.668-0.918-2.916-0.918c-1.344,0-2.394,0.342-3.149,1.026s-1.134,1.59-1.134,2.718
			C-25.402,6.412-25.199,7.174-24.791,7.905z"/>
		<linearGradient id="SVGID_14_" gradientUnits="userSpaceOnUse" x1="-328.6631" y1="13.3052" x2="166.6543" y2="13.3052">
			<stop  offset="0.0357" style="stop-color:#D57F87"/>
			<stop  offset="0.1437" style="stop-color:#D78A8D"/>
			<stop  offset="0.3303" style="stop-color:#DDA69E"/>
			<stop  offset="0.3786" style="stop-color:#DFAEA3"/>
			<stop  offset="0.7551" style="stop-color:#E4BBB2"/>
			<stop  offset="1" style="stop-color:#CD787C"/>
		</linearGradient>
		<path fill="url(#SVGID_14_)" d="M20.605,18.723H5.988l-3.203,7.092h-1.98l11.592-25.2h1.836l11.593,25.2h-1.979L20.605,18.723z
			 M19.921,17.175L13.297,2.631L6.709,17.175H19.921z"/>
		<linearGradient id="SVGID_15_" gradientUnits="userSpaceOnUse" x1="-328.6631" y1="13.3052" x2="166.6543" y2="13.3052">
			<stop  offset="0.0357" style="stop-color:#D57F87"/>
			<stop  offset="0.1437" style="stop-color:#D78A8D"/>
			<stop  offset="0.3303" style="stop-color:#DDA69E"/>
			<stop  offset="0.3786" style="stop-color:#DFAEA3"/>
			<stop  offset="0.7551" style="stop-color:#E4BBB2"/>
			<stop  offset="1" style="stop-color:#CD787C"/>
		</linearGradient>
		<path fill="url(#SVGID_15_)" d="M64.092,0.615l-8.531,25.2h-1.944L45.805,3.208l-7.848,22.607h-1.945l-8.567-25.2h1.944
			l7.668,22.68l7.884-22.68h1.765l7.848,22.716l7.74-22.716H64.092z"/>
		<linearGradient id="SVGID_16_" gradientUnits="userSpaceOnUse" x1="-328.6631" y1="13.3052" x2="166.6543" y2="13.3052">
			<stop  offset="0.0357" style="stop-color:#D57F87"/>
			<stop  offset="0.1437" style="stop-color:#D78A8D"/>
			<stop  offset="0.3303" style="stop-color:#DDA69E"/>
			<stop  offset="0.3786" style="stop-color:#DFAEA3"/>
			<stop  offset="0.7551" style="stop-color:#E4BBB2"/>
			<stop  offset="1" style="stop-color:#CD787C"/>
		</linearGradient>
		<path fill="url(#SVGID_16_)" d="M85.512,18.723H70.896l-3.204,7.092h-1.979l11.592-25.2h1.836l11.592,25.2h-1.98L85.512,18.723z
			 M84.828,17.175L78.204,2.631l-6.588,14.544H84.828z"/>
		<linearGradient id="SVGID_17_" gradientUnits="userSpaceOnUse" x1="-328.6631" y1="13.3052" x2="166.6543" y2="13.3052">
			<stop  offset="0.0357" style="stop-color:#D57F87"/>
			<stop  offset="0.1437" style="stop-color:#D78A8D"/>
			<stop  offset="0.3303" style="stop-color:#DDA69E"/>
			<stop  offset="0.3786" style="stop-color:#DFAEA3"/>
			<stop  offset="0.7551" style="stop-color:#E4BBB2"/>
			<stop  offset="1" style="stop-color:#CD787C"/>
		</linearGradient>
		<path fill="url(#SVGID_17_)" d="M112.8,25.815l-6.013-8.424c-0.888,0.121-1.704,0.18-2.447,0.18h-7.2v8.244h-1.836v-25.2h9.036
			c3.168,0,5.652,0.75,7.451,2.25c1.801,1.5,2.701,3.582,2.701,6.246c0,1.993-0.511,3.667-1.531,5.022
			c-1.02,1.356-2.478,2.311-4.373,2.862l6.3,8.819H112.8z M104.34,15.952c2.688,0,4.739-0.594,6.156-1.782
			c1.416-1.188,2.123-2.874,2.123-5.058c0-2.184-0.707-3.87-2.123-5.058c-1.417-1.188-3.469-1.782-6.156-1.782h-7.2v13.68H104.34z"
			/>
		<linearGradient id="SVGID_18_" gradientUnits="userSpaceOnUse" x1="-328.6631" y1="13.3052" x2="166.6543" y2="13.3052">
			<stop  offset="0.0357" style="stop-color:#D57F87"/>
			<stop  offset="0.1437" style="stop-color:#D78A8D"/>
			<stop  offset="0.3303" style="stop-color:#DDA69E"/>
			<stop  offset="0.3786" style="stop-color:#DFAEA3"/>
			<stop  offset="0.7551" style="stop-color:#E4BBB2"/>
			<stop  offset="1" style="stop-color:#CD787C"/>
		</linearGradient>
		<path fill="url(#SVGID_18_)" d="M121.223,0.615h9.973c2.615,0,4.938,0.54,6.966,1.62s3.605,2.574,4.733,4.482
			c1.129,1.908,1.692,4.074,1.692,6.498c0,2.424-0.563,4.59-1.692,6.498c-1.128,1.908-2.705,3.402-4.733,4.482
			s-4.351,1.619-6.966,1.619h-9.973V0.615z M131.051,24.16c2.328,0,4.38-0.462,6.156-1.386c1.775-0.924,3.145-2.215,4.104-3.871
			c0.96-1.655,1.44-3.551,1.44-5.688c0-2.136-0.48-4.032-1.44-5.688c-0.959-1.656-2.328-2.946-4.104-3.87
			c-1.776-0.923-3.828-1.386-6.156-1.386h-7.992V24.16H131.051z"/>
		<linearGradient id="SVGID_19_" gradientUnits="userSpaceOnUse" x1="-328.6631" y1="13.3052" x2="166.6543" y2="13.3052">
			<stop  offset="0.0357" style="stop-color:#D57F87"/>
			<stop  offset="0.1437" style="stop-color:#D78A8D"/>
			<stop  offset="0.3303" style="stop-color:#DDA69E"/>
			<stop  offset="0.3786" style="stop-color:#DFAEA3"/>
			<stop  offset="0.7551" style="stop-color:#E4BBB2"/>
			<stop  offset="1" style="stop-color:#CD787C"/>
		</linearGradient>
		<path fill="url(#SVGID_19_)" d="M152.309,25.042c-1.668-0.636-2.97-1.458-3.906-2.467l0.828-1.367
			c0.889,0.936,2.082,1.698,3.582,2.286c1.5,0.589,3.078,0.882,4.734,0.882c2.399,0,4.212-0.455,5.436-1.368
			c1.225-0.911,1.836-2.1,1.836-3.563c0-1.129-0.323-2.028-0.972-2.7c-0.647-0.672-1.452-1.188-2.411-1.548
			c-0.961-0.36-2.257-0.732-3.889-1.116c-1.848-0.456-3.33-0.9-4.445-1.332c-1.117-0.432-2.064-1.098-2.845-1.998
			s-1.17-2.106-1.17-3.618c0-1.224,0.324-2.346,0.972-3.366c0.648-1.02,1.639-1.83,2.971-2.43c1.332-0.6,2.993-0.9,4.986-0.9
			c1.391,0,2.759,0.204,4.104,0.612c1.344,0.408,2.508,0.96,3.492,1.656l-0.685,1.476c-1.008-0.696-2.118-1.224-3.33-1.584
			c-1.212-0.36-2.406-0.54-3.581-0.54c-2.329,0-4.093,0.468-5.293,1.404s-1.8,2.148-1.8,3.636c0,1.128,0.324,2.029,0.972,2.7
			c0.648,0.672,1.452,1.188,2.412,1.548c0.96,0.36,2.268,0.744,3.924,1.152c1.848,0.456,3.324,0.9,4.428,1.332
			c1.104,0.432,2.047,1.086,2.826,1.962c0.78,0.877,1.17,2.059,1.17,3.546c0,1.224-0.33,2.34-0.989,3.349
			c-0.661,1.008-1.675,1.812-3.042,2.411c-1.368,0.601-3.049,0.9-5.04,0.9C155.734,25.996,153.977,25.678,152.309,25.042z"/>
	</g>
</g>
</svg>
