<?xml version="1.0" encoding="utf-8"?>
<!-- Generator: Adobe Illustrator 16.0.0, SVG Export Plug-In . SVG Version: 6.00 Build 0)  -->
<!DOCTYPE svg PUBLIC "-//W3C//DTD SVG 1.1//EN" "http://www.w3.org/Graphics/SVG/1.1/DTD/svg11.dtd">
<svg version="1.1" id="Layer_1" xmlns="http://www.w3.org/2000/svg" xmlns:xlink="http://www.w3.org/1999/xlink" x="0px" y="0px"
	 width="369.333px" height="34.167px" viewBox="0 0 369.333 34.167" enable-background="new 0 0 369.333 34.167"
	 xml:space="preserve">
<g>
	<g>
		<linearGradient id="SVGID_1_" gradientUnits="userSpaceOnUse" x1="-588.9517" y1="17.1499" x2="371.5186" y2="17.1499">
			<stop  offset="0" style="stop-color:#D57D86"/>
			<stop  offset="0.1101" style="stop-color:#D7868C"/>
			<stop  offset="0.2926" style="stop-color:#DCA09B"/>
			<stop  offset="0.3786" style="stop-color:#DFAEA3"/>
			<stop  offset="0.7551" style="stop-color:#E4BBB2"/>
			<stop  offset="1" style="stop-color:#CD787C"/>
		</linearGradient>
		<path fill="url(#SVGID_1_)" d="M-586.503,2.558V16.91h17.904v2.208h-17.904V33.95h-2.448V0.35h22.464v2.208H-586.503z"/>
		<linearGradient id="SVGID_2_" gradientUnits="userSpaceOnUse" x1="-588.9517" y1="17.1499" x2="371.5186" y2="17.1499">
			<stop  offset="0" style="stop-color:#D57D86"/>
			<stop  offset="0.1101" style="stop-color:#D7868C"/>
			<stop  offset="0.2926" style="stop-color:#DCA09B"/>
			<stop  offset="0.3786" style="stop-color:#DFAEA3"/>
			<stop  offset="0.7551" style="stop-color:#E4BBB2"/>
			<stop  offset="1" style="stop-color:#CD787C"/>
		</linearGradient>
		<path fill="url(#SVGID_2_)" d="M-558.664,0.35h2.448v31.392h19.344v2.208h-21.792V0.35z"/>
		<linearGradient id="SVGID_3_" gradientUnits="userSpaceOnUse" x1="-588.9517" y1="17.1499" x2="371.5186" y2="17.1499">
			<stop  offset="0" style="stop-color:#D57D86"/>
			<stop  offset="0.1101" style="stop-color:#D7868C"/>
			<stop  offset="0.2926" style="stop-color:#DCA09B"/>
			<stop  offset="0.3786" style="stop-color:#DFAEA3"/>
			<stop  offset="0.7551" style="stop-color:#E4BBB2"/>
			<stop  offset="1" style="stop-color:#CD787C"/>
		</linearGradient>
		<path fill="url(#SVGID_3_)" d="M-527.344,30.494c-2.352-2.464-3.528-6.063-3.528-10.8V0.35h2.448v19.248
			c0,4.128,0.943,7.216,2.832,9.264c1.888,2.048,4.624,3.072,8.208,3.072c3.552,0,6.271-1.023,8.16-3.072
			c1.888-2.048,2.832-5.136,2.832-9.264V0.35h2.448v19.344c0,4.736-1.185,8.336-3.552,10.8c-2.368,2.464-5.68,3.696-9.936,3.696
			S-524.992,32.958-527.344,30.494z"/>
		<linearGradient id="SVGID_4_" gradientUnits="userSpaceOnUse" x1="-588.9517" y1="17.1499" x2="371.5186" y2="17.1499">
			<stop  offset="0" style="stop-color:#D57D86"/>
			<stop  offset="0.1101" style="stop-color:#D7868C"/>
			<stop  offset="0.2926" style="stop-color:#DCA09B"/>
			<stop  offset="0.3786" style="stop-color:#DFAEA3"/>
			<stop  offset="0.7551" style="stop-color:#E4BBB2"/>
			<stop  offset="1" style="stop-color:#CD787C"/>
		</linearGradient>
		<path fill="url(#SVGID_4_)" d="M-492.52,0.35h2.448v33.6h-2.448V0.35z"/>
		<linearGradient id="SVGID_5_" gradientUnits="userSpaceOnUse" x1="-588.9517" y1="17.1499" x2="371.5186" y2="17.1499">
			<stop  offset="0" style="stop-color:#D57D86"/>
			<stop  offset="0.1101" style="stop-color:#D7868C"/>
			<stop  offset="0.2926" style="stop-color:#DCA09B"/>
			<stop  offset="0.3786" style="stop-color:#DFAEA3"/>
			<stop  offset="0.7551" style="stop-color:#E4BBB2"/>
			<stop  offset="1" style="stop-color:#CD787C"/>
		</linearGradient>
		<path fill="url(#SVGID_5_)" d="M-478.36,0.35h13.296c3.488,0,6.583,0.72,9.288,2.16c2.704,1.44,4.808,3.432,6.312,5.976
			c1.504,2.544,2.256,5.432,2.256,8.664c0,3.232-0.752,6.12-2.256,8.664c-1.504,2.544-3.608,4.536-6.312,5.976
			c-2.705,1.44-5.8,2.16-9.288,2.16h-13.296V0.35z M-465.256,31.742c3.104,0,5.839-0.616,8.208-1.848
			c2.368-1.231,4.192-2.952,5.472-5.16c1.279-2.208,1.92-4.736,1.92-7.584s-0.641-5.376-1.92-7.584
			c-1.28-2.208-3.104-3.928-5.472-5.16c-2.369-1.231-5.104-1.848-8.208-1.848h-10.656v29.184H-465.256z"/>
		<linearGradient id="SVGID_6_" gradientUnits="userSpaceOnUse" x1="-588.9517" y1="17.1499" x2="371.5186" y2="17.1499">
			<stop  offset="0" style="stop-color:#D57D86"/>
			<stop  offset="0.1101" style="stop-color:#D7868C"/>
			<stop  offset="0.2926" style="stop-color:#DCA09B"/>
			<stop  offset="0.3786" style="stop-color:#DFAEA3"/>
			<stop  offset="0.7551" style="stop-color:#E4BBB2"/>
			<stop  offset="1" style="stop-color:#CD787C"/>
		</linearGradient>
		<path fill="url(#SVGID_6_)" d="M-399.545,0.35l-14.976,33.6h-2.448l-14.976-33.6h2.688l13.584,30.432l13.584-30.432H-399.545z"/>
		<linearGradient id="SVGID_7_" gradientUnits="userSpaceOnUse" x1="-588.9517" y1="17.1499" x2="371.5186" y2="17.1499">
			<stop  offset="0" style="stop-color:#D57D86"/>
			<stop  offset="0.1101" style="stop-color:#D7868C"/>
			<stop  offset="0.2926" style="stop-color:#DCA09B"/>
			<stop  offset="0.3786" style="stop-color:#DFAEA3"/>
			<stop  offset="0.7551" style="stop-color:#E4BBB2"/>
			<stop  offset="1" style="stop-color:#CD787C"/>
		</linearGradient>
		<path fill="url(#SVGID_7_)" d="M-370.218,31.742v2.208h-23.184V0.35h22.464v2.208h-20.016v13.248h17.904v2.16h-17.904v13.776
			H-370.218z"/>
		<linearGradient id="SVGID_8_" gradientUnits="userSpaceOnUse" x1="-588.9517" y1="17.1499" x2="371.5186" y2="17.1499">
			<stop  offset="0" style="stop-color:#D57D86"/>
			<stop  offset="0.1101" style="stop-color:#D7868C"/>
			<stop  offset="0.2926" style="stop-color:#DCA09B"/>
			<stop  offset="0.3786" style="stop-color:#DFAEA3"/>
			<stop  offset="0.7551" style="stop-color:#E4BBB2"/>
			<stop  offset="1" style="stop-color:#CD787C"/>
		</linearGradient>
		<path fill="url(#SVGID_8_)" d="M-337.963,33.95l-8.016-11.232c-1.185,0.161-2.272,0.24-3.264,0.24h-9.601V33.95h-2.447V0.35
			h12.048c4.224,0,7.536,1,9.936,3c2.4,2,3.601,4.776,3.601,8.328c0,2.656-0.681,4.889-2.04,6.696
			c-1.361,1.809-3.305,3.081-5.832,3.816l8.399,11.76H-337.963z M-349.242,20.798c3.583,0,6.319-0.792,8.208-2.376
			c1.888-1.584,2.832-3.832,2.832-6.744c0-2.912-0.944-5.16-2.832-6.744c-1.889-1.584-4.625-2.376-8.208-2.376h-9.601v18.24
			H-349.242z"/>
		<linearGradient id="SVGID_9_" gradientUnits="userSpaceOnUse" x1="-588.9517" y1="17.1499" x2="371.5186" y2="17.1499">
			<stop  offset="0" style="stop-color:#D57D86"/>
			<stop  offset="0.1101" style="stop-color:#D7868C"/>
			<stop  offset="0.2926" style="stop-color:#DCA09B"/>
			<stop  offset="0.3786" style="stop-color:#DFAEA3"/>
			<stop  offset="0.7551" style="stop-color:#E4BBB2"/>
			<stop  offset="1" style="stop-color:#CD787C"/>
		</linearGradient>
		<path fill="url(#SVGID_9_)" d="M-324.931,32.917c-2.225-0.847-3.96-1.944-5.208-3.288l1.104-1.824
			c1.184,1.248,2.776,2.264,4.776,3.048c1.999,0.785,4.104,1.176,6.312,1.176c3.2,0,5.616-0.607,7.248-1.824
			c1.632-1.216,2.448-2.8,2.448-4.752c0-1.503-0.432-2.704-1.296-3.6c-0.864-0.896-1.937-1.584-3.216-2.064
			c-1.28-0.48-3.009-0.976-5.185-1.488c-2.464-0.607-4.439-1.2-5.928-1.776c-1.488-0.576-2.752-1.464-3.792-2.664
			c-1.04-1.2-1.56-2.808-1.56-4.824c0-1.632,0.432-3.127,1.296-4.488c0.863-1.36,2.184-2.44,3.96-3.24
			c1.775-0.799,3.991-1.2,6.647-1.2c1.855,0,3.68,0.272,5.473,0.816c1.791,0.544,3.343,1.28,4.655,2.208l-0.911,1.968
			c-1.345-0.928-2.825-1.632-4.44-2.112c-1.616-0.48-3.209-0.72-4.776-0.72c-3.104,0-5.456,0.624-7.056,1.872
			c-1.601,1.248-2.4,2.864-2.4,4.848c0,1.504,0.433,2.705,1.296,3.6c0.864,0.896,1.937,1.584,3.217,2.064
			c1.279,0.48,3.023,0.992,5.231,1.536c2.464,0.608,4.432,1.2,5.904,1.776c1.472,0.576,2.728,1.448,3.768,2.616
			c1.04,1.168,1.561,2.745,1.561,4.728c0,1.632-0.44,3.12-1.32,4.464c-0.88,1.344-2.231,2.417-4.056,3.216
			c-1.824,0.8-4.064,1.2-6.72,1.2C-320.363,34.19-322.707,33.766-324.931,32.917z"/>
		<linearGradient id="SVGID_10_" gradientUnits="userSpaceOnUse" x1="-588.9517" y1="17.1499" x2="371.5186" y2="17.1499">
			<stop  offset="0" style="stop-color:#D57D86"/>
			<stop  offset="0.1101" style="stop-color:#D7868C"/>
			<stop  offset="0.2926" style="stop-color:#DCA09B"/>
			<stop  offset="0.3786" style="stop-color:#DFAEA3"/>
			<stop  offset="0.7551" style="stop-color:#E4BBB2"/>
			<stop  offset="1" style="stop-color:#CD787C"/>
		</linearGradient>
		<path fill="url(#SVGID_10_)" d="M-297.499,0.35h2.447v33.6h-2.447V0.35z"/>
		<linearGradient id="SVGID_11_" gradientUnits="userSpaceOnUse" x1="-588.9517" y1="17.1499" x2="371.5186" y2="17.1499">
			<stop  offset="0" style="stop-color:#D57D86"/>
			<stop  offset="0.1101" style="stop-color:#D7868C"/>
			<stop  offset="0.2926" style="stop-color:#DCA09B"/>
			<stop  offset="0.3786" style="stop-color:#DFAEA3"/>
			<stop  offset="0.7551" style="stop-color:#E4BBB2"/>
			<stop  offset="1" style="stop-color:#CD787C"/>
		</linearGradient>
		<path fill="url(#SVGID_11_)" d="M-278.012,31.958c-2.656-1.488-4.744-3.528-6.264-6.12c-1.521-2.592-2.28-5.488-2.28-8.688
			c0-3.2,0.76-6.096,2.28-8.688c1.52-2.592,3.607-4.632,6.264-6.12c2.656-1.488,5.632-2.232,8.929-2.232
			c3.295,0,6.271,0.736,8.928,2.208c2.655,1.472,4.744,3.504,6.264,6.096c1.52,2.592,2.28,5.504,2.28,8.736
			c0,3.232-0.761,6.144-2.28,8.736s-3.608,4.625-6.264,6.096c-2.656,1.472-5.633,2.208-8.928,2.208
			C-272.38,34.19-275.355,33.446-278.012,31.958z M-261.451,30.014c2.271-1.279,4.063-3.048,5.376-5.304
			c1.312-2.256,1.968-4.776,1.968-7.56c0-2.784-0.656-5.304-1.968-7.56c-1.313-2.256-3.104-4.024-5.376-5.304
			c-2.272-1.279-4.816-1.92-7.632-1.92c-2.816,0-5.369,0.641-7.656,1.92c-2.288,1.28-4.088,3.048-5.4,5.304
			c-1.313,2.256-1.968,4.776-1.968,7.56c0,2.784,0.655,5.304,1.968,7.56c1.313,2.256,3.112,4.025,5.4,5.304
			c2.287,1.28,4.84,1.92,7.656,1.92C-266.268,31.934-263.724,31.294-261.451,30.014z"/>
		<linearGradient id="SVGID_12_" gradientUnits="userSpaceOnUse" x1="-588.9517" y1="17.1499" x2="371.5186" y2="17.1499">
			<stop  offset="0" style="stop-color:#D57D86"/>
			<stop  offset="0.1101" style="stop-color:#D7868C"/>
			<stop  offset="0.2926" style="stop-color:#DCA09B"/>
			<stop  offset="0.3786" style="stop-color:#DFAEA3"/>
			<stop  offset="0.7551" style="stop-color:#E4BBB2"/>
			<stop  offset="1" style="stop-color:#CD787C"/>
		</linearGradient>
		<path fill="url(#SVGID_12_)" d="M-215.755,0.35v33.6h-2.016l-22.896-29.184V33.95h-2.447V0.35h2.063l22.848,29.184V0.35H-215.755z
			"/>
		<linearGradient id="SVGID_13_" gradientUnits="userSpaceOnUse" x1="-588.9517" y1="17.1499" x2="371.5186" y2="17.1499">
			<stop  offset="0" style="stop-color:#D57D86"/>
			<stop  offset="0.1101" style="stop-color:#D7868C"/>
			<stop  offset="0.2926" style="stop-color:#DCA09B"/>
			<stop  offset="0.3786" style="stop-color:#DFAEA3"/>
			<stop  offset="0.7551" style="stop-color:#E4BBB2"/>
			<stop  offset="1" style="stop-color:#CD787C"/>
		</linearGradient>
		<path fill="url(#SVGID_13_)" d="M-186.381,31.958c-2.656-1.488-4.744-3.528-6.264-6.12c-1.521-2.592-2.28-5.488-2.28-8.688
			c0-3.2,0.76-6.096,2.28-8.688c1.52-2.592,3.607-4.632,6.264-6.12c2.656-1.488,5.632-2.232,8.929-2.232
			c3.295,0,6.271,0.736,8.928,2.208c2.655,1.472,4.744,3.504,6.264,6.096c1.52,2.592,2.28,5.504,2.28,8.736
			c0,3.232-0.761,6.144-2.28,8.736s-3.608,4.625-6.264,6.096c-2.656,1.472-5.633,2.208-8.928,2.208
			C-180.749,34.19-183.725,33.446-186.381,31.958z M-169.82,30.014c2.271-1.279,4.063-3.048,5.376-5.304
			c1.312-2.256,1.968-4.776,1.968-7.56c0-2.784-0.656-5.304-1.968-7.56c-1.313-2.256-3.104-4.024-5.376-5.304
			c-2.272-1.279-4.816-1.92-7.632-1.92c-2.816,0-5.369,0.641-7.656,1.92c-2.288,1.28-4.088,3.048-5.4,5.304
			c-1.313,2.256-1.968,4.776-1.968,7.56c0,2.784,0.655,5.304,1.968,7.56c1.313,2.256,3.112,4.025,5.4,5.304
			c2.287,1.28,4.84,1.92,7.656,1.92C-174.637,31.934-172.093,31.294-169.82,30.014z"/>
		<linearGradient id="SVGID_14_" gradientUnits="userSpaceOnUse" x1="-588.9517" y1="17.1499" x2="371.5186" y2="17.1499">
			<stop  offset="0" style="stop-color:#D57D86"/>
			<stop  offset="0.1101" style="stop-color:#D7868C"/>
			<stop  offset="0.2926" style="stop-color:#DCA09B"/>
			<stop  offset="0.3786" style="stop-color:#DFAEA3"/>
			<stop  offset="0.7551" style="stop-color:#E4BBB2"/>
			<stop  offset="1" style="stop-color:#CD787C"/>
		</linearGradient>
		<path fill="url(#SVGID_14_)" d="M-149.036,2.558V16.91h17.904v2.208h-17.904V33.95h-2.447V0.35h22.464v2.208H-149.036z"/>
		<linearGradient id="SVGID_15_" gradientUnits="userSpaceOnUse" x1="-588.9517" y1="17.1499" x2="371.5186" y2="17.1499">
			<stop  offset="0" style="stop-color:#D57D86"/>
			<stop  offset="0.1101" style="stop-color:#D7868C"/>
			<stop  offset="0.2926" style="stop-color:#DCA09B"/>
			<stop  offset="0.3786" style="stop-color:#DFAEA3"/>
			<stop  offset="0.7551" style="stop-color:#E4BBB2"/>
			<stop  offset="1" style="stop-color:#CD787C"/>
		</linearGradient>
		<path fill="url(#SVGID_15_)" d="M-102.429,2.558h-12.096V0.35h26.64v2.208H-99.98V33.95h-2.448V2.558z"/>
		<linearGradient id="SVGID_16_" gradientUnits="userSpaceOnUse" x1="-588.9517" y1="17.1499" x2="371.5186" y2="17.1499">
			<stop  offset="0" style="stop-color:#D57D86"/>
			<stop  offset="0.1101" style="stop-color:#D7868C"/>
			<stop  offset="0.2926" style="stop-color:#DCA09B"/>
			<stop  offset="0.3786" style="stop-color:#DFAEA3"/>
			<stop  offset="0.7551" style="stop-color:#E4BBB2"/>
			<stop  offset="1" style="stop-color:#CD787C"/>
		</linearGradient>
		<path fill="url(#SVGID_16_)" d="M-54.478,0.35v33.6h-2.448V17.966H-79.39V33.95h-2.447V0.35h2.447v15.456h22.464V0.35H-54.478z"/>
		<linearGradient id="SVGID_17_" gradientUnits="userSpaceOnUse" x1="-588.9517" y1="17.1499" x2="371.5186" y2="17.1499">
			<stop  offset="0" style="stop-color:#D57D86"/>
			<stop  offset="0.1101" style="stop-color:#D7868C"/>
			<stop  offset="0.2926" style="stop-color:#DCA09B"/>
			<stop  offset="0.3786" style="stop-color:#DFAEA3"/>
			<stop  offset="0.7551" style="stop-color:#E4BBB2"/>
			<stop  offset="1" style="stop-color:#CD787C"/>
		</linearGradient>
		<path fill="url(#SVGID_17_)" d="M-19.581,31.742v2.208h-23.184V0.35h22.464v2.208h-20.017v13.248h17.904v2.16h-17.904v13.776
			H-19.581z"/>
		<linearGradient id="SVGID_18_" gradientUnits="userSpaceOnUse" x1="-588.9517" y1="17.1499" x2="371.5186" y2="17.1499">
			<stop  offset="0" style="stop-color:#D57D86"/>
			<stop  offset="0.1101" style="stop-color:#D7868C"/>
			<stop  offset="0.2926" style="stop-color:#DCA09B"/>
			<stop  offset="0.3786" style="stop-color:#DFAEA3"/>
			<stop  offset="0.7551" style="stop-color:#E4BBB2"/>
			<stop  offset="1" style="stop-color:#CD787C"/>
		</linearGradient>
		<path fill="url(#SVGID_18_)" d="M27.146,19.454c1.264,1.44,1.896,3.312,1.896,5.616c0,2.848-1.04,5.04-3.12,6.576
			c-2.08,1.536-5.168,2.304-9.264,2.304H1.682V0.35h14.016c3.647,0,6.487,0.744,8.52,2.232c2.032,1.488,3.049,3.608,3.049,6.36
			c0,1.92-0.505,3.536-1.513,4.848c-1.008,1.313-2.376,2.256-4.104,2.832C24.049,17.07,25.881,18.014,27.146,19.454z M4.129,2.462
			v13.392h11.473c2.943,0,5.208-0.567,6.792-1.704c1.584-1.136,2.376-2.808,2.376-5.016c0-2.176-0.792-3.832-2.376-4.968
			c-1.584-1.135-3.849-1.704-6.792-1.704H4.129z M24.073,30.134c1.68-1.136,2.52-2.888,2.52-5.256s-0.84-4.112-2.52-5.232
			c-1.68-1.12-4.152-1.68-7.416-1.68H4.129v13.872h12.528C19.921,31.838,22.394,31.27,24.073,30.134z"/>
		<linearGradient id="SVGID_19_" gradientUnits="userSpaceOnUse" x1="-588.9517" y1="17.1499" x2="371.5186" y2="17.1499">
			<stop  offset="0" style="stop-color:#D57D86"/>
			<stop  offset="0.1101" style="stop-color:#D7868C"/>
			<stop  offset="0.2926" style="stop-color:#DCA09B"/>
			<stop  offset="0.3786" style="stop-color:#DFAEA3"/>
			<stop  offset="0.7551" style="stop-color:#E4BBB2"/>
			<stop  offset="1" style="stop-color:#CD787C"/>
		</linearGradient>
		<path fill="url(#SVGID_19_)" d="M41.018,30.494c-2.352-2.464-3.527-6.063-3.527-10.8V0.35h2.447v19.248
			c0,4.128,0.944,7.216,2.832,9.264c1.888,2.048,4.624,3.072,8.208,3.072c3.553,0,6.271-1.023,8.16-3.072
			c1.888-2.048,2.832-5.136,2.832-9.264V0.35h2.448v19.344c0,4.736-1.185,8.336-3.552,10.8c-2.369,2.464-5.681,3.696-9.937,3.696
			S43.37,32.958,41.018,30.494z"/>
		<linearGradient id="SVGID_20_" gradientUnits="userSpaceOnUse" x1="-588.9517" y1="17.1499" x2="371.5186" y2="17.1499">
			<stop  offset="0" style="stop-color:#D57D86"/>
			<stop  offset="0.1101" style="stop-color:#D7868C"/>
			<stop  offset="0.2926" style="stop-color:#DCA09B"/>
			<stop  offset="0.3786" style="stop-color:#DFAEA3"/>
			<stop  offset="0.7551" style="stop-color:#E4BBB2"/>
			<stop  offset="1" style="stop-color:#CD787C"/>
		</linearGradient>
		<path fill="url(#SVGID_20_)" d="M101.306,19.454c1.264,1.44,1.896,3.312,1.896,5.616c0,2.848-1.04,5.04-3.12,6.576
			c-2.08,1.536-5.168,2.304-9.264,2.304H75.842V0.35h14.016c3.647,0,6.487,0.744,8.52,2.232c2.032,1.488,3.049,3.608,3.049,6.36
			c0,1.92-0.505,3.536-1.513,4.848c-1.008,1.313-2.376,2.256-4.104,2.832C98.209,17.07,100.041,18.014,101.306,19.454z
			 M78.289,2.462v13.392h11.473c2.943,0,5.208-0.567,6.792-1.704c1.584-1.136,2.376-2.808,2.376-5.016
			c0-2.176-0.792-3.832-2.376-4.968c-1.584-1.135-3.849-1.704-6.792-1.704H78.289z M98.233,30.134c1.68-1.136,2.52-2.888,2.52-5.256
			s-0.84-4.112-2.52-5.232c-1.68-1.12-4.152-1.68-7.416-1.68H78.289v13.872h12.528C94.081,31.838,96.554,31.27,98.233,30.134z"/>
		<linearGradient id="SVGID_21_" gradientUnits="userSpaceOnUse" x1="-588.9517" y1="17.1499" x2="371.5186" y2="17.1499">
			<stop  offset="0" style="stop-color:#D57D86"/>
			<stop  offset="0.1101" style="stop-color:#D7868C"/>
			<stop  offset="0.2926" style="stop-color:#DCA09B"/>
			<stop  offset="0.3786" style="stop-color:#DFAEA3"/>
			<stop  offset="0.7551" style="stop-color:#E4BBB2"/>
			<stop  offset="1" style="stop-color:#CD787C"/>
		</linearGradient>
		<path fill="url(#SVGID_21_)" d="M121.921,17.39l-7.536,7.728v8.832h-2.447V0.35h2.447v21.6l20.977-21.6h2.976l-14.784,15.264
			l15.792,18.336h-2.976L121.921,17.39z"/>
		<linearGradient id="SVGID_22_" gradientUnits="userSpaceOnUse" x1="-588.9517" y1="17.1499" x2="371.5186" y2="17.1499">
			<stop  offset="0" style="stop-color:#D57D86"/>
			<stop  offset="0.1101" style="stop-color:#D7868C"/>
			<stop  offset="0.2926" style="stop-color:#DCA09B"/>
			<stop  offset="0.3786" style="stop-color:#DFAEA3"/>
			<stop  offset="0.7551" style="stop-color:#E4BBB2"/>
			<stop  offset="1" style="stop-color:#CD787C"/>
		</linearGradient>
		<path fill="url(#SVGID_22_)" d="M166.464,24.494h-19.487l-4.272,9.456h-2.64l15.456-33.6h2.447l15.456,33.6h-2.64L166.464,24.494z
			 M165.552,22.43l-8.831-19.392l-8.784,19.392H165.552z"/>
		<linearGradient id="SVGID_23_" gradientUnits="userSpaceOnUse" x1="-588.9517" y1="17.1499" x2="371.5186" y2="17.1499">
			<stop  offset="0" style="stop-color:#D57D86"/>
			<stop  offset="0.1101" style="stop-color:#D7868C"/>
			<stop  offset="0.2926" style="stop-color:#DCA09B"/>
			<stop  offset="0.3786" style="stop-color:#DFAEA3"/>
			<stop  offset="0.7551" style="stop-color:#E4BBB2"/>
			<stop  offset="1" style="stop-color:#CD787C"/>
		</linearGradient>
		<path fill="url(#SVGID_23_)" d="M223.632,33.95l-0.048-28.752L209.52,29.486h-1.199L194.256,5.294V33.95h-2.399V0.35h2.063
			l15.024,25.968L223.968,0.35h2.017l0.048,33.6H223.632z"/>
		<linearGradient id="SVGID_24_" gradientUnits="userSpaceOnUse" x1="-588.9517" y1="17.1499" x2="371.5186" y2="17.1499">
			<stop  offset="0" style="stop-color:#D57D86"/>
			<stop  offset="0.1101" style="stop-color:#D7868C"/>
			<stop  offset="0.2926" style="stop-color:#DCA09B"/>
			<stop  offset="0.3786" style="stop-color:#DFAEA3"/>
			<stop  offset="0.7551" style="stop-color:#E4BBB2"/>
			<stop  offset="1" style="stop-color:#CD787C"/>
		</linearGradient>
		<path fill="url(#SVGID_24_)" d="M243.07,31.958c-2.656-1.488-4.744-3.528-6.264-6.12c-1.521-2.592-2.28-5.488-2.28-8.688
			c0-3.2,0.76-6.096,2.28-8.688c1.52-2.592,3.607-4.632,6.264-6.12c2.656-1.488,5.632-2.232,8.929-2.232
			c3.295,0,6.271,0.736,8.928,2.208c2.655,1.472,4.744,3.504,6.264,6.096c1.52,2.592,2.28,5.504,2.28,8.736
			c0,3.232-0.761,6.144-2.28,8.736s-3.608,4.625-6.264,6.096c-2.656,1.472-5.633,2.208-8.928,2.208
			C248.702,34.19,245.727,33.446,243.07,31.958z M259.631,30.014c2.271-1.279,4.063-3.048,5.376-5.304
			c1.312-2.256,1.968-4.776,1.968-7.56c0-2.784-0.656-5.304-1.968-7.56c-1.313-2.256-3.104-4.024-5.376-5.304
			c-2.272-1.279-4.816-1.92-7.632-1.92c-2.816,0-5.369,0.641-7.656,1.92c-2.288,1.28-4.088,3.048-5.4,5.304
			c-1.313,2.256-1.968,4.776-1.968,7.56c0,2.784,0.655,5.304,1.968,7.56c1.313,2.256,3.112,4.025,5.4,5.304
			c2.287,1.28,4.84,1.92,7.656,1.92C254.814,31.934,257.358,31.294,259.631,30.014z"/>
		<linearGradient id="SVGID_25_" gradientUnits="userSpaceOnUse" x1="-588.9517" y1="17.1499" x2="371.5186" y2="17.1499">
			<stop  offset="0" style="stop-color:#D57D86"/>
			<stop  offset="0.1101" style="stop-color:#D7868C"/>
			<stop  offset="0.2926" style="stop-color:#DCA09B"/>
			<stop  offset="0.3786" style="stop-color:#DFAEA3"/>
			<stop  offset="0.7551" style="stop-color:#E4BBB2"/>
			<stop  offset="1" style="stop-color:#CD787C"/>
		</linearGradient>
		<path fill="url(#SVGID_25_)" d="M277.968,0.35h13.296c3.487,0,6.583,0.72,9.288,2.16c2.703,1.44,4.807,3.432,6.312,5.976
			c1.504,2.544,2.256,5.432,2.256,8.664c0,3.232-0.752,6.12-2.256,8.664c-1.505,2.544-3.608,4.536-6.312,5.976
			c-2.705,1.44-5.801,2.16-9.288,2.16h-13.296V0.35z M291.071,31.742c3.104,0,5.84-0.616,8.208-1.848
			c2.368-1.231,4.191-2.952,5.472-5.16s1.92-4.736,1.92-7.584s-0.64-5.376-1.92-7.584s-3.104-3.928-5.472-5.16
			c-2.368-1.231-5.104-1.848-8.208-1.848h-10.656v29.184H291.071z"/>
		<linearGradient id="SVGID_26_" gradientUnits="userSpaceOnUse" x1="-588.9517" y1="17.1499" x2="371.5186" y2="17.1499">
			<stop  offset="0" style="stop-color:#D57D86"/>
			<stop  offset="0.1101" style="stop-color:#D7868C"/>
			<stop  offset="0.2926" style="stop-color:#DCA09B"/>
			<stop  offset="0.3786" style="stop-color:#DFAEA3"/>
			<stop  offset="0.7551" style="stop-color:#E4BBB2"/>
			<stop  offset="1" style="stop-color:#CD787C"/>
		</linearGradient>
		<path fill="url(#SVGID_26_)" d="M340.799,31.742v2.208h-23.184V0.35h22.464v2.208h-20.017v13.248h17.904v2.16h-17.904v13.776
			H340.799z"/>
		<linearGradient id="SVGID_27_" gradientUnits="userSpaceOnUse" x1="-588.9517" y1="17.1499" x2="371.5186" y2="17.1499">
			<stop  offset="0" style="stop-color:#D57D86"/>
			<stop  offset="0.1101" style="stop-color:#D7868C"/>
			<stop  offset="0.2926" style="stop-color:#DCA09B"/>
			<stop  offset="0.3786" style="stop-color:#DFAEA3"/>
			<stop  offset="0.7551" style="stop-color:#E4BBB2"/>
			<stop  offset="1" style="stop-color:#CD787C"/>
		</linearGradient>
		<path fill="url(#SVGID_27_)" d="M349.727,0.35h2.447v31.392h19.345v2.208h-21.792V0.35z"/>
	</g>
</g>
</svg>
