<?xml version="1.0" encoding="utf-8"?>
<!-- Generator: Adobe Illustrator 16.0.0, SVG Export Plug-In . SVG Version: 6.00 Build 0)  -->
<!DOCTYPE svg PUBLIC "-//W3C//DTD SVG 1.1//EN" "http://www.w3.org/Graphics/SVG/1.1/DTD/svg11.dtd">
<svg version="1.1" id="Layer_1" xmlns="http://www.w3.org/2000/svg" xmlns:xlink="http://www.w3.org/1999/xlink" x="0px" y="0px"
	 width="212.667px" height="34.667px" viewBox="0 0 212.667 34.667" enable-background="new 0 0 212.667 34.667"
	 xml:space="preserve">
<g>
	<g>
		<linearGradient id="SVGID_1_" gradientUnits="userSpaceOnUse" x1="-298.0459" y1="17.4326" x2="534.5527" y2="17.4326">
			<stop  offset="0.0357" style="stop-color:#D57F87"/>
			<stop  offset="0.1437" style="stop-color:#D78A8D"/>
			<stop  offset="0.3303" style="stop-color:#DDA69E"/>
			<stop  offset="0.3786" style="stop-color:#DFAEA3"/>
			<stop  offset="0.7551" style="stop-color:#E4BBB2"/>
			<stop  offset="1" style="stop-color:#CD787C"/>
		</linearGradient>
		<path fill="url(#SVGID_1_)" d="M-285.95,2.84h-12.096V0.632h26.64V2.84h-12.096v31.392h-2.448V2.84z"/>
		<linearGradient id="SVGID_2_" gradientUnits="userSpaceOnUse" x1="-298.0459" y1="17.4326" x2="534.5527" y2="17.4326">
			<stop  offset="0.0357" style="stop-color:#D57F87"/>
			<stop  offset="0.1437" style="stop-color:#D78A8D"/>
			<stop  offset="0.3303" style="stop-color:#DDA69E"/>
			<stop  offset="0.3786" style="stop-color:#DFAEA3"/>
			<stop  offset="0.7551" style="stop-color:#E4BBB2"/>
			<stop  offset="1" style="stop-color:#CD787C"/>
		</linearGradient>
		<path fill="url(#SVGID_2_)" d="M-237.999,0.632v33.6h-2.448V18.249h-22.464v15.984h-2.448v-33.6h2.448v15.456h22.464V0.632
			H-237.999z"/>
		<linearGradient id="SVGID_3_" gradientUnits="userSpaceOnUse" x1="-298.0459" y1="17.4326" x2="534.5527" y2="17.4326">
			<stop  offset="0.0357" style="stop-color:#D57F87"/>
			<stop  offset="0.1437" style="stop-color:#D78A8D"/>
			<stop  offset="0.3303" style="stop-color:#DDA69E"/>
			<stop  offset="0.3786" style="stop-color:#DFAEA3"/>
			<stop  offset="0.7551" style="stop-color:#E4BBB2"/>
			<stop  offset="1" style="stop-color:#CD787C"/>
		</linearGradient>
		<path fill="url(#SVGID_3_)" d="M-203.103,32.024v2.208h-23.184v-33.6h22.464V2.84h-20.016v13.248h17.904v2.16h-17.904v13.776
			H-203.103z"/>
		<linearGradient id="SVGID_4_" gradientUnits="userSpaceOnUse" x1="-298.0459" y1="17.4326" x2="534.5527" y2="17.4326">
			<stop  offset="0.0357" style="stop-color:#D57F87"/>
			<stop  offset="0.1437" style="stop-color:#D78A8D"/>
			<stop  offset="0.3303" style="stop-color:#DDA69E"/>
			<stop  offset="0.3786" style="stop-color:#DFAEA3"/>
			<stop  offset="0.7551" style="stop-color:#E4BBB2"/>
			<stop  offset="1" style="stop-color:#CD787C"/>
		</linearGradient>
		<path fill="url(#SVGID_4_)" d="M-179.392,2.84v14.352h17.904V19.4h-17.904v14.832h-2.448v-33.6h22.464V2.84H-179.392z"/>
		<linearGradient id="SVGID_5_" gradientUnits="userSpaceOnUse" x1="-298.0459" y1="17.4326" x2="534.5527" y2="17.4326">
			<stop  offset="0.0357" style="stop-color:#D57F87"/>
			<stop  offset="0.1437" style="stop-color:#D78A8D"/>
			<stop  offset="0.3303" style="stop-color:#DDA69E"/>
			<stop  offset="0.3786" style="stop-color:#DFAEA3"/>
			<stop  offset="0.7551" style="stop-color:#E4BBB2"/>
			<stop  offset="1" style="stop-color:#CD787C"/>
		</linearGradient>
		<path fill="url(#SVGID_5_)" d="M-151.552,0.632h2.448v31.392h19.344v2.208h-21.792V0.632z"/>
		<linearGradient id="SVGID_6_" gradientUnits="userSpaceOnUse" x1="-298.0459" y1="17.4326" x2="534.5527" y2="17.4326">
			<stop  offset="0.0357" style="stop-color:#D57F87"/>
			<stop  offset="0.1437" style="stop-color:#D78A8D"/>
			<stop  offset="0.3303" style="stop-color:#DDA69E"/>
			<stop  offset="0.3786" style="stop-color:#DFAEA3"/>
			<stop  offset="0.7551" style="stop-color:#E4BBB2"/>
			<stop  offset="1" style="stop-color:#CD787C"/>
		</linearGradient>
		<path fill="url(#SVGID_6_)" d="M-102.688,24.776h-19.488l-4.272,9.456h-2.64l15.455-33.6h2.449l15.455,33.6h-2.64L-102.688,24.776
			z M-103.6,22.712l-8.832-19.392l-8.785,19.392H-103.6z"/>
		<linearGradient id="SVGID_7_" gradientUnits="userSpaceOnUse" x1="-298.0459" y1="17.4326" x2="534.5527" y2="17.4326">
			<stop  offset="0.0357" style="stop-color:#D57F87"/>
			<stop  offset="0.1437" style="stop-color:#D78A8D"/>
			<stop  offset="0.3303" style="stop-color:#DDA69E"/>
			<stop  offset="0.3786" style="stop-color:#DFAEA3"/>
			<stop  offset="0.7551" style="stop-color:#E4BBB2"/>
			<stop  offset="1" style="stop-color:#CD787C"/>
		</linearGradient>
		<path fill="url(#SVGID_7_)" d="M-57.857,34.232L-57.904,5.48l-14.064,24.288h-1.2L-87.232,5.577v28.656h-2.4v-33.6h2.064
			l15.023,25.968l15.023-25.968h2.017l0.048,33.6H-57.857z"/>
		<linearGradient id="SVGID_8_" gradientUnits="userSpaceOnUse" x1="-298.0459" y1="17.4326" x2="534.5527" y2="17.4326">
			<stop  offset="0.0357" style="stop-color:#D57F87"/>
			<stop  offset="0.1437" style="stop-color:#D78A8D"/>
			<stop  offset="0.3303" style="stop-color:#DDA69E"/>
			<stop  offset="0.3786" style="stop-color:#DFAEA3"/>
			<stop  offset="0.7551" style="stop-color:#E4BBB2"/>
			<stop  offset="1" style="stop-color:#CD787C"/>
		</linearGradient>
		<path fill="url(#SVGID_8_)" d="M-20.561,32.024v2.208h-23.185v-33.6h22.464V2.84h-20.016v13.248h17.904v2.16h-17.904v13.776
			H-20.561z"/>
		<linearGradient id="SVGID_9_" gradientUnits="userSpaceOnUse" x1="-298.0459" y1="17.4326" x2="534.5527" y2="17.4326">
			<stop  offset="0.0357" style="stop-color:#D57F87"/>
			<stop  offset="0.1437" style="stop-color:#D78A8D"/>
			<stop  offset="0.3303" style="stop-color:#DDA69E"/>
			<stop  offset="0.3786" style="stop-color:#DFAEA3"/>
			<stop  offset="0.7551" style="stop-color:#E4BBB2"/>
			<stop  offset="1" style="stop-color:#CD787C"/>
		</linearGradient>
		<path fill="url(#SVGID_9_)" d="M26.166,19.736c1.264,1.44,1.896,3.312,1.896,5.616c0,2.849-1.041,5.04-3.12,6.575
			c-2.081,1.537-5.169,2.305-9.265,2.305H0.702v-33.6h14.017c3.647,0,6.486,0.744,8.52,2.232c2.031,1.488,3.048,3.608,3.048,6.36
			c0,1.92-0.504,3.536-1.512,4.848c-1.009,1.313-2.376,2.256-4.104,2.832C23.07,17.353,24.902,18.296,26.166,19.736z M3.15,2.745
			v13.392h11.472c2.944,0,5.208-0.567,6.792-1.704c1.584-1.136,2.376-2.808,2.376-5.016c0-2.176-0.792-3.832-2.376-4.968
			c-1.584-1.135-3.848-1.704-6.792-1.704H3.15z M23.094,30.416c1.681-1.135,2.521-2.887,2.521-5.255c0-2.368-0.84-4.112-2.521-5.232
			c-1.68-1.12-4.151-1.68-7.416-1.68H3.15v13.873h12.527C18.942,32.121,21.414,31.553,23.094,30.416z"/>
		<linearGradient id="SVGID_10_" gradientUnits="userSpaceOnUse" x1="-298.0459" y1="17.4326" x2="534.5527" y2="17.4326">
			<stop  offset="0.0357" style="stop-color:#D57F87"/>
			<stop  offset="0.1437" style="stop-color:#D78A8D"/>
			<stop  offset="0.3303" style="stop-color:#DDA69E"/>
			<stop  offset="0.3786" style="stop-color:#DFAEA3"/>
			<stop  offset="0.7551" style="stop-color:#E4BBB2"/>
			<stop  offset="1" style="stop-color:#CD787C"/>
		</linearGradient>
		<path fill="url(#SVGID_10_)" d="M40.038,30.776c-2.353-2.464-3.528-6.063-3.528-10.8V0.632h2.448V19.88
			c0,4.128,0.943,7.216,2.832,9.264c1.888,2.049,4.624,3.072,8.208,3.072c3.552,0,6.271-1.023,8.16-3.072
			c1.887-2.048,2.832-5.136,2.832-9.264V0.632h2.447v19.344c0,4.736-1.184,8.336-3.552,10.8s-5.681,3.696-9.937,3.696
			S42.391,33.24,40.038,30.776z"/>
		<linearGradient id="SVGID_11_" gradientUnits="userSpaceOnUse" x1="-298.0459" y1="17.4326" x2="534.5527" y2="17.4326">
			<stop  offset="0.0357" style="stop-color:#D57F87"/>
			<stop  offset="0.1437" style="stop-color:#D78A8D"/>
			<stop  offset="0.3303" style="stop-color:#DDA69E"/>
			<stop  offset="0.3786" style="stop-color:#DFAEA3"/>
			<stop  offset="0.7551" style="stop-color:#E4BBB2"/>
			<stop  offset="1" style="stop-color:#CD787C"/>
		</linearGradient>
		<path fill="url(#SVGID_11_)" d="M98.189,34.232L90.174,23c-1.184,0.161-2.272,0.24-3.264,0.24h-9.6v10.992h-2.449v-33.6H86.91
			c4.224,0,7.535,1,9.936,3c2.4,2,3.6,4.776,3.6,8.328c0,2.656-0.68,4.889-2.039,6.696c-1.361,1.809-3.305,3.081-5.832,3.816
			l8.399,11.76H98.189z M86.91,21.081c3.583,0,6.319-0.792,8.207-2.376c1.889-1.584,2.832-3.832,2.832-6.744
			c0-2.912-0.943-5.16-2.832-6.744C93.229,3.632,90.493,2.84,86.91,2.84h-9.6v18.24H86.91z"/>
		<linearGradient id="SVGID_12_" gradientUnits="userSpaceOnUse" x1="-298.0459" y1="17.4326" x2="534.5527" y2="17.4326">
			<stop  offset="0.0357" style="stop-color:#D57F87"/>
			<stop  offset="0.1437" style="stop-color:#D78A8D"/>
			<stop  offset="0.3303" style="stop-color:#DDA69E"/>
			<stop  offset="0.3786" style="stop-color:#DFAEA3"/>
			<stop  offset="0.7551" style="stop-color:#E4BBB2"/>
			<stop  offset="1" style="stop-color:#CD787C"/>
		</linearGradient>
		<path fill="url(#SVGID_12_)" d="M136.781,0.632v33.6h-2.016L111.869,5.048v29.184h-2.448v-33.6h2.063l22.849,29.184V0.632H136.781
			z"/>
		<linearGradient id="SVGID_13_" gradientUnits="userSpaceOnUse" x1="-298.0459" y1="17.4326" x2="534.5527" y2="17.4326">
			<stop  offset="0.0357" style="stop-color:#D57F87"/>
			<stop  offset="0.1437" style="stop-color:#D78A8D"/>
			<stop  offset="0.3303" style="stop-color:#DDA69E"/>
			<stop  offset="0.3786" style="stop-color:#DFAEA3"/>
			<stop  offset="0.7551" style="stop-color:#E4BBB2"/>
			<stop  offset="1" style="stop-color:#CD787C"/>
		</linearGradient>
		<path fill="url(#SVGID_13_)" d="M171.678,32.024v2.208h-23.185v-33.6h22.464V2.84h-20.016v13.248h17.904v2.16h-17.904v13.776
			H171.678z"/>
		<linearGradient id="SVGID_14_" gradientUnits="userSpaceOnUse" x1="-298.0459" y1="17.4326" x2="534.5527" y2="17.4326">
			<stop  offset="0.0357" style="stop-color:#D57F87"/>
			<stop  offset="0.1437" style="stop-color:#D78A8D"/>
			<stop  offset="0.3303" style="stop-color:#DDA69E"/>
			<stop  offset="0.3786" style="stop-color:#DFAEA3"/>
			<stop  offset="0.7551" style="stop-color:#E4BBB2"/>
			<stop  offset="1" style="stop-color:#CD787C"/>
		</linearGradient>
		<path fill="url(#SVGID_14_)" d="M180.604,0.632H193.9c3.488,0,6.584,0.72,9.288,2.16s4.808,3.432,6.312,5.976
			s2.256,5.432,2.256,8.664c0,3.232-0.752,6.12-2.256,8.664c-1.504,2.544-3.607,4.537-6.312,5.976s-5.8,2.16-9.288,2.16h-13.296
			V0.632z M193.709,32.024c3.104,0,5.839-0.616,8.207-1.849c2.368-1.23,4.192-2.951,5.473-5.159c1.279-2.208,1.92-4.736,1.92-7.584
			s-0.641-5.376-1.92-7.584c-1.28-2.208-3.104-3.928-5.473-5.16c-2.368-1.231-5.104-1.848-8.207-1.848h-10.656v29.184H193.709z"/>
		<linearGradient id="SVGID_15_" gradientUnits="userSpaceOnUse" x1="-298.0459" y1="17.4326" x2="534.5527" y2="17.4326">
			<stop  offset="0.0357" style="stop-color:#D57F87"/>
			<stop  offset="0.1437" style="stop-color:#D78A8D"/>
			<stop  offset="0.3303" style="stop-color:#DDA69E"/>
			<stop  offset="0.3786" style="stop-color:#DFAEA3"/>
			<stop  offset="0.7551" style="stop-color:#E4BBB2"/>
			<stop  offset="1" style="stop-color:#CD787C"/>
		</linearGradient>
		<path fill="url(#SVGID_15_)" d="M237.916,32.24c-2.657-1.488-4.745-3.527-6.265-6.12c-1.521-2.592-2.28-5.488-2.28-8.688
			c0-3.2,0.76-6.096,2.28-8.688c1.52-2.592,3.607-4.632,6.265-6.12c2.655-1.488,5.631-2.232,8.928-2.232
			c3.295,0,6.271,0.736,8.928,2.208c2.656,1.472,4.744,3.504,6.264,6.096c1.52,2.592,2.28,5.504,2.28,8.736
			c0,3.232-0.761,6.144-2.28,8.736c-1.52,2.591-3.607,4.625-6.264,6.096s-5.633,2.208-8.928,2.208
			C243.547,34.473,240.571,33.729,237.916,32.24z M254.476,30.297c2.271-1.279,4.063-3.049,5.376-5.305
			c1.312-2.256,1.968-4.776,1.968-7.56c0-2.784-0.656-5.304-1.968-7.56c-1.313-2.256-3.104-4.024-5.376-5.304
			c-2.272-1.279-4.816-1.92-7.632-1.92c-2.816,0-5.369,0.641-7.656,1.92c-2.288,1.28-4.088,3.048-5.4,5.304
			c-1.313,2.256-1.968,4.776-1.968,7.56c0,2.784,0.655,5.304,1.968,7.56s3.112,4.025,5.4,5.305c2.287,1.279,4.84,1.92,7.656,1.92
			C249.659,32.217,252.203,31.576,254.476,30.297z"/>
		<linearGradient id="SVGID_16_" gradientUnits="userSpaceOnUse" x1="-298.0459" y1="17.4326" x2="534.5527" y2="17.4326">
			<stop  offset="0.0357" style="stop-color:#D57F87"/>
			<stop  offset="0.1437" style="stop-color:#D78A8D"/>
			<stop  offset="0.3303" style="stop-color:#DDA69E"/>
			<stop  offset="0.3786" style="stop-color:#DFAEA3"/>
			<stop  offset="0.7551" style="stop-color:#E4BBB2"/>
			<stop  offset="1" style="stop-color:#CD787C"/>
		</linearGradient>
		<path fill="url(#SVGID_16_)" d="M300.172,0.632v33.6h-2.016L275.26,5.048v29.184h-2.448v-33.6h2.063l22.85,29.184V0.632H300.172z"
			/>
		<linearGradient id="SVGID_17_" gradientUnits="userSpaceOnUse" x1="-298.0459" y1="17.4326" x2="534.5527" y2="17.4326">
			<stop  offset="0.0357" style="stop-color:#D57F87"/>
			<stop  offset="0.1437" style="stop-color:#D78A8D"/>
			<stop  offset="0.3303" style="stop-color:#DDA69E"/>
			<stop  offset="0.3786" style="stop-color:#DFAEA3"/>
			<stop  offset="0.7551" style="stop-color:#E4BBB2"/>
			<stop  offset="1" style="stop-color:#CD787C"/>
		</linearGradient>
		<path fill="url(#SVGID_17_)" d="M317.188,32.265c-2.641-1.472-4.721-3.505-6.24-6.096c-1.521-2.592-2.281-5.503-2.281-8.736
			c0-3.232,0.76-6.144,2.281-8.736c1.52-2.592,3.6-4.624,6.24-6.096c2.639-1.472,5.607-2.208,8.904-2.208
			c2.43,0,4.67,0.392,6.719,1.176c2.047,0.785,3.793,1.944,5.232,3.48l-1.535,1.584c-2.689-2.656-6.129-3.984-10.32-3.984
			c-2.816,0-5.377,0.641-7.68,1.92c-2.305,1.28-4.113,3.048-5.426,5.304c-1.313,2.256-1.967,4.776-1.967,7.56
			c0,2.784,0.654,5.304,1.967,7.56s3.121,4.025,5.426,5.305c2.303,1.279,4.863,1.92,7.68,1.92c4.158,0,7.6-1.344,10.32-4.032
			l1.535,1.584c-1.439,1.536-3.191,2.704-5.256,3.504s-4.297,1.2-6.695,1.2C322.795,34.473,319.826,33.736,317.188,32.265z"/>
		<linearGradient id="SVGID_18_" gradientUnits="userSpaceOnUse" x1="-298.0459" y1="17.4326" x2="534.5527" y2="17.4326">
			<stop  offset="0.0357" style="stop-color:#D57F87"/>
			<stop  offset="0.1437" style="stop-color:#D78A8D"/>
			<stop  offset="0.3303" style="stop-color:#DDA69E"/>
			<stop  offset="0.3786" style="stop-color:#DFAEA3"/>
			<stop  offset="0.7551" style="stop-color:#E4BBB2"/>
			<stop  offset="1" style="stop-color:#CD787C"/>
		</linearGradient>
		<path fill="url(#SVGID_18_)" d="M369.434,32.024v2.208H346.25v-33.6h22.465V2.84h-20.018v13.248h17.904v2.16h-17.904v13.776
			H369.434z"/>
		<linearGradient id="SVGID_19_" gradientUnits="userSpaceOnUse" x1="-298.0459" y1="17.4326" x2="534.5527" y2="17.4326">
			<stop  offset="0.0357" style="stop-color:#D57F87"/>
			<stop  offset="0.1437" style="stop-color:#D78A8D"/>
			<stop  offset="0.3303" style="stop-color:#DDA69E"/>
			<stop  offset="0.3786" style="stop-color:#DFAEA3"/>
			<stop  offset="0.7551" style="stop-color:#E4BBB2"/>
			<stop  offset="1" style="stop-color:#CD787C"/>
		</linearGradient>
		<path fill="url(#SVGID_19_)" d="M422.473,34.232L422.426,5.48l-14.064,24.288h-1.199L393.098,5.577v28.656h-2.4v-33.6h2.064
			l15.023,25.968l15.023-25.968h2.018l0.047,33.6H422.473z"/>
		<linearGradient id="SVGID_20_" gradientUnits="userSpaceOnUse" x1="-298.0459" y1="17.4326" x2="534.5527" y2="17.4326">
			<stop  offset="0.0357" style="stop-color:#D57F87"/>
			<stop  offset="0.1437" style="stop-color:#D78A8D"/>
			<stop  offset="0.3303" style="stop-color:#DDA69E"/>
			<stop  offset="0.3786" style="stop-color:#DFAEA3"/>
			<stop  offset="0.7551" style="stop-color:#E4BBB2"/>
			<stop  offset="1" style="stop-color:#CD787C"/>
		</linearGradient>
		<path fill="url(#SVGID_20_)" d="M441.912,32.24c-2.656-1.488-4.744-3.527-6.264-6.12s-2.279-5.488-2.279-8.688
			c0-3.2,0.76-6.096,2.279-8.688c1.52-2.592,3.607-4.632,6.264-6.12c2.656-1.488,5.633-2.232,8.93-2.232
			c3.295,0,6.271,0.736,8.928,2.208c2.654,1.472,4.744,3.504,6.264,6.096c1.52,2.592,2.279,5.504,2.279,8.736
			c0,3.232-0.76,6.144-2.279,8.736c-1.52,2.591-3.609,4.625-6.264,6.096c-2.656,1.472-5.633,2.208-8.928,2.208
			C447.545,34.473,444.568,33.729,441.912,32.24z M458.473,30.297c2.271-1.279,4.064-3.049,5.377-5.305
			c1.311-2.256,1.967-4.776,1.967-7.56c0-2.784-0.656-5.304-1.967-7.56c-1.313-2.256-3.105-4.024-5.377-5.304
			c-2.271-1.279-4.816-1.92-7.631-1.92c-2.816,0-5.369,0.641-7.656,1.92c-2.289,1.28-4.088,3.048-5.4,5.304
			c-1.313,2.256-1.969,4.776-1.969,7.56c0,2.784,0.656,5.304,1.969,7.56s3.111,4.025,5.4,5.305c2.287,1.279,4.84,1.92,7.656,1.92
			C453.656,32.217,456.201,31.576,458.473,30.297z"/>
		<linearGradient id="SVGID_21_" gradientUnits="userSpaceOnUse" x1="-298.0459" y1="17.4326" x2="534.5527" y2="17.4326">
			<stop  offset="0.0357" style="stop-color:#D57F87"/>
			<stop  offset="0.1437" style="stop-color:#D78A8D"/>
			<stop  offset="0.3303" style="stop-color:#DDA69E"/>
			<stop  offset="0.3786" style="stop-color:#DFAEA3"/>
			<stop  offset="0.7551" style="stop-color:#E4BBB2"/>
			<stop  offset="1" style="stop-color:#CD787C"/>
		</linearGradient>
		<path fill="url(#SVGID_21_)" d="M500.137,34.232L492.121,23c-1.186,0.161-2.273,0.24-3.264,0.24h-9.602v10.992h-2.447v-33.6
			h12.049c4.223,0,7.535,1,9.936,3c2.4,2,3.6,4.776,3.6,8.328c0,2.656-0.68,4.889-2.039,6.696c-1.361,1.809-3.305,3.081-5.832,3.816
			l8.398,11.76H500.137z M488.857,21.081c3.582,0,6.318-0.792,8.207-2.376s2.832-3.832,2.832-6.744c0-2.912-0.943-5.16-2.832-6.744
			s-4.625-2.376-8.207-2.376h-9.602v18.24H488.857z"/>
		<linearGradient id="SVGID_22_" gradientUnits="userSpaceOnUse" x1="-298.0459" y1="17.4326" x2="534.5527" y2="17.4326">
			<stop  offset="0.0357" style="stop-color:#D57F87"/>
			<stop  offset="0.1437" style="stop-color:#D78A8D"/>
			<stop  offset="0.3303" style="stop-color:#DDA69E"/>
			<stop  offset="0.3786" style="stop-color:#DFAEA3"/>
			<stop  offset="0.7551" style="stop-color:#E4BBB2"/>
			<stop  offset="1" style="stop-color:#CD787C"/>
		</linearGradient>
		<path fill="url(#SVGID_22_)" d="M534.553,32.024v2.208h-23.184v-33.6h22.463V2.84h-20.016v13.248h17.904v2.16h-17.904v13.776
			H534.553z"/>
	</g>
</g>
</svg>
