<?xml version="1.0" encoding="utf-8"?>
<!-- Generator: Adobe Illustrator 16.0.0, SVG Export Plug-In . SVG Version: 6.00 Build 0)  -->
<!DOCTYPE svg PUBLIC "-//W3C//DTD SVG 1.1//EN" "http://www.w3.org/Graphics/SVG/1.1/DTD/svg11.dtd">
<svg version="1.1" id="Layer_1" xmlns="http://www.w3.org/2000/svg" xmlns:xlink="http://www.w3.org/1999/xlink" x="0px" y="0px"
	 width="148.583px" height="25.56px" viewBox="0 0 148.583 25.56" enable-background="new 0 0 148.583 25.56" xml:space="preserve">
<g>
	<g>
		<linearGradient id="SVGID_1_" gradientUnits="userSpaceOnUse" x1="1.0635" y1="12.7798" x2="385.7183" y2="12.7798">
			<stop  offset="0.0357" style="stop-color:#D57F87"/>
			<stop  offset="0.1437" style="stop-color:#D78A8D"/>
			<stop  offset="0.3303" style="stop-color:#DDA69E"/>
			<stop  offset="0.3786" style="stop-color:#DFAEA3"/>
			<stop  offset="0.7551" style="stop-color:#E4BBB2"/>
			<stop  offset="1" style="stop-color:#CD787C"/>
		</linearGradient>
		<path fill="url(#SVGID_1_)" d="M7.454,23.904c-1.98-1.104-3.541-2.628-4.68-4.572c-1.14-1.944-1.71-4.128-1.71-6.552
			c0-2.424,0.57-4.608,1.71-6.552c1.14-1.944,2.7-3.468,4.68-4.572C9.434,0.552,11.659,0,14.131,0c1.824,0,3.504,0.294,5.04,0.882
			c1.536,0.588,2.844,1.458,3.924,2.61L21.943,4.68c-2.016-1.992-4.596-2.988-7.74-2.988c-2.112,0-4.032,0.48-5.76,1.44
			C6.715,4.092,5.359,5.418,4.375,7.11c-0.984,1.692-1.476,3.582-1.476,5.67s0.492,3.978,1.476,5.67
			c0.984,1.692,2.34,3.019,4.068,3.978c1.728,0.96,3.648,1.44,5.76,1.44c3.12,0,5.7-1.008,7.74-3.024l1.152,1.188
			c-1.08,1.152-2.394,2.028-3.942,2.628c-1.548,0.601-3.222,0.9-5.022,0.9C11.659,25.56,9.434,25.008,7.454,23.904z"/>
		<linearGradient id="SVGID_2_" gradientUnits="userSpaceOnUse" x1="1.0635" y1="12.7798" x2="385.7183" y2="12.7798">
			<stop  offset="0.0357" style="stop-color:#D57F87"/>
			<stop  offset="0.1437" style="stop-color:#D78A8D"/>
			<stop  offset="0.3303" style="stop-color:#DDA69E"/>
			<stop  offset="0.3786" style="stop-color:#DFAEA3"/>
			<stop  offset="0.7551" style="stop-color:#E4BBB2"/>
			<stop  offset="1" style="stop-color:#CD787C"/>
		</linearGradient>
		<path fill="url(#SVGID_2_)" d="M44.839,18.288H30.223l-3.204,7.092h-1.98l11.592-25.2h1.836l11.592,25.2h-1.98L44.839,18.288z
			 M44.155,16.74L37.531,2.196L30.943,16.74H44.155z"/>
		<linearGradient id="SVGID_3_" gradientUnits="userSpaceOnUse" x1="1.0635" y1="12.7798" x2="385.7183" y2="12.7798">
			<stop  offset="0.0357" style="stop-color:#D57F87"/>
			<stop  offset="0.1437" style="stop-color:#D78A8D"/>
			<stop  offset="0.3303" style="stop-color:#DDA69E"/>
			<stop  offset="0.3786" style="stop-color:#DFAEA3"/>
			<stop  offset="0.7551" style="stop-color:#E4BBB2"/>
			<stop  offset="1" style="stop-color:#CD787C"/>
		</linearGradient>
		<path fill="url(#SVGID_3_)" d="M72.127,25.38l-6.012-8.424c-0.888,0.12-1.705,0.18-2.448,0.18h-7.2v8.244h-1.836V0.18h9.036
			c3.168,0,5.652,0.75,7.452,2.25c1.8,1.5,2.7,3.582,2.7,6.246c0,1.993-0.51,3.667-1.53,5.022c-1.02,1.356-2.478,2.311-4.374,2.862
			l6.3,8.82H72.127z M63.667,15.516c2.688,0,4.739-0.594,6.156-1.782c1.416-1.188,2.124-2.874,2.124-5.058
			c0-2.184-0.708-3.87-2.124-5.058c-1.417-1.188-3.468-1.782-6.156-1.782h-7.2v13.68H63.667z"/>
		<linearGradient id="SVGID_4_" gradientUnits="userSpaceOnUse" x1="1.0635" y1="12.7798" x2="385.7183" y2="12.7798">
			<stop  offset="0.0357" style="stop-color:#D57F87"/>
			<stop  offset="0.1437" style="stop-color:#D78A8D"/>
			<stop  offset="0.3303" style="stop-color:#DDA69E"/>
			<stop  offset="0.3786" style="stop-color:#DFAEA3"/>
			<stop  offset="0.7551" style="stop-color:#E4BBB2"/>
			<stop  offset="1" style="stop-color:#CD787C"/>
		</linearGradient>
		<path fill="url(#SVGID_4_)" d="M97.938,23.724v1.656H80.55V0.18h16.848v1.656H82.386v9.936h13.428v1.62H82.386v10.332H97.938z"/>
		<linearGradient id="SVGID_5_" gradientUnits="userSpaceOnUse" x1="1.0635" y1="12.7798" x2="385.7183" y2="12.7798">
			<stop  offset="0.0357" style="stop-color:#D57F87"/>
			<stop  offset="0.1437" style="stop-color:#D78A8D"/>
			<stop  offset="0.3303" style="stop-color:#DDA69E"/>
			<stop  offset="0.3786" style="stop-color:#DFAEA3"/>
			<stop  offset="0.7551" style="stop-color:#E4BBB2"/>
			<stop  offset="1" style="stop-color:#CD787C"/>
		</linearGradient>
		<path fill="url(#SVGID_5_)" d="M122.021,23.724v1.656h-17.387V0.18h16.848v1.656H106.47v9.936h13.428v1.62H106.47v10.332H122.021z
			"/>
		<linearGradient id="SVGID_6_" gradientUnits="userSpaceOnUse" x1="1.0635" y1="12.7798" x2="385.7183" y2="12.7798">
			<stop  offset="0.0357" style="stop-color:#D57F87"/>
			<stop  offset="0.1437" style="stop-color:#D78A8D"/>
			<stop  offset="0.3303" style="stop-color:#DDA69E"/>
			<stop  offset="0.3786" style="stop-color:#DFAEA3"/>
			<stop  offset="0.7551" style="stop-color:#E4BBB2"/>
			<stop  offset="1" style="stop-color:#CD787C"/>
		</linearGradient>
		<path fill="url(#SVGID_6_)" d="M146.214,25.38l-6.013-8.424c-0.888,0.12-1.704,0.18-2.448,0.18h-7.199v8.244h-1.836V0.18h9.035
			c3.168,0,5.652,0.75,7.452,2.25c1.8,1.5,2.7,3.582,2.7,6.246c0,1.993-0.51,3.667-1.53,5.022c-1.021,1.356-2.478,2.311-4.374,2.862
			l6.301,8.82H146.214z M137.753,15.516c2.688,0,4.74-0.594,6.156-1.782s2.124-2.874,2.124-5.058c0-2.184-0.708-3.87-2.124-5.058
			s-3.469-1.782-6.156-1.782h-7.199v13.68H137.753z"/>
		<linearGradient id="SVGID_7_" gradientUnits="userSpaceOnUse" x1="1.0635" y1="12.7798" x2="385.7183" y2="12.7798">
			<stop  offset="0.0357" style="stop-color:#D57F87"/>
			<stop  offset="0.1437" style="stop-color:#D78A8D"/>
			<stop  offset="0.3303" style="stop-color:#DDA69E"/>
			<stop  offset="0.3786" style="stop-color:#DFAEA3"/>
			<stop  offset="0.7551" style="stop-color:#E4BBB2"/>
			<stop  offset="1" style="stop-color:#CD787C"/>
		</linearGradient>
		<path fill="url(#SVGID_7_)" d="M184.409,0.18v25.2h-1.836V13.392h-16.849V25.38h-1.836V0.18h1.836v11.592h16.849V0.18H184.409z"/>
		<linearGradient id="SVGID_8_" gradientUnits="userSpaceOnUse" x1="1.0635" y1="12.7798" x2="385.7183" y2="12.7798">
			<stop  offset="0.0357" style="stop-color:#D57F87"/>
			<stop  offset="0.1437" style="stop-color:#D78A8D"/>
			<stop  offset="0.3303" style="stop-color:#DDA69E"/>
			<stop  offset="0.3786" style="stop-color:#DFAEA3"/>
			<stop  offset="0.7551" style="stop-color:#E4BBB2"/>
			<stop  offset="1" style="stop-color:#CD787C"/>
		</linearGradient>
		<path fill="url(#SVGID_8_)" d="M193.193,0.18h1.836v25.2h-1.836V0.18z"/>
		<linearGradient id="SVGID_9_" gradientUnits="userSpaceOnUse" x1="1.0635" y1="12.7798" x2="385.7183" y2="12.7798">
			<stop  offset="0.0357" style="stop-color:#D57F87"/>
			<stop  offset="0.1437" style="stop-color:#D78A8D"/>
			<stop  offset="0.3303" style="stop-color:#DDA69E"/>
			<stop  offset="0.3786" style="stop-color:#DFAEA3"/>
			<stop  offset="0.7551" style="stop-color:#E4BBB2"/>
			<stop  offset="1" style="stop-color:#CD787C"/>
		</linearGradient>
		<path fill="url(#SVGID_9_)" d="M221.812,12.888h1.764v9.432c-1.104,1.057-2.441,1.86-4.014,2.412
			c-1.572,0.552-3.234,0.828-4.986,0.828c-2.496,0-4.746-0.551-6.75-1.656c-2.004-1.104-3.576-2.628-4.715-4.572
			c-1.141-1.944-1.711-4.128-1.711-6.552c0-2.424,0.57-4.608,1.711-6.552c1.139-1.944,2.711-3.468,4.715-4.572
			C209.83,0.552,212.092,0,214.613,0c1.848,0,3.545,0.294,5.094,0.882c1.548,0.588,2.873,1.446,3.979,2.574l-1.152,1.224
			c-1.057-1.056-2.238-1.818-3.547-2.286c-1.308-0.468-2.754-0.702-4.338-0.702c-2.16,0-4.109,0.48-5.85,1.44
			c-1.74,0.96-3.102,2.286-4.086,3.978s-1.477,3.582-1.477,5.67c0,2.064,0.498,3.942,1.494,5.634
			c0.996,1.692,2.358,3.024,4.086,3.996c1.729,0.972,3.672,1.458,5.832,1.458c2.881,0,5.268-0.768,7.164-2.304V12.888z"/>
		<linearGradient id="SVGID_10_" gradientUnits="userSpaceOnUse" x1="1.0635" y1="12.7798" x2="385.7183" y2="12.7798">
			<stop  offset="0.0357" style="stop-color:#D57F87"/>
			<stop  offset="0.1437" style="stop-color:#D78A8D"/>
			<stop  offset="0.3303" style="stop-color:#DDA69E"/>
			<stop  offset="0.3786" style="stop-color:#DFAEA3"/>
			<stop  offset="0.7551" style="stop-color:#E4BBB2"/>
			<stop  offset="1" style="stop-color:#CD787C"/>
		</linearGradient>
		<path fill="url(#SVGID_10_)" d="M252.16,0.18v25.2h-1.836V13.392h-16.848V25.38h-1.836V0.18h1.836v11.592h16.848V0.18H252.16z"/>
		<linearGradient id="SVGID_11_" gradientUnits="userSpaceOnUse" x1="1.0635" y1="12.7798" x2="385.7183" y2="12.7798">
			<stop  offset="0.0357" style="stop-color:#D57F87"/>
			<stop  offset="0.1437" style="stop-color:#D78A8D"/>
			<stop  offset="0.3303" style="stop-color:#DDA69E"/>
			<stop  offset="0.3786" style="stop-color:#DFAEA3"/>
			<stop  offset="0.7551" style="stop-color:#E4BBB2"/>
			<stop  offset="1" style="stop-color:#CD787C"/>
		</linearGradient>
		<path fill="url(#SVGID_11_)" d="M260.944,0.18h1.836v23.544h14.508v1.656h-16.344V0.18z"/>
		<linearGradient id="SVGID_12_" gradientUnits="userSpaceOnUse" x1="1.0635" y1="12.7798" x2="385.7183" y2="12.7798">
			<stop  offset="0.0357" style="stop-color:#D57F87"/>
			<stop  offset="0.1437" style="stop-color:#D78A8D"/>
			<stop  offset="0.3303" style="stop-color:#DDA69E"/>
			<stop  offset="0.3786" style="stop-color:#DFAEA3"/>
			<stop  offset="0.7551" style="stop-color:#E4BBB2"/>
			<stop  offset="1" style="stop-color:#CD787C"/>
		</linearGradient>
		<path fill="url(#SVGID_12_)" d="M282.003,0.18h1.836v25.2h-1.836V0.18z"/>
		<linearGradient id="SVGID_13_" gradientUnits="userSpaceOnUse" x1="1.0635" y1="12.7798" x2="385.7183" y2="12.7798">
			<stop  offset="0.0357" style="stop-color:#D57F87"/>
			<stop  offset="0.1437" style="stop-color:#D78A8D"/>
			<stop  offset="0.3303" style="stop-color:#DDA69E"/>
			<stop  offset="0.3786" style="stop-color:#DFAEA3"/>
			<stop  offset="0.7551" style="stop-color:#E4BBB2"/>
			<stop  offset="1" style="stop-color:#CD787C"/>
		</linearGradient>
		<path fill="url(#SVGID_13_)" d="M310.624,12.888h1.764v9.432c-1.104,1.057-2.442,1.86-4.014,2.412
			c-1.572,0.552-3.234,0.828-4.986,0.828c-2.496,0-4.746-0.551-6.75-1.656c-2.004-1.104-3.576-2.628-4.716-4.572
			c-1.141-1.944-1.71-4.128-1.71-6.552c0-2.424,0.569-4.608,1.71-6.552c1.14-1.944,2.712-3.468,4.716-4.572
			C298.641,0.552,300.904,0,303.423,0c1.848,0,3.546,0.294,5.094,0.882c1.549,0.588,2.874,1.446,3.979,2.574l-1.152,1.224
			c-1.057-1.056-2.238-1.818-3.546-2.286c-1.308-0.468-2.754-0.702-4.338-0.702c-2.16,0-4.11,0.48-5.851,1.44
			c-1.74,0.96-3.102,2.286-4.086,3.978s-1.476,3.582-1.476,5.67c0,2.064,0.498,3.942,1.494,5.634
			c0.995,1.692,2.358,3.024,4.086,3.996c1.728,0.972,3.672,1.458,5.832,1.458c2.88,0,5.268-0.768,7.164-2.304V12.888z"/>
		<linearGradient id="SVGID_14_" gradientUnits="userSpaceOnUse" x1="1.0635" y1="12.7798" x2="385.7183" y2="12.7798">
			<stop  offset="0.0357" style="stop-color:#D57F87"/>
			<stop  offset="0.1437" style="stop-color:#D78A8D"/>
			<stop  offset="0.3303" style="stop-color:#DDA69E"/>
			<stop  offset="0.3786" style="stop-color:#DFAEA3"/>
			<stop  offset="0.7551" style="stop-color:#E4BBB2"/>
			<stop  offset="1" style="stop-color:#CD787C"/>
		</linearGradient>
		<path fill="url(#SVGID_14_)" d="M340.972,0.18v25.2h-1.836V13.392h-16.849V25.38h-1.836V0.18h1.836v11.592h16.849V0.18H340.972z"
			/>
		<linearGradient id="SVGID_15_" gradientUnits="userSpaceOnUse" x1="1.0635" y1="12.7798" x2="385.7183" y2="12.7798">
			<stop  offset="0.0357" style="stop-color:#D57F87"/>
			<stop  offset="0.1437" style="stop-color:#D78A8D"/>
			<stop  offset="0.3303" style="stop-color:#DDA69E"/>
			<stop  offset="0.3786" style="stop-color:#DFAEA3"/>
			<stop  offset="0.7551" style="stop-color:#E4BBB2"/>
			<stop  offset="1" style="stop-color:#CD787C"/>
		</linearGradient>
		<path fill="url(#SVGID_15_)" d="M354.58,1.836h-9.072V0.18h19.98v1.656h-9.072V25.38h-1.836V1.836z"/>
		<linearGradient id="SVGID_16_" gradientUnits="userSpaceOnUse" x1="1.0635" y1="12.7798" x2="385.7183" y2="12.7798">
			<stop  offset="0.0357" style="stop-color:#D57F87"/>
			<stop  offset="0.1437" style="stop-color:#D78A8D"/>
			<stop  offset="0.3303" style="stop-color:#DDA69E"/>
			<stop  offset="0.3786" style="stop-color:#DFAEA3"/>
			<stop  offset="0.7551" style="stop-color:#E4BBB2"/>
			<stop  offset="1" style="stop-color:#CD787C"/>
		</linearGradient>
		<path fill="url(#SVGID_16_)" d="M371.373,24.606c-1.668-0.636-2.97-1.458-3.906-2.466l0.828-1.368
			c0.889,0.936,2.082,1.698,3.582,2.286c1.5,0.588,3.078,0.882,4.734,0.882c2.399,0,4.212-0.456,5.436-1.368
			c1.225-0.912,1.836-2.1,1.836-3.564c0-1.128-0.323-2.028-0.972-2.7c-0.647-0.672-1.452-1.188-2.411-1.548
			c-0.961-0.36-2.257-0.732-3.889-1.116c-1.848-0.456-3.33-0.9-4.445-1.332c-1.117-0.432-2.064-1.098-2.845-1.998
			s-1.17-2.106-1.17-3.618c0-1.224,0.324-2.346,0.972-3.366c0.648-1.02,1.639-1.83,2.971-2.43c1.332-0.6,2.993-0.9,4.986-0.9
			c1.391,0,2.759,0.204,4.104,0.612c1.344,0.408,2.508,0.96,3.492,1.656l-0.685,1.476c-1.008-0.696-2.118-1.224-3.33-1.584
			c-1.212-0.36-2.406-0.54-3.581-0.54c-2.329,0-4.093,0.468-5.293,1.404s-1.8,2.148-1.8,3.636c0,1.128,0.324,2.029,0.972,2.7
			c0.648,0.672,1.452,1.188,2.412,1.548c0.96,0.36,2.268,0.744,3.924,1.152c1.848,0.456,3.324,0.9,4.428,1.332
			c1.104,0.432,2.047,1.086,2.826,1.962c0.78,0.876,1.17,2.058,1.17,3.546c0,1.224-0.33,2.34-0.989,3.348
			c-0.661,1.008-1.675,1.812-3.042,2.412c-1.368,0.601-3.049,0.9-5.04,0.9C374.798,25.56,373.041,25.242,371.373,24.606z"/>
	</g>
</g>
</svg>
