<?xml version="1.0" encoding="utf-8"?>
<!-- Generator: Adobe Illustrator 16.0.0, SVG Export Plug-In . SVG Version: 6.00 Build 0)  -->
<!DOCTYPE svg PUBLIC "-//W3C//DTD SVG 1.1//EN" "http://www.w3.org/Graphics/SVG/1.1/DTD/svg11.dtd">
<svg version="1.1" id="Layer_1" xmlns="http://www.w3.org/2000/svg" xmlns:xlink="http://www.w3.org/1999/xlink" x="0px" y="0px"
	 width="276px" height="34.667px" viewBox="0 0 276 34.667" enable-background="new 0 0 276 34.667" xml:space="preserve">
<g>
	<g>
		<linearGradient id="SVGID_1_" gradientUnits="userSpaceOnUse" x1="-480.7119" y1="17.4326" x2="273.2148" y2="17.4326">
			<stop  offset="0.0357" style="stop-color:#D57F87"/>
			<stop  offset="0.1437" style="stop-color:#D78A8D"/>
			<stop  offset="0.3303" style="stop-color:#DDA69E"/>
			<stop  offset="0.3786" style="stop-color:#DFAEA3"/>
			<stop  offset="0.7551" style="stop-color:#E4BBB2"/>
			<stop  offset="1" style="stop-color:#CD787C"/>
		</linearGradient>
		<path fill="url(#SVGID_1_)" d="M-468.616,2.84h-12.096V0.632h26.64V2.84h-12.096v31.392h-2.448V2.84z"/>
		<linearGradient id="SVGID_2_" gradientUnits="userSpaceOnUse" x1="-480.7119" y1="17.4326" x2="273.2148" y2="17.4326">
			<stop  offset="0.0357" style="stop-color:#D57F87"/>
			<stop  offset="0.1437" style="stop-color:#D78A8D"/>
			<stop  offset="0.3303" style="stop-color:#DDA69E"/>
			<stop  offset="0.3786" style="stop-color:#DFAEA3"/>
			<stop  offset="0.7551" style="stop-color:#E4BBB2"/>
			<stop  offset="1" style="stop-color:#CD787C"/>
		</linearGradient>
		<path fill="url(#SVGID_2_)" d="M-420.665,0.632v33.6h-2.448V18.249h-22.464v15.984h-2.448v-33.6h2.448v15.456h22.464V0.632
			H-420.665z"/>
		<linearGradient id="SVGID_3_" gradientUnits="userSpaceOnUse" x1="-480.7119" y1="17.4326" x2="273.2148" y2="17.4326">
			<stop  offset="0.0357" style="stop-color:#D57F87"/>
			<stop  offset="0.1437" style="stop-color:#D78A8D"/>
			<stop  offset="0.3303" style="stop-color:#DDA69E"/>
			<stop  offset="0.3786" style="stop-color:#DFAEA3"/>
			<stop  offset="0.7551" style="stop-color:#E4BBB2"/>
			<stop  offset="1" style="stop-color:#CD787C"/>
		</linearGradient>
		<path fill="url(#SVGID_3_)" d="M-385.769,32.024v2.208h-23.184v-33.6h22.464V2.84h-20.016v13.248h17.904v2.16h-17.904v13.776
			H-385.769z"/>
		<linearGradient id="SVGID_4_" gradientUnits="userSpaceOnUse" x1="-480.7119" y1="17.4326" x2="273.2148" y2="17.4326">
			<stop  offset="0.0357" style="stop-color:#D57F87"/>
			<stop  offset="0.1437" style="stop-color:#D78A8D"/>
			<stop  offset="0.3303" style="stop-color:#DDA69E"/>
			<stop  offset="0.3786" style="stop-color:#DFAEA3"/>
			<stop  offset="0.7551" style="stop-color:#E4BBB2"/>
			<stop  offset="1" style="stop-color:#CD787C"/>
		</linearGradient>
		<path fill="url(#SVGID_4_)" d="M-332.73,34.232l-0.047-28.752l-14.064,24.288h-1.2l-14.064-24.192v28.656h-2.4v-33.6h2.064
			l15.024,25.968l15.023-25.968h2.017l0.048,33.6H-332.73z"/>
		<linearGradient id="SVGID_5_" gradientUnits="userSpaceOnUse" x1="-480.7119" y1="17.4326" x2="273.2148" y2="17.4326">
			<stop  offset="0.0357" style="stop-color:#D57F87"/>
			<stop  offset="0.1437" style="stop-color:#D78A8D"/>
			<stop  offset="0.3303" style="stop-color:#DDA69E"/>
			<stop  offset="0.3786" style="stop-color:#DFAEA3"/>
			<stop  offset="0.7551" style="stop-color:#E4BBB2"/>
			<stop  offset="1" style="stop-color:#CD787C"/>
		</linearGradient>
		<path fill="url(#SVGID_5_)" d="M-318.618,0.632h2.448v33.6h-2.448V0.632z"/>
		<linearGradient id="SVGID_6_" gradientUnits="userSpaceOnUse" x1="-480.7119" y1="17.4326" x2="273.2148" y2="17.4326">
			<stop  offset="0.0357" style="stop-color:#D57F87"/>
			<stop  offset="0.1437" style="stop-color:#D78A8D"/>
			<stop  offset="0.3303" style="stop-color:#DDA69E"/>
			<stop  offset="0.3786" style="stop-color:#DFAEA3"/>
			<stop  offset="0.7551" style="stop-color:#E4BBB2"/>
			<stop  offset="1" style="stop-color:#CD787C"/>
		</linearGradient>
		<path fill="url(#SVGID_6_)" d="M-277.098,0.632v33.6h-2.016L-302.01,5.048v29.184h-2.448v-33.6h2.063l22.849,29.184V0.632
			H-277.098z"/>
		<linearGradient id="SVGID_7_" gradientUnits="userSpaceOnUse" x1="-480.7119" y1="17.4326" x2="273.2148" y2="17.4326">
			<stop  offset="0.0357" style="stop-color:#D57F87"/>
			<stop  offset="0.1437" style="stop-color:#D78A8D"/>
			<stop  offset="0.3303" style="stop-color:#DDA69E"/>
			<stop  offset="0.3786" style="stop-color:#DFAEA3"/>
			<stop  offset="0.7551" style="stop-color:#E4BBB2"/>
			<stop  offset="1" style="stop-color:#CD787C"/>
		</linearGradient>
		<path fill="url(#SVGID_7_)" d="M-265.387,0.632h13.297c3.487,0,6.583,0.72,9.287,2.16s4.809,3.432,6.313,5.976
			s2.256,5.432,2.256,8.664c0,3.232-0.752,6.12-2.256,8.664c-1.504,2.544-3.608,4.537-6.313,5.976s-5.8,2.16-9.287,2.16h-13.297
			V0.632z M-252.282,32.024c3.104,0,5.839-0.616,8.208-1.849c2.367-1.23,4.191-2.951,5.473-5.159c1.279-2.208,1.92-4.736,1.92-7.584
			s-0.641-5.376-1.92-7.584c-1.281-2.208-3.105-3.928-5.473-5.16c-2.369-1.231-5.104-1.848-8.208-1.848h-10.655v29.184H-252.282z"/>
		<linearGradient id="SVGID_8_" gradientUnits="userSpaceOnUse" x1="-480.7119" y1="17.4326" x2="273.2148" y2="17.4326">
			<stop  offset="0.0357" style="stop-color:#D57F87"/>
			<stop  offset="0.1437" style="stop-color:#D78A8D"/>
			<stop  offset="0.3303" style="stop-color:#DDA69E"/>
			<stop  offset="0.3786" style="stop-color:#DFAEA3"/>
			<stop  offset="0.7551" style="stop-color:#E4BBB2"/>
			<stop  offset="1" style="stop-color:#CD787C"/>
		</linearGradient>
		<path fill="url(#SVGID_8_)" d="M-223.939,33.2c-2.224-0.847-3.959-1.944-5.207-3.288l1.104-1.824
			c1.184,1.248,2.775,2.265,4.776,3.049c1.999,0.784,4.104,1.176,6.312,1.176c3.199,0,5.616-0.607,7.248-1.824
			c1.633-1.216,2.448-2.8,2.448-4.752c0-1.503-0.433-2.704-1.296-3.6c-0.864-0.896-1.937-1.584-3.216-2.064
			c-1.28-0.48-3.009-0.976-5.185-1.488c-2.465-0.607-4.439-1.2-5.928-1.776c-1.488-0.576-2.752-1.464-3.792-2.664
			c-1.04-1.2-1.56-2.808-1.56-4.824c0-1.632,0.432-3.127,1.295-4.488c0.865-1.36,2.185-2.44,3.961-3.24
			c1.775-0.799,3.991-1.2,6.648-1.2c1.855,0,3.679,0.272,5.471,0.816c1.793,0.544,3.344,1.28,4.656,2.208l-0.912,1.968
			c-1.344-0.928-2.824-1.632-4.439-2.112c-1.616-0.48-3.209-0.72-4.775-0.72c-3.105,0-5.457,0.624-7.057,1.872
			c-1.601,1.248-2.4,2.864-2.4,4.848c0,1.504,0.433,2.705,1.297,3.6c0.863,0.896,1.936,1.584,3.215,2.064
			c1.28,0.48,3.025,0.992,5.232,1.536c2.464,0.608,4.432,1.2,5.904,1.776c1.472,0.576,2.728,1.448,3.768,2.616
			c1.04,1.168,1.561,2.745,1.561,4.728c0,1.632-0.44,3.121-1.32,4.464c-0.881,1.344-2.232,2.416-4.056,3.216
			c-1.824,0.8-4.064,1.2-6.72,1.2C-219.371,34.473-221.715,34.049-223.939,33.2z"/>
		<linearGradient id="SVGID_9_" gradientUnits="userSpaceOnUse" x1="-480.7119" y1="17.4326" x2="273.2148" y2="17.4326">
			<stop  offset="0.0357" style="stop-color:#D57F87"/>
			<stop  offset="0.1437" style="stop-color:#D78A8D"/>
			<stop  offset="0.3303" style="stop-color:#DDA69E"/>
			<stop  offset="0.3786" style="stop-color:#DFAEA3"/>
			<stop  offset="0.7551" style="stop-color:#E4BBB2"/>
			<stop  offset="1" style="stop-color:#CD787C"/>
		</linearGradient>
		<path fill="url(#SVGID_9_)" d="M-173.322,32.024v2.208h-23.185v-33.6h22.464V2.84h-20.016v13.248h17.904v2.16h-17.904v13.776
			H-173.322z"/>
		<linearGradient id="SVGID_10_" gradientUnits="userSpaceOnUse" x1="-480.7119" y1="17.4326" x2="273.2148" y2="17.4326">
			<stop  offset="0.0357" style="stop-color:#D57F87"/>
			<stop  offset="0.1437" style="stop-color:#D78A8D"/>
			<stop  offset="0.3303" style="stop-color:#DDA69E"/>
			<stop  offset="0.3786" style="stop-color:#DFAEA3"/>
			<stop  offset="0.7551" style="stop-color:#E4BBB2"/>
			<stop  offset="1" style="stop-color:#CD787C"/>
		</linearGradient>
		<path fill="url(#SVGID_10_)" d="M-157.963,2.84h-12.097V0.632h26.64V2.84h-12.096v31.392h-2.447V2.84z"/>
		<linearGradient id="SVGID_11_" gradientUnits="userSpaceOnUse" x1="-480.7119" y1="17.4326" x2="273.2148" y2="17.4326">
			<stop  offset="0.0357" style="stop-color:#D57F87"/>
			<stop  offset="0.1437" style="stop-color:#D78A8D"/>
			<stop  offset="0.3303" style="stop-color:#DDA69E"/>
			<stop  offset="0.3786" style="stop-color:#DFAEA3"/>
			<stop  offset="0.7551" style="stop-color:#E4BBB2"/>
			<stop  offset="1" style="stop-color:#CD787C"/>
		</linearGradient>
		<path fill="url(#SVGID_11_)" d="M-119.709,32.24c-2.656-1.488-4.744-3.527-6.264-6.12s-2.279-5.488-2.279-8.688
			c0-3.2,0.76-6.096,2.279-8.688c1.52-2.592,3.607-4.632,6.264-6.12c2.656-1.488,5.633-2.232,8.928-2.232
			c3.297,0,6.271,0.736,8.929,2.208c2.655,1.472,4.743,3.504,6.265,6.096c1.52,2.592,2.279,5.504,2.279,8.736
			c0,3.232-0.76,6.144-2.279,8.736c-1.521,2.591-3.609,4.625-6.265,6.096c-2.657,1.472-5.632,2.208-8.929,2.208
			C-114.076,34.473-117.053,33.729-119.709,32.24z M-103.148,30.297c2.271-1.279,4.063-3.049,5.376-5.305
			c1.312-2.256,1.968-4.776,1.968-7.56c0-2.784-0.656-5.304-1.968-7.56c-1.313-2.256-3.104-4.024-5.376-5.304
			c-2.272-1.279-4.816-1.92-7.633-1.92c-2.815,0-5.367,0.641-7.655,1.92c-2.288,1.28-4.089,3.048-5.399,5.304
			c-1.313,2.256-1.969,4.776-1.969,7.56c0,2.784,0.656,5.304,1.969,7.56c1.311,2.256,3.111,4.025,5.399,5.305s4.84,1.92,7.655,1.92
			C-107.965,32.217-105.421,31.576-103.148,30.297z"/>
		<linearGradient id="SVGID_12_" gradientUnits="userSpaceOnUse" x1="-480.7119" y1="17.4326" x2="273.2148" y2="17.4326">
			<stop  offset="0.0357" style="stop-color:#D57F87"/>
			<stop  offset="0.1437" style="stop-color:#D78A8D"/>
			<stop  offset="0.3303" style="stop-color:#DDA69E"/>
			<stop  offset="0.3786" style="stop-color:#DFAEA3"/>
			<stop  offset="0.7551" style="stop-color:#E4BBB2"/>
			<stop  offset="1" style="stop-color:#CD787C"/>
		</linearGradient>
		<path fill="url(#SVGID_12_)" d="M-82.364,2.84v14.352h17.903V19.4h-17.903v14.832h-2.448v-33.6h22.464V2.84H-82.364z"/>
		<linearGradient id="SVGID_13_" gradientUnits="userSpaceOnUse" x1="-480.7119" y1="17.4326" x2="273.2148" y2="17.4326">
			<stop  offset="0.0357" style="stop-color:#D57F87"/>
			<stop  offset="0.1437" style="stop-color:#D78A8D"/>
			<stop  offset="0.3303" style="stop-color:#DDA69E"/>
			<stop  offset="0.3786" style="stop-color:#DFAEA3"/>
			<stop  offset="0.7551" style="stop-color:#E4BBB2"/>
			<stop  offset="1" style="stop-color:#CD787C"/>
		</linearGradient>
		<path fill="url(#SVGID_13_)" d="M-21.405,24.776h-19.488l-4.272,9.456h-2.639l15.455-33.6h2.448l15.456,33.6h-2.641
			L-21.405,24.776z M-22.317,22.712L-31.149,3.32l-8.784,19.392H-22.317z"/>
		<linearGradient id="SVGID_14_" gradientUnits="userSpaceOnUse" x1="-480.7119" y1="17.4326" x2="273.2148" y2="17.4326">
			<stop  offset="0.0357" style="stop-color:#D57F87"/>
			<stop  offset="0.1437" style="stop-color:#D78A8D"/>
			<stop  offset="0.3303" style="stop-color:#DDA69E"/>
			<stop  offset="0.3786" style="stop-color:#DFAEA3"/>
			<stop  offset="0.7551" style="stop-color:#E4BBB2"/>
			<stop  offset="1" style="stop-color:#CD787C"/>
		</linearGradient>
		<path fill="url(#SVGID_14_)" d="M9.289,32.265c-2.64-1.472-4.721-3.505-6.24-6.096c-1.52-2.592-2.279-5.503-2.279-8.736
			c0-3.232,0.76-6.144,2.279-8.736c1.52-2.592,3.601-4.624,6.24-6.096c2.641-1.472,5.607-2.208,8.904-2.208
			c2.432,0,4.672,0.392,6.721,1.176c2.047,0.785,3.791,1.944,5.231,3.48l-1.536,1.584c-2.688-2.656-6.129-3.984-10.32-3.984
			c-2.816,0-5.375,0.641-7.68,1.92c-2.305,1.28-4.112,3.048-5.424,5.304c-1.313,2.256-1.969,4.776-1.969,7.56
			c0,2.784,0.656,5.304,1.969,7.56c1.312,2.256,3.119,4.025,5.424,5.305s4.863,1.92,7.68,1.92c4.16,0,7.6-1.344,10.32-4.032
			l1.536,1.584c-1.44,1.536-3.192,2.704-5.257,3.504c-2.063,0.8-4.295,1.2-6.695,1.2C14.896,34.473,11.93,33.736,9.289,32.265z"/>
		<linearGradient id="SVGID_15_" gradientUnits="userSpaceOnUse" x1="-480.7119" y1="17.4326" x2="273.2148" y2="17.4326">
			<stop  offset="0.0357" style="stop-color:#D57F87"/>
			<stop  offset="0.1437" style="stop-color:#D78A8D"/>
			<stop  offset="0.3303" style="stop-color:#DDA69E"/>
			<stop  offset="0.3786" style="stop-color:#DFAEA3"/>
			<stop  offset="0.7551" style="stop-color:#E4BBB2"/>
			<stop  offset="1" style="stop-color:#CD787C"/>
		</linearGradient>
		<path fill="url(#SVGID_15_)" d="M65.713,0.632v33.6h-2.448V18.249H40.801v15.984h-2.448v-33.6h2.448v15.456h22.464V0.632H65.713z"
			/>
		<linearGradient id="SVGID_16_" gradientUnits="userSpaceOnUse" x1="-480.7119" y1="17.4326" x2="273.2148" y2="17.4326">
			<stop  offset="0.0357" style="stop-color:#D57F87"/>
			<stop  offset="0.1437" style="stop-color:#D78A8D"/>
			<stop  offset="0.3303" style="stop-color:#DDA69E"/>
			<stop  offset="0.3786" style="stop-color:#DFAEA3"/>
			<stop  offset="0.7551" style="stop-color:#E4BBB2"/>
			<stop  offset="1" style="stop-color:#CD787C"/>
		</linearGradient>
		<path fill="url(#SVGID_16_)" d="M98.209,24.776H78.721l-4.271,9.456h-2.641l15.456-33.6h2.448l15.456,33.6h-2.64L98.209,24.776z
			 M97.297,22.712L88.465,3.32l-8.784,19.392H97.297z"/>
		<linearGradient id="SVGID_17_" gradientUnits="userSpaceOnUse" x1="-480.7119" y1="17.4326" x2="273.2148" y2="17.4326">
			<stop  offset="0.0357" style="stop-color:#D57F87"/>
			<stop  offset="0.1437" style="stop-color:#D78A8D"/>
			<stop  offset="0.3303" style="stop-color:#DDA69E"/>
			<stop  offset="0.3786" style="stop-color:#DFAEA3"/>
			<stop  offset="0.7551" style="stop-color:#E4BBB2"/>
			<stop  offset="1" style="stop-color:#CD787C"/>
		</linearGradient>
		<path fill="url(#SVGID_17_)" d="M143.039,34.232L142.992,5.48l-14.064,24.288h-1.199L113.664,5.577v28.656h-2.4v-33.6h2.064
			l15.023,25.968l15.023-25.968h2.018l0.047,33.6H143.039z"/>
		<linearGradient id="SVGID_18_" gradientUnits="userSpaceOnUse" x1="-480.7119" y1="17.4326" x2="273.2148" y2="17.4326">
			<stop  offset="0.0357" style="stop-color:#D57F87"/>
			<stop  offset="0.1437" style="stop-color:#D78A8D"/>
			<stop  offset="0.3303" style="stop-color:#DDA69E"/>
			<stop  offset="0.3786" style="stop-color:#DFAEA3"/>
			<stop  offset="0.7551" style="stop-color:#E4BBB2"/>
			<stop  offset="1" style="stop-color:#CD787C"/>
		</linearGradient>
		<path fill="url(#SVGID_18_)" d="M179.135,3.632c2.4,2,3.602,4.776,3.602,8.328c0,3.521-1.201,6.28-3.602,8.28
			c-2.398,2-5.711,3-9.936,3h-9.6v10.992h-2.447v-33.6h12.047C173.424,0.632,176.736,1.633,179.135,3.632z M177.408,18.681
			c1.887-1.568,2.832-3.808,2.832-6.72c0-2.912-0.945-5.16-2.832-6.744c-1.889-1.584-4.625-2.376-8.209-2.376h-9.6v18.192h9.6
			C172.783,21.032,175.52,20.249,177.408,18.681z"/>
		<linearGradient id="SVGID_19_" gradientUnits="userSpaceOnUse" x1="-480.7119" y1="17.4326" x2="273.2148" y2="17.4326">
			<stop  offset="0.0357" style="stop-color:#D57F87"/>
			<stop  offset="0.1437" style="stop-color:#D78A8D"/>
			<stop  offset="0.3303" style="stop-color:#DDA69E"/>
			<stop  offset="0.3786" style="stop-color:#DFAEA3"/>
			<stop  offset="0.7551" style="stop-color:#E4BBB2"/>
			<stop  offset="1" style="stop-color:#CD787C"/>
		</linearGradient>
		<path fill="url(#SVGID_19_)" d="M191.473,0.632h2.447v33.6h-2.447V0.632z"/>
		<linearGradient id="SVGID_20_" gradientUnits="userSpaceOnUse" x1="-480.7119" y1="17.4326" x2="273.2148" y2="17.4326">
			<stop  offset="0.0357" style="stop-color:#D57F87"/>
			<stop  offset="0.1437" style="stop-color:#D78A8D"/>
			<stop  offset="0.3303" style="stop-color:#DDA69E"/>
			<stop  offset="0.3786" style="stop-color:#DFAEA3"/>
			<stop  offset="0.7551" style="stop-color:#E4BBB2"/>
			<stop  offset="1" style="stop-color:#CD787C"/>
		</linearGradient>
		<path fill="url(#SVGID_20_)" d="M210.959,32.24c-2.656-1.488-4.744-3.527-6.264-6.12c-1.521-2.592-2.281-5.488-2.281-8.688
			c0-3.2,0.76-6.096,2.281-8.688c1.52-2.592,3.607-4.632,6.264-6.12c2.656-1.488,5.631-2.232,8.928-2.232
			c3.295,0,6.271,0.736,8.928,2.208c2.656,1.472,4.744,3.504,6.264,6.096c1.52,2.592,2.281,5.504,2.281,8.736
			c0,3.232-0.762,6.144-2.281,8.736c-1.52,2.591-3.607,4.625-6.264,6.096s-5.633,2.208-8.928,2.208
			C216.59,34.473,213.615,33.729,210.959,32.24z M227.52,30.297c2.271-1.279,4.063-3.049,5.375-5.305s1.969-4.776,1.969-7.56
			c0-2.784-0.656-5.304-1.969-7.56c-1.313-2.256-3.104-4.024-5.375-5.304c-2.273-1.279-4.816-1.92-7.633-1.92
			s-5.369,0.641-7.656,1.92c-2.287,1.28-4.088,3.048-5.4,5.304c-1.313,2.256-1.967,4.776-1.967,7.56c0,2.784,0.654,5.304,1.967,7.56
			s3.113,4.025,5.4,5.305s4.84,1.92,7.656,1.92S225.246,31.576,227.52,30.297z"/>
		<linearGradient id="SVGID_21_" gradientUnits="userSpaceOnUse" x1="-480.7119" y1="17.4326" x2="273.2148" y2="17.4326">
			<stop  offset="0.0357" style="stop-color:#D57F87"/>
			<stop  offset="0.1437" style="stop-color:#D78A8D"/>
			<stop  offset="0.3303" style="stop-color:#DDA69E"/>
			<stop  offset="0.3786" style="stop-color:#DFAEA3"/>
			<stop  offset="0.7551" style="stop-color:#E4BBB2"/>
			<stop  offset="1" style="stop-color:#CD787C"/>
		</linearGradient>
		<path fill="url(#SVGID_21_)" d="M273.215,0.632v33.6h-2.016L248.303,5.048v29.184h-2.447v-33.6h2.064l22.848,29.184V0.632H273.215
			z"/>
	</g>
</g>
</svg>
