<?xml version="1.0" encoding="utf-8"?>
<!-- Generator: Adobe Illustrator 16.0.0, SVG Export Plug-In . SVG Version: 6.00 Build 0)  -->
<!DOCTYPE svg PUBLIC "-//W3C//DTD SVG 1.1//EN" "http://www.w3.org/Graphics/SVG/1.1/DTD/svg11.dtd">
<svg version="1.1" id="Layer_1" xmlns="http://www.w3.org/2000/svg" xmlns:xlink="http://www.w3.org/1999/xlink" x="0px" y="0px"
	 width="218.501px" height="35.5px" viewBox="0 0 218.501 35.5" enable-background="new 0 0 218.501 35.5" xml:space="preserve">
<g>
	<g>
		<linearGradient id="SVGID_1_" gradientUnits="userSpaceOnUse" x1="-260.6445" y1="20.5044" x2="536.7227" y2="20.5044">
			<stop  offset="0.0357" style="stop-color:#D57F87"/>
			<stop  offset="0.1437" style="stop-color:#D78A8D"/>
			<stop  offset="0.3303" style="stop-color:#DDA69E"/>
			<stop  offset="0.3786" style="stop-color:#DFAEA3"/>
			<stop  offset="0.7551" style="stop-color:#E4BBB2"/>
			<stop  offset="1" style="stop-color:#CD787C"/>
		</linearGradient>
		<path fill="url(#SVGID_1_)" d="M-260.645,0.632h2.448v33.6h-2.448V0.632z"/>
		<linearGradient id="SVGID_2_" gradientUnits="userSpaceOnUse" x1="-260.6445" y1="20.5044" x2="536.7227" y2="20.5044">
			<stop  offset="0.0357" style="stop-color:#D57F87"/>
			<stop  offset="0.1437" style="stop-color:#D78A8D"/>
			<stop  offset="0.3303" style="stop-color:#DDA69E"/>
			<stop  offset="0.3786" style="stop-color:#DFAEA3"/>
			<stop  offset="0.7551" style="stop-color:#E4BBB2"/>
			<stop  offset="1" style="stop-color:#CD787C"/>
		</linearGradient>
		<path fill="url(#SVGID_2_)" d="M-219.125,0.632v33.6h-2.016l-22.896-29.184v29.184h-2.448v-33.6h2.064l22.848,29.184V0.632
			H-219.125z"/>
		<linearGradient id="SVGID_3_" gradientUnits="userSpaceOnUse" x1="-260.6445" y1="20.5044" x2="536.7227" y2="20.5044">
			<stop  offset="0.0357" style="stop-color:#D57F87"/>
			<stop  offset="0.1437" style="stop-color:#D78A8D"/>
			<stop  offset="0.3303" style="stop-color:#DDA69E"/>
			<stop  offset="0.3786" style="stop-color:#DFAEA3"/>
			<stop  offset="0.7551" style="stop-color:#E4BBB2"/>
			<stop  offset="1" style="stop-color:#CD787C"/>
		</linearGradient>
		<path fill="url(#SVGID_3_)" d="M-207.413,0.632h13.296c3.488,0,6.583,0.72,9.288,2.16c2.704,1.44,4.808,3.432,6.312,5.976
			s2.256,5.432,2.256,8.664c0,3.232-0.752,6.12-2.256,8.664c-1.504,2.544-3.607,4.537-6.312,5.976c-2.705,1.439-5.8,2.16-9.288,2.16
			h-13.296V0.632z M-194.309,32.024c3.104,0,5.839-0.616,8.208-1.849c2.368-1.23,4.192-2.951,5.472-5.159
			c1.279-2.208,1.92-4.736,1.92-7.584s-0.641-5.376-1.92-7.584c-1.28-2.208-3.104-3.928-5.472-5.16
			c-2.369-1.231-5.104-1.848-8.208-1.848h-10.656v29.184H-194.309z"/>
		<linearGradient id="SVGID_4_" gradientUnits="userSpaceOnUse" x1="-260.6445" y1="20.5044" x2="536.7227" y2="20.5044">
			<stop  offset="0.0357" style="stop-color:#D57F87"/>
			<stop  offset="0.1437" style="stop-color:#D78A8D"/>
			<stop  offset="0.3303" style="stop-color:#DDA69E"/>
			<stop  offset="0.3786" style="stop-color:#DFAEA3"/>
			<stop  offset="0.7551" style="stop-color:#E4BBB2"/>
			<stop  offset="1" style="stop-color:#CD787C"/>
		</linearGradient>
		<path fill="url(#SVGID_4_)" d="M-164.525,30.776c-2.352-2.464-3.528-6.063-3.528-10.8V0.632h2.448V19.88
			c0,4.128,0.943,7.216,2.832,9.264c1.888,2.049,4.623,3.072,8.208,3.072c3.552,0,6.271-1.023,8.159-3.072
			c1.889-2.048,2.832-5.136,2.832-9.264V0.632h2.449v19.344c0,4.736-1.186,8.336-3.553,10.8c-2.368,2.464-5.68,3.696-9.936,3.696
			S-162.174,33.24-164.525,30.776z"/>
		<linearGradient id="SVGID_5_" gradientUnits="userSpaceOnUse" x1="-260.6445" y1="20.5044" x2="536.7227" y2="20.5044">
			<stop  offset="0.0357" style="stop-color:#D57F87"/>
			<stop  offset="0.1437" style="stop-color:#D78A8D"/>
			<stop  offset="0.3303" style="stop-color:#DDA69E"/>
			<stop  offset="0.3786" style="stop-color:#DFAEA3"/>
			<stop  offset="0.7551" style="stop-color:#E4BBB2"/>
			<stop  offset="1" style="stop-color:#CD787C"/>
		</linearGradient>
		<path fill="url(#SVGID_5_)" d="M-127.901,33.2c-2.224-0.847-3.96-1.944-5.208-3.288l1.104-1.824
			c1.184,1.248,2.776,2.265,4.777,3.049c1.999,0.784,4.104,1.176,6.312,1.176c3.199,0,5.616-0.607,7.248-1.824
			c1.632-1.216,2.448-2.8,2.448-4.752c0-1.503-0.433-2.704-1.297-3.6c-0.863-0.896-1.936-1.584-3.215-2.064
			c-1.281-0.48-3.009-0.976-5.185-1.488c-2.465-0.607-4.44-1.2-5.929-1.776c-1.487-0.576-2.752-1.464-3.791-2.664
			c-1.041-1.2-1.561-2.808-1.561-4.824c0-1.632,0.432-3.127,1.296-4.488c0.864-1.36,2.185-2.44,3.96-3.24
			c1.776-0.799,3.992-1.2,6.648-1.2c1.855,0,3.68,0.272,5.472,0.816c1.792,0.544,3.344,1.28,4.656,2.208l-0.912,1.968
			c-1.344-0.928-2.825-1.632-4.44-2.112s-3.208-0.72-4.775-0.72c-3.104,0-5.457,0.624-7.057,1.872s-2.399,2.864-2.399,4.848
			c0,1.504,0.433,2.705,1.296,3.6c0.863,0.896,1.936,1.584,3.216,2.064s3.024,0.992,5.231,1.536c2.465,0.608,4.433,1.2,5.904,1.776
			c1.473,0.576,2.729,1.448,3.769,2.616c1.04,1.168,1.56,2.745,1.56,4.728c0,1.632-0.439,3.121-1.32,4.464
			c-0.88,1.344-2.231,2.416-4.055,3.216c-1.824,0.8-4.064,1.2-6.721,1.2C-123.334,34.473-125.678,34.049-127.901,33.2z"/>
		<linearGradient id="SVGID_6_" gradientUnits="userSpaceOnUse" x1="-260.6445" y1="20.5044" x2="536.7227" y2="20.5044">
			<stop  offset="0.0357" style="stop-color:#D57F87"/>
			<stop  offset="0.1437" style="stop-color:#D78A8D"/>
			<stop  offset="0.3303" style="stop-color:#DDA69E"/>
			<stop  offset="0.3786" style="stop-color:#DFAEA3"/>
			<stop  offset="0.7551" style="stop-color:#E4BBB2"/>
			<stop  offset="1" style="stop-color:#CD787C"/>
		</linearGradient>
		<path fill="url(#SVGID_6_)" d="M-94.037,2.84h-12.097V0.632h26.64V2.84H-91.59v31.392h-2.447V2.84z"/>
		<linearGradient id="SVGID_7_" gradientUnits="userSpaceOnUse" x1="-260.6445" y1="20.5044" x2="536.7227" y2="20.5044">
			<stop  offset="0.0357" style="stop-color:#D57F87"/>
			<stop  offset="0.1437" style="stop-color:#D78A8D"/>
			<stop  offset="0.3303" style="stop-color:#DDA69E"/>
			<stop  offset="0.3786" style="stop-color:#DFAEA3"/>
			<stop  offset="0.7551" style="stop-color:#E4BBB2"/>
			<stop  offset="1" style="stop-color:#CD787C"/>
		</linearGradient>
		<path fill="url(#SVGID_7_)" d="M-50.118,34.232L-58.135,23c-1.184,0.161-2.271,0.24-3.264,0.24h-9.6v10.992h-2.448v-33.6h12.048
			c4.225,0,7.536,1,9.936,3c2.4,2,3.601,4.776,3.601,8.328c0,2.656-0.681,4.889-2.04,6.696c-1.36,1.809-3.305,3.081-5.832,3.816
			l8.4,11.76H-50.118z M-61.398,21.081c3.584,0,6.32-0.792,8.208-2.376s2.832-3.832,2.832-6.744c0-2.912-0.944-5.16-2.832-6.744
			s-4.624-2.376-8.208-2.376h-9.6v18.24H-61.398z"/>
		<linearGradient id="SVGID_8_" gradientUnits="userSpaceOnUse" x1="-260.6445" y1="20.5044" x2="536.7227" y2="20.5044">
			<stop  offset="0.0357" style="stop-color:#D57F87"/>
			<stop  offset="0.1437" style="stop-color:#D78A8D"/>
			<stop  offset="0.3303" style="stop-color:#DDA69E"/>
			<stop  offset="0.3786" style="stop-color:#DFAEA3"/>
			<stop  offset="0.7551" style="stop-color:#E4BBB2"/>
			<stop  offset="1" style="stop-color:#CD787C"/>
		</linearGradient>
		<path fill="url(#SVGID_8_)" d="M-28.519,22.665v11.568h-2.448V22.665L-44.502,0.632h2.688l12.144,19.776l12.144-19.776h2.545
			L-28.519,22.665z"/>
		<linearGradient id="SVGID_9_" gradientUnits="userSpaceOnUse" x1="-260.6445" y1="20.5044" x2="536.7227" y2="20.5044">
			<stop  offset="0.0357" style="stop-color:#D57F87"/>
			<stop  offset="0.1437" style="stop-color:#D78A8D"/>
			<stop  offset="0.3303" style="stop-color:#DDA69E"/>
			<stop  offset="0.3786" style="stop-color:#DFAEA3"/>
			<stop  offset="0.7551" style="stop-color:#E4BBB2"/>
			<stop  offset="1" style="stop-color:#CD787C"/>
		</linearGradient>
		<path fill="url(#SVGID_9_)" d="M3.448,0.632h2.448v31.392H25.24v2.208H3.448V0.632z"/>
		<linearGradient id="SVGID_10_" gradientUnits="userSpaceOnUse" x1="-260.6445" y1="20.5044" x2="536.7227" y2="20.5044">
			<stop  offset="0.0357" style="stop-color:#D57F87"/>
			<stop  offset="0.1437" style="stop-color:#D78A8D"/>
			<stop  offset="0.3303" style="stop-color:#DDA69E"/>
			<stop  offset="0.3786" style="stop-color:#DFAEA3"/>
			<stop  offset="0.7551" style="stop-color:#E4BBB2"/>
			<stop  offset="1" style="stop-color:#CD787C"/>
		</linearGradient>
		<path fill="url(#SVGID_10_)" d="M54.713,32.024v2.208H31.528v-33.6h22.464V2.84H33.977v13.248h17.904v2.16H33.977v13.776H54.713z"
			/>
		<linearGradient id="SVGID_11_" gradientUnits="userSpaceOnUse" x1="-260.6445" y1="20.5044" x2="536.7227" y2="20.5044">
			<stop  offset="0.0357" style="stop-color:#D57F87"/>
			<stop  offset="0.1437" style="stop-color:#D78A8D"/>
			<stop  offset="0.3303" style="stop-color:#DDA69E"/>
			<stop  offset="0.3786" style="stop-color:#DFAEA3"/>
			<stop  offset="0.7551" style="stop-color:#E4BBB2"/>
			<stop  offset="1" style="stop-color:#CD787C"/>
		</linearGradient>
		<path fill="url(#SVGID_11_)" d="M84.424,24.776H64.936l-4.271,9.456h-2.641l15.456-33.6h2.448l15.456,33.6h-2.64L84.424,24.776z
			 M83.512,22.712L74.68,3.32l-8.784,19.392H83.512z"/>
		<linearGradient id="SVGID_12_" gradientUnits="userSpaceOnUse" x1="-260.6445" y1="20.5044" x2="536.7227" y2="20.5044">
			<stop  offset="0.0357" style="stop-color:#D57F87"/>
			<stop  offset="0.1437" style="stop-color:#D78A8D"/>
			<stop  offset="0.3303" style="stop-color:#DDA69E"/>
			<stop  offset="0.3786" style="stop-color:#DFAEA3"/>
			<stop  offset="0.7551" style="stop-color:#E4BBB2"/>
			<stop  offset="1" style="stop-color:#CD787C"/>
		</linearGradient>
		<path fill="url(#SVGID_12_)" d="M97.479,0.632h13.297c3.487,0,6.583,0.72,9.287,2.16s4.809,3.432,6.313,5.976
			s2.256,5.432,2.256,8.664c0,3.232-0.752,6.12-2.256,8.664c-1.504,2.544-3.608,4.537-6.313,5.976s-5.8,2.16-9.287,2.16H97.479
			V0.632z M110.583,32.024c3.104,0,5.839-0.616,8.208-1.849c2.367-1.23,4.191-2.951,5.473-5.159c1.279-2.208,1.92-4.736,1.92-7.584
			s-0.641-5.376-1.92-7.584c-1.281-2.208-3.105-3.928-5.473-5.16c-2.369-1.231-5.104-1.848-8.208-1.848H99.928v29.184H110.583z"/>
		<linearGradient id="SVGID_13_" gradientUnits="userSpaceOnUse" x1="-260.6445" y1="20.5044" x2="536.7227" y2="20.5044">
			<stop  offset="0.0357" style="stop-color:#D57F87"/>
			<stop  offset="0.1437" style="stop-color:#D78A8D"/>
			<stop  offset="0.3303" style="stop-color:#DDA69E"/>
			<stop  offset="0.3786" style="stop-color:#DFAEA3"/>
			<stop  offset="0.7551" style="stop-color:#E4BBB2"/>
			<stop  offset="1" style="stop-color:#CD787C"/>
		</linearGradient>
		<path fill="url(#SVGID_13_)" d="M137.127,0.632h2.447v33.6h-2.447V0.632z"/>
		<linearGradient id="SVGID_14_" gradientUnits="userSpaceOnUse" x1="-260.6445" y1="20.5044" x2="536.7227" y2="20.5044">
			<stop  offset="0.0357" style="stop-color:#D57F87"/>
			<stop  offset="0.1437" style="stop-color:#D78A8D"/>
			<stop  offset="0.3303" style="stop-color:#DDA69E"/>
			<stop  offset="0.3786" style="stop-color:#DFAEA3"/>
			<stop  offset="0.7551" style="stop-color:#E4BBB2"/>
			<stop  offset="1" style="stop-color:#CD787C"/>
		</linearGradient>
		<path fill="url(#SVGID_14_)" d="M178.646,0.632v33.6h-2.016L153.734,5.048v29.184h-2.448v-33.6h2.063l22.849,29.184V0.632H178.646
			z"/>
		<linearGradient id="SVGID_15_" gradientUnits="userSpaceOnUse" x1="-260.6445" y1="20.5044" x2="536.7227" y2="20.5044">
			<stop  offset="0.0357" style="stop-color:#D57F87"/>
			<stop  offset="0.1437" style="stop-color:#D78A8D"/>
			<stop  offset="0.3303" style="stop-color:#DDA69E"/>
			<stop  offset="0.3786" style="stop-color:#DFAEA3"/>
			<stop  offset="0.7551" style="stop-color:#E4BBB2"/>
			<stop  offset="1" style="stop-color:#CD787C"/>
		</linearGradient>
		<path fill="url(#SVGID_15_)" d="M214.358,17.577h2.353v12.576c-1.473,1.408-3.257,2.48-5.353,3.217
			c-2.097,0.736-4.313,1.104-6.647,1.104c-3.329,0-6.329-0.736-9-2.208c-2.673-1.472-4.77-3.505-6.289-6.096
			c-1.52-2.592-2.279-5.503-2.279-8.736c0-3.232,0.76-6.144,2.279-8.736c1.52-2.592,3.616-4.624,6.289-6.096
			c2.671-1.472,5.688-2.208,9.047-2.208c2.465,0,4.729,0.392,6.793,1.176c2.063,0.785,3.832,1.928,5.304,3.432l-1.536,1.632
			c-1.408-1.408-2.984-2.424-4.729-3.048s-3.672-0.936-5.783-0.936c-2.881,0-5.48,0.641-7.801,1.92
			c-2.32,1.28-4.136,3.048-5.447,5.304c-1.313,2.256-1.969,4.776-1.969,7.56c0,2.752,0.664,5.256,1.992,7.512
			s3.145,4.032,5.448,5.328s4.896,1.944,7.776,1.944c3.84,0,7.023-1.023,9.552-3.072V17.577z"/>
		<linearGradient id="SVGID_16_" gradientUnits="userSpaceOnUse" x1="-260.6445" y1="20.5044" x2="536.7227" y2="20.5044">
			<stop  offset="0.0357" style="stop-color:#D57F87"/>
			<stop  offset="0.1437" style="stop-color:#D78A8D"/>
			<stop  offset="0.3303" style="stop-color:#DDA69E"/>
			<stop  offset="0.3786" style="stop-color:#DFAEA3"/>
			<stop  offset="0.7551" style="stop-color:#E4BBB2"/>
			<stop  offset="1" style="stop-color:#CD787C"/>
		</linearGradient>
		<path fill="url(#SVGID_16_)" d="M262.981,32.024v2.208h-23.185v-33.6h22.465V2.84h-20.016v13.248h17.903v2.16h-17.903v13.776
			H262.981z"/>
		<linearGradient id="SVGID_17_" gradientUnits="userSpaceOnUse" x1="-260.6445" y1="20.5044" x2="536.7227" y2="20.5044">
			<stop  offset="0.0357" style="stop-color:#D57F87"/>
			<stop  offset="0.1437" style="stop-color:#D78A8D"/>
			<stop  offset="0.3303" style="stop-color:#DDA69E"/>
			<stop  offset="0.3786" style="stop-color:#DFAEA3"/>
			<stop  offset="0.7551" style="stop-color:#E4BBB2"/>
			<stop  offset="1" style="stop-color:#CD787C"/>
		</linearGradient>
		<path fill="url(#SVGID_17_)" d="M305.125,36.824c-0.992,1.248-2.16,2.191-3.504,2.832s-2.816,0.96-4.416,0.96
			c-1.855,0-3.656-0.479-5.4-1.44c-1.744-0.959-3.656-2.527-5.735-4.703c-3.296,0-6.265-0.744-8.904-2.232s-4.712-3.527-6.216-6.12
			s-2.256-5.488-2.256-8.688c0-3.2,0.76-6.096,2.279-8.688c1.52-2.592,3.607-4.632,6.265-6.12c2.655-1.488,5.632-2.232,8.928-2.232
			s6.271,0.736,8.929,2.208c2.655,1.472,4.743,3.504,6.264,6.096c1.52,2.592,2.279,5.504,2.279,8.736
			c0,2.88-0.616,5.512-1.848,7.896c-1.232,2.384-2.936,4.352-5.111,5.904c-2.178,1.553-4.656,2.553-7.44,3
			c2.751,2.88,5.407,4.32,7.968,4.32c2.592,0,4.801-1.072,6.624-3.217L305.125,36.824z M273.109,24.944
			c1.312,2.256,3.111,4.032,5.4,5.328c2.287,1.296,4.84,1.944,7.655,1.944s5.36-0.648,7.632-1.944s4.064-3.072,5.377-5.328
			c1.311-2.256,1.967-4.759,1.967-7.512c0-2.752-0.656-5.256-1.967-7.512c-1.313-2.256-3.105-4.032-5.377-5.328
			s-4.816-1.944-7.632-1.944s-5.368,0.648-7.655,1.944c-2.289,1.296-4.089,3.072-5.4,5.328c-1.313,2.256-1.969,4.76-1.969,7.512
			C271.141,20.185,271.797,22.688,273.109,24.944z"/>
		<linearGradient id="SVGID_18_" gradientUnits="userSpaceOnUse" x1="-260.6445" y1="20.5044" x2="536.7227" y2="20.5044">
			<stop  offset="0.0357" style="stop-color:#D57F87"/>
			<stop  offset="0.1437" style="stop-color:#D78A8D"/>
			<stop  offset="0.3303" style="stop-color:#DDA69E"/>
			<stop  offset="0.3786" style="stop-color:#DFAEA3"/>
			<stop  offset="0.7551" style="stop-color:#E4BBB2"/>
			<stop  offset="1" style="stop-color:#CD787C"/>
		</linearGradient>
		<path fill="url(#SVGID_18_)" d="M315.373,30.776c-2.352-2.464-3.528-6.063-3.528-10.8V0.632h2.448V19.88
			c0,4.128,0.943,7.216,2.832,9.264c1.888,2.049,4.623,3.072,8.208,3.072c3.552,0,6.271-1.023,8.159-3.072
			c1.889-2.048,2.832-5.136,2.832-9.264V0.632h2.449v19.344c0,4.736-1.186,8.336-3.553,10.8c-2.369,2.464-5.68,3.696-9.936,3.696
			S317.725,33.24,315.373,30.776z"/>
		<linearGradient id="SVGID_19_" gradientUnits="userSpaceOnUse" x1="-260.6445" y1="20.5044" x2="536.7227" y2="20.5044">
			<stop  offset="0.0357" style="stop-color:#D57F87"/>
			<stop  offset="0.1437" style="stop-color:#D78A8D"/>
			<stop  offset="0.3303" style="stop-color:#DDA69E"/>
			<stop  offset="0.3786" style="stop-color:#DFAEA3"/>
			<stop  offset="0.7551" style="stop-color:#E4BBB2"/>
			<stop  offset="1" style="stop-color:#CD787C"/>
		</linearGradient>
		<path fill="url(#SVGID_19_)" d="M350.197,0.632h2.447v33.6h-2.447V0.632z"/>
		<linearGradient id="SVGID_20_" gradientUnits="userSpaceOnUse" x1="-260.6445" y1="20.5044" x2="536.7227" y2="20.5044">
			<stop  offset="0.0357" style="stop-color:#D57F87"/>
			<stop  offset="0.1437" style="stop-color:#D78A8D"/>
			<stop  offset="0.3303" style="stop-color:#DDA69E"/>
			<stop  offset="0.3786" style="stop-color:#DFAEA3"/>
			<stop  offset="0.7551" style="stop-color:#E4BBB2"/>
			<stop  offset="1" style="stop-color:#CD787C"/>
		</linearGradient>
		<path fill="url(#SVGID_20_)" d="M386.34,3.632c2.4,2,3.602,4.776,3.602,8.328c0,3.521-1.201,6.28-3.602,8.28
			c-2.398,2-5.711,3-9.936,3h-9.6v10.992h-2.447v-33.6h12.047C380.629,0.632,383.941,1.633,386.34,3.632z M384.613,18.681
			c1.887-1.568,2.832-3.808,2.832-6.72c0-2.912-0.945-5.16-2.832-6.744c-1.889-1.584-4.625-2.376-8.209-2.376h-9.6v18.192h9.6
			C379.988,21.032,382.725,20.249,384.613,18.681z"/>
		<linearGradient id="SVGID_21_" gradientUnits="userSpaceOnUse" x1="-260.6445" y1="20.5044" x2="536.7227" y2="20.5044">
			<stop  offset="0.0357" style="stop-color:#D57F87"/>
			<stop  offset="0.1437" style="stop-color:#D78A8D"/>
			<stop  offset="0.3303" style="stop-color:#DDA69E"/>
			<stop  offset="0.3786" style="stop-color:#DFAEA3"/>
			<stop  offset="0.7551" style="stop-color:#E4BBB2"/>
			<stop  offset="1" style="stop-color:#CD787C"/>
		</linearGradient>
		<path fill="url(#SVGID_21_)" d="M430.453,34.232L430.404,5.48L416.34,29.769h-1.199L401.076,5.577v28.656h-2.398v-33.6h2.063
			l15.025,25.968l15.023-25.968h2.016l0.049,33.6H430.453z"/>
		<linearGradient id="SVGID_22_" gradientUnits="userSpaceOnUse" x1="-260.6445" y1="20.5044" x2="536.7227" y2="20.5044">
			<stop  offset="0.0357" style="stop-color:#D57F87"/>
			<stop  offset="0.1437" style="stop-color:#D78A8D"/>
			<stop  offset="0.3303" style="stop-color:#DDA69E"/>
			<stop  offset="0.3786" style="stop-color:#DFAEA3"/>
			<stop  offset="0.7551" style="stop-color:#E4BBB2"/>
			<stop  offset="1" style="stop-color:#CD787C"/>
		</linearGradient>
		<path fill="url(#SVGID_22_)" d="M467.748,32.024v2.208h-23.184v-33.6h22.465V2.84h-20.018v13.248h17.904v2.16h-17.904v13.776
			H467.748z"/>
		<linearGradient id="SVGID_23_" gradientUnits="userSpaceOnUse" x1="-260.6445" y1="20.5044" x2="536.7227" y2="20.5044">
			<stop  offset="0.0357" style="stop-color:#D57F87"/>
			<stop  offset="0.1437" style="stop-color:#D78A8D"/>
			<stop  offset="0.3303" style="stop-color:#DDA69E"/>
			<stop  offset="0.3786" style="stop-color:#DFAEA3"/>
			<stop  offset="0.7551" style="stop-color:#E4BBB2"/>
			<stop  offset="1" style="stop-color:#CD787C"/>
		</linearGradient>
		<path fill="url(#SVGID_23_)" d="M504.035,0.632v33.6h-2.016L479.123,5.048v29.184h-2.447v-33.6h2.064l22.848,29.184V0.632H504.035
			z"/>
		<linearGradient id="SVGID_24_" gradientUnits="userSpaceOnUse" x1="-260.6445" y1="20.5044" x2="536.7227" y2="20.5044">
			<stop  offset="0.0357" style="stop-color:#D57F87"/>
			<stop  offset="0.1437" style="stop-color:#D78A8D"/>
			<stop  offset="0.3303" style="stop-color:#DDA69E"/>
			<stop  offset="0.3786" style="stop-color:#DFAEA3"/>
			<stop  offset="0.7551" style="stop-color:#E4BBB2"/>
			<stop  offset="1" style="stop-color:#CD787C"/>
		</linearGradient>
		<path fill="url(#SVGID_24_)" d="M522.18,2.84h-12.096V0.632h26.639V2.84h-12.096v31.392h-2.447V2.84z"/>
	</g>
</g>
</svg>
