<?xml version="1.0" encoding="utf-8"?>
<!-- Generator: Adobe Illustrator 16.0.0, SVG Export Plug-In . SVG Version: 6.00 Build 0)  -->
<!DOCTYPE svg PUBLIC "-//W3C//DTD SVG 1.1//EN" "http://www.w3.org/Graphics/SVG/1.1/DTD/svg11.dtd">
<svg version="1.1" id="Layer_1" xmlns="http://www.w3.org/2000/svg" xmlns:xlink="http://www.w3.org/1999/xlink" x="0px" y="0px"
	 width="272.563px" height="34.583px" viewBox="0 0 272.563 34.583" enable-background="new 0 0 272.563 34.583"
	 xml:space="preserve">
<g>
	<g>
		<linearGradient id="SVGID_1_" gradientUnits="userSpaceOnUse" x1="1.6577" y1="17.29" x2="272.7578" y2="17.29">
			<stop  offset="0" style="stop-color:#7FACBF"/>
			<stop  offset="0.1194" style="stop-color:#88B5C5"/>
			<stop  offset="0.3172" style="stop-color:#A2CCD5"/>
			<stop  offset="0.3786" style="stop-color:#ABD5DB"/>
			<stop  offset="0.7551" style="stop-color:#A6D1D4"/>
			<stop  offset="0.9949" style="stop-color:#77B3B8"/>
		</linearGradient>
		<path fill="url(#SVGID_1_)" d="M33.434,34.09L33.386,5.338L19.322,29.626h-1.2L4.058,5.434V34.09h-2.4V0.49h2.064l15.024,25.968
			L33.77,0.49h2.016l0.048,33.6H33.434z"/>
		<linearGradient id="SVGID_2_" gradientUnits="userSpaceOnUse" x1="1.6577" y1="17.29" x2="272.7578" y2="17.29">
			<stop  offset="0" style="stop-color:#7FACBF"/>
			<stop  offset="0.1194" style="stop-color:#88B5C5"/>
			<stop  offset="0.3172" style="stop-color:#A2CCD5"/>
			<stop  offset="0.3786" style="stop-color:#ABD5DB"/>
			<stop  offset="0.7551" style="stop-color:#A6D1D4"/>
			<stop  offset="0.9949" style="stop-color:#77B3B8"/>
		</linearGradient>
		<path fill="url(#SVGID_2_)" d="M70.729,31.882v2.208H47.545V0.49h22.464v2.208H49.994v13.248h17.904v2.16H49.994v13.776H70.729z"
			/>
		<linearGradient id="SVGID_3_" gradientUnits="userSpaceOnUse" x1="1.6577" y1="17.29" x2="272.7578" y2="17.29">
			<stop  offset="0" style="stop-color:#7FACBF"/>
			<stop  offset="0.1194" style="stop-color:#88B5C5"/>
			<stop  offset="0.3172" style="stop-color:#A2CCD5"/>
			<stop  offset="0.3786" style="stop-color:#ABD5DB"/>
			<stop  offset="0.7551" style="stop-color:#A6D1D4"/>
			<stop  offset="0.9949" style="stop-color:#77B3B8"/>
		</linearGradient>
		<path fill="url(#SVGID_3_)" d="M107.017,0.49v33.6h-2.016L82.105,4.906V34.09h-2.448V0.49h2.064l22.848,29.184V0.49H107.017z"/>
		<linearGradient id="SVGID_4_" gradientUnits="userSpaceOnUse" x1="1.6577" y1="17.29" x2="272.7578" y2="17.29">
			<stop  offset="0" style="stop-color:#7FACBF"/>
			<stop  offset="0.1194" style="stop-color:#88B5C5"/>
			<stop  offset="0.3172" style="stop-color:#A2CCD5"/>
			<stop  offset="0.3786" style="stop-color:#ABD5DB"/>
			<stop  offset="0.7551" style="stop-color:#A6D1D4"/>
			<stop  offset="0.9949" style="stop-color:#77B3B8"/>
		</linearGradient>
		<path fill="url(#SVGID_4_)" d="M125.161,2.698h-12.097V0.49h26.641v2.208h-12.096V34.09h-2.448V2.698z"/>
		<linearGradient id="SVGID_5_" gradientUnits="userSpaceOnUse" x1="1.6577" y1="17.29" x2="272.7578" y2="17.29">
			<stop  offset="0" style="stop-color:#7FACBF"/>
			<stop  offset="0.1194" style="stop-color:#88B5C5"/>
			<stop  offset="0.3172" style="stop-color:#A2CCD5"/>
			<stop  offset="0.3786" style="stop-color:#ABD5DB"/>
			<stop  offset="0.7551" style="stop-color:#A6D1D4"/>
			<stop  offset="0.9949" style="stop-color:#77B3B8"/>
		</linearGradient>
		<path fill="url(#SVGID_5_)" d="M166.537,24.634h-19.488l-4.272,9.456h-2.64l15.455-33.6h2.449l15.455,33.6h-2.64L166.537,24.634z
			 M165.625,22.57l-8.832-19.393l-8.785,19.393H165.625z"/>
		<linearGradient id="SVGID_6_" gradientUnits="userSpaceOnUse" x1="1.6577" y1="17.29" x2="272.7578" y2="17.29">
			<stop  offset="0" style="stop-color:#7FACBF"/>
			<stop  offset="0.1194" style="stop-color:#88B5C5"/>
			<stop  offset="0.3172" style="stop-color:#A2CCD5"/>
			<stop  offset="0.3786" style="stop-color:#ABD5DB"/>
			<stop  offset="0.7551" style="stop-color:#A6D1D4"/>
			<stop  offset="0.9949" style="stop-color:#77B3B8"/>
		</linearGradient>
		<path fill="url(#SVGID_6_)" d="M179.592,0.49h2.447v31.392h19.344v2.208h-21.791V0.49z"/>
		<linearGradient id="SVGID_7_" gradientUnits="userSpaceOnUse" x1="1.6577" y1="17.29" x2="272.7578" y2="17.29">
			<stop  offset="0" style="stop-color:#7FACBF"/>
			<stop  offset="0.1194" style="stop-color:#88B5C5"/>
			<stop  offset="0.3172" style="stop-color:#A2CCD5"/>
			<stop  offset="0.3786" style="stop-color:#ABD5DB"/>
			<stop  offset="0.7551" style="stop-color:#A6D1D4"/>
			<stop  offset="0.9949" style="stop-color:#77B3B8"/>
		</linearGradient>
		<path fill="url(#SVGID_7_)" d="M207.672,0.49h2.447v33.6h-2.447V0.49z"/>
		<linearGradient id="SVGID_8_" gradientUnits="userSpaceOnUse" x1="1.6577" y1="17.29" x2="272.7578" y2="17.29">
			<stop  offset="0" style="stop-color:#7FACBF"/>
			<stop  offset="0.1194" style="stop-color:#88B5C5"/>
			<stop  offset="0.3172" style="stop-color:#A2CCD5"/>
			<stop  offset="0.3786" style="stop-color:#ABD5DB"/>
			<stop  offset="0.7551" style="stop-color:#A6D1D4"/>
			<stop  offset="0.9949" style="stop-color:#77B3B8"/>
		</linearGradient>
		<path fill="url(#SVGID_8_)" d="M228.264,2.698h-12.097V0.49h26.64v2.208h-12.096V34.09h-2.447V2.698z"/>
		<linearGradient id="SVGID_9_" gradientUnits="userSpaceOnUse" x1="1.6577" y1="17.29" x2="272.7578" y2="17.29">
			<stop  offset="0" style="stop-color:#7FACBF"/>
			<stop  offset="0.1194" style="stop-color:#88B5C5"/>
			<stop  offset="0.3172" style="stop-color:#A2CCD5"/>
			<stop  offset="0.3786" style="stop-color:#ABD5DB"/>
			<stop  offset="0.7551" style="stop-color:#A6D1D4"/>
			<stop  offset="0.9949" style="stop-color:#77B3B8"/>
		</linearGradient>
		<path fill="url(#SVGID_9_)" d="M259.223,22.521V34.09h-2.448V22.521L243.238,0.49h2.688l12.144,19.776L270.215,0.49h2.543
			L259.223,22.521z"/>
	</g>
</g>
</svg>
