<?xml version="1.0" encoding="utf-8"?>
<!-- Generator: Adobe Illustrator 16.0.0, SVG Export Plug-In . SVG Version: 6.00 Build 0)  -->
<!DOCTYPE svg PUBLIC "-//W3C//DTD SVG 1.1//EN" "http://www.w3.org/Graphics/SVG/1.1/DTD/svg11.dtd">
<svg version="1.1" id="Layer_1" xmlns="http://www.w3.org/2000/svg" xmlns:xlink="http://www.w3.org/1999/xlink" x="0px" y="0px"
	 width="175.125px" height="34.167px" viewBox="0 0 175.125 34.167" enable-background="new 0 0 175.125 34.167"
	 xml:space="preserve">
<g>
	<g>
		<linearGradient id="SVGID_1_" gradientUnits="userSpaceOnUse" x1="-392.3267" y1="17.1499" x2="568.1436" y2="17.1499">
			<stop  offset="0" style="stop-color:#D57D86"/>
			<stop  offset="0.1101" style="stop-color:#D7868C"/>
			<stop  offset="0.2926" style="stop-color:#DCA09B"/>
			<stop  offset="0.3786" style="stop-color:#DFAEA3"/>
			<stop  offset="0.7551" style="stop-color:#E4BBB2"/>
			<stop  offset="1" style="stop-color:#CD787C"/>
		</linearGradient>
		<path fill="url(#SVGID_1_)" d="M-389.878,2.558V16.91h17.904v2.208h-17.904V33.95h-2.448V0.35h22.464v2.208H-389.878z"/>
		<linearGradient id="SVGID_2_" gradientUnits="userSpaceOnUse" x1="-392.3267" y1="17.1499" x2="568.1436" y2="17.1499">
			<stop  offset="0" style="stop-color:#D57D86"/>
			<stop  offset="0.1101" style="stop-color:#D7868C"/>
			<stop  offset="0.2926" style="stop-color:#DCA09B"/>
			<stop  offset="0.3786" style="stop-color:#DFAEA3"/>
			<stop  offset="0.7551" style="stop-color:#E4BBB2"/>
			<stop  offset="1" style="stop-color:#CD787C"/>
		</linearGradient>
		<path fill="url(#SVGID_2_)" d="M-362.039,0.35h2.448v31.392h19.344v2.208h-21.792V0.35z"/>
		<linearGradient id="SVGID_3_" gradientUnits="userSpaceOnUse" x1="-392.3267" y1="17.1499" x2="568.1436" y2="17.1499">
			<stop  offset="0" style="stop-color:#D57D86"/>
			<stop  offset="0.1101" style="stop-color:#D7868C"/>
			<stop  offset="0.2926" style="stop-color:#DCA09B"/>
			<stop  offset="0.3786" style="stop-color:#DFAEA3"/>
			<stop  offset="0.7551" style="stop-color:#E4BBB2"/>
			<stop  offset="1" style="stop-color:#CD787C"/>
		</linearGradient>
		<path fill="url(#SVGID_3_)" d="M-330.719,30.494c-2.352-2.464-3.528-6.063-3.528-10.8V0.35h2.448v19.248
			c0,4.128,0.943,7.216,2.832,9.264c1.888,2.048,4.624,3.072,8.208,3.072c3.552,0,6.271-1.023,8.16-3.072
			c1.888-2.048,2.832-5.136,2.832-9.264V0.35h2.448v19.344c0,4.736-1.185,8.336-3.552,10.8c-2.368,2.464-5.68,3.696-9.936,3.696
			S-328.367,32.958-330.719,30.494z"/>
		<linearGradient id="SVGID_4_" gradientUnits="userSpaceOnUse" x1="-392.3267" y1="17.1499" x2="568.1436" y2="17.1499">
			<stop  offset="0" style="stop-color:#D57D86"/>
			<stop  offset="0.1101" style="stop-color:#D7868C"/>
			<stop  offset="0.2926" style="stop-color:#DCA09B"/>
			<stop  offset="0.3786" style="stop-color:#DFAEA3"/>
			<stop  offset="0.7551" style="stop-color:#E4BBB2"/>
			<stop  offset="1" style="stop-color:#CD787C"/>
		</linearGradient>
		<path fill="url(#SVGID_4_)" d="M-295.895,0.35h2.448v33.6h-2.448V0.35z"/>
		<linearGradient id="SVGID_5_" gradientUnits="userSpaceOnUse" x1="-392.3267" y1="17.1499" x2="568.1436" y2="17.1499">
			<stop  offset="0" style="stop-color:#D57D86"/>
			<stop  offset="0.1101" style="stop-color:#D7868C"/>
			<stop  offset="0.2926" style="stop-color:#DCA09B"/>
			<stop  offset="0.3786" style="stop-color:#DFAEA3"/>
			<stop  offset="0.7551" style="stop-color:#E4BBB2"/>
			<stop  offset="1" style="stop-color:#CD787C"/>
		</linearGradient>
		<path fill="url(#SVGID_5_)" d="M-281.735,0.35h13.296c3.488,0,6.583,0.72,9.288,2.16c2.704,1.44,4.808,3.432,6.312,5.976
			c1.504,2.544,2.256,5.432,2.256,8.664c0,3.232-0.752,6.12-2.256,8.664c-1.504,2.544-3.608,4.536-6.312,5.976
			c-2.705,1.44-5.8,2.16-9.288,2.16h-13.296V0.35z M-268.631,31.742c3.104,0,5.839-0.616,8.208-1.848
			c2.368-1.231,4.192-2.952,5.472-5.16c1.279-2.208,1.92-4.736,1.92-7.584s-0.641-5.376-1.92-7.584
			c-1.28-2.208-3.104-3.928-5.472-5.16c-2.369-1.231-5.104-1.848-8.208-1.848h-10.656v29.184H-268.631z"/>
		<linearGradient id="SVGID_6_" gradientUnits="userSpaceOnUse" x1="-392.3267" y1="17.1499" x2="568.1436" y2="17.1499">
			<stop  offset="0" style="stop-color:#D57D86"/>
			<stop  offset="0.1101" style="stop-color:#D7868C"/>
			<stop  offset="0.2926" style="stop-color:#DCA09B"/>
			<stop  offset="0.3786" style="stop-color:#DFAEA3"/>
			<stop  offset="0.7551" style="stop-color:#E4BBB2"/>
			<stop  offset="1" style="stop-color:#CD787C"/>
		</linearGradient>
		<path fill="url(#SVGID_6_)" d="M-202.92,0.35l-14.976,33.6h-2.448l-14.976-33.6h2.688l13.584,30.432l13.584-30.432H-202.92z"/>
		<linearGradient id="SVGID_7_" gradientUnits="userSpaceOnUse" x1="-392.3267" y1="17.1499" x2="568.1436" y2="17.1499">
			<stop  offset="0" style="stop-color:#D57D86"/>
			<stop  offset="0.1101" style="stop-color:#D7868C"/>
			<stop  offset="0.2926" style="stop-color:#DCA09B"/>
			<stop  offset="0.3786" style="stop-color:#DFAEA3"/>
			<stop  offset="0.7551" style="stop-color:#E4BBB2"/>
			<stop  offset="1" style="stop-color:#CD787C"/>
		</linearGradient>
		<path fill="url(#SVGID_7_)" d="M-173.593,31.742v2.208h-23.184V0.35h22.464v2.208h-20.016v13.248h17.904v2.16h-17.904v13.776
			H-173.593z"/>
		<linearGradient id="SVGID_8_" gradientUnits="userSpaceOnUse" x1="-392.3267" y1="17.1499" x2="568.1436" y2="17.1499">
			<stop  offset="0" style="stop-color:#D57D86"/>
			<stop  offset="0.1101" style="stop-color:#D7868C"/>
			<stop  offset="0.2926" style="stop-color:#DCA09B"/>
			<stop  offset="0.3786" style="stop-color:#DFAEA3"/>
			<stop  offset="0.7551" style="stop-color:#E4BBB2"/>
			<stop  offset="1" style="stop-color:#CD787C"/>
		</linearGradient>
		<path fill="url(#SVGID_8_)" d="M-141.338,33.95l-8.016-11.232c-1.185,0.161-2.272,0.24-3.264,0.24h-9.601V33.95h-2.447V0.35
			h12.048c4.224,0,7.536,1,9.936,3c2.4,2,3.601,4.776,3.601,8.328c0,2.656-0.681,4.889-2.04,6.696
			c-1.361,1.809-3.305,3.081-5.832,3.816l8.399,11.76H-141.338z M-152.617,20.798c3.583,0,6.319-0.792,8.208-2.376
			c1.888-1.584,2.832-3.832,2.832-6.744c0-2.912-0.944-5.16-2.832-6.744c-1.889-1.584-4.625-2.376-8.208-2.376h-9.601v18.24
			H-152.617z"/>
		<linearGradient id="SVGID_9_" gradientUnits="userSpaceOnUse" x1="-392.3267" y1="17.1499" x2="568.1436" y2="17.1499">
			<stop  offset="0" style="stop-color:#D57D86"/>
			<stop  offset="0.1101" style="stop-color:#D7868C"/>
			<stop  offset="0.2926" style="stop-color:#DCA09B"/>
			<stop  offset="0.3786" style="stop-color:#DFAEA3"/>
			<stop  offset="0.7551" style="stop-color:#E4BBB2"/>
			<stop  offset="1" style="stop-color:#CD787C"/>
		</linearGradient>
		<path fill="url(#SVGID_9_)" d="M-128.306,32.917c-2.225-0.847-3.96-1.944-5.208-3.288l1.104-1.824
			c1.184,1.248,2.776,2.264,4.776,3.048c1.999,0.785,4.104,1.176,6.312,1.176c3.2,0,5.616-0.607,7.248-1.824
			c1.632-1.216,2.448-2.8,2.448-4.752c0-1.503-0.432-2.704-1.296-3.6c-0.864-0.896-1.937-1.584-3.216-2.064
			c-1.28-0.48-3.009-0.976-5.185-1.488c-2.464-0.607-4.439-1.2-5.928-1.776c-1.488-0.576-2.752-1.464-3.792-2.664
			c-1.04-1.2-1.56-2.808-1.56-4.824c0-1.632,0.432-3.127,1.296-4.488c0.863-1.36,2.184-2.44,3.96-3.24
			c1.775-0.799,3.991-1.2,6.647-1.2c1.855,0,3.68,0.272,5.473,0.816c1.791,0.544,3.343,1.28,4.655,2.208l-0.911,1.968
			c-1.345-0.928-2.825-1.632-4.44-2.112c-1.616-0.48-3.209-0.72-4.776-0.72c-3.104,0-5.456,0.624-7.056,1.872
			c-1.601,1.248-2.4,2.864-2.4,4.848c0,1.504,0.433,2.705,1.296,3.6c0.864,0.896,1.937,1.584,3.217,2.064
			c1.279,0.48,3.023,0.992,5.231,1.536c2.464,0.608,4.432,1.2,5.904,1.776c1.472,0.576,2.728,1.448,3.768,2.616
			c1.04,1.168,1.561,2.745,1.561,4.728c0,1.632-0.44,3.12-1.32,4.464c-0.88,1.344-2.231,2.417-4.056,3.216
			c-1.824,0.8-4.064,1.2-6.72,1.2C-123.738,34.19-126.082,33.766-128.306,32.917z"/>
		<linearGradient id="SVGID_10_" gradientUnits="userSpaceOnUse" x1="-392.3267" y1="17.1499" x2="568.1436" y2="17.1499">
			<stop  offset="0" style="stop-color:#D57D86"/>
			<stop  offset="0.1101" style="stop-color:#D7868C"/>
			<stop  offset="0.2926" style="stop-color:#DCA09B"/>
			<stop  offset="0.3786" style="stop-color:#DFAEA3"/>
			<stop  offset="0.7551" style="stop-color:#E4BBB2"/>
			<stop  offset="1" style="stop-color:#CD787C"/>
		</linearGradient>
		<path fill="url(#SVGID_10_)" d="M-100.874,0.35h2.447v33.6h-2.447V0.35z"/>
		<linearGradient id="SVGID_11_" gradientUnits="userSpaceOnUse" x1="-392.3267" y1="17.1499" x2="568.1436" y2="17.1499">
			<stop  offset="0" style="stop-color:#D57D86"/>
			<stop  offset="0.1101" style="stop-color:#D7868C"/>
			<stop  offset="0.2926" style="stop-color:#DCA09B"/>
			<stop  offset="0.3786" style="stop-color:#DFAEA3"/>
			<stop  offset="0.7551" style="stop-color:#E4BBB2"/>
			<stop  offset="1" style="stop-color:#CD787C"/>
		</linearGradient>
		<path fill="url(#SVGID_11_)" d="M-81.387,31.958c-2.656-1.488-4.744-3.528-6.264-6.12c-1.521-2.592-2.28-5.488-2.28-8.688
			c0-3.2,0.76-6.096,2.28-8.688c1.52-2.592,3.607-4.632,6.264-6.12c2.656-1.488,5.632-2.232,8.929-2.232
			c3.295,0,6.271,0.736,8.928,2.208c2.655,1.472,4.744,3.504,6.264,6.096c1.52,2.592,2.28,5.504,2.28,8.736
			c0,3.232-0.761,6.144-2.28,8.736s-3.608,4.625-6.264,6.096c-2.656,1.472-5.633,2.208-8.928,2.208
			C-75.755,34.19-78.73,33.446-81.387,31.958z M-64.826,30.014c2.271-1.279,4.063-3.048,5.376-5.304
			c1.312-2.256,1.968-4.776,1.968-7.56c0-2.784-0.656-5.304-1.968-7.56c-1.313-2.256-3.104-4.024-5.376-5.304
			c-2.272-1.279-4.816-1.92-7.632-1.92c-2.816,0-5.369,0.641-7.656,1.92c-2.288,1.28-4.088,3.048-5.4,5.304
			c-1.313,2.256-1.968,4.776-1.968,7.56c0,2.784,0.655,5.304,1.968,7.56c1.313,2.256,3.112,4.025,5.4,5.304
			c2.287,1.28,4.84,1.92,7.656,1.92C-69.643,31.934-67.099,31.294-64.826,30.014z"/>
		<linearGradient id="SVGID_12_" gradientUnits="userSpaceOnUse" x1="-392.3267" y1="17.1499" x2="568.1436" y2="17.1499">
			<stop  offset="0" style="stop-color:#D57D86"/>
			<stop  offset="0.1101" style="stop-color:#D7868C"/>
			<stop  offset="0.2926" style="stop-color:#DCA09B"/>
			<stop  offset="0.3786" style="stop-color:#DFAEA3"/>
			<stop  offset="0.7551" style="stop-color:#E4BBB2"/>
			<stop  offset="1" style="stop-color:#CD787C"/>
		</linearGradient>
		<path fill="url(#SVGID_12_)" d="M-19.13,0.35v33.6h-2.016L-44.042,4.766V33.95h-2.447V0.35h2.063l22.848,29.184V0.35H-19.13z"/>
		<linearGradient id="SVGID_13_" gradientUnits="userSpaceOnUse" x1="-392.3267" y1="17.1499" x2="568.1436" y2="17.1499">
			<stop  offset="0" style="stop-color:#D57D86"/>
			<stop  offset="0.1101" style="stop-color:#D7868C"/>
			<stop  offset="0.2926" style="stop-color:#DCA09B"/>
			<stop  offset="0.3786" style="stop-color:#DFAEA3"/>
			<stop  offset="0.7551" style="stop-color:#E4BBB2"/>
			<stop  offset="1" style="stop-color:#CD787C"/>
		</linearGradient>
		<path fill="url(#SVGID_13_)" d="M10.244,31.958C7.588,30.47,5.5,28.43,3.98,25.838C2.46,23.246,1.7,20.35,1.7,17.15
			c0-3.2,0.76-6.096,2.28-8.688C5.5,5.87,7.588,3.83,10.244,2.342C12.9,0.854,15.876,0.11,19.173,0.11
			c3.295,0,6.271,0.736,8.928,2.208c2.655,1.472,4.744,3.504,6.264,6.096c1.52,2.592,2.28,5.504,2.28,8.736
			c0,3.232-0.761,6.144-2.28,8.736s-3.608,4.625-6.264,6.096c-2.656,1.472-5.633,2.208-8.928,2.208
			C15.876,34.19,12.9,33.446,10.244,31.958z M26.805,30.014c2.271-1.279,4.063-3.048,5.376-5.304
			c1.312-2.256,1.968-4.776,1.968-7.56c0-2.784-0.656-5.304-1.968-7.56c-1.313-2.256-3.104-4.024-5.376-5.304
			c-2.272-1.279-4.816-1.92-7.632-1.92c-2.816,0-5.369,0.641-7.656,1.92c-2.288,1.28-4.088,3.048-5.4,5.304
			c-1.313,2.256-1.968,4.776-1.968,7.56c0,2.784,0.655,5.304,1.968,7.56c1.313,2.256,3.112,4.025,5.4,5.304
			c2.287,1.28,4.84,1.92,7.656,1.92C21.988,31.934,24.532,31.294,26.805,30.014z"/>
		<linearGradient id="SVGID_14_" gradientUnits="userSpaceOnUse" x1="-392.3267" y1="17.1499" x2="568.1436" y2="17.1499">
			<stop  offset="0" style="stop-color:#D57D86"/>
			<stop  offset="0.1101" style="stop-color:#D7868C"/>
			<stop  offset="0.2926" style="stop-color:#DCA09B"/>
			<stop  offset="0.3786" style="stop-color:#DFAEA3"/>
			<stop  offset="0.7551" style="stop-color:#E4BBB2"/>
			<stop  offset="1" style="stop-color:#CD787C"/>
		</linearGradient>
		<path fill="url(#SVGID_14_)" d="M47.589,2.558V16.91h17.904v2.208H47.589V33.95h-2.447V0.35h22.464v2.208H47.589z"/>
		<linearGradient id="SVGID_15_" gradientUnits="userSpaceOnUse" x1="-392.3267" y1="17.1499" x2="568.1436" y2="17.1499">
			<stop  offset="0" style="stop-color:#D57D86"/>
			<stop  offset="0.1101" style="stop-color:#D7868C"/>
			<stop  offset="0.2926" style="stop-color:#DCA09B"/>
			<stop  offset="0.3786" style="stop-color:#DFAEA3"/>
			<stop  offset="0.7551" style="stop-color:#E4BBB2"/>
			<stop  offset="1" style="stop-color:#CD787C"/>
		</linearGradient>
		<path fill="url(#SVGID_15_)" d="M94.196,2.558H82.101V0.35h26.64v2.208H96.645V33.95h-2.448V2.558z"/>
		<linearGradient id="SVGID_16_" gradientUnits="userSpaceOnUse" x1="-392.3267" y1="17.1499" x2="568.1436" y2="17.1499">
			<stop  offset="0" style="stop-color:#D57D86"/>
			<stop  offset="0.1101" style="stop-color:#D7868C"/>
			<stop  offset="0.2926" style="stop-color:#DCA09B"/>
			<stop  offset="0.3786" style="stop-color:#DFAEA3"/>
			<stop  offset="0.7551" style="stop-color:#E4BBB2"/>
			<stop  offset="1" style="stop-color:#CD787C"/>
		</linearGradient>
		<path fill="url(#SVGID_16_)" d="M142.147,0.35v33.6h-2.448V17.966h-22.464V33.95h-2.447V0.35h2.447v15.456h22.464V0.35H142.147z"
			/>
		<linearGradient id="SVGID_17_" gradientUnits="userSpaceOnUse" x1="-392.3267" y1="17.1499" x2="568.1436" y2="17.1499">
			<stop  offset="0" style="stop-color:#D57D86"/>
			<stop  offset="0.1101" style="stop-color:#D7868C"/>
			<stop  offset="0.2926" style="stop-color:#DCA09B"/>
			<stop  offset="0.3786" style="stop-color:#DFAEA3"/>
			<stop  offset="0.7551" style="stop-color:#E4BBB2"/>
			<stop  offset="1" style="stop-color:#CD787C"/>
		</linearGradient>
		<path fill="url(#SVGID_17_)" d="M177.044,31.742v2.208H153.86V0.35h22.464v2.208h-20.017v13.248h17.904v2.16h-17.904v13.776
			H177.044z"/>
		<linearGradient id="SVGID_18_" gradientUnits="userSpaceOnUse" x1="-392.3267" y1="17.1499" x2="568.1436" y2="17.1499">
			<stop  offset="0" style="stop-color:#D57D86"/>
			<stop  offset="0.1101" style="stop-color:#D7868C"/>
			<stop  offset="0.2926" style="stop-color:#DCA09B"/>
			<stop  offset="0.3786" style="stop-color:#DFAEA3"/>
			<stop  offset="0.7551" style="stop-color:#E4BBB2"/>
			<stop  offset="1" style="stop-color:#CD787C"/>
		</linearGradient>
		<path fill="url(#SVGID_18_)" d="M223.771,19.454c1.264,1.44,1.896,3.312,1.896,5.616c0,2.848-1.04,5.04-3.12,6.576
			c-2.08,1.536-5.168,2.304-9.264,2.304h-14.976V0.35h14.016c3.647,0,6.487,0.744,8.52,2.232c2.032,1.488,3.049,3.608,3.049,6.36
			c0,1.92-0.505,3.536-1.513,4.848c-1.008,1.313-2.376,2.256-4.104,2.832C220.674,17.07,222.506,18.014,223.771,19.454z
			 M200.754,2.462v13.392h11.473c2.943,0,5.208-0.567,6.792-1.704c1.584-1.136,2.376-2.808,2.376-5.016
			c0-2.176-0.792-3.832-2.376-4.968c-1.584-1.135-3.849-1.704-6.792-1.704H200.754z M220.698,30.134
			c1.68-1.136,2.52-2.888,2.52-5.256s-0.84-4.112-2.52-5.232c-1.68-1.12-4.152-1.68-7.416-1.68h-12.528v13.872h12.528
			C216.546,31.838,219.019,31.27,220.698,30.134z"/>
		<linearGradient id="SVGID_19_" gradientUnits="userSpaceOnUse" x1="-392.3267" y1="17.1499" x2="568.1436" y2="17.1499">
			<stop  offset="0" style="stop-color:#D57D86"/>
			<stop  offset="0.1101" style="stop-color:#D7868C"/>
			<stop  offset="0.2926" style="stop-color:#DCA09B"/>
			<stop  offset="0.3786" style="stop-color:#DFAEA3"/>
			<stop  offset="0.7551" style="stop-color:#E4BBB2"/>
			<stop  offset="1" style="stop-color:#CD787C"/>
		</linearGradient>
		<path fill="url(#SVGID_19_)" d="M237.643,30.494c-2.352-2.464-3.527-6.063-3.527-10.8V0.35h2.447v19.248
			c0,4.128,0.944,7.216,2.832,9.264c1.888,2.048,4.624,3.072,8.208,3.072c3.553,0,6.271-1.023,8.16-3.072
			c1.888-2.048,2.832-5.136,2.832-9.264V0.35h2.448v19.344c0,4.736-1.185,8.336-3.552,10.8c-2.369,2.464-5.681,3.696-9.937,3.696
			S239.995,32.958,237.643,30.494z"/>
		<linearGradient id="SVGID_20_" gradientUnits="userSpaceOnUse" x1="-392.3267" y1="17.1499" x2="568.1436" y2="17.1499">
			<stop  offset="0" style="stop-color:#D57D86"/>
			<stop  offset="0.1101" style="stop-color:#D7868C"/>
			<stop  offset="0.2926" style="stop-color:#DCA09B"/>
			<stop  offset="0.3786" style="stop-color:#DFAEA3"/>
			<stop  offset="0.7551" style="stop-color:#E4BBB2"/>
			<stop  offset="1" style="stop-color:#CD787C"/>
		</linearGradient>
		<path fill="url(#SVGID_20_)" d="M297.931,19.454c1.264,1.44,1.896,3.312,1.896,5.616c0,2.848-1.04,5.04-3.12,6.576
			c-2.08,1.536-5.168,2.304-9.264,2.304h-14.976V0.35h14.016c3.647,0,6.487,0.744,8.52,2.232c2.032,1.488,3.049,3.608,3.049,6.36
			c0,1.92-0.505,3.536-1.513,4.848c-1.008,1.313-2.376,2.256-4.104,2.832C294.834,17.07,296.666,18.014,297.931,19.454z
			 M274.914,2.462v13.392h11.473c2.943,0,5.208-0.567,6.792-1.704c1.584-1.136,2.376-2.808,2.376-5.016
			c0-2.176-0.792-3.832-2.376-4.968c-1.584-1.135-3.849-1.704-6.792-1.704H274.914z M294.858,30.134
			c1.68-1.136,2.52-2.888,2.52-5.256s-0.84-4.112-2.52-5.232c-1.68-1.12-4.152-1.68-7.416-1.68h-12.528v13.872h12.528
			C290.706,31.838,293.179,31.27,294.858,30.134z"/>
		<linearGradient id="SVGID_21_" gradientUnits="userSpaceOnUse" x1="-392.3267" y1="17.1499" x2="568.1436" y2="17.1499">
			<stop  offset="0" style="stop-color:#D57D86"/>
			<stop  offset="0.1101" style="stop-color:#D7868C"/>
			<stop  offset="0.2926" style="stop-color:#DCA09B"/>
			<stop  offset="0.3786" style="stop-color:#DFAEA3"/>
			<stop  offset="0.7551" style="stop-color:#E4BBB2"/>
			<stop  offset="1" style="stop-color:#CD787C"/>
		</linearGradient>
		<path fill="url(#SVGID_21_)" d="M318.546,17.39l-7.536,7.728v8.832h-2.447V0.35h2.447v21.6l20.977-21.6h2.976l-14.784,15.264
			L335.97,33.95h-2.976L318.546,17.39z"/>
		<linearGradient id="SVGID_22_" gradientUnits="userSpaceOnUse" x1="-392.3267" y1="17.1499" x2="568.1436" y2="17.1499">
			<stop  offset="0" style="stop-color:#D57D86"/>
			<stop  offset="0.1101" style="stop-color:#D7868C"/>
			<stop  offset="0.2926" style="stop-color:#DCA09B"/>
			<stop  offset="0.3786" style="stop-color:#DFAEA3"/>
			<stop  offset="0.7551" style="stop-color:#E4BBB2"/>
			<stop  offset="1" style="stop-color:#CD787C"/>
		</linearGradient>
		<path fill="url(#SVGID_22_)" d="M363.089,24.494h-19.487l-4.272,9.456h-2.64l15.456-33.6h2.447l15.456,33.6h-2.64L363.089,24.494z
			 M362.177,22.43l-8.831-19.392l-8.784,19.392H362.177z"/>
		<linearGradient id="SVGID_23_" gradientUnits="userSpaceOnUse" x1="-392.3267" y1="17.1499" x2="568.1436" y2="17.1499">
			<stop  offset="0" style="stop-color:#D57D86"/>
			<stop  offset="0.1101" style="stop-color:#D7868C"/>
			<stop  offset="0.2926" style="stop-color:#DCA09B"/>
			<stop  offset="0.3786" style="stop-color:#DFAEA3"/>
			<stop  offset="0.7551" style="stop-color:#E4BBB2"/>
			<stop  offset="1" style="stop-color:#CD787C"/>
		</linearGradient>
		<path fill="url(#SVGID_23_)" d="M420.257,33.95l-0.048-28.752l-14.064,24.288h-1.199L390.881,5.294V33.95h-2.399V0.35h2.063
			l15.024,25.968L420.593,0.35h2.017l0.048,33.6H420.257z"/>
		<linearGradient id="SVGID_24_" gradientUnits="userSpaceOnUse" x1="-392.3267" y1="17.1499" x2="568.1436" y2="17.1499">
			<stop  offset="0" style="stop-color:#D57D86"/>
			<stop  offset="0.1101" style="stop-color:#D7868C"/>
			<stop  offset="0.2926" style="stop-color:#DCA09B"/>
			<stop  offset="0.3786" style="stop-color:#DFAEA3"/>
			<stop  offset="0.7551" style="stop-color:#E4BBB2"/>
			<stop  offset="1" style="stop-color:#CD787C"/>
		</linearGradient>
		<path fill="url(#SVGID_24_)" d="M439.695,31.958c-2.656-1.488-4.744-3.528-6.264-6.12c-1.521-2.592-2.28-5.488-2.28-8.688
			c0-3.2,0.76-6.096,2.28-8.688c1.52-2.592,3.607-4.632,6.264-6.12c2.656-1.488,5.632-2.232,8.929-2.232
			c3.295,0,6.271,0.736,8.928,2.208c2.655,1.472,4.744,3.504,6.264,6.096c1.52,2.592,2.28,5.504,2.28,8.736
			c0,3.232-0.761,6.144-2.28,8.736s-3.608,4.625-6.264,6.096c-2.656,1.472-5.633,2.208-8.928,2.208
			C445.327,34.19,442.352,33.446,439.695,31.958z M456.256,30.014c2.271-1.279,4.063-3.048,5.376-5.304
			c1.312-2.256,1.968-4.776,1.968-7.56c0-2.784-0.656-5.304-1.968-7.56c-1.313-2.256-3.104-4.024-5.376-5.304
			c-2.272-1.279-4.816-1.92-7.632-1.92c-2.816,0-5.369,0.641-7.656,1.92c-2.288,1.28-4.088,3.048-5.4,5.304
			c-1.313,2.256-1.968,4.776-1.968,7.56c0,2.784,0.655,5.304,1.968,7.56c1.313,2.256,3.112,4.025,5.4,5.304
			c2.287,1.28,4.84,1.92,7.656,1.92C451.439,31.934,453.983,31.294,456.256,30.014z"/>
		<linearGradient id="SVGID_25_" gradientUnits="userSpaceOnUse" x1="-392.3267" y1="17.1499" x2="568.1436" y2="17.1499">
			<stop  offset="0" style="stop-color:#D57D86"/>
			<stop  offset="0.1101" style="stop-color:#D7868C"/>
			<stop  offset="0.2926" style="stop-color:#DCA09B"/>
			<stop  offset="0.3786" style="stop-color:#DFAEA3"/>
			<stop  offset="0.7551" style="stop-color:#E4BBB2"/>
			<stop  offset="1" style="stop-color:#CD787C"/>
		</linearGradient>
		<path fill="url(#SVGID_25_)" d="M474.593,0.35h13.296c3.487,0,6.583,0.72,9.288,2.16c2.703,1.44,4.807,3.432,6.312,5.976
			c1.504,2.544,2.256,5.432,2.256,8.664c0,3.232-0.752,6.12-2.256,8.664c-1.505,2.544-3.608,4.536-6.312,5.976
			c-2.705,1.44-5.801,2.16-9.288,2.16h-13.296V0.35z M487.696,31.742c3.104,0,5.84-0.616,8.208-1.848
			c2.368-1.231,4.191-2.952,5.472-5.16s1.92-4.736,1.92-7.584s-0.64-5.376-1.92-7.584s-3.104-3.928-5.472-5.16
			c-2.368-1.231-5.104-1.848-8.208-1.848H477.04v29.184H487.696z"/>
		<linearGradient id="SVGID_26_" gradientUnits="userSpaceOnUse" x1="-392.3267" y1="17.1499" x2="568.1436" y2="17.1499">
			<stop  offset="0" style="stop-color:#D57D86"/>
			<stop  offset="0.1101" style="stop-color:#D7868C"/>
			<stop  offset="0.2926" style="stop-color:#DCA09B"/>
			<stop  offset="0.3786" style="stop-color:#DFAEA3"/>
			<stop  offset="0.7551" style="stop-color:#E4BBB2"/>
			<stop  offset="1" style="stop-color:#CD787C"/>
		</linearGradient>
		<path fill="url(#SVGID_26_)" d="M537.424,31.742v2.208H514.24V0.35h22.464v2.208h-20.017v13.248h17.904v2.16h-17.904v13.776
			H537.424z"/>
		<linearGradient id="SVGID_27_" gradientUnits="userSpaceOnUse" x1="-392.3267" y1="17.1499" x2="568.1436" y2="17.1499">
			<stop  offset="0" style="stop-color:#D57D86"/>
			<stop  offset="0.1101" style="stop-color:#D7868C"/>
			<stop  offset="0.2926" style="stop-color:#DCA09B"/>
			<stop  offset="0.3786" style="stop-color:#DFAEA3"/>
			<stop  offset="0.7551" style="stop-color:#E4BBB2"/>
			<stop  offset="1" style="stop-color:#CD787C"/>
		</linearGradient>
		<path fill="url(#SVGID_27_)" d="M546.352,0.35h2.447v31.392h19.345v2.208h-21.792V0.35z"/>
	</g>
</g>
</svg>
