<?xml version="1.0" encoding="utf-8"?>
<!-- Generator: Adobe Illustrator 16.0.0, SVG Export Plug-In . SVG Version: 6.00 Build 0)  -->
<!DOCTYPE svg PUBLIC "-//W3C//DTD SVG 1.1//EN" "http://www.w3.org/Graphics/SVG/1.1/DTD/svg11.dtd">
<svg version="1.1" xmlns="http://www.w3.org/2000/svg" xmlns:xlink="http://www.w3.org/1999/xlink" x="0px" y="0px"
	 width="295.75px" height="34.08px" viewBox="0 0 295.75 34.08" enable-background="new 0 0 295.75 34.08" xml:space="preserve">
<g id="Layer_1">
	<g>
		<g>
			<linearGradient id="SVGID_1_" gradientUnits="userSpaceOnUse" x1="-367.3086" y1="17.04" x2="294.9893" y2="17.04">
				<stop  offset="0" style="stop-color:#7FACBF"/>
				<stop  offset="0.1194" style="stop-color:#88B5C5"/>
				<stop  offset="0.3172" style="stop-color:#A2CCD5"/>
				<stop  offset="0.3786" style="stop-color:#ABD5DB"/>
				<stop  offset="0.7551" style="stop-color:#A6D1D4"/>
				<stop  offset="0.9949" style="stop-color:#77B3B8"/>
			</linearGradient>
			<path fill="url(#SVGID_1_)" d="M-318.444,0.24l-11.376,33.6h-2.592l-10.416-30.144l-10.464,30.144h-2.592l-11.424-33.6h2.592
				l10.224,30.24l10.512-30.24h2.352l10.464,30.289l10.32-30.289H-318.444z"/>
			<linearGradient id="SVGID_2_" gradientUnits="userSpaceOnUse" x1="-367.3086" y1="17.04" x2="294.9893" y2="17.04">
				<stop  offset="0" style="stop-color:#7FACBF"/>
				<stop  offset="0.1194" style="stop-color:#88B5C5"/>
				<stop  offset="0.3172" style="stop-color:#A2CCD5"/>
				<stop  offset="0.3786" style="stop-color:#ABD5DB"/>
				<stop  offset="0.7551" style="stop-color:#A6D1D4"/>
				<stop  offset="0.9949" style="stop-color:#77B3B8"/>
			</linearGradient>
			<path fill="url(#SVGID_2_)" d="M-283.31,0.24v33.6h-2.447V17.856h-22.464V33.84h-2.448V0.24h2.448v15.456h22.464V0.24H-283.31z"
				/>
			<linearGradient id="SVGID_3_" gradientUnits="userSpaceOnUse" x1="-367.3086" y1="17.04" x2="294.9893" y2="17.04">
				<stop  offset="0" style="stop-color:#7FACBF"/>
				<stop  offset="0.1194" style="stop-color:#88B5C5"/>
				<stop  offset="0.3172" style="stop-color:#A2CCD5"/>
				<stop  offset="0.3786" style="stop-color:#ABD5DB"/>
				<stop  offset="0.7551" style="stop-color:#A6D1D4"/>
				<stop  offset="0.9949" style="stop-color:#77B3B8"/>
			</linearGradient>
			<path fill="url(#SVGID_3_)" d="M-261.229,22.272V33.84h-2.447V22.272L-277.213,0.24h2.688l12.143,19.776l12.145-19.776h2.544
				L-261.229,22.272z"/>
			<linearGradient id="SVGID_4_" gradientUnits="userSpaceOnUse" x1="-367.3086" y1="17.04" x2="294.9893" y2="17.04">
				<stop  offset="0" style="stop-color:#7FACBF"/>
				<stop  offset="0.1194" style="stop-color:#88B5C5"/>
				<stop  offset="0.3172" style="stop-color:#A2CCD5"/>
				<stop  offset="0.3786" style="stop-color:#ABD5DB"/>
				<stop  offset="0.7551" style="stop-color:#A6D1D4"/>
				<stop  offset="0.9949" style="stop-color:#77B3B8"/>
			</linearGradient>
			<path fill="url(#SVGID_4_)" d="M-203.798,19.344c1.264,1.44,1.896,3.312,1.896,5.616c0,2.848-1.041,5.04-3.12,6.576
				c-2.081,1.535-5.169,2.304-9.265,2.304h-14.976V0.24h14.017c3.647,0,6.486,0.744,8.52,2.232c2.031,1.488,3.048,3.608,3.048,6.36
				c0,1.92-0.504,3.536-1.512,4.848c-1.009,1.313-2.376,2.256-4.104,2.832C-206.894,16.96-205.062,17.904-203.798,19.344z
				 M-226.813,2.352v13.392h11.472c2.944,0,5.208-0.567,6.792-1.704c1.584-1.136,2.376-2.808,2.376-5.016
				c0-2.176-0.792-3.832-2.376-4.968c-1.584-1.135-3.848-1.704-6.792-1.704H-226.813z M-206.87,30.024
				c1.681-1.137,2.521-2.889,2.521-5.256c0-2.369-0.84-4.112-2.521-5.233c-1.68-1.12-4.151-1.68-7.416-1.68h-12.527v13.872h12.527
				C-211.021,31.728-208.55,31.16-206.87,30.024z"/>
			<linearGradient id="SVGID_5_" gradientUnits="userSpaceOnUse" x1="-367.3086" y1="17.04" x2="294.9893" y2="17.04">
				<stop  offset="0" style="stop-color:#7FACBF"/>
				<stop  offset="0.1194" style="stop-color:#88B5C5"/>
				<stop  offset="0.3172" style="stop-color:#A2CCD5"/>
				<stop  offset="0.3786" style="stop-color:#ABD5DB"/>
				<stop  offset="0.7551" style="stop-color:#A6D1D4"/>
				<stop  offset="0.9949" style="stop-color:#77B3B8"/>
			</linearGradient>
			<path fill="url(#SVGID_5_)" d="M-169.981,31.632v2.208h-23.184V0.24h22.463v2.208h-20.016v13.248h17.904v2.16h-17.904v13.776
				H-169.981z"/>
			<linearGradient id="SVGID_6_" gradientUnits="userSpaceOnUse" x1="-367.3086" y1="17.04" x2="294.9893" y2="17.04">
				<stop  offset="0" style="stop-color:#7FACBF"/>
				<stop  offset="0.1194" style="stop-color:#88B5C5"/>
				<stop  offset="0.3172" style="stop-color:#A2CCD5"/>
				<stop  offset="0.3786" style="stop-color:#ABD5DB"/>
				<stop  offset="0.7551" style="stop-color:#A6D1D4"/>
				<stop  offset="0.9949" style="stop-color:#77B3B8"/>
			</linearGradient>
			<path fill="url(#SVGID_6_)" d="M-155.75,31.872c-2.64-1.472-4.721-3.504-6.24-6.096c-1.521-2.592-2.28-5.504-2.28-8.736
				c0-3.232,0.76-6.144,2.28-8.736c1.52-2.592,3.601-4.624,6.24-6.096C-153.11,0.736-150.143,0-146.847,0
				c2.432,0,4.672,0.392,6.721,1.176c2.047,0.785,3.792,1.944,5.232,3.48l-1.537,1.584c-2.688-2.656-6.128-3.984-10.319-3.984
				c-2.816,0-5.376,0.641-7.681,1.92c-2.304,1.28-4.111,3.048-5.424,5.304c-1.313,2.256-1.968,4.776-1.968,7.56
				c0,2.784,0.655,5.304,1.968,7.56c1.313,2.257,3.12,4.024,5.424,5.304c2.305,1.281,4.864,1.92,7.681,1.92
				c4.159,0,7.6-1.344,10.319-4.031l1.537,1.584c-1.44,1.535-3.192,2.705-5.257,3.504c-2.063,0.801-4.296,1.2-6.696,1.2
				C-150.143,34.08-153.11,33.345-155.75,31.872z"/>
			<linearGradient id="SVGID_7_" gradientUnits="userSpaceOnUse" x1="-367.3086" y1="17.04" x2="294.9893" y2="17.04">
				<stop  offset="0" style="stop-color:#7FACBF"/>
				<stop  offset="0.1194" style="stop-color:#88B5C5"/>
				<stop  offset="0.3172" style="stop-color:#A2CCD5"/>
				<stop  offset="0.3786" style="stop-color:#ABD5DB"/>
				<stop  offset="0.7551" style="stop-color:#A6D1D4"/>
				<stop  offset="0.9949" style="stop-color:#77B3B8"/>
			</linearGradient>
			<path fill="url(#SVGID_7_)" d="M-121.358,31.848c-2.657-1.487-4.745-3.528-6.265-6.12c-1.521-2.592-2.28-5.487-2.28-8.688
				c0-3.2,0.76-6.096,2.28-8.688c1.52-2.592,3.607-4.632,6.265-6.12C-118.703,0.744-115.728,0-112.431,0
				c3.295,0,6.271,0.736,8.928,2.208c2.656,1.472,4.744,3.504,6.264,6.096c1.52,2.592,2.28,5.504,2.28,8.736
				c0,3.232-0.761,6.145-2.28,8.736s-3.607,4.624-6.264,6.096c-2.656,1.473-5.633,2.208-8.928,2.208
				C-115.728,34.08-118.703,33.336-121.358,31.848z M-104.799,29.903c2.271-1.279,4.063-3.047,5.376-5.304
				c1.312-2.256,1.968-4.776,1.968-7.56c0-2.784-0.656-5.304-1.968-7.56c-1.313-2.256-3.104-4.024-5.376-5.304
				c-2.272-1.279-4.816-1.92-7.632-1.92c-2.816,0-5.369,0.641-7.656,1.92c-2.288,1.28-4.088,3.048-5.4,5.304
				c-1.313,2.256-1.968,4.776-1.968,7.56c0,2.784,0.655,5.304,1.968,7.56c1.313,2.257,3.112,4.024,5.4,5.304
				c2.287,1.281,4.84,1.92,7.656,1.92C-109.615,31.823-107.071,31.185-104.799,29.903z"/>
			<linearGradient id="SVGID_8_" gradientUnits="userSpaceOnUse" x1="-367.3086" y1="17.04" x2="294.9893" y2="17.04">
				<stop  offset="0" style="stop-color:#7FACBF"/>
				<stop  offset="0.1194" style="stop-color:#88B5C5"/>
				<stop  offset="0.3172" style="stop-color:#A2CCD5"/>
				<stop  offset="0.3786" style="stop-color:#ABD5DB"/>
				<stop  offset="0.7551" style="stop-color:#A6D1D4"/>
				<stop  offset="0.9949" style="stop-color:#77B3B8"/>
			</linearGradient>
			<path fill="url(#SVGID_8_)" d="M-54.687,33.84l-0.049-28.752l-14.063,24.288h-1.2L-84.063,5.184V33.84h-2.399V0.24h2.063
				l15.024,25.968L-54.351,0.24h2.016l0.049,33.6H-54.687z"/>
			<linearGradient id="SVGID_9_" gradientUnits="userSpaceOnUse" x1="-367.3086" y1="17.04" x2="294.9893" y2="17.04">
				<stop  offset="0" style="stop-color:#7FACBF"/>
				<stop  offset="0.1194" style="stop-color:#88B5C5"/>
				<stop  offset="0.3172" style="stop-color:#A2CCD5"/>
				<stop  offset="0.3786" style="stop-color:#ABD5DB"/>
				<stop  offset="0.7551" style="stop-color:#A6D1D4"/>
				<stop  offset="0.9949" style="stop-color:#77B3B8"/>
			</linearGradient>
			<path fill="url(#SVGID_9_)" d="M-17.392,31.632v2.208h-23.184V0.24h22.464v2.208h-20.016v13.248h17.903v2.16h-17.903v13.776
				H-17.392z"/>
			<linearGradient id="SVGID_10_" gradientUnits="userSpaceOnUse" x1="-367.3086" y1="17.04" x2="294.9893" y2="17.04">
				<stop  offset="0" style="stop-color:#7FACBF"/>
				<stop  offset="0.1194" style="stop-color:#88B5C5"/>
				<stop  offset="0.3172" style="stop-color:#A2CCD5"/>
				<stop  offset="0.3786" style="stop-color:#ABD5DB"/>
				<stop  offset="0.7551" style="stop-color:#A6D1D4"/>
				<stop  offset="0.9949" style="stop-color:#77B3B8"/>
			</linearGradient>
			<path fill="url(#SVGID_10_)" d="M9.2,31.848c-2.657-1.487-4.745-3.528-6.265-6.12c-1.521-2.592-2.28-5.487-2.28-8.688
				c0-3.2,0.76-6.096,2.28-8.688C4.455,5.76,6.543,3.72,9.2,2.232C11.855,0.744,14.831,0,18.128,0c3.295,0,6.271,0.736,8.928,2.208
				c2.656,1.472,4.744,3.504,6.264,6.096c1.52,2.592,2.28,5.504,2.28,8.736c0,3.232-0.761,6.145-2.28,8.736
				s-3.607,4.624-6.264,6.096c-2.656,1.473-5.633,2.208-8.928,2.208C14.831,34.08,11.855,33.336,9.2,31.848z M25.76,29.903
				c2.271-1.279,4.063-3.047,5.376-5.304c1.312-2.256,1.968-4.776,1.968-7.56c0-2.784-0.656-5.304-1.968-7.56
				c-1.313-2.256-3.104-4.024-5.376-5.304c-2.272-1.279-4.816-1.92-7.632-1.92c-2.816,0-5.369,0.641-7.656,1.92
				c-2.288,1.28-4.088,3.048-5.4,5.304c-1.313,2.256-1.968,4.776-1.968,7.56c0,2.784,0.655,5.304,1.968,7.56
				c1.313,2.257,3.112,4.024,5.4,5.304c2.287,1.281,4.84,1.92,7.656,1.92C20.943,31.823,23.487,31.185,25.76,29.903z"/>
			<linearGradient id="SVGID_11_" gradientUnits="userSpaceOnUse" x1="-367.3086" y1="17.04" x2="294.9893" y2="17.04">
				<stop  offset="0" style="stop-color:#7FACBF"/>
				<stop  offset="0.1194" style="stop-color:#88B5C5"/>
				<stop  offset="0.3172" style="stop-color:#A2CCD5"/>
				<stop  offset="0.3786" style="stop-color:#ABD5DB"/>
				<stop  offset="0.7551" style="stop-color:#A6D1D4"/>
				<stop  offset="0.9949" style="stop-color:#77B3B8"/>
			</linearGradient>
			<path fill="url(#SVGID_11_)" d="M71.456,0.24v33.6H69.44L46.544,4.656V33.84h-2.448V0.24h2.063l22.849,29.184V0.24H71.456z"/>
			<linearGradient id="SVGID_12_" gradientUnits="userSpaceOnUse" x1="-367.3086" y1="17.04" x2="294.9893" y2="17.04">
				<stop  offset="0" style="stop-color:#7FACBF"/>
				<stop  offset="0.1194" style="stop-color:#88B5C5"/>
				<stop  offset="0.3172" style="stop-color:#A2CCD5"/>
				<stop  offset="0.3786" style="stop-color:#ABD5DB"/>
				<stop  offset="0.7551" style="stop-color:#A6D1D4"/>
				<stop  offset="0.9949" style="stop-color:#77B3B8"/>
			</linearGradient>
			<path fill="url(#SVGID_12_)" d="M106.352,31.632v2.208H83.167V0.24h22.465v2.208H85.616v13.248h17.903v2.16H85.616v13.776
				H106.352z"/>
			<linearGradient id="SVGID_13_" gradientUnits="userSpaceOnUse" x1="-367.3086" y1="17.04" x2="294.9893" y2="17.04">
				<stop  offset="0" style="stop-color:#7FACBF"/>
				<stop  offset="0.1194" style="stop-color:#88B5C5"/>
				<stop  offset="0.3172" style="stop-color:#A2CCD5"/>
				<stop  offset="0.3786" style="stop-color:#ABD5DB"/>
				<stop  offset="0.7551" style="stop-color:#A6D1D4"/>
				<stop  offset="0.9949" style="stop-color:#77B3B8"/>
			</linearGradient>
			<path fill="url(#SVGID_13_)" d="M132.942,31.848c-2.656-1.487-4.744-3.528-6.264-6.12s-2.279-5.487-2.279-8.688
				c0-3.2,0.76-6.096,2.279-8.688c1.52-2.592,3.607-4.632,6.264-6.12C135.599,0.744,138.575,0,141.87,0
				c3.297,0,6.271,0.736,8.929,2.208c2.655,1.472,4.743,3.504,6.265,6.096c1.52,2.592,2.279,5.504,2.279,8.736
				c0,3.232-0.76,6.145-2.279,8.736c-1.521,2.592-3.609,4.624-6.265,6.096c-2.657,1.473-5.632,2.208-8.929,2.208
				C138.575,34.08,135.599,33.336,132.942,31.848z M149.503,29.903c2.271-1.279,4.063-3.047,5.376-5.304
				c1.312-2.256,1.968-4.776,1.968-7.56c0-2.784-0.656-5.304-1.968-7.56c-1.313-2.256-3.104-4.024-5.376-5.304
				c-2.272-1.279-4.816-1.92-7.633-1.92c-2.815,0-5.367,0.641-7.655,1.92c-2.288,1.28-4.089,3.048-5.399,5.304
				c-1.313,2.256-1.969,4.776-1.969,7.56c0,2.784,0.656,5.304,1.969,7.56c1.311,2.257,3.111,4.024,5.399,5.304
				c2.288,1.281,4.84,1.92,7.655,1.92C144.687,31.823,147.23,31.185,149.503,29.903z"/>
			<linearGradient id="SVGID_14_" gradientUnits="userSpaceOnUse" x1="-367.3086" y1="17.04" x2="294.9893" y2="17.04">
				<stop  offset="0" style="stop-color:#7FACBF"/>
				<stop  offset="0.1194" style="stop-color:#88B5C5"/>
				<stop  offset="0.3172" style="stop-color:#A2CCD5"/>
				<stop  offset="0.3786" style="stop-color:#ABD5DB"/>
				<stop  offset="0.7551" style="stop-color:#A6D1D4"/>
				<stop  offset="0.9949" style="stop-color:#77B3B8"/>
			</linearGradient>
			<path fill="url(#SVGID_14_)" d="M170.286,2.448V16.8h17.904v2.208h-17.904V33.84h-2.447V0.24h22.463v2.208H170.286z"/>
			<linearGradient id="SVGID_15_" gradientUnits="userSpaceOnUse" x1="-367.3086" y1="17.04" x2="294.9893" y2="17.04">
				<stop  offset="0" style="stop-color:#7FACBF"/>
				<stop  offset="0.1194" style="stop-color:#88B5C5"/>
				<stop  offset="0.3172" style="stop-color:#A2CCD5"/>
				<stop  offset="0.3786" style="stop-color:#ABD5DB"/>
				<stop  offset="0.7551" style="stop-color:#A6D1D4"/>
				<stop  offset="0.9949" style="stop-color:#77B3B8"/>
			</linearGradient>
			<path fill="url(#SVGID_15_)" d="M213.702,30.384c-2.353-2.464-3.529-6.063-3.529-10.8V0.24h2.449v19.248
				c0,4.128,0.943,7.216,2.832,9.264c1.887,2.048,4.623,3.071,8.207,3.071c3.553,0,6.271-1.023,8.16-3.071
				c1.888-2.048,2.832-5.136,2.832-9.264V0.24h2.448v19.344c0,4.736-1.185,8.336-3.552,10.8c-2.369,2.465-5.681,3.696-9.937,3.696
				S216.054,32.849,213.702,30.384z"/>
			<linearGradient id="SVGID_16_" gradientUnits="userSpaceOnUse" x1="-367.3086" y1="17.04" x2="294.9893" y2="17.04">
				<stop  offset="0" style="stop-color:#7FACBF"/>
				<stop  offset="0.1194" style="stop-color:#88B5C5"/>
				<stop  offset="0.3172" style="stop-color:#A2CCD5"/>
				<stop  offset="0.3786" style="stop-color:#ABD5DB"/>
				<stop  offset="0.7551" style="stop-color:#A6D1D4"/>
				<stop  offset="0.9949" style="stop-color:#77B3B8"/>
			</linearGradient>
			<path fill="url(#SVGID_16_)" d="M250.326,32.808c-2.225-0.848-3.96-1.943-5.208-3.287l1.104-1.824
				c1.184,1.248,2.776,2.264,4.776,3.047c1.999,0.785,4.104,1.177,6.312,1.177c3.2,0,5.616-0.607,7.248-1.824
				c1.632-1.216,2.448-2.8,2.448-4.752c0-1.503-0.432-2.704-1.296-3.601c-0.864-0.895-1.937-1.583-3.216-2.063
				c-1.28-0.48-3.009-0.976-5.185-1.488c-2.464-0.607-4.439-1.2-5.928-1.776c-1.488-0.576-2.752-1.464-3.792-2.664
				c-1.04-1.2-1.56-2.808-1.56-4.824c0-1.632,0.432-3.127,1.296-4.488c0.863-1.36,2.184-2.44,3.96-3.24
				c1.775-0.799,3.991-1.2,6.647-1.2c1.855,0,3.68,0.272,5.473,0.816c1.791,0.544,3.343,1.28,4.655,2.208l-0.911,1.968
				c-1.345-0.928-2.825-1.632-4.44-2.112c-1.616-0.48-3.209-0.72-4.776-0.72c-3.104,0-5.456,0.624-7.056,1.872
				c-1.601,1.248-2.4,2.864-2.4,4.848c0,1.504,0.433,2.705,1.296,3.6c0.864,0.896,1.937,1.584,3.217,2.064
				c1.279,0.48,3.023,0.992,5.231,1.536c2.464,0.608,4.432,1.2,5.904,1.776c1.472,0.576,2.728,1.448,3.768,2.616
				c1.04,1.168,1.561,2.744,1.561,4.729c0,1.632-0.44,3.119-1.32,4.464c-0.88,1.344-2.231,2.417-4.056,3.216
				c-1.824,0.801-4.064,1.2-6.72,1.2C254.894,34.08,252.55,33.656,250.326,32.808z"/>
			<linearGradient id="SVGID_17_" gradientUnits="userSpaceOnUse" x1="-367.3086" y1="17.04" x2="294.9893" y2="17.04">
				<stop  offset="0" style="stop-color:#7FACBF"/>
				<stop  offset="0.1194" style="stop-color:#88B5C5"/>
				<stop  offset="0.3172" style="stop-color:#A2CCD5"/>
				<stop  offset="0.3786" style="stop-color:#ABD5DB"/>
				<stop  offset="0.7551" style="stop-color:#A6D1D4"/>
				<stop  offset="0.9949" style="stop-color:#77B3B8"/>
			</linearGradient>
			<path fill="url(#SVGID_17_)" d="M284.142,20.664c0.447-1.008,0.983-1.864,1.607-2.568c0.624-0.703,1.464-1.52,2.521-2.448
				c1.439-1.28,2.503-2.408,3.191-3.384c0.688-0.976,1.032-2.215,1.032-3.72c0-1.888-0.736-3.424-2.208-4.608
				c-1.472-1.184-3.536-1.776-6.191-1.776c-2.145,0-4.001,0.329-5.568,0.984c-1.568,0.656-2.928,1.656-4.08,3l-1.776-1.392
				C275.325,1.584,279.181,0,284.237,0c3.264,0,5.872,0.744,7.824,2.232c1.951,1.488,2.928,3.48,2.928,5.976
				c0,1.344-0.216,2.52-0.647,3.528c-0.433,1.008-0.96,1.872-1.584,2.592c-0.624,0.72-1.465,1.544-2.521,2.472
				c-0.992,0.896-1.76,1.648-2.304,2.256c-0.545,0.608-1.008,1.337-1.393,2.184c-0.384,0.849-0.575,1.833-0.575,2.953h-2.496
				C283.47,22.848,283.692,21.672,284.142,20.664z M283.325,33.456c-0.384-0.385-0.576-0.848-0.576-1.393
				c0-0.543,0.192-1.008,0.576-1.392s0.848-0.576,1.393-0.576c0.575,0,1.056,0.192,1.439,0.576s0.576,0.849,0.576,1.392
				c0,0.545-0.192,1.008-0.576,1.393c-0.384,0.384-0.864,0.576-1.439,0.576C284.173,34.032,283.709,33.84,283.325,33.456z"/>
		</g>
	</g>
</g>
<g id="Layer_2">
</g>
</svg>
