<?xml version="1.0" encoding="utf-8"?>
<!-- Generator: Adobe Illustrator 16.0.0, SVG Export Plug-In . SVG Version: 6.00 Build 0)  -->
<!DOCTYPE svg PUBLIC "-//W3C//DTD SVG 1.1//EN" "http://www.w3.org/Graphics/SVG/1.1/DTD/svg11.dtd">
<svg version="1.1" id="Layer_1" xmlns="http://www.w3.org/2000/svg" xmlns:xlink="http://www.w3.org/1999/xlink" x="0px" y="0px"
	 width="209.875px" height="34.667px" viewBox="0 0 209.875 34.667" enable-background="new 0 0 209.875 34.667"
	 xml:space="preserve">
<g>
	<g>
		<linearGradient id="SVGID_1_" gradientUnits="userSpaceOnUse" x1="-506.5479" y1="17.4326" x2="208.9316" y2="17.4326">
			<stop  offset="0.0357" style="stop-color:#D57F87"/>
			<stop  offset="0.1437" style="stop-color:#D78A8D"/>
			<stop  offset="0.3303" style="stop-color:#DDA69E"/>
			<stop  offset="0.3786" style="stop-color:#DFAEA3"/>
			<stop  offset="0.7551" style="stop-color:#E4BBB2"/>
			<stop  offset="1" style="stop-color:#CD787C"/>
		</linearGradient>
		<path fill="url(#SVGID_1_)" d="M-483.22,34.232L-491.236,23c-1.184,0.161-2.272,0.24-3.264,0.24h-9.6v10.992h-2.448v-33.6h12.048
			c4.224,0,7.536,1,9.936,3c2.4,2,3.6,4.776,3.6,8.328c0,2.656-0.68,4.889-2.04,6.696c-1.36,1.809-3.304,3.081-5.832,3.816
			l8.4,11.76H-483.22z M-494.5,21.081c3.583,0,6.32-0.792,8.208-2.376c1.888-1.584,2.832-3.832,2.832-6.744
			c0-2.912-0.944-5.16-2.832-6.744c-1.888-1.584-4.625-2.376-8.208-2.376h-9.6v18.24H-494.5z"/>
		<linearGradient id="SVGID_2_" gradientUnits="userSpaceOnUse" x1="-506.5479" y1="17.4326" x2="208.9316" y2="17.4326">
			<stop  offset="0.0357" style="stop-color:#D57F87"/>
			<stop  offset="0.1437" style="stop-color:#D78A8D"/>
			<stop  offset="0.3303" style="stop-color:#DDA69E"/>
			<stop  offset="0.3786" style="stop-color:#DFAEA3"/>
			<stop  offset="0.7551" style="stop-color:#E4BBB2"/>
			<stop  offset="1" style="stop-color:#CD787C"/>
		</linearGradient>
		<path fill="url(#SVGID_2_)" d="M-448.804,32.024v2.208h-23.184v-33.6h22.464V2.84h-20.016v13.248h17.904v2.16h-17.904v13.776
			H-448.804z"/>
		<linearGradient id="SVGID_3_" gradientUnits="userSpaceOnUse" x1="-506.5479" y1="17.4326" x2="208.9316" y2="17.4326">
			<stop  offset="0.0357" style="stop-color:#D57F87"/>
			<stop  offset="0.1437" style="stop-color:#D78A8D"/>
			<stop  offset="0.3303" style="stop-color:#DDA69E"/>
			<stop  offset="0.3786" style="stop-color:#DFAEA3"/>
			<stop  offset="0.7551" style="stop-color:#E4BBB2"/>
			<stop  offset="1" style="stop-color:#CD787C"/>
		</linearGradient>
		<path fill="url(#SVGID_3_)" d="M-429.893,17.672l-7.536,7.728v8.832h-2.448v-33.6h2.448v21.6l20.976-21.6h2.976l-14.784,15.264
			l15.792,18.336h-2.976L-429.893,17.672z"/>
		<linearGradient id="SVGID_4_" gradientUnits="userSpaceOnUse" x1="-506.5479" y1="17.4326" x2="208.9316" y2="17.4326">
			<stop  offset="0.0357" style="stop-color:#D57F87"/>
			<stop  offset="0.1437" style="stop-color:#D78A8D"/>
			<stop  offset="0.3303" style="stop-color:#DDA69E"/>
			<stop  offset="0.3786" style="stop-color:#DFAEA3"/>
			<stop  offset="0.7551" style="stop-color:#E4BBB2"/>
			<stop  offset="1" style="stop-color:#CD787C"/>
		</linearGradient>
		<path fill="url(#SVGID_4_)" d="M-406.134,0.632h2.448v33.6h-2.448V0.632z"/>
		<linearGradient id="SVGID_5_" gradientUnits="userSpaceOnUse" x1="-506.5479" y1="17.4326" x2="208.9316" y2="17.4326">
			<stop  offset="0.0357" style="stop-color:#D57F87"/>
			<stop  offset="0.1437" style="stop-color:#D78A8D"/>
			<stop  offset="0.3303" style="stop-color:#DDA69E"/>
			<stop  offset="0.3786" style="stop-color:#DFAEA3"/>
			<stop  offset="0.7551" style="stop-color:#E4BBB2"/>
			<stop  offset="1" style="stop-color:#CD787C"/>
		</linearGradient>
		<path fill="url(#SVGID_5_)" d="M-364.613,0.632v33.6h-2.016l-22.896-29.184v29.184h-2.448v-33.6h2.064l22.848,29.184V0.632
			H-364.613z"/>
		<linearGradient id="SVGID_6_" gradientUnits="userSpaceOnUse" x1="-506.5479" y1="17.4326" x2="208.9316" y2="17.4326">
			<stop  offset="0.0357" style="stop-color:#D57F87"/>
			<stop  offset="0.1437" style="stop-color:#D78A8D"/>
			<stop  offset="0.3303" style="stop-color:#DDA69E"/>
			<stop  offset="0.3786" style="stop-color:#DFAEA3"/>
			<stop  offset="0.7551" style="stop-color:#E4BBB2"/>
			<stop  offset="1" style="stop-color:#CD787C"/>
		</linearGradient>
		<path fill="url(#SVGID_6_)" d="M-352.902,0.632h13.297c3.487,0,6.583,0.72,9.287,2.16s4.809,3.432,6.313,5.976
			s2.256,5.432,2.256,8.664c0,3.232-0.752,6.12-2.256,8.664c-1.504,2.544-3.608,4.537-6.313,5.976s-5.8,2.16-9.287,2.16h-13.297
			V0.632z M-339.798,32.024c3.104,0,5.839-0.616,8.208-1.849c2.367-1.23,4.191-2.951,5.473-5.159c1.279-2.208,1.92-4.736,1.92-7.584
			s-0.641-5.376-1.92-7.584c-1.281-2.208-3.105-3.928-5.473-5.16c-2.369-1.231-5.104-1.848-8.208-1.848h-10.655v29.184H-339.798z"/>
		<linearGradient id="SVGID_7_" gradientUnits="userSpaceOnUse" x1="-506.5479" y1="17.4326" x2="208.9316" y2="17.4326">
			<stop  offset="0.0357" style="stop-color:#D57F87"/>
			<stop  offset="0.1437" style="stop-color:#D78A8D"/>
			<stop  offset="0.3303" style="stop-color:#DDA69E"/>
			<stop  offset="0.3786" style="stop-color:#DFAEA3"/>
			<stop  offset="0.7551" style="stop-color:#E4BBB2"/>
			<stop  offset="1" style="stop-color:#CD787C"/>
		</linearGradient>
		<path fill="url(#SVGID_7_)" d="M-313.254,0.632h2.447v31.392h19.344v2.208h-21.791V0.632z"/>
		<linearGradient id="SVGID_8_" gradientUnits="userSpaceOnUse" x1="-506.5479" y1="17.4326" x2="208.9316" y2="17.4326">
			<stop  offset="0.0357" style="stop-color:#D57F87"/>
			<stop  offset="0.1437" style="stop-color:#D78A8D"/>
			<stop  offset="0.3303" style="stop-color:#DDA69E"/>
			<stop  offset="0.3786" style="stop-color:#DFAEA3"/>
			<stop  offset="0.7551" style="stop-color:#E4BBB2"/>
			<stop  offset="1" style="stop-color:#CD787C"/>
		</linearGradient>
		<path fill="url(#SVGID_8_)" d="M-285.175,0.632h2.448v33.6h-2.448V0.632z"/>
		<linearGradient id="SVGID_9_" gradientUnits="userSpaceOnUse" x1="-506.5479" y1="17.4326" x2="208.9316" y2="17.4326">
			<stop  offset="0.0357" style="stop-color:#D57F87"/>
			<stop  offset="0.1437" style="stop-color:#D78A8D"/>
			<stop  offset="0.3303" style="stop-color:#DDA69E"/>
			<stop  offset="0.3786" style="stop-color:#DFAEA3"/>
			<stop  offset="0.7551" style="stop-color:#E4BBB2"/>
			<stop  offset="1" style="stop-color:#CD787C"/>
		</linearGradient>
		<path fill="url(#SVGID_9_)" d="M-243.654,0.632v33.6h-2.016l-22.896-29.184v29.184h-2.448v-33.6h2.063l22.849,29.184V0.632
			H-243.654z"/>
		<linearGradient id="SVGID_10_" gradientUnits="userSpaceOnUse" x1="-506.5479" y1="17.4326" x2="208.9316" y2="17.4326">
			<stop  offset="0.0357" style="stop-color:#D57F87"/>
			<stop  offset="0.1437" style="stop-color:#D78A8D"/>
			<stop  offset="0.3303" style="stop-color:#DDA69E"/>
			<stop  offset="0.3786" style="stop-color:#DFAEA3"/>
			<stop  offset="0.7551" style="stop-color:#E4BBB2"/>
			<stop  offset="1" style="stop-color:#CD787C"/>
		</linearGradient>
		<path fill="url(#SVGID_10_)" d="M-207.943,17.577h2.352v12.576c-1.472,1.408-3.256,2.48-5.352,3.217s-4.313,1.104-6.648,1.104
			c-3.328,0-6.328-0.736-9-2.208s-4.768-3.505-6.287-6.096c-1.521-2.592-2.28-5.503-2.28-8.736c0-3.232,0.76-6.144,2.28-8.736
			c1.52-2.592,3.615-4.624,6.287-6.096c2.672-1.472,5.688-2.208,9.049-2.208c2.463,0,4.728,0.392,6.791,1.176
			c2.064,0.785,3.832,1.928,5.305,3.432l-1.536,1.632c-1.408-1.408-2.984-2.424-4.728-3.048c-1.745-0.624-3.672-0.936-5.784-0.936
			c-2.88,0-5.48,0.641-7.8,1.92c-2.32,1.28-4.137,3.048-5.448,5.304c-1.313,2.256-1.968,4.776-1.968,7.56
			c0,2.752,0.664,5.256,1.992,7.512c1.327,2.256,3.144,4.032,5.447,5.328c2.305,1.296,4.896,1.944,7.776,1.944
			c3.84,0,7.023-1.023,9.552-3.072V17.577z"/>
		<linearGradient id="SVGID_11_" gradientUnits="userSpaceOnUse" x1="-506.5479" y1="17.4326" x2="208.9316" y2="17.4326">
			<stop  offset="0.0357" style="stop-color:#D57F87"/>
			<stop  offset="0.1437" style="stop-color:#D78A8D"/>
			<stop  offset="0.3303" style="stop-color:#DDA69E"/>
			<stop  offset="0.3786" style="stop-color:#DFAEA3"/>
			<stop  offset="0.7551" style="stop-color:#E4BBB2"/>
			<stop  offset="1" style="stop-color:#CD787C"/>
		</linearGradient>
		<path fill="url(#SVGID_11_)" d="M-161.72,24.776h-19.488l-4.272,9.456h-2.639l15.455-33.6h2.448l15.456,33.6h-2.641
			L-161.72,24.776z M-162.632,22.712l-8.832-19.392l-8.784,19.392H-162.632z"/>
		<linearGradient id="SVGID_12_" gradientUnits="userSpaceOnUse" x1="-506.5479" y1="17.4326" x2="208.9316" y2="17.4326">
			<stop  offset="0.0357" style="stop-color:#D57F87"/>
			<stop  offset="0.1437" style="stop-color:#D78A8D"/>
			<stop  offset="0.3303" style="stop-color:#DDA69E"/>
			<stop  offset="0.3786" style="stop-color:#DFAEA3"/>
			<stop  offset="0.7551" style="stop-color:#E4BBB2"/>
			<stop  offset="1" style="stop-color:#CD787C"/>
		</linearGradient>
		<path fill="url(#SVGID_12_)" d="M-136.329,0.632h2.448v31.392h19.344v2.208h-21.792V0.632z"/>
		<linearGradient id="SVGID_13_" gradientUnits="userSpaceOnUse" x1="-506.5479" y1="17.4326" x2="208.9316" y2="17.4326">
			<stop  offset="0.0357" style="stop-color:#D57F87"/>
			<stop  offset="0.1437" style="stop-color:#D78A8D"/>
			<stop  offset="0.3303" style="stop-color:#DDA69E"/>
			<stop  offset="0.3786" style="stop-color:#DFAEA3"/>
			<stop  offset="0.7551" style="stop-color:#E4BBB2"/>
			<stop  offset="1" style="stop-color:#CD787C"/>
		</linearGradient>
		<path fill="url(#SVGID_13_)" d="M-102.922,32.24c-2.656-1.488-4.744-3.527-6.264-6.12s-2.279-5.488-2.279-8.688
			c0-3.2,0.76-6.096,2.279-8.688c1.52-2.592,3.607-4.632,6.264-6.12c2.656-1.488,5.633-2.232,8.928-2.232
			c3.297,0,6.271,0.736,8.929,2.208c2.655,1.472,4.743,3.504,6.265,6.096c1.52,2.592,2.279,5.504,2.279,8.736
			c0,3.232-0.76,6.144-2.279,8.736c-1.521,2.591-3.609,4.625-6.265,6.096c-2.657,1.472-5.632,2.208-8.929,2.208
			C-97.289,34.473-100.266,33.729-102.922,32.24z M-86.361,30.297c2.271-1.279,4.063-3.049,5.376-5.305
			c1.312-2.256,1.968-4.776,1.968-7.56c0-2.784-0.656-5.304-1.968-7.56c-1.313-2.256-3.104-4.024-5.376-5.304
			c-2.272-1.279-4.816-1.92-7.633-1.92c-2.815,0-5.367,0.641-7.655,1.92c-2.288,1.28-4.089,3.048-5.399,5.304
			c-1.313,2.256-1.969,4.776-1.969,7.56c0,2.784,0.656,5.304,1.969,7.56c1.311,2.256,3.111,4.025,5.399,5.305s4.84,1.92,7.655,1.92
			C-91.178,32.217-88.634,31.576-86.361,30.297z"/>
		<linearGradient id="SVGID_14_" gradientUnits="userSpaceOnUse" x1="-506.5479" y1="17.4326" x2="208.9316" y2="17.4326">
			<stop  offset="0.0357" style="stop-color:#D57F87"/>
			<stop  offset="0.1437" style="stop-color:#D78A8D"/>
			<stop  offset="0.3303" style="stop-color:#DDA69E"/>
			<stop  offset="0.3786" style="stop-color:#DFAEA3"/>
			<stop  offset="0.7551" style="stop-color:#E4BBB2"/>
			<stop  offset="1" style="stop-color:#CD787C"/>
		</linearGradient>
		<path fill="url(#SVGID_14_)" d="M-66.226,33.2c-2.224-0.847-3.96-1.944-5.208-3.288l1.104-1.824
			c1.184,1.248,2.776,2.265,4.777,3.049c1.999,0.784,4.104,1.176,6.312,1.176c3.199,0,5.616-0.607,7.248-1.824
			c1.632-1.216,2.448-2.8,2.448-4.752c0-1.503-0.433-2.704-1.297-3.6c-0.863-0.896-1.936-1.584-3.215-2.064
			c-1.281-0.48-3.009-0.976-5.185-1.488c-2.465-0.607-4.44-1.2-5.929-1.776c-1.487-0.576-2.752-1.464-3.791-2.664
			c-1.041-1.2-1.561-2.808-1.561-4.824c0-1.632,0.432-3.127,1.296-4.488c0.864-1.36,2.185-2.44,3.96-3.24
			c1.776-0.799,3.992-1.2,6.648-1.2c1.855,0,3.68,0.272,5.472,0.816c1.792,0.544,3.344,1.28,4.656,2.208l-0.912,1.968
			c-1.344-0.928-2.825-1.632-4.44-2.112s-3.208-0.72-4.775-0.72c-3.104,0-5.457,0.624-7.057,1.872s-2.399,2.864-2.399,4.848
			c0,1.504,0.433,2.705,1.296,3.6c0.863,0.896,1.936,1.584,3.216,2.064s3.024,0.992,5.231,1.536c2.465,0.608,4.433,1.2,5.904,1.776
			c1.473,0.576,2.729,1.448,3.769,2.616c1.04,1.168,1.56,2.745,1.56,4.728c0,1.632-0.439,3.121-1.32,4.464
			c-0.88,1.344-2.231,2.416-4.055,3.216c-1.824,0.8-4.064,1.2-6.721,1.2C-61.658,34.473-64.002,34.049-66.226,33.2z"/>
		<linearGradient id="SVGID_15_" gradientUnits="userSpaceOnUse" x1="-506.5479" y1="17.4326" x2="208.9316" y2="17.4326">
			<stop  offset="0.0357" style="stop-color:#D57F87"/>
			<stop  offset="0.1437" style="stop-color:#D78A8D"/>
			<stop  offset="0.3303" style="stop-color:#DDA69E"/>
			<stop  offset="0.3786" style="stop-color:#DFAEA3"/>
			<stop  offset="0.7551" style="stop-color:#E4BBB2"/>
			<stop  offset="1" style="stop-color:#CD787C"/>
		</linearGradient>
		<path fill="url(#SVGID_15_)" d="M-32.361,2.84h-12.097V0.632h26.64V2.84h-12.096v31.392h-2.447V2.84z"/>
		<linearGradient id="SVGID_16_" gradientUnits="userSpaceOnUse" x1="-506.5479" y1="17.4326" x2="208.9316" y2="17.4326">
			<stop  offset="0.0357" style="stop-color:#D57F87"/>
			<stop  offset="0.1437" style="stop-color:#D78A8D"/>
			<stop  offset="0.3303" style="stop-color:#DDA69E"/>
			<stop  offset="0.3786" style="stop-color:#DFAEA3"/>
			<stop  offset="0.7551" style="stop-color:#E4BBB2"/>
			<stop  offset="1" style="stop-color:#CD787C"/>
		</linearGradient>
		<path fill="url(#SVGID_16_)" d="M22.549,3.632c2.4,2,3.6,4.776,3.6,8.328c0,3.521-1.199,6.28-3.6,8.28c-2.4,2-5.712,3-9.936,3
			h-9.6v10.992H0.564v-33.6h12.049C16.837,0.632,20.148,1.633,22.549,3.632z M20.82,18.681c1.889-1.568,2.832-3.808,2.832-6.72
			c0-2.912-0.943-5.16-2.832-6.744c-1.888-1.584-4.624-2.376-8.207-2.376h-9.6v18.192h9.6C16.196,21.032,18.933,20.249,20.82,18.681
			z"/>
		<linearGradient id="SVGID_17_" gradientUnits="userSpaceOnUse" x1="-506.5479" y1="17.4326" x2="208.9316" y2="17.4326">
			<stop  offset="0.0357" style="stop-color:#D57F87"/>
			<stop  offset="0.1437" style="stop-color:#D78A8D"/>
			<stop  offset="0.3303" style="stop-color:#DDA69E"/>
			<stop  offset="0.3786" style="stop-color:#DFAEA3"/>
			<stop  offset="0.7551" style="stop-color:#E4BBB2"/>
			<stop  offset="1" style="stop-color:#CD787C"/>
		</linearGradient>
		<path fill="url(#SVGID_17_)" d="M55.669,24.776H36.181l-4.272,9.456H29.27l15.455-33.6h2.448l15.456,33.6h-2.641L55.669,24.776z
			 M54.757,22.712L45.925,3.32l-8.784,19.392H54.757z"/>
		<linearGradient id="SVGID_18_" gradientUnits="userSpaceOnUse" x1="-506.5479" y1="17.4326" x2="208.9316" y2="17.4326">
			<stop  offset="0.0357" style="stop-color:#D57F87"/>
			<stop  offset="0.1437" style="stop-color:#D78A8D"/>
			<stop  offset="0.3303" style="stop-color:#DDA69E"/>
			<stop  offset="0.3786" style="stop-color:#DFAEA3"/>
			<stop  offset="0.7551" style="stop-color:#E4BBB2"/>
			<stop  offset="1" style="stop-color:#CD787C"/>
		</linearGradient>
		<path fill="url(#SVGID_18_)" d="M70.523,33.2c-2.224-0.847-3.959-1.944-5.207-3.288l1.104-1.824
			c1.184,1.248,2.775,2.265,4.776,3.049c1.999,0.784,4.104,1.176,6.312,1.176c3.199,0,5.617-0.607,7.248-1.824
			c1.633-1.216,2.449-2.8,2.449-4.752c0-1.503-0.432-2.704-1.297-3.6c-0.863-0.896-1.936-1.584-3.216-2.064
			s-3.009-0.976-5.185-1.488c-2.465-0.607-4.439-1.2-5.928-1.776c-1.488-0.576-2.752-1.464-3.792-2.664
			c-1.04-1.2-1.56-2.808-1.56-4.824c0-1.632,0.432-3.127,1.295-4.488c0.865-1.36,2.185-2.44,3.961-3.24
			c1.775-0.799,3.991-1.2,6.648-1.2c1.855,0,3.679,0.272,5.473,0.816c1.791,0.544,3.342,1.28,4.654,2.208l-0.91,1.968
			c-1.346-0.928-2.826-1.632-4.441-2.112c-1.616-0.48-3.209-0.72-4.775-0.72c-3.105,0-5.457,0.624-7.057,1.872
			c-1.601,1.248-2.4,2.864-2.4,4.848c0,1.504,0.433,2.705,1.297,3.6c0.863,0.896,1.936,1.584,3.215,2.064
			c1.28,0.48,3.025,0.992,5.232,1.536c2.464,0.608,4.432,1.2,5.904,1.776c1.473,0.576,2.729,1.448,3.768,2.616
			c1.041,1.168,1.561,2.745,1.561,4.728c0,1.632-0.439,3.121-1.32,4.464c-0.879,1.344-2.23,2.416-4.055,3.216
			c-1.825,0.8-4.065,1.2-6.721,1.2C75.092,34.473,72.748,34.049,70.523,33.2z"/>
		<linearGradient id="SVGID_19_" gradientUnits="userSpaceOnUse" x1="-506.5479" y1="17.4326" x2="208.9316" y2="17.4326">
			<stop  offset="0.0357" style="stop-color:#D57F87"/>
			<stop  offset="0.1437" style="stop-color:#D78A8D"/>
			<stop  offset="0.3303" style="stop-color:#DDA69E"/>
			<stop  offset="0.3786" style="stop-color:#DFAEA3"/>
			<stop  offset="0.7551" style="stop-color:#E4BBB2"/>
			<stop  offset="1" style="stop-color:#CD787C"/>
		</linearGradient>
		<path fill="url(#SVGID_19_)" d="M99.756,33.2c-2.225-0.847-3.959-1.944-5.207-3.288l1.104-1.824
			c1.184,1.248,2.775,2.265,4.775,3.049s4.104,1.176,6.313,1.176c3.199,0,5.615-0.607,7.248-1.824
			c1.631-1.216,2.447-2.8,2.447-4.752c0-1.503-0.432-2.704-1.295-3.6c-0.865-0.896-1.938-1.584-3.217-2.064
			s-3.008-0.976-5.184-1.488c-2.465-0.607-4.439-1.2-5.928-1.776c-1.488-0.576-2.752-1.464-3.793-2.664
			c-1.039-1.2-1.559-2.808-1.559-4.824c0-1.632,0.432-3.127,1.295-4.488c0.863-1.36,2.184-2.44,3.961-3.24
			c1.775-0.799,3.99-1.2,6.646-1.2c1.855,0,3.68,0.272,5.473,0.816c1.791,0.544,3.344,1.28,4.656,2.208l-0.912,1.968
			c-1.344-0.928-2.824-1.632-4.439-2.112c-1.617-0.48-3.209-0.72-4.777-0.72c-3.104,0-5.455,0.624-7.055,1.872
			c-1.602,1.248-2.4,2.864-2.4,4.848c0,1.504,0.432,2.705,1.295,3.6c0.865,0.896,1.938,1.584,3.217,2.064s3.023,0.992,5.232,1.536
			c2.463,0.608,4.432,1.2,5.904,1.776c1.471,0.576,2.727,1.448,3.768,2.616c1.039,1.168,1.561,2.745,1.561,4.728
			c0,1.632-0.441,3.121-1.32,4.464c-0.881,1.344-2.232,2.416-4.057,3.216s-4.064,1.2-6.719,1.2
			C104.324,34.473,101.98,34.049,99.756,33.2z"/>
		<linearGradient id="SVGID_20_" gradientUnits="userSpaceOnUse" x1="-506.5479" y1="17.4326" x2="208.9316" y2="17.4326">
			<stop  offset="0.0357" style="stop-color:#D57F87"/>
			<stop  offset="0.1437" style="stop-color:#D78A8D"/>
			<stop  offset="0.3303" style="stop-color:#DDA69E"/>
			<stop  offset="0.3786" style="stop-color:#DFAEA3"/>
			<stop  offset="0.7551" style="stop-color:#E4BBB2"/>
			<stop  offset="1" style="stop-color:#CD787C"/>
		</linearGradient>
		<path fill="url(#SVGID_20_)" d="M127.188,0.632h2.447v33.6h-2.447V0.632z"/>
		<linearGradient id="SVGID_21_" gradientUnits="userSpaceOnUse" x1="-506.5479" y1="17.4326" x2="208.9316" y2="17.4326">
			<stop  offset="0.0357" style="stop-color:#D57F87"/>
			<stop  offset="0.1437" style="stop-color:#D78A8D"/>
			<stop  offset="0.3303" style="stop-color:#DDA69E"/>
			<stop  offset="0.3786" style="stop-color:#DFAEA3"/>
			<stop  offset="0.7551" style="stop-color:#E4BBB2"/>
			<stop  offset="1" style="stop-color:#CD787C"/>
		</linearGradient>
		<path fill="url(#SVGID_21_)" d="M146.676,32.24c-2.656-1.488-4.744-3.527-6.264-6.12c-1.521-2.592-2.281-5.488-2.281-8.688
			c0-3.2,0.76-6.096,2.281-8.688c1.52-2.592,3.607-4.632,6.264-6.12c2.656-1.488,5.631-2.232,8.928-2.232
			c3.295,0,6.271,0.736,8.928,2.208c2.656,1.472,4.744,3.504,6.264,6.096c1.52,2.592,2.281,5.504,2.281,8.736
			c0,3.232-0.762,6.144-2.281,8.736c-1.52,2.591-3.607,4.625-6.264,6.096s-5.633,2.208-8.928,2.208
			C152.307,34.473,149.332,33.729,146.676,32.24z M163.236,30.297c2.271-1.279,4.063-3.049,5.375-5.305s1.969-4.776,1.969-7.56
			c0-2.784-0.656-5.304-1.969-7.56c-1.313-2.256-3.104-4.024-5.375-5.304c-2.273-1.279-4.816-1.92-7.633-1.92
			s-5.369,0.641-7.656,1.92c-2.287,1.28-4.088,3.048-5.4,5.304c-1.313,2.256-1.967,4.776-1.967,7.56c0,2.784,0.654,5.304,1.967,7.56
			s3.113,4.025,5.4,5.305s4.84,1.92,7.656,1.92S160.963,31.576,163.236,30.297z"/>
		<linearGradient id="SVGID_22_" gradientUnits="userSpaceOnUse" x1="-506.5479" y1="17.4326" x2="208.9316" y2="17.4326">
			<stop  offset="0.0357" style="stop-color:#D57F87"/>
			<stop  offset="0.1437" style="stop-color:#D78A8D"/>
			<stop  offset="0.3303" style="stop-color:#DDA69E"/>
			<stop  offset="0.3786" style="stop-color:#DFAEA3"/>
			<stop  offset="0.7551" style="stop-color:#E4BBB2"/>
			<stop  offset="1" style="stop-color:#CD787C"/>
		</linearGradient>
		<path fill="url(#SVGID_22_)" d="M208.932,0.632v33.6h-2.016L184.02,5.048v29.184h-2.447v-33.6h2.063l22.848,29.184V0.632H208.932z
			"/>
	</g>
</g>
</svg>
