<?xml version="1.0" encoding="utf-8"?>
<!-- Generator: Adobe Illustrator 16.0.0, SVG Export Plug-In . SVG Version: 6.00 Build 0)  -->
<!DOCTYPE svg PUBLIC "-//W3C//DTD SVG 1.1//EN" "http://www.w3.org/Graphics/SVG/1.1/DTD/svg11.dtd">
<svg version="1.1" id="Layer_1" xmlns="http://www.w3.org/2000/svg" xmlns:xlink="http://www.w3.org/1999/xlink" x="0px" y="0px"
	 width="219.5px" height="36.333px" viewBox="0 0 219.5 36.333" enable-background="new 0 0 219.5 36.333" xml:space="preserve">
<g>
	<g>
		<linearGradient id="SVGID_1_" gradientUnits="userSpaceOnUse" x1="-238.5518" y1="18.4326" x2="415.585" y2="18.4326">
			<stop  offset="0.0357" style="stop-color:#D57F87"/>
			<stop  offset="0.1437" style="stop-color:#D78A8D"/>
			<stop  offset="0.3303" style="stop-color:#DDA69E"/>
			<stop  offset="0.3786" style="stop-color:#DFAEA3"/>
			<stop  offset="0.7551" style="stop-color:#E4BBB2"/>
			<stop  offset="1" style="stop-color:#CD787C"/>
		</linearGradient>
		<path fill="url(#SVGID_1_)" d="M-233.344,34.2c-2.224-0.847-3.96-1.944-5.208-3.288l1.104-1.824
			c1.184,1.248,2.776,2.265,4.776,3.049c2,0.784,4.104,1.176,6.312,1.176c3.199,0,5.616-0.607,7.248-1.824
			c1.632-1.216,2.448-2.8,2.448-4.752c0-1.503-0.432-2.704-1.296-3.6c-0.864-0.896-1.937-1.584-3.216-2.064
			c-1.28-0.48-3.008-0.976-5.184-1.488c-2.465-0.607-4.44-1.2-5.928-1.776c-1.488-0.576-2.752-1.464-3.792-2.664
			c-1.04-1.2-1.56-2.808-1.56-4.824c0-1.632,0.432-3.127,1.296-4.488c0.864-1.36,2.184-2.44,3.96-3.24
			c1.776-0.799,3.991-1.2,6.648-1.2c1.855,0,3.679,0.272,5.472,0.816c1.792,0.544,3.344,1.28,4.656,2.208l-0.912,1.968
			c-1.344-0.928-2.825-1.632-4.44-2.112c-1.616-0.48-3.208-0.72-4.776-0.72c-3.104,0-5.457,0.624-7.056,1.872
			c-1.601,1.248-2.4,2.864-2.4,4.848c0,1.504,0.432,2.705,1.296,3.6c0.864,0.896,1.936,1.584,3.216,2.064
			c1.28,0.48,3.024,0.992,5.232,1.536c2.464,0.608,4.432,1.2,5.904,1.776c1.472,0.576,2.728,1.448,3.768,2.616
			c1.04,1.168,1.56,2.745,1.56,4.728c0,1.632-0.44,3.121-1.32,4.464c-0.88,1.344-2.232,2.416-4.056,3.216
			c-1.824,0.8-4.064,1.2-6.72,1.2C-228.776,35.473-231.12,35.049-233.344,34.2z"/>
		<linearGradient id="SVGID_2_" gradientUnits="userSpaceOnUse" x1="-238.5518" y1="18.4326" x2="415.585" y2="18.4326">
			<stop  offset="0.0357" style="stop-color:#D57F87"/>
			<stop  offset="0.1437" style="stop-color:#D78A8D"/>
			<stop  offset="0.3303" style="stop-color:#DDA69E"/>
			<stop  offset="0.3786" style="stop-color:#DFAEA3"/>
			<stop  offset="0.7551" style="stop-color:#E4BBB2"/>
			<stop  offset="1" style="stop-color:#CD787C"/>
		</linearGradient>
		<path fill="url(#SVGID_2_)" d="M-202.672,31.776c-2.352-2.464-3.528-6.063-3.528-10.8V1.632h2.448V20.88
			c0,4.128,0.943,7.216,2.832,9.264c1.888,2.049,4.624,3.072,8.208,3.072c3.552,0,6.271-1.023,8.16-3.072
			c1.888-2.048,2.832-5.136,2.832-9.264V1.632h2.448v19.344c0,4.736-1.185,8.336-3.552,10.8c-2.369,2.464-5.681,3.696-9.937,3.696
			S-200.32,34.24-202.672,31.776z"/>
		<linearGradient id="SVGID_3_" gradientUnits="userSpaceOnUse" x1="-238.5518" y1="18.4326" x2="415.585" y2="18.4326">
			<stop  offset="0.0357" style="stop-color:#D57F87"/>
			<stop  offset="0.1437" style="stop-color:#D78A8D"/>
			<stop  offset="0.3303" style="stop-color:#DDA69E"/>
			<stop  offset="0.3786" style="stop-color:#DFAEA3"/>
			<stop  offset="0.7551" style="stop-color:#E4BBB2"/>
			<stop  offset="1" style="stop-color:#CD787C"/>
		</linearGradient>
		<path fill="url(#SVGID_3_)" d="M-162.544,33.265c-2.64-1.472-4.721-3.505-6.24-6.097c-1.521-2.591-2.28-5.503-2.28-8.735
			c0-3.232,0.76-6.144,2.28-8.736c1.52-2.592,3.601-4.624,6.24-6.096c2.64-1.472,5.607-2.208,8.903-2.208
			c2.432,0,4.672,0.392,6.721,1.176c2.047,0.785,3.792,1.944,5.232,3.48l-1.537,1.584c-2.688-2.656-6.128-3.984-10.319-3.984
			c-2.816,0-5.376,0.641-7.681,1.92c-2.304,1.28-4.111,3.048-5.424,5.304c-1.313,2.256-1.968,4.776-1.968,7.56
			c0,2.784,0.655,5.304,1.968,7.56s3.12,4.025,5.424,5.305c2.305,1.279,4.864,1.92,7.681,1.92c4.159,0,7.6-1.344,10.319-4.032
			l1.537,1.584c-1.44,1.536-3.192,2.704-5.257,3.504c-2.063,0.8-4.296,1.2-6.696,1.2C-156.937,35.473-159.904,34.736-162.544,33.265
			z"/>
		<linearGradient id="SVGID_4_" gradientUnits="userSpaceOnUse" x1="-238.5518" y1="18.4326" x2="415.585" y2="18.4326">
			<stop  offset="0.0357" style="stop-color:#D57F87"/>
			<stop  offset="0.1437" style="stop-color:#D78A8D"/>
			<stop  offset="0.3303" style="stop-color:#DDA69E"/>
			<stop  offset="0.3786" style="stop-color:#DFAEA3"/>
			<stop  offset="0.7551" style="stop-color:#E4BBB2"/>
			<stop  offset="1" style="stop-color:#CD787C"/>
		</linearGradient>
		<path fill="url(#SVGID_4_)" d="M-128.177,33.265c-2.64-1.472-4.721-3.505-6.24-6.097c-1.521-2.591-2.28-5.503-2.28-8.735
			c0-3.232,0.76-6.144,2.28-8.736c1.52-2.592,3.601-4.624,6.24-6.096c2.64-1.472,5.607-2.208,8.903-2.208
			c2.432,0,4.672,0.392,6.721,1.176c2.047,0.785,3.792,1.944,5.232,3.48l-1.537,1.584c-2.688-2.656-6.128-3.984-10.319-3.984
			c-2.816,0-5.376,0.641-7.681,1.92c-2.304,1.28-4.111,3.048-5.424,5.304c-1.313,2.256-1.968,4.776-1.968,7.56
			c0,2.784,0.655,5.304,1.968,7.56s3.12,4.025,5.424,5.305c2.305,1.279,4.864,1.92,7.681,1.92c4.159,0,7.6-1.344,10.319-4.032
			l1.537,1.584c-1.44,1.536-3.192,2.704-5.257,3.504c-2.063,0.8-4.296,1.2-6.696,1.2C-122.569,35.473-125.537,34.736-128.177,33.265
			z"/>
		<linearGradient id="SVGID_5_" gradientUnits="userSpaceOnUse" x1="-238.5518" y1="18.4326" x2="415.585" y2="18.4326">
			<stop  offset="0.0357" style="stop-color:#D57F87"/>
			<stop  offset="0.1437" style="stop-color:#D78A8D"/>
			<stop  offset="0.3303" style="stop-color:#DDA69E"/>
			<stop  offset="0.3786" style="stop-color:#DFAEA3"/>
			<stop  offset="0.7551" style="stop-color:#E4BBB2"/>
			<stop  offset="1" style="stop-color:#CD787C"/>
		</linearGradient>
		<path fill="url(#SVGID_5_)" d="M-75.93,33.024v2.208h-23.184v-33.6h22.463V3.84h-20.016v13.248h17.904v2.16h-17.904v13.776H-75.93
			z"/>
		<linearGradient id="SVGID_6_" gradientUnits="userSpaceOnUse" x1="-238.5518" y1="18.4326" x2="415.585" y2="18.4326">
			<stop  offset="0.0357" style="stop-color:#D57F87"/>
			<stop  offset="0.1437" style="stop-color:#D78A8D"/>
			<stop  offset="0.3303" style="stop-color:#DDA69E"/>
			<stop  offset="0.3786" style="stop-color:#DFAEA3"/>
			<stop  offset="0.7551" style="stop-color:#E4BBB2"/>
			<stop  offset="1" style="stop-color:#CD787C"/>
		</linearGradient>
		<path fill="url(#SVGID_6_)" d="M-65.202,34.2c-2.224-0.847-3.96-1.944-5.208-3.288l1.104-1.824
			c1.184,1.248,2.776,2.265,4.777,3.049c1.999,0.784,4.104,1.176,6.312,1.176c3.199,0,5.616-0.607,7.248-1.824
			c1.632-1.216,2.448-2.8,2.448-4.752c0-1.503-0.433-2.704-1.297-3.6c-0.863-0.896-1.936-1.584-3.215-2.064
			c-1.281-0.48-3.009-0.976-5.185-1.488c-2.465-0.607-4.44-1.2-5.929-1.776c-1.487-0.576-2.752-1.464-3.791-2.664
			c-1.041-1.2-1.561-2.808-1.561-4.824c0-1.632,0.432-3.127,1.296-4.488c0.864-1.36,2.185-2.44,3.96-3.24
			c1.776-0.799,3.992-1.2,6.648-1.2c1.855,0,3.68,0.272,5.472,0.816c1.792,0.544,3.344,1.28,4.656,2.208l-0.912,1.968
			c-1.344-0.928-2.825-1.632-4.44-2.112s-3.208-0.72-4.775-0.72c-3.104,0-5.457,0.624-7.057,1.872s-2.399,2.864-2.399,4.848
			c0,1.504,0.433,2.705,1.296,3.6c0.863,0.896,1.936,1.584,3.216,2.064s3.024,0.992,5.231,1.536c2.465,0.608,4.433,1.2,5.904,1.776
			c1.473,0.576,2.729,1.448,3.769,2.616c1.04,1.168,1.56,2.745,1.56,4.728c0,1.632-0.439,3.121-1.32,4.464
			c-0.88,1.344-2.231,2.416-4.055,3.216c-1.824,0.8-4.064,1.2-6.721,1.2C-60.635,35.473-62.979,35.049-65.202,34.2z"/>
		<linearGradient id="SVGID_7_" gradientUnits="userSpaceOnUse" x1="-238.5518" y1="18.4326" x2="415.585" y2="18.4326">
			<stop  offset="0.0357" style="stop-color:#D57F87"/>
			<stop  offset="0.1437" style="stop-color:#D78A8D"/>
			<stop  offset="0.3303" style="stop-color:#DDA69E"/>
			<stop  offset="0.3786" style="stop-color:#DFAEA3"/>
			<stop  offset="0.7551" style="stop-color:#E4BBB2"/>
			<stop  offset="1" style="stop-color:#CD787C"/>
		</linearGradient>
		<path fill="url(#SVGID_7_)" d="M-35.971,34.2c-2.224-0.847-3.959-1.944-5.207-3.288l1.104-1.824
			c1.184,1.248,2.775,2.265,4.776,3.049c1.999,0.784,4.104,1.176,6.312,1.176c3.199,0,5.616-0.607,7.248-1.824
			c1.633-1.216,2.448-2.8,2.448-4.752c0-1.503-0.433-2.704-1.296-3.6c-0.864-0.896-1.937-1.584-3.216-2.064
			c-1.28-0.48-3.009-0.976-5.185-1.488c-2.465-0.607-4.439-1.2-5.928-1.776c-1.488-0.576-2.752-1.464-3.792-2.664
			c-1.04-1.2-1.56-2.808-1.56-4.824c0-1.632,0.432-3.127,1.295-4.488c0.865-1.36,2.185-2.44,3.961-3.24
			c1.775-0.799,3.991-1.2,6.648-1.2c1.855,0,3.679,0.272,5.471,0.816c1.793,0.544,3.344,1.28,4.656,2.208l-0.912,1.968
			c-1.344-0.928-2.824-1.632-4.439-2.112c-1.616-0.48-3.209-0.72-4.775-0.72c-3.105,0-5.457,0.624-7.057,1.872
			c-1.601,1.248-2.4,2.864-2.4,4.848c0,1.504,0.433,2.705,1.297,3.6c0.863,0.896,1.936,1.584,3.215,2.064
			c1.28,0.48,3.025,0.992,5.232,1.536c2.464,0.608,4.432,1.2,5.904,1.776c1.472,0.576,2.728,1.448,3.768,2.616
			c1.04,1.168,1.561,2.745,1.561,4.728c0,1.632-0.44,3.121-1.32,4.464c-0.881,1.344-2.232,2.416-4.056,3.216
			c-1.824,0.8-4.064,1.2-6.72,1.2C-31.402,35.473-33.746,35.049-35.971,34.2z"/>
		<linearGradient id="SVGID_8_" gradientUnits="userSpaceOnUse" x1="-238.5518" y1="18.4326" x2="415.585" y2="18.4326">
			<stop  offset="0.0357" style="stop-color:#D57F87"/>
			<stop  offset="0.1437" style="stop-color:#D78A8D"/>
			<stop  offset="0.3303" style="stop-color:#DDA69E"/>
			<stop  offset="0.3786" style="stop-color:#DFAEA3"/>
			<stop  offset="0.7551" style="stop-color:#E4BBB2"/>
			<stop  offset="1" style="stop-color:#CD787C"/>
		</linearGradient>
		<path fill="url(#SVGID_8_)" d="M5.597,34.2c-2.224-0.847-3.96-1.944-5.208-3.288l1.104-1.824c1.184,1.248,2.776,2.265,4.777,3.049
			c1.999,0.784,4.104,1.176,6.312,1.176c3.199,0,5.616-0.607,7.248-1.824c1.632-1.216,2.448-2.8,2.448-4.752
			c0-1.503-0.433-2.704-1.297-3.6c-0.863-0.896-1.936-1.584-3.215-2.064c-1.281-0.48-3.009-0.976-5.185-1.488
			c-2.465-0.607-4.44-1.2-5.929-1.776c-1.487-0.576-2.752-1.464-3.791-2.664c-1.041-1.2-1.561-2.808-1.561-4.824
			c0-1.632,0.432-3.127,1.296-4.488c0.864-1.36,2.185-2.44,3.96-3.24c1.776-0.799,3.992-1.2,6.648-1.2
			c1.855,0,3.68,0.272,5.472,0.816c1.792,0.544,3.344,1.28,4.656,2.208l-0.912,1.968c-1.344-0.928-2.825-1.632-4.44-2.112
			s-3.208-0.72-4.775-0.72c-3.104,0-5.457,0.624-7.057,1.872s-2.399,2.864-2.399,4.848c0,1.504,0.433,2.705,1.296,3.6
			c0.863,0.896,1.936,1.584,3.216,2.064s3.024,0.992,5.231,1.536c2.465,0.608,4.433,1.2,5.904,1.776
			c1.473,0.576,2.729,1.448,3.769,2.616c1.04,1.168,1.56,2.745,1.56,4.728c0,1.632-0.439,3.121-1.32,4.464
			c-0.88,1.344-2.231,2.416-4.055,3.216c-1.824,0.8-4.064,1.2-6.721,1.2C10.164,35.473,7.82,35.049,5.597,34.2z"/>
		<linearGradient id="SVGID_9_" gradientUnits="userSpaceOnUse" x1="-238.5518" y1="18.4326" x2="415.585" y2="18.4326">
			<stop  offset="0.0357" style="stop-color:#D57F87"/>
			<stop  offset="0.1437" style="stop-color:#D78A8D"/>
			<stop  offset="0.3303" style="stop-color:#DDA69E"/>
			<stop  offset="0.3786" style="stop-color:#DFAEA3"/>
			<stop  offset="0.7551" style="stop-color:#E4BBB2"/>
			<stop  offset="1" style="stop-color:#CD787C"/>
		</linearGradient>
		<path fill="url(#SVGID_9_)" d="M55.013,4.632c2.4,2,3.601,4.776,3.601,8.328c0,3.521-1.2,6.28-3.601,8.28
			c-2.399,2-5.712,3-9.937,3h-9.6v10.992h-2.447v-33.6h12.047C49.301,1.632,52.613,2.633,55.013,4.632z M53.285,19.681
			c1.887-1.568,2.832-3.808,2.832-6.72c0-2.912-0.945-5.16-2.832-6.744C51.396,4.632,48.66,3.84,45.076,3.84h-9.6v18.192h9.6
			C48.66,22.032,51.396,21.249,53.285,19.681z"/>
		<linearGradient id="SVGID_10_" gradientUnits="userSpaceOnUse" x1="-238.5518" y1="18.4326" x2="415.585" y2="18.4326">
			<stop  offset="0.0357" style="stop-color:#D57F87"/>
			<stop  offset="0.1437" style="stop-color:#D78A8D"/>
			<stop  offset="0.3303" style="stop-color:#DDA69E"/>
			<stop  offset="0.3786" style="stop-color:#DFAEA3"/>
			<stop  offset="0.7551" style="stop-color:#E4BBB2"/>
			<stop  offset="1" style="stop-color:#CD787C"/>
		</linearGradient>
		<path fill="url(#SVGID_10_)" d="M90.532,33.024v2.208H67.348v-33.6h22.465V3.84H69.797v13.248H87.7v2.16H69.797v13.776H90.532z"/>
		<linearGradient id="SVGID_11_" gradientUnits="userSpaceOnUse" x1="-238.5518" y1="18.4326" x2="415.585" y2="18.4326">
			<stop  offset="0.0357" style="stop-color:#D57F87"/>
			<stop  offset="0.1437" style="stop-color:#D78A8D"/>
			<stop  offset="0.3303" style="stop-color:#DDA69E"/>
			<stop  offset="0.3786" style="stop-color:#DFAEA3"/>
			<stop  offset="0.7551" style="stop-color:#E4BBB2"/>
			<stop  offset="1" style="stop-color:#CD787C"/>
		</linearGradient>
		<path fill="url(#SVGID_11_)" d="M104.764,33.265c-2.64-1.472-4.721-3.505-6.24-6.097c-1.52-2.591-2.279-5.503-2.279-8.735
			c0-3.232,0.76-6.144,2.279-8.736c1.52-2.592,3.601-4.624,6.24-6.096c2.641-1.472,5.607-2.208,8.904-2.208
			c2.432,0,4.672,0.392,6.721,1.176c2.047,0.785,3.791,1.944,5.231,3.48l-1.536,1.584c-2.688-2.656-6.129-3.984-10.32-3.984
			c-2.816,0-5.375,0.641-7.68,1.92c-2.305,1.28-4.112,3.048-5.424,5.304c-1.313,2.256-1.969,4.776-1.969,7.56
			c0,2.784,0.656,5.304,1.969,7.56c1.312,2.256,3.119,4.025,5.424,5.305s4.863,1.92,7.68,1.92c4.16,0,7.6-1.344,10.32-4.032
			l1.536,1.584c-1.44,1.536-3.192,2.704-5.257,3.504c-2.063,0.8-4.295,1.2-6.695,1.2C110.371,35.473,107.404,34.736,104.764,33.265z
			"/>
		<linearGradient id="SVGID_12_" gradientUnits="userSpaceOnUse" x1="-238.5518" y1="18.4326" x2="415.585" y2="18.4326">
			<stop  offset="0.0357" style="stop-color:#D57F87"/>
			<stop  offset="0.1437" style="stop-color:#D78A8D"/>
			<stop  offset="0.3303" style="stop-color:#DDA69E"/>
			<stop  offset="0.3786" style="stop-color:#DFAEA3"/>
			<stop  offset="0.7551" style="stop-color:#E4BBB2"/>
			<stop  offset="1" style="stop-color:#CD787C"/>
		</linearGradient>
		<path fill="url(#SVGID_12_)" d="M133.828,1.632h2.447v33.6h-2.447V1.632z"/>
		<linearGradient id="SVGID_13_" gradientUnits="userSpaceOnUse" x1="-238.5518" y1="18.4326" x2="415.585" y2="18.4326">
			<stop  offset="0.0357" style="stop-color:#D57F87"/>
			<stop  offset="0.1437" style="stop-color:#D78A8D"/>
			<stop  offset="0.3303" style="stop-color:#DDA69E"/>
			<stop  offset="0.3786" style="stop-color:#DFAEA3"/>
			<stop  offset="0.7551" style="stop-color:#E4BBB2"/>
			<stop  offset="1" style="stop-color:#CD787C"/>
		</linearGradient>
		<path fill="url(#SVGID_13_)" d="M150.436,3.84v14.352h17.904V20.4h-17.904v14.832h-2.448v-33.6h22.464V3.84H150.436z"/>
		<linearGradient id="SVGID_14_" gradientUnits="userSpaceOnUse" x1="-238.5518" y1="18.4326" x2="415.585" y2="18.4326">
			<stop  offset="0.0357" style="stop-color:#D57F87"/>
			<stop  offset="0.1437" style="stop-color:#D78A8D"/>
			<stop  offset="0.3303" style="stop-color:#DDA69E"/>
			<stop  offset="0.3786" style="stop-color:#DFAEA3"/>
			<stop  offset="0.7551" style="stop-color:#E4BBB2"/>
			<stop  offset="1" style="stop-color:#CD787C"/>
		</linearGradient>
		<path fill="url(#SVGID_14_)" d="M178.275,1.632h2.447v33.6h-2.447V1.632z"/>
		<linearGradient id="SVGID_15_" gradientUnits="userSpaceOnUse" x1="-238.5518" y1="18.4326" x2="415.585" y2="18.4326">
			<stop  offset="0.0357" style="stop-color:#D57F87"/>
			<stop  offset="0.1437" style="stop-color:#D78A8D"/>
			<stop  offset="0.3303" style="stop-color:#DDA69E"/>
			<stop  offset="0.3786" style="stop-color:#DFAEA3"/>
			<stop  offset="0.7551" style="stop-color:#E4BBB2"/>
			<stop  offset="1" style="stop-color:#CD787C"/>
		</linearGradient>
		<path fill="url(#SVGID_15_)" d="M197.739,33.265c-2.64-1.472-4.721-3.505-6.24-6.097c-1.521-2.591-2.28-5.503-2.28-8.735
			c0-3.232,0.76-6.144,2.28-8.736c1.52-2.592,3.601-4.624,6.24-6.096c2.64-1.472,5.607-2.208,8.903-2.208
			c2.432,0,4.672,0.392,6.721,1.176c2.047,0.785,3.792,1.944,5.232,3.48l-1.537,1.584c-2.688-2.656-6.128-3.984-10.319-3.984
			c-2.816,0-5.376,0.641-7.681,1.92c-2.304,1.28-4.111,3.048-5.424,5.304c-1.313,2.256-1.968,4.776-1.968,7.56
			c0,2.784,0.655,5.304,1.968,7.56s3.12,4.025,5.424,5.305c2.305,1.279,4.864,1.92,7.681,1.92c4.159,0,7.6-1.344,10.319-4.032
			l1.537,1.584c-1.44,1.536-3.192,2.704-5.257,3.504c-2.063,0.8-4.296,1.2-6.696,1.2C203.347,35.473,200.379,34.736,197.739,33.265z
			"/>
		<linearGradient id="SVGID_16_" gradientUnits="userSpaceOnUse" x1="-238.5518" y1="18.4326" x2="415.585" y2="18.4326">
			<stop  offset="0.0357" style="stop-color:#D57F87"/>
			<stop  offset="0.1437" style="stop-color:#D78A8D"/>
			<stop  offset="0.3303" style="stop-color:#DDA69E"/>
			<stop  offset="0.3786" style="stop-color:#DFAEA3"/>
			<stop  offset="0.7551" style="stop-color:#E4BBB2"/>
			<stop  offset="1" style="stop-color:#CD787C"/>
		</linearGradient>
		<path fill="url(#SVGID_16_)" d="M245.57,3.84h-12.096V1.632h26.64V3.84h-12.097v31.392h-2.447V3.84z"/>
		<linearGradient id="SVGID_17_" gradientUnits="userSpaceOnUse" x1="-238.5518" y1="18.4326" x2="415.585" y2="18.4326">
			<stop  offset="0.0357" style="stop-color:#D57F87"/>
			<stop  offset="0.1437" style="stop-color:#D78A8D"/>
			<stop  offset="0.3303" style="stop-color:#DDA69E"/>
			<stop  offset="0.3786" style="stop-color:#DFAEA3"/>
			<stop  offset="0.7551" style="stop-color:#E4BBB2"/>
			<stop  offset="1" style="stop-color:#CD787C"/>
		</linearGradient>
		<path fill="url(#SVGID_17_)" d="M271.49,33.24c-2.657-1.488-4.745-3.527-6.265-6.119c-1.521-2.593-2.28-5.488-2.28-8.688
			c0-3.2,0.76-6.096,2.28-8.688c1.52-2.592,3.607-4.632,6.265-6.12c2.655-1.488,5.631-2.232,8.928-2.232
			c3.295,0,6.271,0.736,8.928,2.208c2.656,1.472,4.744,3.504,6.264,6.096c1.52,2.592,2.28,5.504,2.28,8.736
			c0,3.232-0.761,6.144-2.28,8.735c-1.52,2.592-3.607,4.625-6.264,6.097s-5.633,2.208-8.928,2.208
			C277.121,35.473,274.146,34.729,271.49,33.24z M288.05,31.297c2.271-1.279,4.063-3.049,5.376-5.305
			c1.312-2.256,1.968-4.776,1.968-7.56c0-2.784-0.656-5.304-1.968-7.56c-1.313-2.256-3.104-4.024-5.376-5.304
			c-2.272-1.279-4.816-1.92-7.632-1.92c-2.816,0-5.369,0.641-7.656,1.92c-2.288,1.28-4.088,3.048-5.4,5.304
			c-1.313,2.256-1.968,4.776-1.968,7.56c0,2.784,0.655,5.304,1.968,7.56s3.112,4.025,5.4,5.305c2.287,1.279,4.84,1.92,7.656,1.92
			C283.233,33.217,285.777,32.576,288.05,31.297z"/>
		<linearGradient id="SVGID_18_" gradientUnits="userSpaceOnUse" x1="-238.5518" y1="18.4326" x2="415.585" y2="18.4326">
			<stop  offset="0.0357" style="stop-color:#D57F87"/>
			<stop  offset="0.1437" style="stop-color:#D78A8D"/>
			<stop  offset="0.3303" style="stop-color:#DDA69E"/>
			<stop  offset="0.3786" style="stop-color:#DFAEA3"/>
			<stop  offset="0.7551" style="stop-color:#E4BBB2"/>
			<stop  offset="1" style="stop-color:#CD787C"/>
		</linearGradient>
		<path fill="url(#SVGID_18_)" d="M329.089,23.665v11.568h-2.448V23.665L313.105,1.632h2.688l12.144,19.776L340.08,1.632h2.545
			L329.089,23.665z"/>
		<linearGradient id="SVGID_19_" gradientUnits="userSpaceOnUse" x1="-238.5518" y1="18.4326" x2="415.585" y2="18.4326">
			<stop  offset="0.0357" style="stop-color:#D57F87"/>
			<stop  offset="0.1437" style="stop-color:#D78A8D"/>
			<stop  offset="0.3303" style="stop-color:#DDA69E"/>
			<stop  offset="0.3786" style="stop-color:#DFAEA3"/>
			<stop  offset="0.7551" style="stop-color:#E4BBB2"/>
			<stop  offset="1" style="stop-color:#CD787C"/>
		</linearGradient>
		<path fill="url(#SVGID_19_)" d="M354.049,33.24c-2.656-1.488-4.744-3.527-6.264-6.119c-1.521-2.593-2.28-5.488-2.28-8.688
			c0-3.2,0.76-6.096,2.28-8.688c1.52-2.592,3.607-4.632,6.264-6.12c2.655-1.488,5.632-2.232,8.929-2.232
			c3.295,0,6.271,0.736,8.928,2.208c2.654,1.472,4.744,3.504,6.264,6.096c1.52,2.592,2.279,5.504,2.279,8.736
			c0,3.232-0.76,6.144-2.279,8.735c-1.52,2.592-3.609,4.625-6.264,6.097c-2.656,1.472-5.633,2.208-8.928,2.208
			C359.681,35.473,356.704,34.729,354.049,33.24z M370.608,31.297c2.271-1.279,4.064-3.049,5.377-5.305
			c1.311-2.256,1.967-4.776,1.967-7.56c0-2.784-0.656-5.304-1.967-7.56c-1.313-2.256-3.105-4.024-5.377-5.304
			c-2.271-1.279-4.816-1.92-7.631-1.92c-2.816,0-5.369,0.641-7.656,1.92c-2.288,1.28-4.089,3.048-5.4,5.304
			c-1.313,2.256-1.968,4.776-1.968,7.56c0,2.784,0.655,5.304,1.968,7.56c1.312,2.256,3.112,4.025,5.4,5.305
			c2.287,1.279,4.84,1.92,7.656,1.92C365.792,33.217,368.337,32.576,370.608,31.297z"/>
		<linearGradient id="SVGID_20_" gradientUnits="userSpaceOnUse" x1="-238.5518" y1="18.4326" x2="415.585" y2="18.4326">
			<stop  offset="0.0357" style="stop-color:#D57F87"/>
			<stop  offset="0.1437" style="stop-color:#D78A8D"/>
			<stop  offset="0.3303" style="stop-color:#DDA69E"/>
			<stop  offset="0.3786" style="stop-color:#DFAEA3"/>
			<stop  offset="0.7551" style="stop-color:#E4BBB2"/>
			<stop  offset="1" style="stop-color:#CD787C"/>
		</linearGradient>
		<path fill="url(#SVGID_20_)" d="M392.185,31.776c-2.352-2.464-3.527-6.063-3.527-10.8V1.632h2.447V20.88
			c0,4.128,0.944,7.216,2.832,9.264c1.888,2.049,4.624,3.072,8.208,3.072c3.553,0,6.271-1.023,8.16-3.072
			c1.888-2.048,2.832-5.136,2.832-9.264V1.632h2.448v19.344c0,4.736-1.185,8.336-3.552,10.8c-2.369,2.464-5.681,3.696-9.937,3.696
			S394.537,34.24,392.185,31.776z"/>
	</g>
</g>
<rect id="_x3C_Slice_x3E_" x="59.979" y="7" fill="none" width="16" height="35"/>
</svg>
