<?xml version="1.0" encoding="utf-8"?>
<!-- Generator: Adobe Illustrator 16.0.0, SVG Export Plug-In . SVG Version: 6.00 Build 0)  -->
<!DOCTYPE svg PUBLIC "-//W3C//DTD SVG 1.1//EN" "http://www.w3.org/Graphics/SVG/1.1/DTD/svg11.dtd">
<svg version="1.1" id="Layer_1" xmlns="http://www.w3.org/2000/svg" xmlns:xlink="http://www.w3.org/1999/xlink" x="0px" y="0px"
	 width="237.896px" height="34.583px" viewBox="0 0 237.896 34.583" enable-background="new 0 0 237.896 34.583"
	 xml:space="preserve">
<g>
	<g>
		<linearGradient id="SVGID_1_" gradientUnits="userSpaceOnUse" x1="2.4482" y1="17.29" x2="237.5508" y2="17.29">
			<stop  offset="0" style="stop-color:#7FACBF"/>
			<stop  offset="0.1194" style="stop-color:#88B5C5"/>
			<stop  offset="0.3172" style="stop-color:#A2CCD5"/>
			<stop  offset="0.3786" style="stop-color:#ABD5DB"/>
			<stop  offset="0.7551" style="stop-color:#A6D1D4"/>
			<stop  offset="0.9949" style="stop-color:#77B3B8"/>
		</linearGradient>
		<path fill="url(#SVGID_1_)" d="M7.656,33.058c-2.224-0.847-3.96-1.944-5.208-3.288l1.104-1.824
			c1.184,1.248,2.776,2.265,4.776,3.049c2,0.784,4.104,1.176,6.312,1.176c3.199,0,5.616-0.607,7.248-1.824
			c1.632-1.216,2.448-2.8,2.448-4.752c0-1.504-0.432-2.703-1.296-3.6c-0.864-0.896-1.937-1.584-3.216-2.064
			c-1.28-0.48-3.008-0.976-5.184-1.488c-2.465-0.607-4.44-1.2-5.928-1.776c-1.488-0.576-2.752-1.464-3.792-2.664
			c-1.04-1.2-1.56-2.808-1.56-4.824c0-1.632,0.432-3.127,1.296-4.488C5.52,3.33,6.84,2.25,8.616,1.45
			c1.776-0.799,3.991-1.2,6.648-1.2c1.855,0,3.679,0.272,5.472,0.816c1.792,0.544,3.344,1.28,4.656,2.208L24.48,5.242
			c-1.344-0.928-2.825-1.632-4.44-2.112c-1.616-0.48-3.208-0.72-4.776-0.72c-3.104,0-5.457,0.624-7.056,1.872
			c-1.601,1.248-2.4,2.864-2.4,4.848c0,1.504,0.432,2.705,1.296,3.6c0.864,0.896,1.936,1.584,3.216,2.064
			c1.28,0.48,3.024,0.992,5.232,1.536c2.464,0.608,4.432,1.2,5.904,1.776c1.472,0.576,2.728,1.449,3.768,2.616
			c1.04,1.169,1.56,2.745,1.56,4.728c0,1.633-0.44,3.121-1.32,4.465c-0.88,1.344-2.232,2.416-4.056,3.216
			c-1.824,0.8-4.064,1.2-6.72,1.2C12.224,34.33,9.88,33.906,7.656,33.058z"/>
		<linearGradient id="SVGID_2_" gradientUnits="userSpaceOnUse" x1="2.4482" y1="17.29" x2="237.5508" y2="17.29">
			<stop  offset="0" style="stop-color:#7FACBF"/>
			<stop  offset="0.1194" style="stop-color:#88B5C5"/>
			<stop  offset="0.3172" style="stop-color:#A2CCD5"/>
			<stop  offset="0.3786" style="stop-color:#ABD5DB"/>
			<stop  offset="0.7551" style="stop-color:#A6D1D4"/>
			<stop  offset="0.9949" style="stop-color:#77B3B8"/>
		</linearGradient>
		<path fill="url(#SVGID_2_)" d="M38.328,30.634c-2.352-2.464-3.528-6.063-3.528-10.8V0.49h2.448v19.249
			c0,4.127,0.943,7.216,2.832,9.264c1.888,2.049,4.624,3.072,8.208,3.072c3.552,0,6.271-1.023,8.16-3.072
			c1.888-2.048,2.832-5.137,2.832-9.264V0.49h2.448v19.344c0,4.736-1.185,8.336-3.552,10.8c-2.368,2.464-5.68,3.696-9.936,3.696
			S40.68,33.098,38.328,30.634z"/>
		<linearGradient id="SVGID_3_" gradientUnits="userSpaceOnUse" x1="2.4482" y1="17.29" x2="237.5508" y2="17.29">
			<stop  offset="0" style="stop-color:#7FACBF"/>
			<stop  offset="0.1194" style="stop-color:#88B5C5"/>
			<stop  offset="0.3172" style="stop-color:#A2CCD5"/>
			<stop  offset="0.3786" style="stop-color:#ABD5DB"/>
			<stop  offset="0.7551" style="stop-color:#A6D1D4"/>
			<stop  offset="0.9949" style="stop-color:#77B3B8"/>
		</linearGradient>
		<path fill="url(#SVGID_3_)" d="M95.136,3.49c2.4,2,3.6,4.776,3.6,8.328c0,3.521-1.2,6.28-3.6,8.28c-2.4,2-5.712,3-9.936,3h-9.6
			V34.09h-2.448V0.49H85.2C89.424,0.49,92.736,1.49,95.136,3.49z M93.408,18.538c1.888-1.568,2.832-3.808,2.832-6.72
			c0-2.912-0.944-5.16-2.832-6.744C91.52,3.49,88.783,2.698,85.2,2.698h-9.6V20.89h9.6C88.783,20.89,91.52,20.105,93.408,18.538z"/>
		<linearGradient id="SVGID_4_" gradientUnits="userSpaceOnUse" x1="2.4482" y1="17.29" x2="237.5508" y2="17.29">
			<stop  offset="0" style="stop-color:#7FACBF"/>
			<stop  offset="0.1194" style="stop-color:#88B5C5"/>
			<stop  offset="0.3172" style="stop-color:#A2CCD5"/>
			<stop  offset="0.3786" style="stop-color:#ABD5DB"/>
			<stop  offset="0.7551" style="stop-color:#A6D1D4"/>
			<stop  offset="0.9949" style="stop-color:#77B3B8"/>
		</linearGradient>
		<path fill="url(#SVGID_4_)" d="M129.455,3.49c2.4,2,3.6,4.776,3.6,8.328c0,3.521-1.199,6.28-3.6,8.28c-2.4,2-5.712,3-9.936,3h-9.6
			V34.09h-2.448V0.49h12.048C123.743,0.49,127.055,1.49,129.455,3.49z M127.727,18.538c1.889-1.568,2.832-3.808,2.832-6.72
			c0-2.912-0.943-5.16-2.832-6.744c-1.888-1.584-4.624-2.376-8.207-2.376h-9.6V20.89h9.6
			C123.103,20.89,125.839,20.105,127.727,18.538z"/>
		<linearGradient id="SVGID_5_" gradientUnits="userSpaceOnUse" x1="2.4482" y1="17.29" x2="237.5508" y2="17.29">
			<stop  offset="0" style="stop-color:#7FACBF"/>
			<stop  offset="0.1194" style="stop-color:#88B5C5"/>
			<stop  offset="0.3172" style="stop-color:#A2CCD5"/>
			<stop  offset="0.3786" style="stop-color:#ABD5DB"/>
			<stop  offset="0.7551" style="stop-color:#A6D1D4"/>
			<stop  offset="0.9949" style="stop-color:#77B3B8"/>
		</linearGradient>
		<path fill="url(#SVGID_5_)" d="M147.119,32.098c-2.656-1.488-4.744-3.527-6.264-6.119c-1.52-2.593-2.279-5.488-2.279-8.688
			c0-3.2,0.76-6.096,2.279-8.688c1.52-2.592,3.607-4.632,6.264-6.12c2.656-1.488,5.633-2.232,8.928-2.232
			c3.297,0,6.271,0.736,8.929,2.208c2.655,1.472,4.743,3.504,6.265,6.096c1.52,2.592,2.279,5.504,2.279,8.736
			c0,3.232-0.76,6.144-2.279,8.735c-1.521,2.592-3.609,4.625-6.265,6.097c-2.657,1.472-5.632,2.208-8.929,2.208
			C152.752,34.33,149.775,33.586,147.119,32.098z M163.68,30.154c2.271-1.279,4.063-3.049,5.376-5.305
			c1.312-2.256,1.968-4.775,1.968-7.56s-0.656-5.304-1.968-7.56c-1.313-2.256-3.104-4.024-5.376-5.304
			c-2.272-1.279-4.816-1.92-7.633-1.92c-2.815,0-5.367,0.641-7.655,1.92c-2.288,1.28-4.089,3.048-5.399,5.304
			c-1.313,2.256-1.969,4.776-1.969,7.56s0.656,5.304,1.969,7.56c1.311,2.256,3.111,4.025,5.399,5.305s4.84,1.92,7.655,1.92
			C158.863,32.074,161.407,31.434,163.68,30.154z"/>
		<linearGradient id="SVGID_6_" gradientUnits="userSpaceOnUse" x1="2.4482" y1="17.29" x2="237.5508" y2="17.29">
			<stop  offset="0" style="stop-color:#7FACBF"/>
			<stop  offset="0.1194" style="stop-color:#88B5C5"/>
			<stop  offset="0.3172" style="stop-color:#A2CCD5"/>
			<stop  offset="0.3786" style="stop-color:#ABD5DB"/>
			<stop  offset="0.7551" style="stop-color:#A6D1D4"/>
			<stop  offset="0.9949" style="stop-color:#77B3B8"/>
		</linearGradient>
		<path fill="url(#SVGID_6_)" d="M205.344,34.09l-8.017-11.232c-1.185,0.161-2.272,0.24-3.265,0.24h-9.6V34.09h-2.447V0.49h12.047
			c4.225,0,7.537,1,9.937,3c2.4,2,3.601,4.776,3.601,8.328c0,2.656-0.681,4.889-2.041,6.696c-1.359,1.809-3.304,3.08-5.832,3.816
			l8.4,11.76H205.344z M194.063,20.938c3.584,0,6.32-0.791,8.209-2.375c1.887-1.584,2.832-3.832,2.832-6.744
			c0-2.912-0.945-5.16-2.832-6.744c-1.889-1.584-4.625-2.376-8.209-2.376h-9.6v18.24H194.063z"/>
		<linearGradient id="SVGID_7_" gradientUnits="userSpaceOnUse" x1="2.4482" y1="17.29" x2="237.5508" y2="17.29">
			<stop  offset="0" style="stop-color:#7FACBF"/>
			<stop  offset="0.1194" style="stop-color:#88B5C5"/>
			<stop  offset="0.3172" style="stop-color:#A2CCD5"/>
			<stop  offset="0.3786" style="stop-color:#ABD5DB"/>
			<stop  offset="0.7551" style="stop-color:#A6D1D4"/>
			<stop  offset="0.9949" style="stop-color:#77B3B8"/>
		</linearGradient>
		<path fill="url(#SVGID_7_)" d="M223.007,2.698H210.91V0.49h26.641v2.208h-12.096V34.09h-2.448V2.698z"/>
	</g>
</g>
</svg>
