<?xml version="1.0" encoding="utf-8"?>
<!-- Generator: Adobe Illustrator 16.0.0, SVG Export Plug-In . SVG Version: 6.00 Build 0)  -->
<!DOCTYPE svg PUBLIC "-//W3C//DTD SVG 1.1//EN" "http://www.w3.org/Graphics/SVG/1.1/DTD/svg11.dtd">
<svg version="1.1" id="Layer_1" xmlns="http://www.w3.org/2000/svg" xmlns:xlink="http://www.w3.org/1999/xlink" x="0px" y="0px"
	 width="163.75px" height="35.875px" viewBox="0 0 163.75 35.875" enable-background="new 0 0 163.75 35.875" xml:space="preserve">
<g>
	<g>
		<linearGradient id="SVGID_1_" gradientUnits="userSpaceOnUse" x1="-220.8804" y1="17.915" x2="680.4521" y2="17.915">
			<stop  offset="0" style="stop-color:#7FACBF"/>
			<stop  offset="0.1194" style="stop-color:#88B5C5"/>
			<stop  offset="0.3172" style="stop-color:#A2CCD5"/>
			<stop  offset="0.3786" style="stop-color:#ABD5DB"/>
			<stop  offset="0.7551" style="stop-color:#A6D1D4"/>
			<stop  offset="0.9949" style="stop-color:#77B3B8"/>
		</linearGradient>
		<path fill="url(#SVGID_1_)" d="M-212.336,32.723c-2.657-1.488-4.745-3.527-6.264-6.119c-1.52-2.593-2.28-5.488-2.28-8.688
			c0-3.2,0.76-6.096,2.28-8.688c1.52-2.592,3.607-4.632,6.264-6.12c2.656-1.488,5.632-2.232,8.928-2.232s6.271,0.736,8.928,2.208
			c2.656,1.472,4.744,3.504,6.264,6.096c1.52,2.592,2.28,5.504,2.28,8.736c0,3.232-0.76,6.144-2.28,8.735
			c-1.521,2.592-3.608,4.625-6.264,6.097c-2.657,1.472-5.632,2.208-8.928,2.208S-209.681,34.211-212.336,32.723z M-195.776,30.779
			c2.271-1.279,4.063-3.049,5.376-5.305c1.312-2.256,1.968-4.776,1.968-7.56c0-2.784-0.656-5.304-1.968-7.56
			c-1.313-2.256-3.104-4.024-5.376-5.304c-2.272-1.279-4.816-1.92-7.632-1.92s-5.368,0.641-7.656,1.92
			c-2.288,1.28-4.088,3.048-5.4,5.304c-1.313,2.256-1.968,4.776-1.968,7.56c0,2.784,0.656,5.304,1.968,7.56
			c1.312,2.256,3.112,4.025,5.4,5.305c2.288,1.279,4.84,1.92,7.656,1.92S-198.049,32.059-195.776,30.779z"/>
		<linearGradient id="SVGID_2_" gradientUnits="userSpaceOnUse" x1="-220.8804" y1="17.915" x2="680.4521" y2="17.915">
			<stop  offset="0" style="stop-color:#7FACBF"/>
			<stop  offset="0.1194" style="stop-color:#88B5C5"/>
			<stop  offset="0.3172" style="stop-color:#A2CCD5"/>
			<stop  offset="0.3786" style="stop-color:#ABD5DB"/>
			<stop  offset="0.7551" style="stop-color:#A6D1D4"/>
			<stop  offset="0.9949" style="stop-color:#77B3B8"/>
		</linearGradient>
		<path fill="url(#SVGID_2_)" d="M-174.993,3.323v14.352h17.904v2.208h-17.904v14.832h-2.448v-33.6h22.464v2.208H-174.993z"/>
		<linearGradient id="SVGID_3_" gradientUnits="userSpaceOnUse" x1="-220.8804" y1="17.915" x2="680.4521" y2="17.915">
			<stop  offset="0" style="stop-color:#7FACBF"/>
			<stop  offset="0.1194" style="stop-color:#88B5C5"/>
			<stop  offset="0.3172" style="stop-color:#A2CCD5"/>
			<stop  offset="0.3786" style="stop-color:#ABD5DB"/>
			<stop  offset="0.7551" style="stop-color:#A6D1D4"/>
			<stop  offset="0.9949" style="stop-color:#77B3B8"/>
		</linearGradient>
		<path fill="url(#SVGID_3_)" d="M-144.705,3.323v14.352h17.904v2.208h-17.904v14.832h-2.448v-33.6h22.464v2.208H-144.705z"/>
		<linearGradient id="SVGID_4_" gradientUnits="userSpaceOnUse" x1="-220.8804" y1="17.915" x2="680.4521" y2="17.915">
			<stop  offset="0" style="stop-color:#7FACBF"/>
			<stop  offset="0.1194" style="stop-color:#88B5C5"/>
			<stop  offset="0.3172" style="stop-color:#A2CCD5"/>
			<stop  offset="0.3786" style="stop-color:#ABD5DB"/>
			<stop  offset="0.7551" style="stop-color:#A6D1D4"/>
			<stop  offset="0.9949" style="stop-color:#77B3B8"/>
		</linearGradient>
		<path fill="url(#SVGID_4_)" d="M-98.098,3.323h-12.096V1.115h26.64v2.208H-95.65v31.392h-2.448V3.323z"/>
		<linearGradient id="SVGID_5_" gradientUnits="userSpaceOnUse" x1="-220.8804" y1="17.915" x2="680.4521" y2="17.915">
			<stop  offset="0" style="stop-color:#7FACBF"/>
			<stop  offset="0.1194" style="stop-color:#88B5C5"/>
			<stop  offset="0.3172" style="stop-color:#A2CCD5"/>
			<stop  offset="0.3786" style="stop-color:#ABD5DB"/>
			<stop  offset="0.7551" style="stop-color:#A6D1D4"/>
			<stop  offset="0.9949" style="stop-color:#77B3B8"/>
		</linearGradient>
		<path fill="url(#SVGID_5_)" d="M-50.146,1.115v33.6h-2.448V18.731h-22.464v15.984h-2.448v-33.6h2.448v15.456h22.464V1.115H-50.146
			z"/>
		<linearGradient id="SVGID_6_" gradientUnits="userSpaceOnUse" x1="-220.8804" y1="17.915" x2="680.4521" y2="17.915">
			<stop  offset="0" style="stop-color:#7FACBF"/>
			<stop  offset="0.1194" style="stop-color:#88B5C5"/>
			<stop  offset="0.3172" style="stop-color:#A2CCD5"/>
			<stop  offset="0.3786" style="stop-color:#ABD5DB"/>
			<stop  offset="0.7551" style="stop-color:#A6D1D4"/>
			<stop  offset="0.9949" style="stop-color:#77B3B8"/>
		</linearGradient>
		<path fill="url(#SVGID_6_)" d="M-15.25,32.507v2.208h-23.184v-33.6h22.464v2.208h-20.016v13.248h17.904v2.16h-17.904v13.776
			H-15.25z"/>
		<linearGradient id="SVGID_7_" gradientUnits="userSpaceOnUse" x1="-220.8804" y1="17.915" x2="680.4521" y2="17.915">
			<stop  offset="0" style="stop-color:#7FACBF"/>
			<stop  offset="0.1194" style="stop-color:#88B5C5"/>
			<stop  offset="0.3172" style="stop-color:#A2CCD5"/>
			<stop  offset="0.3786" style="stop-color:#ABD5DB"/>
			<stop  offset="0.7551" style="stop-color:#A6D1D4"/>
			<stop  offset="0.9949" style="stop-color:#77B3B8"/>
		</linearGradient>
		<path fill="url(#SVGID_7_)" d="M12.445,3.323H0.349V1.115h26.64v2.208H14.893v31.392h-2.448V3.323z"/>
		<linearGradient id="SVGID_8_" gradientUnits="userSpaceOnUse" x1="-220.8804" y1="17.915" x2="680.4521" y2="17.915">
			<stop  offset="0" style="stop-color:#7FACBF"/>
			<stop  offset="0.1194" style="stop-color:#88B5C5"/>
			<stop  offset="0.3172" style="stop-color:#A2CCD5"/>
			<stop  offset="0.3786" style="stop-color:#ABD5DB"/>
			<stop  offset="0.7551" style="stop-color:#A6D1D4"/>
			<stop  offset="0.9949" style="stop-color:#77B3B8"/>
		</linearGradient>
		<path fill="url(#SVGID_8_)" d="M56.364,34.715l-8.016-11.232c-1.184,0.161-2.272,0.24-3.264,0.24h-9.6v10.992h-2.448v-33.6h12.048
			c4.224,0,7.536,1,9.936,3c2.4,2,3.6,4.776,3.6,8.328c0,2.656-0.68,4.889-2.04,6.696c-1.36,1.809-3.304,3.08-5.832,3.816l8.4,11.76
			H56.364z M45.084,21.563c3.583,0,6.32-0.792,8.208-2.376c1.888-1.584,2.832-3.832,2.832-6.744c0-2.912-0.944-5.16-2.832-6.744
			c-1.888-1.584-4.625-2.376-8.208-2.376h-9.6v18.24H45.084z"/>
		<linearGradient id="SVGID_9_" gradientUnits="userSpaceOnUse" x1="-220.8804" y1="17.915" x2="680.4521" y2="17.915">
			<stop  offset="0" style="stop-color:#7FACBF"/>
			<stop  offset="0.1194" style="stop-color:#88B5C5"/>
			<stop  offset="0.3172" style="stop-color:#A2CCD5"/>
			<stop  offset="0.3786" style="stop-color:#ABD5DB"/>
			<stop  offset="0.7551" style="stop-color:#A6D1D4"/>
			<stop  offset="0.9949" style="stop-color:#77B3B8"/>
		</linearGradient>
		<path fill="url(#SVGID_9_)" d="M88.379,25.259H68.891l-4.272,9.456h-2.64l15.456-33.6h2.448l15.456,33.6h-2.64L88.379,25.259z
			 M87.467,23.195L78.635,3.803l-8.784,19.393H87.467z"/>
		<linearGradient id="SVGID_10_" gradientUnits="userSpaceOnUse" x1="-220.8804" y1="17.915" x2="680.4521" y2="17.915">
			<stop  offset="0" style="stop-color:#7FACBF"/>
			<stop  offset="0.1194" style="stop-color:#88B5C5"/>
			<stop  offset="0.3172" style="stop-color:#A2CCD5"/>
			<stop  offset="0.3786" style="stop-color:#ABD5DB"/>
			<stop  offset="0.7551" style="stop-color:#A6D1D4"/>
			<stop  offset="0.9949" style="stop-color:#77B3B8"/>
		</linearGradient>
		<path fill="url(#SVGID_10_)" d="M106.739,32.747c-2.64-1.472-4.721-3.505-6.24-6.097c-1.52-2.592-2.28-5.503-2.28-8.735
			c0-3.232,0.76-6.144,2.28-8.736c1.52-2.592,3.6-4.624,6.24-6.096c2.64-1.472,5.607-2.208,8.904-2.208
			c2.432,0,4.672,0.392,6.72,1.176c2.047,0.785,3.792,1.944,5.232,3.48l-1.536,1.584c-2.688-2.656-6.128-3.984-10.32-3.984
			c-2.816,0-5.376,0.641-7.68,1.92c-2.304,1.28-4.112,3.048-5.424,5.304c-1.313,2.256-1.968,4.776-1.968,7.56
			c0,2.784,0.656,5.304,1.968,7.56c1.312,2.256,3.12,4.025,5.424,5.305s4.864,1.92,7.68,1.92c4.159,0,7.6-1.344,10.32-4.032
			l1.536,1.584c-1.44,1.536-3.192,2.704-5.256,3.504c-2.064,0.8-4.296,1.2-6.696,1.2C112.347,34.955,109.379,34.219,106.739,32.747z
			"/>
		<linearGradient id="SVGID_11_" gradientUnits="userSpaceOnUse" x1="-220.8804" y1="17.915" x2="680.4521" y2="17.915">
			<stop  offset="0" style="stop-color:#7FACBF"/>
			<stop  offset="0.1194" style="stop-color:#88B5C5"/>
			<stop  offset="0.3172" style="stop-color:#A2CCD5"/>
			<stop  offset="0.3786" style="stop-color:#ABD5DB"/>
			<stop  offset="0.7551" style="stop-color:#A6D1D4"/>
			<stop  offset="0.9949" style="stop-color:#77B3B8"/>
		</linearGradient>
		<path fill="url(#SVGID_11_)" d="M145.786,18.155l-7.536,7.728v8.832h-2.448v-33.6h2.448v21.6l20.976-21.6h2.976l-14.784,15.264
			l15.792,18.336h-2.976L145.786,18.155z"/>
		<linearGradient id="SVGID_12_" gradientUnits="userSpaceOnUse" x1="-220.8804" y1="17.915" x2="680.4521" y2="17.915">
			<stop  offset="0" style="stop-color:#7FACBF"/>
			<stop  offset="0.1194" style="stop-color:#88B5C5"/>
			<stop  offset="0.3172" style="stop-color:#A2CCD5"/>
			<stop  offset="0.3786" style="stop-color:#ABD5DB"/>
			<stop  offset="0.7551" style="stop-color:#A6D1D4"/>
			<stop  offset="0.9949" style="stop-color:#77B3B8"/>
		</linearGradient>
		<path fill="url(#SVGID_12_)" d="M202.666,25.259h-19.488l-4.272,9.456h-2.64l15.456-33.6h2.448l15.456,33.6h-2.64L202.666,25.259z
			 M201.753,23.195l-8.832-19.393l-8.784,19.393H201.753z"/>
		<linearGradient id="SVGID_13_" gradientUnits="userSpaceOnUse" x1="-220.8804" y1="17.915" x2="680.4521" y2="17.915">
			<stop  offset="0" style="stop-color:#7FACBF"/>
			<stop  offset="0.1194" style="stop-color:#88B5C5"/>
			<stop  offset="0.3172" style="stop-color:#A2CCD5"/>
			<stop  offset="0.3786" style="stop-color:#ABD5DB"/>
			<stop  offset="0.7551" style="stop-color:#A6D1D4"/>
			<stop  offset="0.9949" style="stop-color:#77B3B8"/>
		</linearGradient>
		<path fill="url(#SVGID_13_)" d="M221.024,32.747c-2.64-1.472-4.721-3.505-6.24-6.097c-1.52-2.592-2.28-5.503-2.28-8.735
			c0-3.232,0.76-6.144,2.28-8.736c1.52-2.592,3.6-4.624,6.24-6.096c2.64-1.472,5.607-2.208,8.904-2.208
			c2.432,0,4.672,0.392,6.72,1.176c2.047,0.785,3.792,1.944,5.232,3.48l-1.537,1.584c-2.688-2.656-6.128-3.984-10.319-3.984
			c-2.816,0-5.376,0.641-7.68,1.92c-2.304,1.28-4.112,3.048-5.424,5.304c-1.313,2.256-1.968,4.776-1.968,7.56
			c0,2.784,0.656,5.304,1.968,7.56c1.312,2.256,3.12,4.025,5.424,5.305s4.864,1.92,7.68,1.92c4.159,0,7.6-1.344,10.319-4.032
			l1.537,1.584c-1.44,1.536-3.192,2.704-5.257,3.504c-2.064,0.8-4.296,1.2-6.696,1.2C226.632,34.955,223.664,34.219,221.024,32.747z
			"/>
		<linearGradient id="SVGID_14_" gradientUnits="userSpaceOnUse" x1="-220.8804" y1="17.915" x2="680.4521" y2="17.915">
			<stop  offset="0" style="stop-color:#7FACBF"/>
			<stop  offset="0.1194" style="stop-color:#88B5C5"/>
			<stop  offset="0.3172" style="stop-color:#A2CCD5"/>
			<stop  offset="0.3786" style="stop-color:#ABD5DB"/>
			<stop  offset="0.7551" style="stop-color:#A6D1D4"/>
			<stop  offset="0.9949" style="stop-color:#77B3B8"/>
		</linearGradient>
		<path fill="url(#SVGID_14_)" d="M255.393,32.747c-2.641-1.472-4.721-3.505-6.24-6.097c-1.521-2.592-2.28-5.503-2.28-8.735
			c0-3.232,0.76-6.144,2.28-8.736c1.52-2.592,3.6-4.624,6.24-6.096c2.639-1.472,5.607-2.208,8.903-2.208
			c2.432,0,4.672,0.392,6.72,1.176c2.048,0.785,3.793,1.944,5.232,3.48l-1.536,1.584c-2.688-2.656-6.128-3.984-10.319-3.984
			c-2.816,0-5.377,0.641-7.681,1.92c-2.304,1.28-4.112,3.048-5.424,5.304c-1.313,2.256-1.968,4.776-1.968,7.56
			c0,2.784,0.655,5.304,1.968,7.56c1.312,2.256,3.12,4.025,5.424,5.305s4.864,1.92,7.681,1.92c4.158,0,7.6-1.344,10.319-4.032
			l1.536,1.584c-1.439,1.536-3.191,2.704-5.256,3.504s-4.297,1.2-6.696,1.2C261,34.955,258.031,34.219,255.393,32.747z"/>
		<linearGradient id="SVGID_15_" gradientUnits="userSpaceOnUse" x1="-220.8804" y1="17.915" x2="680.4521" y2="17.915">
			<stop  offset="0" style="stop-color:#7FACBF"/>
			<stop  offset="0.1194" style="stop-color:#88B5C5"/>
			<stop  offset="0.3172" style="stop-color:#A2CCD5"/>
			<stop  offset="0.3786" style="stop-color:#ABD5DB"/>
			<stop  offset="0.7551" style="stop-color:#A6D1D4"/>
			<stop  offset="0.9949" style="stop-color:#77B3B8"/>
		</linearGradient>
		<path fill="url(#SVGID_15_)" d="M289.783,32.723c-2.656-1.488-4.744-3.527-6.264-6.119c-1.52-2.593-2.279-5.488-2.279-8.688
			c0-3.2,0.76-6.096,2.279-8.688c1.52-2.592,3.607-4.632,6.264-6.12c2.656-1.488,5.633-2.232,8.928-2.232
			c3.297,0,6.271,0.736,8.929,2.208c2.655,1.472,4.743,3.504,6.265,6.096c1.52,2.592,2.279,5.504,2.279,8.736
			c0,3.232-0.76,6.144-2.279,8.735c-1.521,2.592-3.609,4.625-6.265,6.097c-2.657,1.472-5.632,2.208-8.929,2.208
			C295.416,34.955,292.439,34.211,289.783,32.723z M306.344,30.779c2.271-1.279,4.063-3.049,5.376-5.305
			c1.312-2.256,1.968-4.776,1.968-7.56c0-2.784-0.656-5.304-1.968-7.56c-1.313-2.256-3.104-4.024-5.376-5.304
			c-2.272-1.279-4.816-1.92-7.633-1.92c-2.815,0-5.367,0.641-7.655,1.92c-2.288,1.28-4.089,3.048-5.399,5.304
			c-1.313,2.256-1.969,4.776-1.969,7.56c0,2.784,0.656,5.304,1.969,7.56c1.311,2.256,3.111,4.025,5.399,5.305s4.84,1.92,7.655,1.92
			C301.527,32.699,304.071,32.059,306.344,30.779z"/>
		<linearGradient id="SVGID_16_" gradientUnits="userSpaceOnUse" x1="-220.8804" y1="17.915" x2="680.4521" y2="17.915">
			<stop  offset="0" style="stop-color:#7FACBF"/>
			<stop  offset="0.1194" style="stop-color:#88B5C5"/>
			<stop  offset="0.3172" style="stop-color:#A2CCD5"/>
			<stop  offset="0.3786" style="stop-color:#ABD5DB"/>
			<stop  offset="0.7551" style="stop-color:#A6D1D4"/>
			<stop  offset="0.9949" style="stop-color:#77B3B8"/>
		</linearGradient>
		<path fill="url(#SVGID_16_)" d="M356.455,34.715l-0.048-28.752l-14.063,24.288h-1.201L327.079,6.059v28.656h-2.399v-33.6h2.063
			l15.024,25.968l15.023-25.968h2.016l0.049,33.6H356.455z"/>
		<linearGradient id="SVGID_17_" gradientUnits="userSpaceOnUse" x1="-220.8804" y1="17.915" x2="680.4521" y2="17.915">
			<stop  offset="0" style="stop-color:#7FACBF"/>
			<stop  offset="0.1194" style="stop-color:#88B5C5"/>
			<stop  offset="0.3172" style="stop-color:#A2CCD5"/>
			<stop  offset="0.3786" style="stop-color:#ABD5DB"/>
			<stop  offset="0.7551" style="stop-color:#A6D1D4"/>
			<stop  offset="0.9949" style="stop-color:#77B3B8"/>
		</linearGradient>
		<path fill="url(#SVGID_17_)" d="M392.551,4.115c2.4,2,3.601,4.776,3.601,8.328c0,3.521-1.2,6.28-3.601,8.28
			c-2.399,2-5.712,3-9.936,3h-9.601v10.992h-2.448v-33.6h12.049C386.839,1.115,390.151,2.115,392.551,4.115z M390.823,19.163
			c1.888-1.568,2.832-3.808,2.832-6.72c0-2.912-0.944-5.16-2.832-6.744c-1.889-1.584-4.625-2.376-8.208-2.376h-9.601v18.192h9.601
			C386.198,21.515,388.935,20.731,390.823,19.163z"/>
		<linearGradient id="SVGID_18_" gradientUnits="userSpaceOnUse" x1="-220.8804" y1="17.915" x2="680.4521" y2="17.915">
			<stop  offset="0" style="stop-color:#7FACBF"/>
			<stop  offset="0.1194" style="stop-color:#88B5C5"/>
			<stop  offset="0.3172" style="stop-color:#A2CCD5"/>
			<stop  offset="0.3786" style="stop-color:#ABD5DB"/>
			<stop  offset="0.7551" style="stop-color:#A6D1D4"/>
			<stop  offset="0.9949" style="stop-color:#77B3B8"/>
		</linearGradient>
		<path fill="url(#SVGID_18_)" d="M404.888,1.115h2.447v31.392h19.345v2.208h-21.792V1.115z"/>
		<linearGradient id="SVGID_19_" gradientUnits="userSpaceOnUse" x1="-220.8804" y1="17.915" x2="680.4521" y2="17.915">
			<stop  offset="0" style="stop-color:#7FACBF"/>
			<stop  offset="0.1194" style="stop-color:#88B5C5"/>
			<stop  offset="0.3172" style="stop-color:#A2CCD5"/>
			<stop  offset="0.3786" style="stop-color:#ABD5DB"/>
			<stop  offset="0.7551" style="stop-color:#A6D1D4"/>
			<stop  offset="0.9949" style="stop-color:#77B3B8"/>
		</linearGradient>
		<path fill="url(#SVGID_19_)" d="M432.967,1.115h2.447v33.6h-2.447V1.115z"/>
		<linearGradient id="SVGID_20_" gradientUnits="userSpaceOnUse" x1="-220.8804" y1="17.915" x2="680.4521" y2="17.915">
			<stop  offset="0" style="stop-color:#7FACBF"/>
			<stop  offset="0.1194" style="stop-color:#88B5C5"/>
			<stop  offset="0.3172" style="stop-color:#A2CCD5"/>
			<stop  offset="0.3786" style="stop-color:#ABD5DB"/>
			<stop  offset="0.7551" style="stop-color:#A6D1D4"/>
			<stop  offset="0.9949" style="stop-color:#77B3B8"/>
		</linearGradient>
		<path fill="url(#SVGID_20_)" d="M448.927,33.683c-2.225-0.847-3.96-1.944-5.208-3.288l1.104-1.824
			c1.184,1.248,2.776,2.265,4.776,3.049c1.999,0.784,4.104,1.176,6.312,1.176c3.2,0,5.616-0.607,7.248-1.824
			c1.632-1.216,2.448-2.8,2.448-4.752c0-1.504-0.432-2.703-1.296-3.6s-1.937-1.584-3.216-2.064c-1.28-0.48-3.009-0.976-5.185-1.488
			c-2.464-0.607-4.439-1.2-5.928-1.776c-1.488-0.576-2.752-1.464-3.792-2.664c-1.04-1.2-1.56-2.808-1.56-4.824
			c0-1.632,0.432-3.127,1.296-4.488c0.863-1.36,2.184-2.44,3.96-3.24c1.775-0.799,3.991-1.2,6.647-1.2
			c1.855,0,3.68,0.272,5.473,0.816c1.791,0.544,3.343,1.28,4.655,2.208l-0.911,1.968c-1.345-0.928-2.825-1.632-4.44-2.112
			c-1.616-0.48-3.209-0.72-4.776-0.72c-3.104,0-5.456,0.624-7.056,1.872c-1.601,1.248-2.4,2.864-2.4,4.848
			c0,1.504,0.433,2.705,1.296,3.6c0.864,0.896,1.937,1.584,3.217,2.064c1.279,0.48,3.023,0.992,5.231,1.536
			c2.464,0.608,4.432,1.2,5.904,1.776c1.472,0.576,2.728,1.448,3.768,2.616c1.04,1.169,1.561,2.745,1.561,4.728
			c0,1.633-0.44,3.121-1.32,4.465s-2.231,2.416-4.056,3.216s-4.064,1.2-6.72,1.2C453.494,34.955,451.15,34.531,448.927,33.683z"/>
		<linearGradient id="SVGID_21_" gradientUnits="userSpaceOnUse" x1="-220.8804" y1="17.915" x2="680.4521" y2="17.915">
			<stop  offset="0" style="stop-color:#7FACBF"/>
			<stop  offset="0.1194" style="stop-color:#88B5C5"/>
			<stop  offset="0.3172" style="stop-color:#A2CCD5"/>
			<stop  offset="0.3786" style="stop-color:#ABD5DB"/>
			<stop  offset="0.7551" style="stop-color:#A6D1D4"/>
			<stop  offset="0.9949" style="stop-color:#77B3B8"/>
		</linearGradient>
		<path fill="url(#SVGID_21_)" d="M503.718,1.115v33.6h-2.448V18.731h-22.464v15.984h-2.447v-33.6h2.447v15.456h22.464V1.115
			H503.718z"/>
		<linearGradient id="SVGID_22_" gradientUnits="userSpaceOnUse" x1="-220.8804" y1="17.915" x2="680.4521" y2="17.915">
			<stop  offset="0" style="stop-color:#7FACBF"/>
			<stop  offset="0.1194" style="stop-color:#88B5C5"/>
			<stop  offset="0.3172" style="stop-color:#A2CCD5"/>
			<stop  offset="0.3786" style="stop-color:#ABD5DB"/>
			<stop  offset="0.7551" style="stop-color:#A6D1D4"/>
			<stop  offset="0.9949" style="stop-color:#77B3B8"/>
		</linearGradient>
		<path fill="url(#SVGID_22_)" d="M547.206,34.715l-0.048-28.752l-14.064,24.288h-1.199L517.83,6.059v28.656h-2.399v-33.6h2.063
			l15.024,25.968l15.023-25.968h2.017l0.048,33.6H547.206z"/>
		<linearGradient id="SVGID_23_" gradientUnits="userSpaceOnUse" x1="-220.8804" y1="17.915" x2="680.4521" y2="17.915">
			<stop  offset="0" style="stop-color:#7FACBF"/>
			<stop  offset="0.1194" style="stop-color:#88B5C5"/>
			<stop  offset="0.3172" style="stop-color:#A2CCD5"/>
			<stop  offset="0.3786" style="stop-color:#ABD5DB"/>
			<stop  offset="0.7551" style="stop-color:#A6D1D4"/>
			<stop  offset="0.9949" style="stop-color:#77B3B8"/>
		</linearGradient>
		<path fill="url(#SVGID_23_)" d="M584.501,32.507v2.208h-23.184v-33.6h22.464v2.208h-20.017v13.248h17.904v2.16h-17.904v13.776
			H584.501z"/>
		<linearGradient id="SVGID_24_" gradientUnits="userSpaceOnUse" x1="-220.8804" y1="17.915" x2="680.4521" y2="17.915">
			<stop  offset="0" style="stop-color:#7FACBF"/>
			<stop  offset="0.1194" style="stop-color:#88B5C5"/>
			<stop  offset="0.3172" style="stop-color:#A2CCD5"/>
			<stop  offset="0.3786" style="stop-color:#ABD5DB"/>
			<stop  offset="0.7551" style="stop-color:#A6D1D4"/>
			<stop  offset="0.9949" style="stop-color:#77B3B8"/>
		</linearGradient>
		<path fill="url(#SVGID_24_)" d="M620.789,1.115v33.6h-2.016L595.877,5.531v29.184h-2.447v-33.6h2.063l22.848,29.184V1.115H620.789
			z"/>
		<linearGradient id="SVGID_25_" gradientUnits="userSpaceOnUse" x1="-220.8804" y1="17.915" x2="680.4521" y2="17.915">
			<stop  offset="0" style="stop-color:#7FACBF"/>
			<stop  offset="0.1194" style="stop-color:#88B5C5"/>
			<stop  offset="0.3172" style="stop-color:#A2CCD5"/>
			<stop  offset="0.3786" style="stop-color:#ABD5DB"/>
			<stop  offset="0.7551" style="stop-color:#A6D1D4"/>
			<stop  offset="0.9949" style="stop-color:#77B3B8"/>
		</linearGradient>
		<path fill="url(#SVGID_25_)" d="M638.933,3.323h-12.096V1.115h26.64v2.208h-12.096v31.392h-2.448V3.323z"/>
		<linearGradient id="SVGID_26_" gradientUnits="userSpaceOnUse" x1="-220.8804" y1="17.915" x2="680.4521" y2="17.915">
			<stop  offset="0" style="stop-color:#7FACBF"/>
			<stop  offset="0.1194" style="stop-color:#88B5C5"/>
			<stop  offset="0.3172" style="stop-color:#A2CCD5"/>
			<stop  offset="0.3786" style="stop-color:#ABD5DB"/>
			<stop  offset="0.7551" style="stop-color:#A6D1D4"/>
			<stop  offset="0.9949" style="stop-color:#77B3B8"/>
		</linearGradient>
		<path fill="url(#SVGID_26_)" d="M661.324,33.683c-2.225-0.847-3.96-1.944-5.208-3.288l1.104-1.824
			c1.184,1.248,2.776,2.265,4.776,3.049c1.999,0.784,4.104,1.176,6.312,1.176c3.2,0,5.616-0.607,7.248-1.824
			c1.632-1.216,2.448-2.8,2.448-4.752c0-1.504-0.432-2.703-1.296-3.6s-1.937-1.584-3.216-2.064c-1.28-0.48-3.009-0.976-5.185-1.488
			c-2.464-0.607-4.439-1.2-5.928-1.776c-1.488-0.576-2.752-1.464-3.792-2.664c-1.04-1.2-1.56-2.808-1.56-4.824
			c0-1.632,0.432-3.127,1.296-4.488c0.863-1.36,2.184-2.44,3.96-3.24c1.775-0.799,3.991-1.2,6.647-1.2
			c1.855,0,3.68,0.272,5.473,0.816c1.791,0.544,3.343,1.28,4.655,2.208l-0.911,1.968c-1.345-0.928-2.825-1.632-4.44-2.112
			c-1.616-0.48-3.209-0.72-4.776-0.72c-3.104,0-5.456,0.624-7.056,1.872c-1.601,1.248-2.4,2.864-2.4,4.848
			c0,1.504,0.433,2.705,1.296,3.6c0.864,0.896,1.937,1.584,3.217,2.064c1.279,0.48,3.023,0.992,5.231,1.536
			c2.464,0.608,4.432,1.2,5.904,1.776c1.472,0.576,2.728,1.448,3.768,2.616c1.04,1.169,1.561,2.745,1.561,4.728
			c0,1.633-0.44,3.121-1.32,4.465s-2.231,2.416-4.056,3.216s-4.064,1.2-6.72,1.2C665.892,34.955,663.548,34.531,661.324,33.683z"/>
	</g>
</g>
</svg>
