<?xml version="1.0" encoding="utf-8"?>
<!-- Generator: Adobe Illustrator 16.0.0, SVG Export Plug-In . SVG Version: 6.00 Build 0)  -->
<!DOCTYPE svg PUBLIC "-//W3C//DTD SVG 1.1//EN" "http://www.w3.org/Graphics/SVG/1.1/DTD/svg11.dtd">
<svg version="1.1" id="Layer_1" xmlns="http://www.w3.org/2000/svg" xmlns:xlink="http://www.w3.org/1999/xlink" x="0px" y="0px"
	 width="235.917px" height="35px" viewBox="0 0 235.917 35" enable-background="new 0 0 235.917 35" xml:space="preserve">
<g>
	<g>
		<linearGradient id="SVGID_1_" gradientUnits="userSpaceOnUse" x1="0.1914" y1="17.4326" x2="234.2373" y2="17.4326">
			<stop  offset="0.0357" style="stop-color:#D57F87"/>
			<stop  offset="0.1437" style="stop-color:#D78A8D"/>
			<stop  offset="0.3303" style="stop-color:#DDA69E"/>
			<stop  offset="0.3786" style="stop-color:#DFAEA3"/>
			<stop  offset="0.7551" style="stop-color:#E4BBB2"/>
			<stop  offset="1" style="stop-color:#CD787C"/>
		</linearGradient>
		<path fill="url(#SVGID_1_)" d="M12.288,2.84H0.191V0.632h26.64V2.84H14.735v31.392h-2.448V2.84z"/>
		<linearGradient id="SVGID_2_" gradientUnits="userSpaceOnUse" x1="0.1914" y1="17.4326" x2="234.2373" y2="17.4326">
			<stop  offset="0.0357" style="stop-color:#D57F87"/>
			<stop  offset="0.1437" style="stop-color:#D78A8D"/>
			<stop  offset="0.3303" style="stop-color:#DDA69E"/>
			<stop  offset="0.3786" style="stop-color:#DFAEA3"/>
			<stop  offset="0.7551" style="stop-color:#E4BBB2"/>
			<stop  offset="1" style="stop-color:#CD787C"/>
		</linearGradient>
		<path fill="url(#SVGID_2_)" d="M56.207,34.232L48.191,23c-1.184,0.161-2.272,0.24-3.264,0.24h-9.6v10.992h-2.448v-33.6h12.048
			c4.224,0,7.536,1,9.936,3c2.4,2,3.6,4.776,3.6,8.328c0,2.656-0.68,4.889-2.04,6.696c-1.36,1.809-3.304,3.081-5.832,3.816
			l8.4,11.76H56.207z M44.927,21.081c3.583,0,6.32-0.792,8.208-2.376c1.888-1.584,2.832-3.832,2.832-6.744
			c0-2.912-0.944-5.16-2.832-6.744C51.247,3.632,48.51,2.84,44.927,2.84h-9.6v18.24H44.927z"/>
		<linearGradient id="SVGID_3_" gradientUnits="userSpaceOnUse" x1="0.1914" y1="17.4326" x2="234.2373" y2="17.4326">
			<stop  offset="0.0357" style="stop-color:#D57F87"/>
			<stop  offset="0.1437" style="stop-color:#D78A8D"/>
			<stop  offset="0.3303" style="stop-color:#DDA69E"/>
			<stop  offset="0.3786" style="stop-color:#DFAEA3"/>
			<stop  offset="0.7551" style="stop-color:#E4BBB2"/>
			<stop  offset="1" style="stop-color:#CD787C"/>
		</linearGradient>
		<path fill="url(#SVGID_3_)" d="M88.223,24.776H68.734l-4.272,9.456h-2.64l15.456-33.6h2.448l15.456,33.6h-2.64L88.223,24.776z
			 M87.311,22.712L78.479,3.32l-8.784,19.392H87.311z"/>
		<linearGradient id="SVGID_4_" gradientUnits="userSpaceOnUse" x1="0.1914" y1="17.4326" x2="234.2373" y2="17.4326">
			<stop  offset="0.0357" style="stop-color:#D57F87"/>
			<stop  offset="0.1437" style="stop-color:#D78A8D"/>
			<stop  offset="0.3303" style="stop-color:#DDA69E"/>
			<stop  offset="0.3786" style="stop-color:#DFAEA3"/>
			<stop  offset="0.7551" style="stop-color:#E4BBB2"/>
			<stop  offset="1" style="stop-color:#CD787C"/>
		</linearGradient>
		<path fill="url(#SVGID_4_)" d="M101.277,0.632h2.448v33.6h-2.448V0.632z"/>
		<linearGradient id="SVGID_5_" gradientUnits="userSpaceOnUse" x1="0.1914" y1="17.4326" x2="234.2373" y2="17.4326">
			<stop  offset="0.0357" style="stop-color:#D57F87"/>
			<stop  offset="0.1437" style="stop-color:#D78A8D"/>
			<stop  offset="0.3303" style="stop-color:#DDA69E"/>
			<stop  offset="0.3786" style="stop-color:#DFAEA3"/>
			<stop  offset="0.7551" style="stop-color:#E4BBB2"/>
			<stop  offset="1" style="stop-color:#CD787C"/>
		</linearGradient>
		<path fill="url(#SVGID_5_)" d="M142.797,0.632v33.6h-2.016L117.886,5.048v29.184h-2.448v-33.6h2.064l22.848,29.184V0.632H142.797z
			"/>
		<linearGradient id="SVGID_6_" gradientUnits="userSpaceOnUse" x1="0.1914" y1="17.4326" x2="234.2373" y2="17.4326">
			<stop  offset="0.0357" style="stop-color:#D57F87"/>
			<stop  offset="0.1437" style="stop-color:#D78A8D"/>
			<stop  offset="0.3303" style="stop-color:#DDA69E"/>
			<stop  offset="0.3786" style="stop-color:#DFAEA3"/>
			<stop  offset="0.7551" style="stop-color:#E4BBB2"/>
			<stop  offset="1" style="stop-color:#CD787C"/>
		</linearGradient>
		<path fill="url(#SVGID_6_)" d="M154.509,0.632h2.448v33.6h-2.448V0.632z"/>
		<linearGradient id="SVGID_7_" gradientUnits="userSpaceOnUse" x1="0.1914" y1="17.4326" x2="234.2373" y2="17.4326">
			<stop  offset="0.0357" style="stop-color:#D57F87"/>
			<stop  offset="0.1437" style="stop-color:#D78A8D"/>
			<stop  offset="0.3303" style="stop-color:#DDA69E"/>
			<stop  offset="0.3786" style="stop-color:#DFAEA3"/>
			<stop  offset="0.7551" style="stop-color:#E4BBB2"/>
			<stop  offset="1" style="stop-color:#CD787C"/>
		</linearGradient>
		<path fill="url(#SVGID_7_)" d="M196.029,0.632v33.6h-2.016L171.117,5.048v29.184h-2.448v-33.6h2.064l22.848,29.184V0.632H196.029z
			"/>
		<linearGradient id="SVGID_8_" gradientUnits="userSpaceOnUse" x1="0.1914" y1="17.4326" x2="234.2373" y2="17.4326">
			<stop  offset="0.0357" style="stop-color:#D57F87"/>
			<stop  offset="0.1437" style="stop-color:#D78A8D"/>
			<stop  offset="0.3303" style="stop-color:#DDA69E"/>
			<stop  offset="0.3786" style="stop-color:#DFAEA3"/>
			<stop  offset="0.7551" style="stop-color:#E4BBB2"/>
			<stop  offset="1" style="stop-color:#CD787C"/>
		</linearGradient>
		<path fill="url(#SVGID_8_)" d="M231.741,17.577h2.352v12.576c-1.472,1.409-3.256,2.48-5.352,3.216
			c-2.096,0.736-4.313,1.104-6.648,1.104c-3.329,0-6.329-0.736-9-2.208c-2.672-1.472-4.769-3.504-6.288-6.096
			c-1.52-2.592-2.28-5.503-2.28-8.736c0-3.232,0.76-6.144,2.28-8.736c1.52-2.592,3.616-4.624,6.288-6.096
			c2.671-1.472,5.688-2.208,9.048-2.208c2.464,0,4.728,0.392,6.792,1.176c2.064,0.785,3.832,1.928,5.304,3.432l-1.536,1.632
			c-1.408-1.408-2.984-2.424-4.728-3.048c-1.745-0.624-3.672-0.936-5.784-0.936c-2.88,0-5.48,0.641-7.8,1.92
			c-2.32,1.28-4.136,3.048-5.448,5.304c-1.313,2.256-1.968,4.776-1.968,7.56c0,2.752,0.664,5.256,1.992,7.512
			c1.328,2.256,3.144,4.032,5.448,5.328c2.304,1.296,4.896,1.944,7.776,1.944c3.84,0,7.023-1.023,9.552-3.072V17.577z"/>
	</g>
</g>
<rect id="_x3C_Slice_x3E_" x="318.667" fill="none" width="16" height="35"/>
</svg>
