<?xml version="1.0" encoding="utf-8"?>
<!-- Generator: Adobe Illustrator 16.0.0, SVG Export Plug-In . SVG Version: 6.00 Build 0)  -->
<!DOCTYPE svg PUBLIC "-//W3C//DTD SVG 1.1//EN" "http://www.w3.org/Graphics/SVG/1.1/DTD/svg11.dtd">
<svg version="1.1" xmlns="http://www.w3.org/2000/svg" xmlns:xlink="http://www.w3.org/1999/xlink" x="0px" y="0px"
	 width="230.625px" height="34.583px" viewBox="0 0 230.625 34.583" enable-background="new 0 0 230.625 34.583"
	 xml:space="preserve">
<g id="Layer_1">
	<g>
		<g>
			<linearGradient id="SVGID_1_" gradientUnits="userSpaceOnUse" x1="-488.2256" y1="17.29" x2="229.6064" y2="17.29">
				<stop  offset="0" style="stop-color:#7FACBF"/>
				<stop  offset="0.1194" style="stop-color:#88B5C5"/>
				<stop  offset="0.3172" style="stop-color:#A2CCD5"/>
				<stop  offset="0.3786" style="stop-color:#ABD5DB"/>
				<stop  offset="0.7551" style="stop-color:#A6D1D4"/>
				<stop  offset="0.9949" style="stop-color:#77B3B8"/>
			</linearGradient>
			<path fill="url(#SVGID_1_)" d="M-439.361,0.49l-11.376,33.6h-2.592l-10.416-30.144l-10.464,30.144h-2.592l-11.424-33.6h2.592
				l10.224,30.24l10.512-30.24h2.352l10.464,30.289l10.32-30.289H-439.361z"/>
			<linearGradient id="SVGID_2_" gradientUnits="userSpaceOnUse" x1="-488.2256" y1="17.29" x2="229.6064" y2="17.29">
				<stop  offset="0" style="stop-color:#7FACBF"/>
				<stop  offset="0.1194" style="stop-color:#88B5C5"/>
				<stop  offset="0.3172" style="stop-color:#A2CCD5"/>
				<stop  offset="0.3786" style="stop-color:#ABD5DB"/>
				<stop  offset="0.7551" style="stop-color:#A6D1D4"/>
				<stop  offset="0.9949" style="stop-color:#77B3B8"/>
			</linearGradient>
			<path fill="url(#SVGID_2_)" d="M-431.586,0.49h2.448v33.6h-2.448V0.49z"/>
			<linearGradient id="SVGID_3_" gradientUnits="userSpaceOnUse" x1="-488.2256" y1="17.29" x2="229.6064" y2="17.29">
				<stop  offset="0" style="stop-color:#7FACBF"/>
				<stop  offset="0.1194" style="stop-color:#88B5C5"/>
				<stop  offset="0.3172" style="stop-color:#A2CCD5"/>
				<stop  offset="0.3786" style="stop-color:#ABD5DB"/>
				<stop  offset="0.7551" style="stop-color:#A6D1D4"/>
				<stop  offset="0.9949" style="stop-color:#77B3B8"/>
			</linearGradient>
			<path fill="url(#SVGID_3_)" d="M-410.994,2.698h-12.096V0.49h26.64v2.208h-12.097V34.09h-2.447V2.698z"/>
			<linearGradient id="SVGID_4_" gradientUnits="userSpaceOnUse" x1="-488.2256" y1="17.29" x2="229.6064" y2="17.29">
				<stop  offset="0" style="stop-color:#7FACBF"/>
				<stop  offset="0.1194" style="stop-color:#88B5C5"/>
				<stop  offset="0.3172" style="stop-color:#A2CCD5"/>
				<stop  offset="0.3786" style="stop-color:#ABD5DB"/>
				<stop  offset="0.7551" style="stop-color:#A6D1D4"/>
				<stop  offset="0.9949" style="stop-color:#77B3B8"/>
			</linearGradient>
			<path fill="url(#SVGID_4_)" d="M-363.043,0.49v33.6h-2.447V18.106h-22.465V34.09h-2.447V0.49h2.447v15.456h22.465V0.49H-363.043z
				"/>
			<linearGradient id="SVGID_5_" gradientUnits="userSpaceOnUse" x1="-488.2256" y1="17.29" x2="229.6064" y2="17.29">
				<stop  offset="0" style="stop-color:#7FACBF"/>
				<stop  offset="0.1194" style="stop-color:#88B5C5"/>
				<stop  offset="0.3172" style="stop-color:#A2CCD5"/>
				<stop  offset="0.3786" style="stop-color:#ABD5DB"/>
				<stop  offset="0.7551" style="stop-color:#A6D1D4"/>
				<stop  offset="0.9949" style="stop-color:#77B3B8"/>
			</linearGradient>
			<path fill="url(#SVGID_5_)" d="M-337.195,33.058c-2.225-0.848-3.961-1.943-5.208-3.287l1.104-1.824
				c1.184,1.248,2.776,2.264,4.776,3.047c2,0.785,4.104,1.177,6.313,1.177c3.199,0,5.615-0.607,7.248-1.824
				c1.631-1.216,2.447-2.8,2.447-4.752c0-1.503-0.432-2.704-1.296-3.601c-0.864-0.895-1.937-1.583-3.216-2.063
				c-1.28-0.48-3.008-0.976-5.184-1.488c-2.465-0.607-4.44-1.2-5.929-1.776c-1.487-0.576-2.753-1.464-3.792-2.664
				c-1.04-1.2-1.561-2.808-1.561-4.824c0-1.632,0.433-3.127,1.297-4.488c0.863-1.36,2.184-2.44,3.96-3.24
				c1.776-0.799,3.991-1.2,6.647-1.2c1.855,0,3.68,0.272,5.473,0.816c1.791,0.544,3.344,1.28,4.656,2.208l-0.912,1.968
				c-1.344-0.928-2.825-1.632-4.44-2.112c-1.616-0.48-3.208-0.72-4.776-0.72c-3.104,0-5.456,0.624-7.056,1.872
				c-1.601,1.248-2.399,2.864-2.399,4.848c0,1.504,0.432,2.705,1.295,3.6c0.864,0.896,1.936,1.584,3.217,2.064
				c1.279,0.48,3.023,0.992,5.231,1.536c2.464,0.608,4.433,1.2,5.904,1.776c1.472,0.576,2.728,1.448,3.769,2.616
				c1.039,1.168,1.56,2.744,1.56,4.729c0,1.632-0.44,3.119-1.32,4.464c-0.88,1.344-2.231,2.417-4.056,3.216
				c-1.824,0.801-4.064,1.2-6.721,1.2C-332.628,34.33-334.972,33.906-337.195,33.058z"/>
			<linearGradient id="SVGID_6_" gradientUnits="userSpaceOnUse" x1="-488.2256" y1="17.29" x2="229.6064" y2="17.29">
				<stop  offset="0" style="stop-color:#7FACBF"/>
				<stop  offset="0.1194" style="stop-color:#88B5C5"/>
				<stop  offset="0.3172" style="stop-color:#A2CCD5"/>
				<stop  offset="0.3786" style="stop-color:#ABD5DB"/>
				<stop  offset="0.7551" style="stop-color:#A6D1D4"/>
				<stop  offset="0.9949" style="stop-color:#77B3B8"/>
			</linearGradient>
			<path fill="url(#SVGID_6_)" d="M-306.523,30.634c-2.352-2.464-3.528-6.063-3.528-10.8V0.49h2.448v19.248
				c0,4.128,0.943,7.216,2.832,9.264c1.888,2.048,4.623,3.071,8.208,3.071c3.552,0,6.271-1.023,8.159-3.071
				c1.889-2.048,2.832-5.136,2.832-9.264V0.49h2.449v19.344c0,4.736-1.186,8.336-3.553,10.8c-2.368,2.465-5.68,3.696-9.936,3.696
				S-304.172,33.099-306.523,30.634z"/>
			<linearGradient id="SVGID_7_" gradientUnits="userSpaceOnUse" x1="-488.2256" y1="17.29" x2="229.6064" y2="17.29">
				<stop  offset="0" style="stop-color:#7FACBF"/>
				<stop  offset="0.1194" style="stop-color:#88B5C5"/>
				<stop  offset="0.3172" style="stop-color:#A2CCD5"/>
				<stop  offset="0.3786" style="stop-color:#ABD5DB"/>
				<stop  offset="0.7551" style="stop-color:#A6D1D4"/>
				<stop  offset="0.9949" style="stop-color:#77B3B8"/>
			</linearGradient>
			<path fill="url(#SVGID_7_)" d="M-249.716,3.49c2.4,2,3.601,4.776,3.601,8.328c0,3.521-1.2,6.28-3.601,8.28
				c-2.399,2.001-5.712,3-9.937,3h-9.6V34.09h-2.447V0.49h12.047C-255.428,0.49-252.115,1.49-249.716,3.49z M-251.443,18.538
				c1.887-1.568,2.832-3.808,2.832-6.72c0-2.912-0.945-5.16-2.832-6.744c-1.889-1.584-4.625-2.376-8.209-2.376h-9.6V20.89h9.6
				C-256.068,20.89-253.332,20.106-251.443,18.538z"/>
			<linearGradient id="SVGID_8_" gradientUnits="userSpaceOnUse" x1="-488.2256" y1="17.29" x2="229.6064" y2="17.29">
				<stop  offset="0" style="stop-color:#7FACBF"/>
				<stop  offset="0.1194" style="stop-color:#88B5C5"/>
				<stop  offset="0.3172" style="stop-color:#A2CCD5"/>
				<stop  offset="0.3786" style="stop-color:#ABD5DB"/>
				<stop  offset="0.7551" style="stop-color:#A6D1D4"/>
				<stop  offset="0.9949" style="stop-color:#77B3B8"/>
			</linearGradient>
			<path fill="url(#SVGID_8_)" d="M-215.396,3.49c2.4,2,3.601,4.776,3.601,8.328c0,3.521-1.2,6.28-3.601,8.28
				c-2.399,2.001-5.711,3-9.936,3h-9.6V34.09h-2.448V0.49h12.048C-221.107,0.49-217.796,1.49-215.396,3.49z M-217.124,18.538
				c1.888-1.568,2.832-3.808,2.832-6.72c0-2.912-0.944-5.16-2.832-6.744s-4.624-2.376-8.208-2.376h-9.6V20.89h9.6
				C-221.748,20.89-219.012,20.106-217.124,18.538z"/>
			<linearGradient id="SVGID_9_" gradientUnits="userSpaceOnUse" x1="-488.2256" y1="17.29" x2="229.6064" y2="17.29">
				<stop  offset="0" style="stop-color:#7FACBF"/>
				<stop  offset="0.1194" style="stop-color:#88B5C5"/>
				<stop  offset="0.3172" style="stop-color:#A2CCD5"/>
				<stop  offset="0.3786" style="stop-color:#ABD5DB"/>
				<stop  offset="0.7551" style="stop-color:#A6D1D4"/>
				<stop  offset="0.9949" style="stop-color:#77B3B8"/>
			</linearGradient>
			<path fill="url(#SVGID_9_)" d="M-197.732,32.098c-2.656-1.487-4.744-3.528-6.264-6.12s-2.279-5.487-2.279-8.688
				c0-3.2,0.76-6.096,2.279-8.688c1.52-2.592,3.607-4.632,6.264-6.12c2.656-1.488,5.633-2.232,8.928-2.232
				c3.297,0,6.271,0.736,8.929,2.208c2.655,1.472,4.743,3.504,6.265,6.096c1.52,2.592,2.279,5.504,2.279,8.736
				c0,3.232-0.76,6.145-2.279,8.736c-1.521,2.592-3.609,4.624-6.265,6.096c-2.657,1.473-5.632,2.208-8.929,2.208
				C-192.1,34.33-195.076,33.586-197.732,32.098z M-181.172,30.153c2.271-1.279,4.063-3.047,5.376-5.304
				c1.312-2.256,1.968-4.776,1.968-7.56c0-2.784-0.656-5.304-1.968-7.56c-1.313-2.256-3.104-4.024-5.376-5.304
				c-2.272-1.279-4.816-1.92-7.633-1.92c-2.815,0-5.367,0.641-7.655,1.92c-2.288,1.28-4.089,3.048-5.399,5.304
				c-1.313,2.256-1.969,4.776-1.969,7.56c0,2.784,0.656,5.304,1.969,7.56c1.311,2.257,3.111,4.024,5.399,5.304
				c2.288,1.281,4.84,1.92,7.655,1.92C-185.988,32.073-183.444,31.435-181.172,30.153z"/>
			<linearGradient id="SVGID_10_" gradientUnits="userSpaceOnUse" x1="-488.2256" y1="17.29" x2="229.6064" y2="17.29">
				<stop  offset="0" style="stop-color:#7FACBF"/>
				<stop  offset="0.1194" style="stop-color:#88B5C5"/>
				<stop  offset="0.3172" style="stop-color:#A2CCD5"/>
				<stop  offset="0.3786" style="stop-color:#ABD5DB"/>
				<stop  offset="0.7551" style="stop-color:#A6D1D4"/>
				<stop  offset="0.9949" style="stop-color:#77B3B8"/>
			</linearGradient>
			<path fill="url(#SVGID_10_)" d="M-139.508,34.09l-8.017-11.231c-1.185,0.16-2.272,0.239-3.265,0.239h-9.6V34.09h-2.447V0.49
				h12.047c4.225,0,7.537,1,9.937,3c2.4,2,3.601,4.776,3.601,8.328c0,2.656-0.681,4.889-2.041,6.696
				c-1.359,1.809-3.304,3.081-5.832,3.816l8.4,11.76H-139.508z M-150.789,20.938c3.584,0,6.32-0.792,8.209-2.376
				c1.887-1.584,2.832-3.832,2.832-6.744c0-2.912-0.945-5.16-2.832-6.744c-1.889-1.584-4.625-2.376-8.209-2.376h-9.6v18.24H-150.789
				z"/>
			<linearGradient id="SVGID_11_" gradientUnits="userSpaceOnUse" x1="-488.2256" y1="17.29" x2="229.6064" y2="17.29">
				<stop  offset="0" style="stop-color:#7FACBF"/>
				<stop  offset="0.1194" style="stop-color:#88B5C5"/>
				<stop  offset="0.3172" style="stop-color:#A2CCD5"/>
				<stop  offset="0.3786" style="stop-color:#ABD5DB"/>
				<stop  offset="0.7551" style="stop-color:#A6D1D4"/>
				<stop  offset="0.9949" style="stop-color:#77B3B8"/>
			</linearGradient>
			<path fill="url(#SVGID_11_)" d="M-121.845,2.698h-12.097V0.49h26.641v2.208h-12.096V34.09h-2.448V2.698z"/>
			<linearGradient id="SVGID_12_" gradientUnits="userSpaceOnUse" x1="-488.2256" y1="17.29" x2="229.6064" y2="17.29">
				<stop  offset="0" style="stop-color:#7FACBF"/>
				<stop  offset="0.1194" style="stop-color:#88B5C5"/>
				<stop  offset="0.3172" style="stop-color:#A2CCD5"/>
				<stop  offset="0.3786" style="stop-color:#ABD5DB"/>
				<stop  offset="0.7551" style="stop-color:#A6D1D4"/>
				<stop  offset="0.9949" style="stop-color:#77B3B8"/>
			</linearGradient>
			<path fill="url(#SVGID_12_)" d="M-43.99,0.49l-11.375,33.6h-2.593L-68.374,3.946L-78.838,34.09h-2.592l-11.424-33.6h2.592
				l10.224,30.24l10.513-30.24h2.352l10.464,30.289L-46.391,0.49H-43.99z"/>
			<linearGradient id="SVGID_13_" gradientUnits="userSpaceOnUse" x1="-488.2256" y1="17.29" x2="229.6064" y2="17.29">
				<stop  offset="0" style="stop-color:#7FACBF"/>
				<stop  offset="0.1194" style="stop-color:#88B5C5"/>
				<stop  offset="0.3172" style="stop-color:#A2CCD5"/>
				<stop  offset="0.3786" style="stop-color:#ABD5DB"/>
				<stop  offset="0.7551" style="stop-color:#A6D1D4"/>
				<stop  offset="0.9949" style="stop-color:#77B3B8"/>
			</linearGradient>
			<path fill="url(#SVGID_13_)" d="M-13.03,31.882v2.208h-23.185V0.49h22.465v2.208h-20.016v13.248h17.903v2.16h-17.903v13.776
				H-13.03z"/>
			<linearGradient id="SVGID_14_" gradientUnits="userSpaceOnUse" x1="-488.2256" y1="17.29" x2="229.6064" y2="17.29">
				<stop  offset="0" style="stop-color:#7FACBF"/>
				<stop  offset="0.1194" style="stop-color:#88B5C5"/>
				<stop  offset="0.3172" style="stop-color:#A2CCD5"/>
				<stop  offset="0.3786" style="stop-color:#ABD5DB"/>
				<stop  offset="0.7551" style="stop-color:#A6D1D4"/>
				<stop  offset="0.9949" style="stop-color:#77B3B8"/>
			</linearGradient>
			<path fill="url(#SVGID_14_)" d="M14.665,2.698H2.568V0.49h26.641v2.208H17.113V34.09h-2.448V2.698z"/>
			<linearGradient id="SVGID_15_" gradientUnits="userSpaceOnUse" x1="-488.2256" y1="17.29" x2="229.6064" y2="17.29">
				<stop  offset="0" style="stop-color:#7FACBF"/>
				<stop  offset="0.1194" style="stop-color:#88B5C5"/>
				<stop  offset="0.3172" style="stop-color:#A2CCD5"/>
				<stop  offset="0.3786" style="stop-color:#ABD5DB"/>
				<stop  offset="0.7551" style="stop-color:#A6D1D4"/>
				<stop  offset="0.9949" style="stop-color:#77B3B8"/>
			</linearGradient>
			<path fill="url(#SVGID_15_)" d="M58.584,34.09l-8.016-11.231c-1.184,0.16-2.272,0.239-3.264,0.239h-9.6V34.09h-2.449V0.49h12.049
				c4.224,0,7.535,1,9.936,3c2.4,2,3.6,4.776,3.6,8.328c0,2.656-0.68,4.889-2.039,6.696c-1.361,1.809-3.305,3.081-5.832,3.816
				l8.399,11.76H58.584z M47.305,20.938c3.583,0,6.319-0.792,8.207-2.376c1.889-1.584,2.832-3.832,2.832-6.744
				c0-2.912-0.943-5.16-2.832-6.744c-1.888-1.584-4.624-2.376-8.207-2.376h-9.6v18.24H47.305z"/>
			<linearGradient id="SVGID_16_" gradientUnits="userSpaceOnUse" x1="-488.2256" y1="17.29" x2="229.6064" y2="17.29">
				<stop  offset="0" style="stop-color:#7FACBF"/>
				<stop  offset="0.1194" style="stop-color:#88B5C5"/>
				<stop  offset="0.3172" style="stop-color:#A2CCD5"/>
				<stop  offset="0.3786" style="stop-color:#ABD5DB"/>
				<stop  offset="0.7551" style="stop-color:#A6D1D4"/>
				<stop  offset="0.9949" style="stop-color:#77B3B8"/>
			</linearGradient>
			<path fill="url(#SVGID_16_)" d="M69.815,0.49h2.448v33.6h-2.448V0.49z"/>
			<linearGradient id="SVGID_17_" gradientUnits="userSpaceOnUse" x1="-488.2256" y1="17.29" x2="229.6064" y2="17.29">
				<stop  offset="0" style="stop-color:#7FACBF"/>
				<stop  offset="0.1194" style="stop-color:#88B5C5"/>
				<stop  offset="0.3172" style="stop-color:#A2CCD5"/>
				<stop  offset="0.3786" style="stop-color:#ABD5DB"/>
				<stop  offset="0.7551" style="stop-color:#A6D1D4"/>
				<stop  offset="0.9949" style="stop-color:#77B3B8"/>
			</linearGradient>
			<path fill="url(#SVGID_17_)" d="M87.215,30.634c-2.352-2.464-3.527-6.063-3.527-10.8V0.49h2.447v19.248
				c0,4.128,0.943,7.216,2.832,9.264s4.624,3.071,8.209,3.071c3.551,0,6.271-1.023,8.159-3.071s2.832-5.136,2.832-9.264V0.49h2.448
				v19.344c0,4.736-1.185,8.336-3.552,10.8c-2.368,2.465-5.681,3.696-9.937,3.696S89.567,33.099,87.215,30.634z"/>
			<linearGradient id="SVGID_18_" gradientUnits="userSpaceOnUse" x1="-488.2256" y1="17.29" x2="229.6064" y2="17.29">
				<stop  offset="0" style="stop-color:#7FACBF"/>
				<stop  offset="0.1194" style="stop-color:#88B5C5"/>
				<stop  offset="0.3172" style="stop-color:#A2CCD5"/>
				<stop  offset="0.3786" style="stop-color:#ABD5DB"/>
				<stop  offset="0.7551" style="stop-color:#A6D1D4"/>
				<stop  offset="0.9949" style="stop-color:#77B3B8"/>
			</linearGradient>
			<path fill="url(#SVGID_18_)" d="M153.815,34.09l-0.048-28.752l-14.064,24.288h-1.199L124.439,5.434V34.09h-2.399V0.49h2.063
				l15.024,25.968L154.151,0.49h2.017l0.048,33.6H153.815z"/>
			<linearGradient id="SVGID_19_" gradientUnits="userSpaceOnUse" x1="-488.2256" y1="17.29" x2="229.6064" y2="17.29">
				<stop  offset="0" style="stop-color:#7FACBF"/>
				<stop  offset="0.1194" style="stop-color:#88B5C5"/>
				<stop  offset="0.3172" style="stop-color:#A2CCD5"/>
				<stop  offset="0.3786" style="stop-color:#ABD5DB"/>
				<stop  offset="0.7551" style="stop-color:#A6D1D4"/>
				<stop  offset="0.9949" style="stop-color:#77B3B8"/>
			</linearGradient>
			<path fill="url(#SVGID_19_)" d="M189.911,3.49c2.4,2,3.601,4.776,3.601,8.328c0,3.521-1.2,6.28-3.601,8.28
				c-2.399,2.001-5.712,3-9.936,3h-9.601V34.09h-2.447V0.49h12.048C184.199,0.49,187.512,1.49,189.911,3.49z M188.184,18.538
				c1.888-1.568,2.832-3.808,2.832-6.72c0-2.912-0.944-5.16-2.832-6.744c-1.889-1.584-4.625-2.376-8.208-2.376h-9.601V20.89h9.601
				C183.559,20.89,186.295,20.106,188.184,18.538z"/>
			<linearGradient id="SVGID_20_" gradientUnits="userSpaceOnUse" x1="-488.2256" y1="17.29" x2="229.6064" y2="17.29">
				<stop  offset="0" style="stop-color:#7FACBF"/>
				<stop  offset="0.1194" style="stop-color:#88B5C5"/>
				<stop  offset="0.3172" style="stop-color:#A2CCD5"/>
				<stop  offset="0.3786" style="stop-color:#ABD5DB"/>
				<stop  offset="0.7551" style="stop-color:#A6D1D4"/>
				<stop  offset="0.9949" style="stop-color:#77B3B8"/>
			</linearGradient>
			<path fill="url(#SVGID_20_)" d="M229.606,0.49v33.6h-2.448V18.106h-22.464V34.09h-2.447V0.49h2.447v15.456h22.464V0.49H229.606z"
				/>
		</g>
	</g>
</g>
<g id="Layer_2">
</g>
</svg>
