<?xml version="1.0" encoding="utf-8"?>
<!-- Generator: Adobe Illustrator 16.0.0, SVG Export Plug-In . SVG Version: 6.00 Build 0)  -->
<!DOCTYPE svg PUBLIC "-//W3C//DTD SVG 1.1//EN" "http://www.w3.org/Graphics/SVG/1.1/DTD/svg11.dtd">
<svg version="1.1" id="Layer_1" xmlns="http://www.w3.org/2000/svg" xmlns:xlink="http://www.w3.org/1999/xlink" x="0px" y="0px"
	 width="183.833px" height="35.667px" viewBox="0 0 183.833 35.667" enable-background="new 0 0 183.833 35.667"
	 xml:space="preserve">
<g>
	<g>
		<linearGradient id="SVGID_1_" gradientUnits="userSpaceOnUse" x1="-471.229" y1="17.3735" x2="182.9077" y2="17.3735">
			<stop  offset="0.0357" style="stop-color:#D57F87"/>
			<stop  offset="0.1437" style="stop-color:#D78A8D"/>
			<stop  offset="0.3303" style="stop-color:#DDA69E"/>
			<stop  offset="0.3786" style="stop-color:#DFAEA3"/>
			<stop  offset="0.7551" style="stop-color:#E4BBB2"/>
			<stop  offset="1" style="stop-color:#CD787C"/>
		</linearGradient>
		<path fill="url(#SVGID_1_)" d="M-466.021,33.141c-2.224-0.847-3.96-1.944-5.208-3.288l1.104-1.824
			c1.184,1.248,2.776,2.265,4.776,3.049c2,0.784,4.104,1.176,6.312,1.176c3.199,0,5.616-0.607,7.248-1.824
			c1.632-1.216,2.448-2.8,2.448-4.752c0-1.504-0.432-2.703-1.296-3.6c-0.864-0.896-1.937-1.584-3.216-2.064
			c-1.28-0.48-3.008-0.976-5.184-1.488c-2.465-0.607-4.44-1.2-5.928-1.776c-1.488-0.576-2.752-1.464-3.792-2.664
			c-1.04-1.2-1.56-2.808-1.56-4.824c0-1.632,0.432-3.127,1.296-4.488c0.864-1.36,2.184-2.44,3.96-3.24
			c1.776-0.799,3.991-1.2,6.648-1.2c1.855,0,3.679,0.272,5.472,0.816c1.792,0.544,3.344,1.28,4.656,2.208l-0.912,1.968
			c-1.344-0.928-2.825-1.632-4.44-2.112c-1.616-0.48-3.208-0.72-4.776-0.72c-3.104,0-5.457,0.624-7.056,1.872
			c-1.601,1.248-2.4,2.864-2.4,4.848c0,1.504,0.432,2.705,1.296,3.6c0.864,0.896,1.936,1.584,3.216,2.064
			c1.28,0.48,3.024,0.992,5.232,1.536c2.464,0.608,4.432,1.2,5.904,1.776c1.472,0.576,2.728,1.448,3.768,2.616
			c1.04,1.169,1.56,2.745,1.56,4.728c0,1.633-0.44,3.121-1.32,4.465c-0.88,1.344-2.232,2.416-4.056,3.216
			c-1.824,0.8-4.064,1.2-6.72,1.2C-461.454,34.414-463.797,33.99-466.021,33.141z"/>
		<linearGradient id="SVGID_2_" gradientUnits="userSpaceOnUse" x1="-471.229" y1="17.3735" x2="182.9077" y2="17.3735">
			<stop  offset="0.0357" style="stop-color:#D57F87"/>
			<stop  offset="0.1437" style="stop-color:#D78A8D"/>
			<stop  offset="0.3303" style="stop-color:#DDA69E"/>
			<stop  offset="0.3786" style="stop-color:#DFAEA3"/>
			<stop  offset="0.7551" style="stop-color:#E4BBB2"/>
			<stop  offset="1" style="stop-color:#CD787C"/>
		</linearGradient>
		<path fill="url(#SVGID_2_)" d="M-435.35,30.717c-2.352-2.464-3.528-6.063-3.528-10.8V0.573h2.448v19.248
			c0,4.127,0.943,7.216,2.832,9.264c1.888,2.049,4.624,3.072,8.208,3.072c3.552,0,6.271-1.023,8.16-3.072
			c1.888-2.048,2.832-5.137,2.832-9.264V0.573h2.448v19.344c0,4.736-1.185,8.336-3.552,10.8c-2.368,2.464-5.68,3.696-9.936,3.696
			S-432.998,33.181-435.35,30.717z"/>
		<linearGradient id="SVGID_3_" gradientUnits="userSpaceOnUse" x1="-471.229" y1="17.3735" x2="182.9077" y2="17.3735">
			<stop  offset="0.0357" style="stop-color:#D57F87"/>
			<stop  offset="0.1437" style="stop-color:#D78A8D"/>
			<stop  offset="0.3303" style="stop-color:#DDA69E"/>
			<stop  offset="0.3786" style="stop-color:#DFAEA3"/>
			<stop  offset="0.7551" style="stop-color:#E4BBB2"/>
			<stop  offset="1" style="stop-color:#CD787C"/>
		</linearGradient>
		<path fill="url(#SVGID_3_)" d="M-395.221,32.206c-2.64-1.472-4.721-3.505-6.24-6.097c-1.52-2.592-2.28-5.503-2.28-8.735
			c0-3.232,0.76-6.144,2.28-8.736c1.52-2.592,3.6-4.624,6.24-6.096c2.64-1.472,5.607-2.208,8.904-2.208
			c2.432,0,4.672,0.392,6.72,1.176c2.047,0.785,3.792,1.944,5.232,3.48l-1.536,1.584c-2.688-2.656-6.128-3.984-10.32-3.984
			c-2.816,0-5.376,0.641-7.68,1.92c-2.304,1.28-4.112,3.048-5.424,5.304c-1.313,2.256-1.968,4.776-1.968,7.56
			c0,2.784,0.656,5.304,1.968,7.56c1.312,2.256,3.12,4.025,5.424,5.305s4.864,1.92,7.68,1.92c4.159,0,7.6-1.344,10.32-4.032
			l1.536,1.584c-1.44,1.536-3.192,2.704-5.256,3.504c-2.064,0.8-4.296,1.2-6.696,1.2C-389.614,34.414-392.582,33.677-395.221,32.206
			z"/>
		<linearGradient id="SVGID_4_" gradientUnits="userSpaceOnUse" x1="-471.229" y1="17.3735" x2="182.9077" y2="17.3735">
			<stop  offset="0.0357" style="stop-color:#D57F87"/>
			<stop  offset="0.1437" style="stop-color:#D78A8D"/>
			<stop  offset="0.3303" style="stop-color:#DDA69E"/>
			<stop  offset="0.3786" style="stop-color:#DFAEA3"/>
			<stop  offset="0.7551" style="stop-color:#E4BBB2"/>
			<stop  offset="1" style="stop-color:#CD787C"/>
		</linearGradient>
		<path fill="url(#SVGID_4_)" d="M-360.854,32.206c-2.64-1.472-4.721-3.505-6.24-6.097c-1.52-2.592-2.28-5.503-2.28-8.735
			c0-3.232,0.76-6.144,2.28-8.736c1.52-2.592,3.6-4.624,6.24-6.096c2.64-1.472,5.607-2.208,8.904-2.208
			c2.432,0,4.672,0.392,6.72,1.176c2.047,0.785,3.792,1.944,5.232,3.48l-1.536,1.584c-2.688-2.656-6.128-3.984-10.32-3.984
			c-2.816,0-5.376,0.641-7.68,1.92c-2.304,1.28-4.112,3.048-5.424,5.304c-1.313,2.256-1.968,4.776-1.968,7.56
			c0,2.784,0.656,5.304,1.968,7.56c1.312,2.256,3.12,4.025,5.424,5.305s4.864,1.92,7.68,1.92c4.159,0,7.6-1.344,10.32-4.032
			l1.536,1.584c-1.44,1.536-3.192,2.704-5.256,3.504c-2.064,0.8-4.296,1.2-6.696,1.2C-355.247,34.414-358.214,33.677-360.854,32.206
			z"/>
		<linearGradient id="SVGID_5_" gradientUnits="userSpaceOnUse" x1="-471.229" y1="17.3735" x2="182.9077" y2="17.3735">
			<stop  offset="0.0357" style="stop-color:#D57F87"/>
			<stop  offset="0.1437" style="stop-color:#D78A8D"/>
			<stop  offset="0.3303" style="stop-color:#DDA69E"/>
			<stop  offset="0.3786" style="stop-color:#DFAEA3"/>
			<stop  offset="0.7551" style="stop-color:#E4BBB2"/>
			<stop  offset="1" style="stop-color:#CD787C"/>
		</linearGradient>
		<path fill="url(#SVGID_5_)" d="M-308.607,31.965v2.208h-23.184v-33.6h22.464v2.208h-20.016v13.248h17.904v2.16h-17.904v13.776
			H-308.607z"/>
		<linearGradient id="SVGID_6_" gradientUnits="userSpaceOnUse" x1="-471.229" y1="17.3735" x2="182.9077" y2="17.3735">
			<stop  offset="0.0357" style="stop-color:#D57F87"/>
			<stop  offset="0.1437" style="stop-color:#D78A8D"/>
			<stop  offset="0.3303" style="stop-color:#DDA69E"/>
			<stop  offset="0.3786" style="stop-color:#DFAEA3"/>
			<stop  offset="0.7551" style="stop-color:#E4BBB2"/>
			<stop  offset="1" style="stop-color:#CD787C"/>
		</linearGradient>
		<path fill="url(#SVGID_6_)" d="M-297.879,33.141c-2.224-0.847-3.96-1.944-5.208-3.288l1.104-1.824
			c1.184,1.248,2.776,2.265,4.776,3.049c2,0.784,4.104,1.176,6.312,1.176c3.199,0,5.616-0.607,7.248-1.824
			c1.632-1.216,2.448-2.8,2.448-4.752c0-1.504-0.432-2.703-1.296-3.6c-0.864-0.896-1.937-1.584-3.216-2.064
			c-1.28-0.48-3.008-0.976-5.184-1.488c-2.465-0.607-4.44-1.2-5.928-1.776c-1.488-0.576-2.752-1.464-3.792-2.664
			c-1.04-1.2-1.56-2.808-1.56-4.824c0-1.632,0.432-3.127,1.296-4.488c0.864-1.36,2.184-2.44,3.96-3.24
			c1.776-0.799,3.991-1.2,6.648-1.2c1.855,0,3.679,0.272,5.472,0.816c1.792,0.544,3.344,1.28,4.656,2.208l-0.912,1.968
			c-1.344-0.928-2.825-1.632-4.44-2.112c-1.616-0.48-3.208-0.72-4.776-0.72c-3.104,0-5.457,0.624-7.056,1.872
			c-1.601,1.248-2.4,2.864-2.4,4.848c0,1.504,0.432,2.705,1.296,3.6c0.864,0.896,1.936,1.584,3.216,2.064
			c1.28,0.48,3.024,0.992,5.232,1.536c2.464,0.608,4.432,1.2,5.904,1.776c1.472,0.576,2.728,1.448,3.768,2.616
			c1.04,1.169,1.56,2.745,1.56,4.728c0,1.633-0.44,3.121-1.32,4.465c-0.88,1.344-2.232,2.416-4.056,3.216
			c-1.824,0.8-4.064,1.2-6.72,1.2C-293.312,34.414-295.655,33.99-297.879,33.141z"/>
		<linearGradient id="SVGID_7_" gradientUnits="userSpaceOnUse" x1="-471.229" y1="17.3735" x2="182.9077" y2="17.3735">
			<stop  offset="0.0357" style="stop-color:#D57F87"/>
			<stop  offset="0.1437" style="stop-color:#D78A8D"/>
			<stop  offset="0.3303" style="stop-color:#DDA69E"/>
			<stop  offset="0.3786" style="stop-color:#DFAEA3"/>
			<stop  offset="0.7551" style="stop-color:#E4BBB2"/>
			<stop  offset="1" style="stop-color:#CD787C"/>
		</linearGradient>
		<path fill="url(#SVGID_7_)" d="M-268.647,33.141c-2.224-0.847-3.96-1.944-5.208-3.288l1.104-1.824
			c1.184,1.248,2.776,2.265,4.776,3.049c2,0.784,4.104,1.176,6.312,1.176c3.199,0,5.616-0.607,7.248-1.824
			c1.632-1.216,2.448-2.8,2.448-4.752c0-1.504-0.432-2.703-1.296-3.6c-0.864-0.896-1.937-1.584-3.216-2.064
			c-1.28-0.48-3.008-0.976-5.184-1.488c-2.465-0.607-4.44-1.2-5.928-1.776c-1.488-0.576-2.752-1.464-3.792-2.664
			c-1.04-1.2-1.56-2.808-1.56-4.824c0-1.632,0.432-3.127,1.296-4.488c0.864-1.36,2.184-2.44,3.96-3.24
			c1.776-0.799,3.991-1.2,6.648-1.2c1.855,0,3.679,0.272,5.472,0.816c1.792,0.544,3.344,1.28,4.656,2.208l-0.912,1.968
			c-1.344-0.928-2.825-1.632-4.44-2.112c-1.616-0.48-3.208-0.72-4.776-0.72c-3.104,0-5.457,0.624-7.056,1.872
			c-1.601,1.248-2.4,2.864-2.4,4.848c0,1.504,0.432,2.705,1.296,3.6c0.864,0.896,1.936,1.584,3.216,2.064
			c1.28,0.48,3.024,0.992,5.232,1.536c2.464,0.608,4.432,1.2,5.904,1.776c1.472,0.576,2.728,1.448,3.768,2.616
			c1.04,1.169,1.56,2.745,1.56,4.728c0,1.633-0.44,3.121-1.32,4.465c-0.88,1.344-2.232,2.416-4.056,3.216
			c-1.824,0.8-4.064,1.2-6.72,1.2C-264.08,34.414-266.423,33.99-268.647,33.141z"/>
		<linearGradient id="SVGID_8_" gradientUnits="userSpaceOnUse" x1="-471.229" y1="17.3735" x2="182.9077" y2="17.3735">
			<stop  offset="0.0357" style="stop-color:#D57F87"/>
			<stop  offset="0.1437" style="stop-color:#D78A8D"/>
			<stop  offset="0.3303" style="stop-color:#DDA69E"/>
			<stop  offset="0.3786" style="stop-color:#DFAEA3"/>
			<stop  offset="0.7551" style="stop-color:#E4BBB2"/>
			<stop  offset="1" style="stop-color:#CD787C"/>
		</linearGradient>
		<path fill="url(#SVGID_8_)" d="M-227.081,33.141c-2.224-0.847-3.96-1.944-5.208-3.288l1.104-1.824
			c1.184,1.248,2.776,2.265,4.776,3.049c2,0.784,4.104,1.176,6.312,1.176c3.199,0,5.616-0.607,7.248-1.824
			c1.632-1.216,2.448-2.8,2.448-4.752c0-1.504-0.432-2.703-1.296-3.6c-0.864-0.896-1.937-1.584-3.216-2.064
			c-1.28-0.48-3.008-0.976-5.184-1.488c-2.465-0.607-4.44-1.2-5.928-1.776c-1.488-0.576-2.752-1.464-3.792-2.664
			c-1.04-1.2-1.56-2.808-1.56-4.824c0-1.632,0.432-3.127,1.296-4.488c0.864-1.36,2.184-2.44,3.96-3.24
			c1.776-0.799,3.991-1.2,6.648-1.2c1.855,0,3.679,0.272,5.472,0.816c1.792,0.544,3.344,1.28,4.656,2.208l-0.912,1.968
			c-1.344-0.928-2.825-1.632-4.44-2.112c-1.616-0.48-3.208-0.72-4.776-0.72c-3.104,0-5.457,0.624-7.056,1.872
			c-1.601,1.248-2.4,2.864-2.4,4.848c0,1.504,0.432,2.705,1.296,3.6c0.864,0.896,1.936,1.584,3.216,2.064
			c1.28,0.48,3.024,0.992,5.232,1.536c2.464,0.608,4.432,1.2,5.904,1.776c1.472,0.576,2.728,1.448,3.768,2.616
			c1.04,1.169,1.56,2.745,1.56,4.728c0,1.633-0.44,3.121-1.32,4.465c-0.88,1.344-2.232,2.416-4.056,3.216
			c-1.824,0.8-4.064,1.2-6.72,1.2C-222.513,34.414-224.856,33.99-227.081,33.141z"/>
		<linearGradient id="SVGID_9_" gradientUnits="userSpaceOnUse" x1="-471.229" y1="17.3735" x2="182.9077" y2="17.3735">
			<stop  offset="0.0357" style="stop-color:#D57F87"/>
			<stop  offset="0.1437" style="stop-color:#D78A8D"/>
			<stop  offset="0.3303" style="stop-color:#DDA69E"/>
			<stop  offset="0.3786" style="stop-color:#DFAEA3"/>
			<stop  offset="0.7551" style="stop-color:#E4BBB2"/>
			<stop  offset="1" style="stop-color:#CD787C"/>
		</linearGradient>
		<path fill="url(#SVGID_9_)" d="M-177.665,3.573c2.4,2,3.6,4.776,3.6,8.328c0,3.521-1.2,6.28-3.6,8.28c-2.4,2-5.712,3-9.936,3h-9.6
			v10.992h-2.448v-33.6h12.048C-183.376,0.573-180.064,1.574-177.665,3.573z M-179.393,18.622c1.888-1.568,2.832-3.808,2.832-6.72
			c0-2.912-0.944-5.16-2.832-6.744c-1.888-1.584-4.625-2.376-8.208-2.376h-9.6v18.192h9.6
			C-184.017,20.973-181.281,20.189-179.393,18.622z"/>
		<linearGradient id="SVGID_10_" gradientUnits="userSpaceOnUse" x1="-471.229" y1="17.3735" x2="182.9077" y2="17.3735">
			<stop  offset="0.0357" style="stop-color:#D57F87"/>
			<stop  offset="0.1437" style="stop-color:#D78A8D"/>
			<stop  offset="0.3303" style="stop-color:#DDA69E"/>
			<stop  offset="0.3786" style="stop-color:#DFAEA3"/>
			<stop  offset="0.7551" style="stop-color:#E4BBB2"/>
			<stop  offset="1" style="stop-color:#CD787C"/>
		</linearGradient>
		<path fill="url(#SVGID_10_)" d="M-142.145,31.965v2.208h-23.184v-33.6h22.464v2.208h-20.016v13.248h17.904v2.16h-17.904v13.776
			H-142.145z"/>
		<linearGradient id="SVGID_11_" gradientUnits="userSpaceOnUse" x1="-471.229" y1="17.3735" x2="182.9077" y2="17.3735">
			<stop  offset="0.0357" style="stop-color:#D57F87"/>
			<stop  offset="0.1437" style="stop-color:#D78A8D"/>
			<stop  offset="0.3303" style="stop-color:#DDA69E"/>
			<stop  offset="0.3786" style="stop-color:#DFAEA3"/>
			<stop  offset="0.7551" style="stop-color:#E4BBB2"/>
			<stop  offset="1" style="stop-color:#CD787C"/>
		</linearGradient>
		<path fill="url(#SVGID_11_)" d="M-127.913,32.206c-2.64-1.472-4.721-3.505-6.24-6.097c-1.52-2.592-2.28-5.503-2.28-8.735
			c0-3.232,0.76-6.144,2.28-8.736c1.52-2.592,3.6-4.624,6.24-6.096c2.64-1.472,5.607-2.208,8.904-2.208
			c2.432,0,4.672,0.392,6.72,1.176c2.047,0.785,3.792,1.944,5.232,3.48l-1.536,1.584c-2.688-2.656-6.128-3.984-10.32-3.984
			c-2.816,0-5.376,0.641-7.68,1.92c-2.304,1.28-4.112,3.048-5.424,5.304c-1.313,2.256-1.968,4.776-1.968,7.56
			c0,2.784,0.656,5.304,1.968,7.56c1.312,2.256,3.12,4.025,5.424,5.305s4.864,1.92,7.68,1.92c4.159,0,7.6-1.344,10.32-4.032
			l1.536,1.584c-1.44,1.536-3.192,2.704-5.256,3.504c-2.064,0.8-4.296,1.2-6.696,1.2C-122.306,34.414-125.273,33.677-127.913,32.206
			z"/>
		<linearGradient id="SVGID_12_" gradientUnits="userSpaceOnUse" x1="-471.229" y1="17.3735" x2="182.9077" y2="17.3735">
			<stop  offset="0.0357" style="stop-color:#D57F87"/>
			<stop  offset="0.1437" style="stop-color:#D78A8D"/>
			<stop  offset="0.3303" style="stop-color:#DDA69E"/>
			<stop  offset="0.3786" style="stop-color:#DFAEA3"/>
			<stop  offset="0.7551" style="stop-color:#E4BBB2"/>
			<stop  offset="1" style="stop-color:#CD787C"/>
		</linearGradient>
		<path fill="url(#SVGID_12_)" d="M-98.85,0.573h2.448v33.6h-2.448V0.573z"/>
		<linearGradient id="SVGID_13_" gradientUnits="userSpaceOnUse" x1="-471.229" y1="17.3735" x2="182.9077" y2="17.3735">
			<stop  offset="0.0357" style="stop-color:#D57F87"/>
			<stop  offset="0.1437" style="stop-color:#D78A8D"/>
			<stop  offset="0.3303" style="stop-color:#DDA69E"/>
			<stop  offset="0.3786" style="stop-color:#DFAEA3"/>
			<stop  offset="0.7551" style="stop-color:#E4BBB2"/>
			<stop  offset="1" style="stop-color:#CD787C"/>
		</linearGradient>
		<path fill="url(#SVGID_13_)" d="M-82.242,2.781v14.352h17.904v2.208h-17.904v14.832h-2.448v-33.6h22.464v2.208H-82.242z"/>
		<linearGradient id="SVGID_14_" gradientUnits="userSpaceOnUse" x1="-471.229" y1="17.3735" x2="182.9077" y2="17.3735">
			<stop  offset="0.0357" style="stop-color:#D57F87"/>
			<stop  offset="0.1437" style="stop-color:#D78A8D"/>
			<stop  offset="0.3303" style="stop-color:#DDA69E"/>
			<stop  offset="0.3786" style="stop-color:#DFAEA3"/>
			<stop  offset="0.7551" style="stop-color:#E4BBB2"/>
			<stop  offset="1" style="stop-color:#CD787C"/>
		</linearGradient>
		<path fill="url(#SVGID_14_)" d="M-54.402,0.573h2.448v33.6h-2.448V0.573z"/>
		<linearGradient id="SVGID_15_" gradientUnits="userSpaceOnUse" x1="-471.229" y1="17.3735" x2="182.9077" y2="17.3735">
			<stop  offset="0.0357" style="stop-color:#D57F87"/>
			<stop  offset="0.1437" style="stop-color:#D78A8D"/>
			<stop  offset="0.3303" style="stop-color:#DDA69E"/>
			<stop  offset="0.3786" style="stop-color:#DFAEA3"/>
			<stop  offset="0.7551" style="stop-color:#E4BBB2"/>
			<stop  offset="1" style="stop-color:#CD787C"/>
		</linearGradient>
		<path fill="url(#SVGID_15_)" d="M-34.938,32.206c-2.64-1.472-4.721-3.505-6.24-6.097c-1.52-2.592-2.28-5.503-2.28-8.735
			c0-3.232,0.76-6.144,2.28-8.736c1.52-2.592,3.6-4.624,6.24-6.096c2.64-1.472,5.607-2.208,8.904-2.208
			c2.432,0,4.672,0.392,6.72,1.176c2.047,0.785,3.792,1.944,5.232,3.48l-1.536,1.584c-2.688-2.656-6.128-3.984-10.32-3.984
			c-2.816,0-5.376,0.641-7.68,1.92c-2.304,1.28-4.112,3.048-5.424,5.304c-1.313,2.256-1.968,4.776-1.968,7.56
			c0,2.784,0.656,5.304,1.968,7.56c1.312,2.256,3.12,4.025,5.424,5.305s4.864,1.92,7.68,1.92c4.159,0,7.6-1.344,10.32-4.032
			l1.536,1.584c-1.44,1.536-3.192,2.704-5.256,3.504c-2.064,0.8-4.296,1.2-6.696,1.2C-29.331,34.414-32.298,33.677-34.938,32.206z"
			/>
		<linearGradient id="SVGID_16_" gradientUnits="userSpaceOnUse" x1="-471.229" y1="17.3735" x2="182.9077" y2="17.3735">
			<stop  offset="0.0357" style="stop-color:#D57F87"/>
			<stop  offset="0.1437" style="stop-color:#D78A8D"/>
			<stop  offset="0.3303" style="stop-color:#DDA69E"/>
			<stop  offset="0.3786" style="stop-color:#DFAEA3"/>
			<stop  offset="0.7551" style="stop-color:#E4BBB2"/>
			<stop  offset="1" style="stop-color:#CD787C"/>
		</linearGradient>
		<path fill="url(#SVGID_16_)" d="M12.893,2.781H0.797V0.573h26.64v2.208H15.341v31.392h-2.448V2.781z"/>
		<linearGradient id="SVGID_17_" gradientUnits="userSpaceOnUse" x1="-471.229" y1="17.3735" x2="182.9077" y2="17.3735">
			<stop  offset="0.0357" style="stop-color:#D57F87"/>
			<stop  offset="0.1437" style="stop-color:#D78A8D"/>
			<stop  offset="0.3303" style="stop-color:#DDA69E"/>
			<stop  offset="0.3786" style="stop-color:#DFAEA3"/>
			<stop  offset="0.7551" style="stop-color:#E4BBB2"/>
			<stop  offset="1" style="stop-color:#CD787C"/>
		</linearGradient>
		<path fill="url(#SVGID_17_)" d="M38.813,32.181c-2.657-1.488-4.745-3.527-6.264-6.119c-1.52-2.593-2.28-5.488-2.28-8.688
			c0-3.2,0.76-6.096,2.28-8.688c1.52-2.592,3.607-4.632,6.264-6.12c2.656-1.488,5.632-2.232,8.928-2.232s6.271,0.736,8.928,2.208
			c2.656,1.472,4.744,3.504,6.264,6.096c1.52,2.592,2.28,5.504,2.28,8.736c0,3.232-0.76,6.144-2.28,8.735
			c-1.521,2.592-3.608,4.625-6.264,6.097c-2.657,1.472-5.632,2.208-8.928,2.208S41.468,33.669,38.813,32.181z M55.373,30.238
			c2.271-1.279,4.063-3.049,5.376-5.305c1.312-2.256,1.968-4.776,1.968-7.56c0-2.784-0.656-5.304-1.968-7.56
			c-1.313-2.256-3.104-4.024-5.376-5.304c-2.272-1.279-4.816-1.92-7.632-1.92s-5.368,0.641-7.656,1.92
			c-2.288,1.28-4.088,3.048-5.4,5.304c-1.313,2.256-1.968,4.776-1.968,7.56c0,2.784,0.656,5.304,1.968,7.56
			c1.312,2.256,3.112,4.025,5.4,5.305c2.288,1.279,4.84,1.92,7.656,1.92S53.1,31.517,55.373,30.238z"/>
		<linearGradient id="SVGID_18_" gradientUnits="userSpaceOnUse" x1="-471.229" y1="17.3735" x2="182.9077" y2="17.3735">
			<stop  offset="0.0357" style="stop-color:#D57F87"/>
			<stop  offset="0.1437" style="stop-color:#D78A8D"/>
			<stop  offset="0.3303" style="stop-color:#DDA69E"/>
			<stop  offset="0.3786" style="stop-color:#DFAEA3"/>
			<stop  offset="0.7551" style="stop-color:#E4BBB2"/>
			<stop  offset="1" style="stop-color:#CD787C"/>
		</linearGradient>
		<path fill="url(#SVGID_18_)" d="M96.412,22.605v11.568h-2.448V22.605L80.427,0.573h2.688l12.144,19.776l12.145-19.776h2.543
			L96.412,22.605z"/>
		<linearGradient id="SVGID_19_" gradientUnits="userSpaceOnUse" x1="-471.229" y1="17.3735" x2="182.9077" y2="17.3735">
			<stop  offset="0.0357" style="stop-color:#D57F87"/>
			<stop  offset="0.1437" style="stop-color:#D78A8D"/>
			<stop  offset="0.3303" style="stop-color:#DDA69E"/>
			<stop  offset="0.3786" style="stop-color:#DFAEA3"/>
			<stop  offset="0.7551" style="stop-color:#E4BBB2"/>
			<stop  offset="1" style="stop-color:#CD787C"/>
		</linearGradient>
		<path fill="url(#SVGID_19_)" d="M121.372,32.181c-2.657-1.488-4.745-3.527-6.265-6.119c-1.52-2.593-2.279-5.488-2.279-8.688
			c0-3.2,0.76-6.096,2.279-8.688c1.52-2.592,3.607-4.632,6.265-6.12c2.655-1.488,5.632-2.232,8.929-2.232
			c3.295,0,6.271,0.736,8.928,2.208c2.654,1.472,4.744,3.504,6.264,6.096c1.52,2.592,2.279,5.504,2.279,8.736
			c0,3.232-0.76,6.144-2.279,8.735s-3.609,4.625-6.264,6.097c-2.656,1.472-5.633,2.208-8.928,2.208
			C127.003,34.414,124.027,33.669,121.372,32.181z M137.931,30.238c2.271-1.279,4.064-3.049,5.377-5.305
			c1.311-2.256,1.967-4.776,1.967-7.56c0-2.784-0.656-5.304-1.967-7.56c-1.313-2.256-3.105-4.024-5.377-5.304
			c-2.271-1.279-4.816-1.92-7.631-1.92c-2.816,0-5.369,0.641-7.656,1.92c-2.289,1.28-4.089,3.048-5.4,5.304
			c-1.313,2.256-1.969,4.776-1.969,7.56c0,2.784,0.656,5.304,1.969,7.56c1.312,2.256,3.111,4.025,5.4,5.305
			c2.287,1.279,4.84,1.92,7.656,1.92C133.115,32.158,135.66,31.517,137.931,30.238z"/>
		<linearGradient id="SVGID_20_" gradientUnits="userSpaceOnUse" x1="-471.229" y1="17.3735" x2="182.9077" y2="17.3735">
			<stop  offset="0.0357" style="stop-color:#D57F87"/>
			<stop  offset="0.1437" style="stop-color:#D78A8D"/>
			<stop  offset="0.3303" style="stop-color:#DDA69E"/>
			<stop  offset="0.3786" style="stop-color:#DFAEA3"/>
			<stop  offset="0.7551" style="stop-color:#E4BBB2"/>
			<stop  offset="1" style="stop-color:#CD787C"/>
		</linearGradient>
		<path fill="url(#SVGID_20_)" d="M159.507,30.717c-2.352-2.464-3.527-6.063-3.527-10.8V0.573h2.447v19.248
			c0,4.127,0.944,7.216,2.832,9.264c1.888,2.049,4.624,3.072,8.208,3.072c3.553,0,6.271-1.023,8.16-3.072
			c1.888-2.048,2.832-5.137,2.832-9.264V0.573h2.448v19.344c0,4.736-1.185,8.336-3.552,10.8c-2.369,2.464-5.681,3.696-9.937,3.696
			S161.86,33.181,159.507,30.717z"/>
	</g>
</g>
</svg>
