<?xml version="1.0" encoding="utf-8"?>
<!-- Generator: Adobe Illustrator 16.0.0, SVG Export Plug-In . SVG Version: 6.00 Build 0)  -->
<!DOCTYPE svg PUBLIC "-//W3C//DTD SVG 1.1//EN" "http://www.w3.org/Graphics/SVG/1.1/DTD/svg11.dtd">
<svg version="1.1" id="Layer_1" xmlns="http://www.w3.org/2000/svg" xmlns:xlink="http://www.w3.org/1999/xlink" x="0px" y="0px"
	 width="60.5px" height="35.667px" viewBox="0 0 60.5 35.667" enable-background="new 0 0 60.5 35.667" xml:space="preserve">
<g>
	<g>
		<linearGradient id="SVGID_1_" gradientUnits="userSpaceOnUse" x1="-250.2456" y1="18.3735" x2="60.2148" y2="18.3735">
			<stop  offset="0" style="stop-color:#7FACBF"/>
			<stop  offset="0.1194" style="stop-color:#88B5C5"/>
			<stop  offset="0.3172" style="stop-color:#A2CCD5"/>
			<stop  offset="0.3786" style="stop-color:#ABD5DB"/>
			<stop  offset="0.7551" style="stop-color:#A6D1D4"/>
			<stop  offset="0.9949" style="stop-color:#77B3B8"/>
		</linearGradient>
		<path fill="url(#SVGID_1_)" d="M-241.726,33.206c-2.64-1.472-4.721-3.505-6.24-6.097c-1.52-2.592-2.28-5.503-2.28-8.735
			c0-3.232,0.76-6.144,2.28-8.736c1.52-2.592,3.6-4.624,6.24-6.096c2.64-1.472,5.607-2.208,8.904-2.208
			c2.432,0,4.672,0.392,6.72,1.176c2.047,0.785,3.792,1.944,5.232,3.48l-1.536,1.584c-2.688-2.656-6.128-3.984-10.32-3.984
			c-2.816,0-5.376,0.641-7.68,1.92c-2.304,1.28-4.112,3.048-5.424,5.304c-1.313,2.256-1.968,4.776-1.968,7.56
			s0.656,5.304,1.968,7.56c1.312,2.256,3.12,4.025,5.424,5.305s4.864,1.92,7.68,1.92c4.159,0,7.6-1.344,10.32-4.032l1.536,1.584
			c-1.44,1.536-3.192,2.704-5.256,3.504c-2.064,0.8-4.296,1.2-6.696,1.2C-236.118,35.414-239.086,34.677-241.726,33.206z"/>
		<linearGradient id="SVGID_2_" gradientUnits="userSpaceOnUse" x1="-250.2456" y1="18.3735" x2="60.2148" y2="18.3735">
			<stop  offset="0" style="stop-color:#7FACBF"/>
			<stop  offset="0.1194" style="stop-color:#88B5C5"/>
			<stop  offset="0.3172" style="stop-color:#A2CCD5"/>
			<stop  offset="0.3786" style="stop-color:#ABD5DB"/>
			<stop  offset="0.7551" style="stop-color:#A6D1D4"/>
			<stop  offset="0.9949" style="stop-color:#77B3B8"/>
		</linearGradient>
		<path fill="url(#SVGID_2_)" d="M-207.334,33.181c-2.657-1.488-4.745-3.527-6.264-6.119c-1.52-2.593-2.28-5.488-2.28-8.688
			c0-3.2,0.76-6.096,2.28-8.688c1.52-2.592,3.607-4.632,6.264-6.12c2.656-1.488,5.632-2.232,8.928-2.232s6.271,0.736,8.928,2.208
			c2.656,1.472,4.744,3.504,6.264,6.096c1.52,2.592,2.28,5.504,2.28,8.736c0,3.232-0.76,6.144-2.28,8.735
			c-1.521,2.592-3.608,4.625-6.264,6.097c-2.657,1.472-5.632,2.208-8.928,2.208S-204.679,34.669-207.334,33.181z M-190.774,31.238
			c2.271-1.279,4.063-3.049,5.376-5.305c1.312-2.256,1.968-4.775,1.968-7.56s-0.656-5.304-1.968-7.56
			c-1.313-2.256-3.104-4.024-5.376-5.304c-2.272-1.279-4.816-1.92-7.632-1.92s-5.368,0.641-7.656,1.92
			c-2.288,1.28-4.088,3.048-5.4,5.304c-1.313,2.256-1.968,4.776-1.968,7.56s0.656,5.304,1.968,7.56
			c1.312,2.256,3.112,4.025,5.4,5.305c2.288,1.279,4.84,1.92,7.656,1.92S-193.047,32.517-190.774,31.238z"/>
		<linearGradient id="SVGID_3_" gradientUnits="userSpaceOnUse" x1="-250.2456" y1="18.3735" x2="60.2148" y2="18.3735">
			<stop  offset="0" style="stop-color:#7FACBF"/>
			<stop  offset="0.1194" style="stop-color:#88B5C5"/>
			<stop  offset="0.3172" style="stop-color:#A2CCD5"/>
			<stop  offset="0.3786" style="stop-color:#ABD5DB"/>
			<stop  offset="0.7551" style="stop-color:#A6D1D4"/>
			<stop  offset="0.9949" style="stop-color:#77B3B8"/>
		</linearGradient>
		<path fill="url(#SVGID_3_)" d="M-145.079,1.573v33.6h-2.016L-169.99,5.989v29.184h-2.448v-33.6h2.064l22.848,29.184V1.573
			H-145.079z"/>
		<linearGradient id="SVGID_4_" gradientUnits="userSpaceOnUse" x1="-250.2456" y1="18.3735" x2="60.2148" y2="18.3735">
			<stop  offset="0" style="stop-color:#7FACBF"/>
			<stop  offset="0.1194" style="stop-color:#88B5C5"/>
			<stop  offset="0.3172" style="stop-color:#A2CCD5"/>
			<stop  offset="0.3786" style="stop-color:#ABD5DB"/>
			<stop  offset="0.7551" style="stop-color:#A6D1D4"/>
			<stop  offset="0.9949" style="stop-color:#77B3B8"/>
		</linearGradient>
		<path fill="url(#SVGID_4_)" d="M-126.935,3.781h-12.096V1.573h26.64v2.208h-12.096v31.392h-2.448V3.781z"/>
		<linearGradient id="SVGID_5_" gradientUnits="userSpaceOnUse" x1="-250.2456" y1="18.3735" x2="60.2148" y2="18.3735">
			<stop  offset="0" style="stop-color:#7FACBF"/>
			<stop  offset="0.1194" style="stop-color:#88B5C5"/>
			<stop  offset="0.3172" style="stop-color:#A2CCD5"/>
			<stop  offset="0.3786" style="stop-color:#ABD5DB"/>
			<stop  offset="0.7551" style="stop-color:#A6D1D4"/>
			<stop  offset="0.9949" style="stop-color:#77B3B8"/>
		</linearGradient>
		<path fill="url(#SVGID_5_)" d="M-85.559,25.717h-19.488l-4.272,9.456h-2.64l15.455-33.6h2.449l15.455,33.6h-2.64L-85.559,25.717z
			 M-86.471,23.654l-8.832-19.393l-8.785,19.393H-86.471z"/>
		<linearGradient id="SVGID_6_" gradientUnits="userSpaceOnUse" x1="-250.2456" y1="18.3735" x2="60.2148" y2="18.3735">
			<stop  offset="0" style="stop-color:#7FACBF"/>
			<stop  offset="0.1194" style="stop-color:#88B5C5"/>
			<stop  offset="0.3172" style="stop-color:#A2CCD5"/>
			<stop  offset="0.3786" style="stop-color:#ABD5DB"/>
			<stop  offset="0.7551" style="stop-color:#A6D1D4"/>
			<stop  offset="0.9949" style="stop-color:#77B3B8"/>
		</linearGradient>
		<path fill="url(#SVGID_6_)" d="M-67.199,33.206c-2.641-1.472-4.721-3.505-6.24-6.097c-1.521-2.592-2.28-5.503-2.28-8.735
			c0-3.232,0.76-6.144,2.28-8.736c1.52-2.592,3.6-4.624,6.24-6.096c2.639-1.472,5.607-2.208,8.903-2.208
			c2.432,0,4.672,0.392,6.72,1.176c2.048,0.785,3.793,1.944,5.232,3.48l-1.536,1.584c-2.688-2.656-6.128-3.984-10.319-3.984
			c-2.816,0-5.377,0.641-7.681,1.92c-2.304,1.28-4.112,3.048-5.424,5.304c-1.313,2.256-1.968,4.776-1.968,7.56
			s0.655,5.304,1.968,7.56c1.312,2.256,3.12,4.025,5.424,5.305s4.864,1.92,7.681,1.92c4.158,0,7.6-1.344,10.319-4.032l1.536,1.584
			c-1.439,1.536-3.191,2.704-5.256,3.504s-4.297,1.2-6.696,1.2C-61.592,35.414-64.561,34.677-67.199,33.206z"/>
		<linearGradient id="SVGID_7_" gradientUnits="userSpaceOnUse" x1="-250.2456" y1="18.3735" x2="60.2148" y2="18.3735">
			<stop  offset="0" style="stop-color:#7FACBF"/>
			<stop  offset="0.1194" style="stop-color:#88B5C5"/>
			<stop  offset="0.3172" style="stop-color:#A2CCD5"/>
			<stop  offset="0.3786" style="stop-color:#ABD5DB"/>
			<stop  offset="0.7551" style="stop-color:#A6D1D4"/>
			<stop  offset="0.9949" style="stop-color:#77B3B8"/>
		</linearGradient>
		<path fill="url(#SVGID_7_)" d="M-31.704,3.781h-12.097V1.573h26.641v2.208h-12.096v31.392h-2.448V3.781z"/>
		<linearGradient id="SVGID_8_" gradientUnits="userSpaceOnUse" x1="-250.2456" y1="18.3735" x2="60.2148" y2="18.3735">
			<stop  offset="0" style="stop-color:#7FACBF"/>
			<stop  offset="0.1194" style="stop-color:#88B5C5"/>
			<stop  offset="0.3172" style="stop-color:#A2CCD5"/>
			<stop  offset="0.3786" style="stop-color:#ABD5DB"/>
			<stop  offset="0.7551" style="stop-color:#A6D1D4"/>
			<stop  offset="0.9949" style="stop-color:#77B3B8"/>
		</linearGradient>
		<path fill="url(#SVGID_8_)" d="M4.463,31.717c-2.353-2.464-3.529-6.063-3.529-10.8V1.573h2.449v19.249
			c0,4.127,0.943,7.216,2.832,9.264c1.887,2.049,4.623,3.072,8.207,3.072c3.553,0,6.271-1.023,8.16-3.072
			c1.888-2.048,2.832-5.137,2.832-9.264V1.573h2.448v19.344c0,4.736-1.185,8.336-3.552,10.8c-2.369,2.464-5.681,3.696-9.937,3.696
			S6.814,34.181,4.463,31.717z"/>
		<linearGradient id="SVGID_9_" gradientUnits="userSpaceOnUse" x1="-250.2456" y1="18.3735" x2="60.2148" y2="18.3735">
			<stop  offset="0" style="stop-color:#7FACBF"/>
			<stop  offset="0.1194" style="stop-color:#88B5C5"/>
			<stop  offset="0.3172" style="stop-color:#A2CCD5"/>
			<stop  offset="0.3786" style="stop-color:#ABD5DB"/>
			<stop  offset="0.7551" style="stop-color:#A6D1D4"/>
			<stop  offset="0.9949" style="stop-color:#77B3B8"/>
		</linearGradient>
		<path fill="url(#SVGID_9_)" d="M41.086,34.141c-2.224-0.847-3.959-1.944-5.207-3.288l1.104-1.824
			c1.184,1.248,2.775,2.265,4.776,3.049c1.999,0.784,4.104,1.176,6.312,1.176c3.199,0,5.616-0.607,7.248-1.824
			c1.633-1.216,2.448-2.8,2.448-4.752c0-1.504-0.433-2.703-1.296-3.6c-0.864-0.896-1.937-1.584-3.216-2.064
			c-1.28-0.48-3.009-0.976-5.185-1.488c-2.465-0.607-4.439-1.2-5.928-1.776c-1.488-0.576-2.752-1.464-3.792-2.664
			c-1.04-1.2-1.56-2.808-1.56-4.824c0-1.632,0.432-3.127,1.295-4.488c0.865-1.36,2.185-2.44,3.961-3.24
			c1.775-0.799,3.991-1.2,6.648-1.2c1.855,0,3.679,0.272,5.471,0.816c1.793,0.544,3.344,1.28,4.656,2.208L57.91,6.325
			c-1.344-0.928-2.824-1.632-4.439-2.112c-1.616-0.48-3.209-0.72-4.775-0.72c-3.105,0-5.457,0.624-7.057,1.872
			c-1.601,1.248-2.4,2.864-2.4,4.848c0,1.504,0.433,2.705,1.297,3.6c0.863,0.896,1.936,1.584,3.215,2.064
			c1.28,0.48,3.025,0.992,5.232,1.536c2.464,0.608,4.432,1.2,5.904,1.776c1.472,0.576,2.728,1.449,3.768,2.616
			c1.04,1.169,1.561,2.745,1.561,4.728c0,1.633-0.44,3.121-1.32,4.465c-0.881,1.344-2.232,2.416-4.056,3.216
			c-1.824,0.8-4.064,1.2-6.72,1.2C45.654,35.414,43.311,34.99,41.086,34.141z"/>
	</g>
</g>
</svg>
