<?xml version="1.0" encoding="utf-8"?>
<!-- Generator: Adobe Illustrator 16.0.0, SVG Export Plug-In . SVG Version: 6.00 Build 0)  -->
<!DOCTYPE svg PUBLIC "-//W3C//DTD SVG 1.1//EN" "http://www.w3.org/Graphics/SVG/1.1/DTD/svg11.dtd">
<svg version="1.1" id="Layer_1" xmlns="http://www.w3.org/2000/svg" xmlns:xlink="http://www.w3.org/1999/xlink" x="0px" y="0px"
	 width="245.334px" height="34.583px" viewBox="0 0 245.334 34.583" enable-background="new 0 0 245.334 34.583"
	 xml:space="preserve">
<g>
	<g>
		<linearGradient id="SVGID_1_" gradientUnits="userSpaceOnUse" x1="1.9399" y1="17.29" x2="477.229" y2="17.29">
			<stop  offset="0" style="stop-color:#7FACBF"/>
			<stop  offset="0.1194" style="stop-color:#88B5C5"/>
			<stop  offset="0.3172" style="stop-color:#A2CCD5"/>
			<stop  offset="0.3786" style="stop-color:#ABD5DB"/>
			<stop  offset="0.7551" style="stop-color:#A6D1D4"/>
			<stop  offset="0.9949" style="stop-color:#77B3B8"/>
		</linearGradient>
		<path fill="url(#SVGID_1_)" d="M50.804,0.49l-11.376,33.6h-2.592L26.42,3.946L15.956,34.09h-2.592L1.94,0.49h2.592L14.756,30.73
			L25.268,0.49h2.352l10.464,30.288L48.404,0.49H50.804z"/>
		<linearGradient id="SVGID_2_" gradientUnits="userSpaceOnUse" x1="1.9399" y1="17.29" x2="477.229" y2="17.29">
			<stop  offset="0" style="stop-color:#7FACBF"/>
			<stop  offset="0.1194" style="stop-color:#88B5C5"/>
			<stop  offset="0.3172" style="stop-color:#A2CCD5"/>
			<stop  offset="0.3786" style="stop-color:#ABD5DB"/>
			<stop  offset="0.7551" style="stop-color:#A6D1D4"/>
			<stop  offset="0.9949" style="stop-color:#77B3B8"/>
		</linearGradient>
		<path fill="url(#SVGID_2_)" d="M85.939,0.49v33.6h-2.447V18.106H61.028V34.09H58.58V0.49h2.448v15.456h22.464V0.49H85.939z"/>
		<linearGradient id="SVGID_3_" gradientUnits="userSpaceOnUse" x1="1.9399" y1="17.29" x2="477.229" y2="17.29">
			<stop  offset="0" style="stop-color:#7FACBF"/>
			<stop  offset="0.1194" style="stop-color:#88B5C5"/>
			<stop  offset="0.3172" style="stop-color:#A2CCD5"/>
			<stop  offset="0.3786" style="stop-color:#ABD5DB"/>
			<stop  offset="0.7551" style="stop-color:#A6D1D4"/>
			<stop  offset="0.9949" style="stop-color:#77B3B8"/>
		</linearGradient>
		<path fill="url(#SVGID_3_)" d="M120.835,31.882v2.208H97.652V0.49h22.463v2.208h-20.016v13.248h17.904v2.16h-17.904v13.776
			H120.835z"/>
		<linearGradient id="SVGID_4_" gradientUnits="userSpaceOnUse" x1="1.9399" y1="17.29" x2="477.229" y2="17.29">
			<stop  offset="0" style="stop-color:#7FACBF"/>
			<stop  offset="0.1194" style="stop-color:#88B5C5"/>
			<stop  offset="0.3172" style="stop-color:#A2CCD5"/>
			<stop  offset="0.3786" style="stop-color:#ABD5DB"/>
			<stop  offset="0.7551" style="stop-color:#A6D1D4"/>
			<stop  offset="0.9949" style="stop-color:#77B3B8"/>
		</linearGradient>
		<path fill="url(#SVGID_4_)" d="M153.091,34.09l-8.017-11.232c-1.185,0.161-2.272,0.24-3.265,0.24h-9.6V34.09h-2.447V0.49h12.047
			c4.225,0,7.537,1,9.937,3c2.4,2,3.601,4.776,3.601,8.328c0,2.656-0.681,4.889-2.041,6.696c-1.359,1.809-3.304,3.08-5.832,3.816
			l8.4,11.76H153.091z M141.81,20.938c3.584,0,6.32-0.792,8.209-2.376c1.887-1.584,2.832-3.832,2.832-6.744
			c0-2.912-0.945-5.16-2.832-6.744c-1.889-1.584-4.625-2.376-8.209-2.376h-9.6v18.24H141.81z"/>
		<linearGradient id="SVGID_5_" gradientUnits="userSpaceOnUse" x1="1.9399" y1="17.29" x2="477.229" y2="17.29">
			<stop  offset="0" style="stop-color:#7FACBF"/>
			<stop  offset="0.1194" style="stop-color:#88B5C5"/>
			<stop  offset="0.3172" style="stop-color:#A2CCD5"/>
			<stop  offset="0.3786" style="stop-color:#ABD5DB"/>
			<stop  offset="0.7551" style="stop-color:#A6D1D4"/>
			<stop  offset="0.9949" style="stop-color:#77B3B8"/>
		</linearGradient>
		<path fill="url(#SVGID_5_)" d="M187.506,31.882v2.208h-23.185V0.49h22.465v2.208h-20.016v13.248h17.903v2.16h-17.903v13.776
			H187.506z"/>
		<linearGradient id="SVGID_6_" gradientUnits="userSpaceOnUse" x1="1.9399" y1="17.29" x2="477.229" y2="17.29">
			<stop  offset="0" style="stop-color:#7FACBF"/>
			<stop  offset="0.1194" style="stop-color:#88B5C5"/>
			<stop  offset="0.3172" style="stop-color:#A2CCD5"/>
			<stop  offset="0.3786" style="stop-color:#ABD5DB"/>
			<stop  offset="0.7551" style="stop-color:#A6D1D4"/>
			<stop  offset="0.9949" style="stop-color:#77B3B8"/>
		</linearGradient>
		<path fill="url(#SVGID_6_)" d="M208.769,0.49h2.449v33.6h-2.449V0.49z"/>
		<linearGradient id="SVGID_7_" gradientUnits="userSpaceOnUse" x1="1.9399" y1="17.29" x2="477.229" y2="17.29">
			<stop  offset="0" style="stop-color:#7FACBF"/>
			<stop  offset="0.1194" style="stop-color:#88B5C5"/>
			<stop  offset="0.3172" style="stop-color:#A2CCD5"/>
			<stop  offset="0.3786" style="stop-color:#ABD5DB"/>
			<stop  offset="0.7551" style="stop-color:#A6D1D4"/>
			<stop  offset="0.9949" style="stop-color:#77B3B8"/>
		</linearGradient>
		<path fill="url(#SVGID_7_)" d="M229.361,2.698h-12.096V0.49h26.641v2.208h-12.097V34.09h-2.448V2.698z"/>
		<linearGradient id="SVGID_8_" gradientUnits="userSpaceOnUse" x1="1.9399" y1="17.29" x2="477.229" y2="17.29">
			<stop  offset="0" style="stop-color:#7FACBF"/>
			<stop  offset="0.1194" style="stop-color:#88B5C5"/>
			<stop  offset="0.3172" style="stop-color:#A2CCD5"/>
			<stop  offset="0.3786" style="stop-color:#ABD5DB"/>
			<stop  offset="0.7551" style="stop-color:#A6D1D4"/>
			<stop  offset="0.9949" style="stop-color:#77B3B8"/>
		</linearGradient>
		<path fill="url(#SVGID_8_)" d="M264.087,33.058c-2.224-0.847-3.959-1.944-5.207-3.288l1.104-1.824
			c1.184,1.248,2.775,2.265,4.776,3.049c1.999,0.784,4.104,1.176,6.312,1.176c3.199,0,5.616-0.607,7.248-1.824
			c1.633-1.216,2.448-2.8,2.448-4.752c0-1.504-0.433-2.703-1.296-3.6c-0.864-0.896-1.937-1.584-3.216-2.064
			c-1.28-0.48-3.009-0.976-5.185-1.488c-2.465-0.607-4.439-1.2-5.928-1.776c-1.488-0.576-2.752-1.464-3.792-2.664
			c-1.04-1.2-1.56-2.808-1.56-4.824c0-1.632,0.432-3.127,1.295-4.488c0.865-1.36,2.185-2.44,3.961-3.24
			c1.775-0.799,3.991-1.2,6.648-1.2c1.855,0,3.679,0.272,5.471,0.816c1.793,0.544,3.344,1.28,4.656,2.208l-0.912,1.968
			c-1.344-0.928-2.824-1.632-4.439-2.112c-1.616-0.48-3.209-0.72-4.775-0.72c-3.105,0-5.457,0.624-7.057,1.872
			c-1.601,1.248-2.4,2.864-2.4,4.848c0,1.504,0.433,2.705,1.297,3.6c0.863,0.896,1.936,1.584,3.215,2.064
			c1.28,0.48,3.025,0.992,5.232,1.536c2.464,0.608,4.432,1.2,5.904,1.776c1.472,0.576,2.728,1.448,3.768,2.616
			c1.04,1.169,1.561,2.745,1.561,4.728c0,1.633-0.44,3.121-1.32,4.465c-0.881,1.344-2.232,2.416-4.056,3.216
			c-1.824,0.8-4.064,1.2-6.72,1.2C268.656,34.33,266.312,33.906,264.087,33.058z"/>
		<linearGradient id="SVGID_9_" gradientUnits="userSpaceOnUse" x1="1.9399" y1="17.29" x2="477.229" y2="17.29">
			<stop  offset="0" style="stop-color:#7FACBF"/>
			<stop  offset="0.1194" style="stop-color:#88B5C5"/>
			<stop  offset="0.3172" style="stop-color:#A2CCD5"/>
			<stop  offset="0.3786" style="stop-color:#ABD5DB"/>
			<stop  offset="0.7551" style="stop-color:#A6D1D4"/>
			<stop  offset="0.9949" style="stop-color:#77B3B8"/>
		</linearGradient>
		<path fill="url(#SVGID_9_)" d="M297.952,2.698h-12.097V0.49h26.641v2.208H300.4V34.09h-2.448V2.698z"/>
		<linearGradient id="SVGID_10_" gradientUnits="userSpaceOnUse" x1="1.9399" y1="17.29" x2="477.229" y2="17.29">
			<stop  offset="0" style="stop-color:#7FACBF"/>
			<stop  offset="0.1194" style="stop-color:#88B5C5"/>
			<stop  offset="0.3172" style="stop-color:#A2CCD5"/>
			<stop  offset="0.3786" style="stop-color:#ABD5DB"/>
			<stop  offset="0.7551" style="stop-color:#A6D1D4"/>
			<stop  offset="0.9949" style="stop-color:#77B3B8"/>
		</linearGradient>
		<path fill="url(#SVGID_10_)" d="M339.328,24.634h-19.488l-4.272,9.456h-2.64l15.455-33.6h2.449l15.455,33.6h-2.64L339.328,24.634z
			 M338.416,22.57l-8.832-19.393l-8.785,19.393H338.416z"/>
		<linearGradient id="SVGID_11_" gradientUnits="userSpaceOnUse" x1="1.9399" y1="17.29" x2="477.229" y2="17.29">
			<stop  offset="0" style="stop-color:#7FACBF"/>
			<stop  offset="0.1194" style="stop-color:#88B5C5"/>
			<stop  offset="0.3172" style="stop-color:#A2CCD5"/>
			<stop  offset="0.3786" style="stop-color:#ABD5DB"/>
			<stop  offset="0.7551" style="stop-color:#A6D1D4"/>
			<stop  offset="0.9949" style="stop-color:#77B3B8"/>
		</linearGradient>
		<path fill="url(#SVGID_11_)" d="M375.71,34.09l-8.016-11.232c-1.184,0.161-2.272,0.24-3.264,0.24h-9.6V34.09h-2.449V0.49h12.049
			c4.224,0,7.535,1,9.936,3c2.4,2,3.6,4.776,3.6,8.328c0,2.656-0.68,4.889-2.039,6.696c-1.361,1.809-3.305,3.08-5.832,3.816
			l8.399,11.76H375.71z M364.431,20.938c3.583,0,6.319-0.792,8.207-2.376c1.889-1.584,2.832-3.832,2.832-6.744
			c0-2.912-0.943-5.16-2.832-6.744c-1.888-1.584-4.624-2.376-8.207-2.376h-9.6v18.24H364.431z"/>
		<linearGradient id="SVGID_12_" gradientUnits="userSpaceOnUse" x1="1.9399" y1="17.29" x2="477.229" y2="17.29">
			<stop  offset="0" style="stop-color:#7FACBF"/>
			<stop  offset="0.1194" style="stop-color:#88B5C5"/>
			<stop  offset="0.3172" style="stop-color:#A2CCD5"/>
			<stop  offset="0.3786" style="stop-color:#ABD5DB"/>
			<stop  offset="0.7551" style="stop-color:#A6D1D4"/>
			<stop  offset="0.9949" style="stop-color:#77B3B8"/>
		</linearGradient>
		<path fill="url(#SVGID_12_)" d="M393.375,2.698h-12.097V0.49h26.64v2.208h-12.096V34.09h-2.447V2.698z"/>
		<linearGradient id="SVGID_13_" gradientUnits="userSpaceOnUse" x1="1.9399" y1="17.29" x2="477.229" y2="17.29">
			<stop  offset="0" style="stop-color:#7FACBF"/>
			<stop  offset="0.1194" style="stop-color:#88B5C5"/>
			<stop  offset="0.3172" style="stop-color:#A2CCD5"/>
			<stop  offset="0.3786" style="stop-color:#ABD5DB"/>
			<stop  offset="0.7551" style="stop-color:#A6D1D4"/>
			<stop  offset="0.9949" style="stop-color:#77B3B8"/>
		</linearGradient>
		<path fill="url(#SVGID_13_)" d="M437.15,31.882v2.208h-23.185V0.49h22.464v2.208h-20.016v13.248h17.904v2.16h-17.904v13.776
			H437.15z"/>
		<linearGradient id="SVGID_14_" gradientUnits="userSpaceOnUse" x1="1.9399" y1="17.29" x2="477.229" y2="17.29">
			<stop  offset="0" style="stop-color:#7FACBF"/>
			<stop  offset="0.1194" style="stop-color:#88B5C5"/>
			<stop  offset="0.3172" style="stop-color:#A2CCD5"/>
			<stop  offset="0.3786" style="stop-color:#ABD5DB"/>
			<stop  offset="0.7551" style="stop-color:#A6D1D4"/>
			<stop  offset="0.9949" style="stop-color:#77B3B8"/>
		</linearGradient>
		<path fill="url(#SVGID_14_)" d="M446.078,0.49h13.295c3.488,0,6.584,0.72,9.289,2.16c2.703,1.44,4.807,3.432,6.312,5.976
			c1.504,2.544,2.256,5.432,2.256,8.664c0,3.232-0.752,6.12-2.256,8.663c-1.505,2.545-3.608,4.537-6.312,5.977
			c-2.705,1.439-5.801,2.16-9.289,2.16h-13.295V0.49z M459.181,31.882c3.104,0,5.84-0.616,8.208-1.849
			c2.368-1.23,4.192-2.951,5.472-5.159s1.92-4.736,1.92-7.584s-0.641-5.376-1.92-7.584s-3.104-3.928-5.472-5.16
			c-2.368-1.231-5.104-1.848-8.208-1.848h-10.656v29.184H459.181z"/>
	</g>
</g>
</svg>
