<?xml version="1.0" encoding="utf-8"?>
<!-- Generator: Adobe Illustrator 16.0.0, SVG Export Plug-In . SVG Version: 6.00 Build 0)  -->
<!DOCTYPE svg PUBLIC "-//W3C//DTD SVG 1.1//EN" "http://www.w3.org/Graphics/SVG/1.1/DTD/svg11.dtd">
<svg version="1.1" id="Layer_1" xmlns="http://www.w3.org/2000/svg" xmlns:xlink="http://www.w3.org/1999/xlink" x="0px" y="0px"
	 width="327.5px" height="34.583px" viewBox="0 0 327.5 34.583" enable-background="new 0 0 327.5 34.583" xml:space="preserve">
<g>
	<g>
		
			<linearGradient id="SVGID_1_" gradientUnits="userSpaceOnUse" x1="-709.4053" y1="726.2925" x2="74.2814" y2="726.2925" gradientTransform="matrix(1 0 0 -1 315 743.583)">
			<stop  offset="0" style="stop-color:#7FACBF"/>
			<stop  offset="0.1194" style="stop-color:#88B5C5"/>
			<stop  offset="0.3172" style="stop-color:#A2CCD5"/>
			<stop  offset="0.3786" style="stop-color:#ABD5DB"/>
			<stop  offset="0.7551" style="stop-color:#A6D1D4"/>
			<stop  offset="0.9949" style="stop-color:#77B3B8"/>
		</linearGradient>
		<path fill="url(#SVGID_1_)" d="M-368.005,24.633h-19.488l-4.272,9.457h-2.64l15.456-33.6h2.448l15.456,33.6h-2.64L-368.005,24.633
			z M-368.917,22.57l-8.832-19.393l-8.784,19.393H-368.917z"/>
		
			<linearGradient id="SVGID_2_" gradientUnits="userSpaceOnUse" x1="-709.4053" y1="726.2925" x2="74.2814" y2="726.2925" gradientTransform="matrix(1 0 0 -1 315 743.583)">
			<stop  offset="0" style="stop-color:#7FACBF"/>
			<stop  offset="0.1194" style="stop-color:#88B5C5"/>
			<stop  offset="0.3172" style="stop-color:#A2CCD5"/>
			<stop  offset="0.3786" style="stop-color:#ABD5DB"/>
			<stop  offset="0.7551" style="stop-color:#A6D1D4"/>
			<stop  offset="0.9949" style="stop-color:#77B3B8"/>
		</linearGradient>
		<path fill="url(#SVGID_2_)" d="M-349.646,32.122c-2.64-1.472-4.721-3.504-6.24-6.097c-1.52-2.592-2.28-5.503-2.28-8.735
			s0.76-6.144,2.28-8.736c1.52-2.592,3.6-4.624,6.24-6.096s5.607-2.208,8.904-2.208c2.432,0,4.672,0.392,6.72,1.176
			c2.047,0.785,3.792,1.944,5.232,3.48l-1.536,1.584c-2.688-2.656-6.128-3.984-10.32-3.984c-2.816,0-5.376,0.641-7.68,1.92
			c-2.304,1.28-4.112,3.048-5.424,5.304c-1.313,2.256-1.968,4.776-1.968,7.56c0,2.785,0.656,5.304,1.968,7.56
			s3.12,4.025,5.424,5.305c2.304,1.28,4.864,1.92,7.68,1.92c4.159,0,7.6-1.344,10.32-4.031l1.536,1.584
			c-1.44,1.535-3.192,2.703-5.256,3.504c-2.064,0.8-4.296,1.199-6.696,1.199C-344.039,34.331-347.006,33.594-349.646,32.122z"/>
		
			<linearGradient id="SVGID_3_" gradientUnits="userSpaceOnUse" x1="-709.4053" y1="726.2925" x2="74.2814" y2="726.2925" gradientTransform="matrix(1 0 0 -1 315 743.583)">
			<stop  offset="0" style="stop-color:#7FACBF"/>
			<stop  offset="0.1194" style="stop-color:#88B5C5"/>
			<stop  offset="0.3172" style="stop-color:#A2CCD5"/>
			<stop  offset="0.3786" style="stop-color:#ABD5DB"/>
			<stop  offset="0.7551" style="stop-color:#A6D1D4"/>
			<stop  offset="0.9949" style="stop-color:#77B3B8"/>
		</linearGradient>
		<path fill="url(#SVGID_3_)" d="M-293.223,0.49v33.6h-2.447V18.106h-22.465V34.09h-2.447V0.49h2.447v15.456h22.465V0.49H-293.223z"
			/>
		
			<linearGradient id="SVGID_4_" gradientUnits="userSpaceOnUse" x1="-709.4053" y1="726.2925" x2="74.2814" y2="726.2925" gradientTransform="matrix(1 0 0 -1 315 743.583)">
			<stop  offset="0" style="stop-color:#7FACBF"/>
			<stop  offset="0.1194" style="stop-color:#88B5C5"/>
			<stop  offset="0.3172" style="stop-color:#A2CCD5"/>
			<stop  offset="0.3786" style="stop-color:#ABD5DB"/>
			<stop  offset="0.7551" style="stop-color:#A6D1D4"/>
			<stop  offset="0.9949" style="stop-color:#77B3B8"/>
		</linearGradient>
		<path fill="url(#SVGID_4_)" d="M-281.512,0.49h2.449v33.6h-2.449V0.49z"/>
		
			<linearGradient id="SVGID_5_" gradientUnits="userSpaceOnUse" x1="-709.4053" y1="726.2925" x2="74.2814" y2="726.2925" gradientTransform="matrix(1 0 0 -1 315 743.583)">
			<stop  offset="0" style="stop-color:#7FACBF"/>
			<stop  offset="0.1194" style="stop-color:#88B5C5"/>
			<stop  offset="0.3172" style="stop-color:#A2CCD5"/>
			<stop  offset="0.3786" style="stop-color:#ABD5DB"/>
			<stop  offset="0.7551" style="stop-color:#A6D1D4"/>
			<stop  offset="0.9949" style="stop-color:#77B3B8"/>
		</linearGradient>
		<path fill="url(#SVGID_5_)" d="M-244.167,31.881v2.209h-23.185V0.49h22.465v2.208h-20.016v13.248H-247v2.16h-17.903v13.775
			H-244.167z"/>
		
			<linearGradient id="SVGID_6_" gradientUnits="userSpaceOnUse" x1="-709.4053" y1="726.2925" x2="74.2814" y2="726.2925" gradientTransform="matrix(1 0 0 -1 315 743.583)">
			<stop  offset="0" style="stop-color:#7FACBF"/>
			<stop  offset="0.1194" style="stop-color:#88B5C5"/>
			<stop  offset="0.3172" style="stop-color:#A2CCD5"/>
			<stop  offset="0.3786" style="stop-color:#ABD5DB"/>
			<stop  offset="0.7551" style="stop-color:#A6D1D4"/>
			<stop  offset="0.9949" style="stop-color:#77B3B8"/>
		</linearGradient>
		<path fill="url(#SVGID_6_)" d="M-208.408,0.49l-14.976,33.6h-2.448l-14.976-33.6h2.688l13.584,30.432l13.584-30.432H-208.408z"/>
		
			<linearGradient id="SVGID_7_" gradientUnits="userSpaceOnUse" x1="-709.4053" y1="726.2925" x2="74.2813" y2="726.2925" gradientTransform="matrix(1 0 0 -1 315 743.583)">
			<stop  offset="0" style="stop-color:#7FACBF"/>
			<stop  offset="0.1194" style="stop-color:#88B5C5"/>
			<stop  offset="0.3172" style="stop-color:#A2CCD5"/>
			<stop  offset="0.3786" style="stop-color:#ABD5DB"/>
			<stop  offset="0.7551" style="stop-color:#A6D1D4"/>
			<stop  offset="0.9949" style="stop-color:#77B3B8"/>
		</linearGradient>
		<path fill="url(#SVGID_7_)" d="M-179.08,31.881v2.209h-23.184V0.49h22.464v2.208h-20.016v13.248h17.903v2.16h-17.903v13.775
			H-179.08z"/>
		
			<linearGradient id="SVGID_8_" gradientUnits="userSpaceOnUse" x1="-709.4053" y1="726.2925" x2="74.2814" y2="726.2925" gradientTransform="matrix(1 0 0 -1 315 743.583)">
			<stop  offset="0" style="stop-color:#7FACBF"/>
			<stop  offset="0.1194" style="stop-color:#88B5C5"/>
			<stop  offset="0.3172" style="stop-color:#A2CCD5"/>
			<stop  offset="0.3786" style="stop-color:#ABD5DB"/>
			<stop  offset="0.7551" style="stop-color:#A6D1D4"/>
			<stop  offset="0.9949" style="stop-color:#77B3B8"/>
		</linearGradient>
		<path fill="url(#SVGID_8_)" d="M-112.889,0.49l-11.376,33.6h-2.593l-10.416-30.144l-10.463,30.144h-2.592l-11.425-33.6h2.593
			l10.223,30.241l10.513-30.241h2.353l10.463,30.288l10.32-30.288H-112.889z"/>
		
			<linearGradient id="SVGID_9_" gradientUnits="userSpaceOnUse" x1="-709.4053" y1="726.2925" x2="74.2814" y2="726.2925" gradientTransform="matrix(1 0 0 -1 315 743.583)">
			<stop  offset="0" style="stop-color:#7FACBF"/>
			<stop  offset="0.1194" style="stop-color:#88B5C5"/>
			<stop  offset="0.3172" style="stop-color:#A2CCD5"/>
			<stop  offset="0.3786" style="stop-color:#ABD5DB"/>
			<stop  offset="0.7551" style="stop-color:#A6D1D4"/>
			<stop  offset="0.9949" style="stop-color:#77B3B8"/>
		</linearGradient>
		<path fill="url(#SVGID_9_)" d="M-77.753,0.49v33.6h-2.448V18.106h-22.463V34.09h-2.449V0.49h2.449v15.456h22.463V0.49H-77.753z"/>
		
			<linearGradient id="SVGID_10_" gradientUnits="userSpaceOnUse" x1="-709.4053" y1="726.2925" x2="74.2814" y2="726.2925" gradientTransform="matrix(1 0 0 -1 315 743.583)">
			<stop  offset="0" style="stop-color:#7FACBF"/>
			<stop  offset="0.1194" style="stop-color:#88B5C5"/>
			<stop  offset="0.3172" style="stop-color:#A2CCD5"/>
			<stop  offset="0.3786" style="stop-color:#ABD5DB"/>
			<stop  offset="0.7551" style="stop-color:#A6D1D4"/>
			<stop  offset="0.9949" style="stop-color:#77B3B8"/>
		</linearGradient>
		<path fill="url(#SVGID_10_)" d="M-45.258,24.633h-19.488l-4.271,9.457h-2.64l15.456-33.6h2.447l15.457,33.6h-2.641L-45.258,24.633
			z M-46.17,22.57l-8.832-19.393l-8.783,19.393H-46.17z"/>
		
			<linearGradient id="SVGID_11_" gradientUnits="userSpaceOnUse" x1="-709.4053" y1="726.2925" x2="74.2814" y2="726.2925" gradientTransform="matrix(1 0 0 -1 315 743.583)">
			<stop  offset="0" style="stop-color:#7FACBF"/>
			<stop  offset="0.1194" style="stop-color:#88B5C5"/>
			<stop  offset="0.3172" style="stop-color:#A2CCD5"/>
			<stop  offset="0.3786" style="stop-color:#ABD5DB"/>
			<stop  offset="0.7551" style="stop-color:#A6D1D4"/>
			<stop  offset="0.9949" style="stop-color:#77B3B8"/>
		</linearGradient>
		<path fill="url(#SVGID_11_)" d="M-25.77,2.698h-12.096V0.49h26.64v2.208h-12.097V34.09h-2.447V2.698z"/>
		
			<linearGradient id="SVGID_12_" gradientUnits="userSpaceOnUse" x1="-709.4053" y1="726.2925" x2="74.2814" y2="726.2925" gradientTransform="matrix(1 0 0 -1 315 743.583)">
			<stop  offset="0" style="stop-color:#7FACBF"/>
			<stop  offset="0.1194" style="stop-color:#88B5C5"/>
			<stop  offset="0.3172" style="stop-color:#A2CCD5"/>
			<stop  offset="0.3786" style="stop-color:#ABD5DB"/>
			<stop  offset="0.7551" style="stop-color:#A6D1D4"/>
			<stop  offset="0.9949" style="stop-color:#77B3B8"/>
		</linearGradient>
		<path fill="url(#SVGID_12_)" d="M17.525,22.521V34.09h-2.449V22.521L1.541,0.49h2.688l12.145,19.776L28.517,0.49h2.544
			L17.525,22.521z"/>
		
			<linearGradient id="SVGID_13_" gradientUnits="userSpaceOnUse" x1="-709.4053" y1="726.2925" x2="74.2814" y2="726.2925" gradientTransform="matrix(1 0 0 -1 315 743.583)">
			<stop  offset="0" style="stop-color:#7FACBF"/>
			<stop  offset="0.1194" style="stop-color:#88B5C5"/>
			<stop  offset="0.3172" style="stop-color:#A2CCD5"/>
			<stop  offset="0.3786" style="stop-color:#ABD5DB"/>
			<stop  offset="0.7551" style="stop-color:#A6D1D4"/>
			<stop  offset="0.9949" style="stop-color:#77B3B8"/>
		</linearGradient>
		<path fill="url(#SVGID_13_)" d="M42.484,32.098c-2.656-1.488-4.744-3.527-6.264-6.119c-1.52-2.594-2.279-5.488-2.279-8.688
			c0-3.2,0.76-6.096,2.279-8.688c1.52-2.592,3.607-4.632,6.264-6.12c2.656-1.488,5.633-2.232,8.928-2.232
			c3.297,0,6.271,0.736,8.929,2.208c2.655,1.472,4.743,3.504,6.265,6.096c1.52,2.592,2.279,5.504,2.279,8.736
			s-0.76,6.144-2.279,8.735c-1.521,2.592-3.609,4.625-6.265,6.098c-2.657,1.471-5.632,2.207-8.929,2.207
			C48.117,34.331,45.141,33.586,42.484,32.098z M59.045,30.155c2.271-1.279,4.063-3.05,5.376-5.306
			c1.312-2.257,1.968-4.776,1.968-7.56c0-2.784-0.656-5.304-1.968-7.56c-1.313-2.256-3.104-4.024-5.376-5.304
			c-2.272-1.279-4.816-1.92-7.633-1.92c-2.815,0-5.367,0.641-7.655,1.92c-2.288,1.28-4.089,3.048-5.399,5.304
			c-1.313,2.256-1.969,4.776-1.969,7.56c0,2.784,0.656,5.303,1.969,7.56c1.311,2.256,3.111,4.024,5.399,5.306
			c2.288,1.279,4.84,1.92,7.655,1.92C54.229,32.075,56.772,31.434,59.045,30.155z"/>
		
			<linearGradient id="SVGID_14_" gradientUnits="userSpaceOnUse" x1="-709.4053" y1="726.1724" x2="74.2814" y2="726.1724" gradientTransform="matrix(1 0 0 -1 315 743.583)">
			<stop  offset="0" style="stop-color:#7FACBF"/>
			<stop  offset="0.1194" style="stop-color:#88B5C5"/>
			<stop  offset="0.3172" style="stop-color:#A2CCD5"/>
			<stop  offset="0.3786" style="stop-color:#ABD5DB"/>
			<stop  offset="0.7551" style="stop-color:#A6D1D4"/>
			<stop  offset="0.9949" style="stop-color:#77B3B8"/>
		</linearGradient>
		<path fill="url(#SVGID_14_)" d="M80.621,30.633c-2.352-2.463-3.528-6.063-3.528-10.799V0.49h2.448v19.249
			c0,4.127,0.943,7.215,2.832,9.264c1.888,2.049,4.623,3.072,8.208,3.072c3.552,0,6.271-1.023,8.159-3.072
			c1.889-2.049,2.832-5.137,2.832-9.264V0.49h2.449v19.344c0,4.735-1.186,8.336-3.553,10.799c-2.368,2.465-5.68,3.697-9.936,3.697
			C86.276,34.331,82.973,33.098,80.621,30.633z"/>
		
			<linearGradient id="SVGID_15_" gradientUnits="userSpaceOnUse" x1="-709.4053" y1="726.2925" x2="74.2814" y2="726.2925" gradientTransform="matrix(1 0 0 -1 315 743.583)">
			<stop  offset="0" style="stop-color:#7FACBF"/>
			<stop  offset="0.1194" style="stop-color:#88B5C5"/>
			<stop  offset="0.3172" style="stop-color:#A2CCD5"/>
			<stop  offset="0.3786" style="stop-color:#ABD5DB"/>
			<stop  offset="0.7551" style="stop-color:#A6D1D4"/>
			<stop  offset="0.9949" style="stop-color:#77B3B8"/>
		</linearGradient>
		<path fill="url(#SVGID_15_)" d="M153.244,19.594c1.264,1.439,1.896,3.313,1.896,5.615c0,2.85-1.041,5.041-3.12,6.576
			c-2.081,1.537-5.169,2.305-9.265,2.305H127.78V0.49h14.017c3.647,0,6.486,0.744,8.52,2.232c2.031,1.488,3.048,3.608,3.048,6.36
			c0,1.92-0.504,3.536-1.512,4.848c-1.009,1.313-2.376,2.256-4.104,2.832C150.148,17.21,151.98,18.155,153.244,19.594z
			 M130.229,2.602v13.392H141.7c2.944,0,5.208-0.567,6.792-1.704c1.584-1.136,2.376-2.808,2.376-5.016
			c0-2.176-0.792-3.832-2.376-4.968c-1.584-1.135-3.848-1.704-6.792-1.704H130.229z M150.172,30.273
			c1.681-1.136,2.521-2.888,2.521-5.256c0-2.367-0.84-4.11-2.521-5.231c-1.68-1.121-4.151-1.681-7.416-1.681h-12.527v13.873h12.527
			C146.021,31.979,148.492,31.411,150.172,30.273z"/>
		
			<linearGradient id="SVGID_16_" gradientUnits="userSpaceOnUse" x1="-709.4053" y1="726.2925" x2="74.2813" y2="726.2925" gradientTransform="matrix(1 0 0 -1 315 743.583)">
			<stop  offset="0" style="stop-color:#7FACBF"/>
			<stop  offset="0.1194" style="stop-color:#88B5C5"/>
			<stop  offset="0.3172" style="stop-color:#A2CCD5"/>
			<stop  offset="0.3786" style="stop-color:#ABD5DB"/>
			<stop  offset="0.7551" style="stop-color:#A6D1D4"/>
			<stop  offset="0.9949" style="stop-color:#77B3B8"/>
		</linearGradient>
		<path fill="url(#SVGID_16_)" d="M187.061,31.881v2.209h-23.184V0.49h22.463v2.208h-20.016v13.248h17.904v2.16h-17.904v13.775
			H187.061z"/>
		
			<linearGradient id="SVGID_17_" gradientUnits="userSpaceOnUse" x1="-709.3916" y1="726.2925" x2="74.2775" y2="726.2925" gradientTransform="matrix(1 0 0 -1 315 743.583)">
			<stop  offset="0" style="stop-color:#7FACBF"/>
			<stop  offset="0.1194" style="stop-color:#88B5C5"/>
			<stop  offset="0.3172" style="stop-color:#A2CCD5"/>
			<stop  offset="0.3786" style="stop-color:#ABD5DB"/>
			<stop  offset="0.7551" style="stop-color:#A6D1D4"/>
			<stop  offset="0.9949" style="stop-color:#77B3B8"/>
		</linearGradient>
		<path fill="url(#SVGID_17_)" d="M195.988,0.49h2.447v31.391h19.345v2.209h-21.792V0.49z"/>
		
			<linearGradient id="SVGID_18_" gradientUnits="userSpaceOnUse" x1="-709.4058" y1="726.2925" x2="74.2809" y2="726.2925" gradientTransform="matrix(1 0 0 -1 315 743.583)">
			<stop  offset="0" style="stop-color:#7FACBF"/>
			<stop  offset="0.1194" style="stop-color:#88B5C5"/>
			<stop  offset="0.3172" style="stop-color:#A2CCD5"/>
			<stop  offset="0.3786" style="stop-color:#ABD5DB"/>
			<stop  offset="0.7551" style="stop-color:#A6D1D4"/>
			<stop  offset="0.9949" style="stop-color:#77B3B8"/>
		</linearGradient>
		<path fill="url(#SVGID_18_)" d="M224.066,0.49h2.447v33.6h-2.447V0.49z"/>
		
			<linearGradient id="SVGID_19_" gradientUnits="userSpaceOnUse" x1="-709.4189" y1="726.2925" x2="74.2842" y2="726.2925" gradientTransform="matrix(1 0 0 -1 315 743.583)">
			<stop  offset="0" style="stop-color:#7FACBF"/>
			<stop  offset="0.1194" style="stop-color:#88B5C5"/>
			<stop  offset="0.3172" style="stop-color:#A2CCD5"/>
			<stop  offset="0.3786" style="stop-color:#ABD5DB"/>
			<stop  offset="0.7551" style="stop-color:#A6D1D4"/>
			<stop  offset="0.9949" style="stop-color:#77B3B8"/>
		</linearGradient>
		<path fill="url(#SVGID_19_)" d="M261.411,31.881v2.209h-23.185V0.49h22.465v2.208h-20.018v13.248h17.904v2.16h-17.904v13.775
			H261.411z"/>
		
			<linearGradient id="SVGID_20_" gradientUnits="userSpaceOnUse" x1="-709.4155" y1="726.2925" x2="74.2829" y2="726.2925" gradientTransform="matrix(1 0 0 -1 315 743.583)">
			<stop  offset="0" style="stop-color:#7FACBF"/>
			<stop  offset="0.1194" style="stop-color:#88B5C5"/>
			<stop  offset="0.3172" style="stop-color:#A2CCD5"/>
			<stop  offset="0.3786" style="stop-color:#ABD5DB"/>
			<stop  offset="0.7551" style="stop-color:#A6D1D4"/>
			<stop  offset="0.9949" style="stop-color:#77B3B8"/>
		</linearGradient>
		<path fill="url(#SVGID_20_)" d="M297.171,0.49l-14.978,33.6h-2.447L264.77,0.49h2.688l13.584,30.432L294.626,0.49H297.171z"/>
		
			<linearGradient id="SVGID_21_" gradientUnits="userSpaceOnUse" x1="-709.4204" y1="726.2925" x2="74.2827" y2="726.2925" gradientTransform="matrix(1 0 0 -1 315 743.583)">
			<stop  offset="0" style="stop-color:#7FACBF"/>
			<stop  offset="0.1194" style="stop-color:#88B5C5"/>
			<stop  offset="0.3172" style="stop-color:#A2CCD5"/>
			<stop  offset="0.3786" style="stop-color:#ABD5DB"/>
			<stop  offset="0.7551" style="stop-color:#A6D1D4"/>
			<stop  offset="0.9949" style="stop-color:#77B3B8"/>
		</linearGradient>
		<path fill="url(#SVGID_21_)" d="M326.499,31.881v2.209h-23.185V0.49h22.465v2.208h-20.018v13.248h17.904v2.16h-17.904v13.775
			H326.499z"/>
	</g>
</g>
</svg>
